# Blender 5.1.1
# www.blender.org
mtllib base.mtl
g base_Cube.001
v 3.128780 -0.032062 -1.940315
v 3.128780 0.041995 -1.940315
v 3.128780 -0.032062 1.907184
v 3.128780 0.041995 1.907184
v -2.921864 -0.032062 -1.940315
v -2.921864 0.041995 -1.940315
v -2.921864 -0.032062 1.907184
v -2.921864 0.041995 1.907184
v 2.988633 0.516827 0.496406
v 1.469400 0.516826 0.496406
v 2.988633 0.425641 0.486600
v 1.469400 0.425641 0.486600
v 2.988633 0.337960 0.457560
v 1.469400 0.337960 0.457560
v 2.988633 0.257153 0.410400
v 1.469400 0.257153 0.410400
v 2.988633 0.186324 0.346934
v 1.469400 0.186324 0.346934
v 2.988633 0.128197 0.269601
v 1.469400 0.128197 0.269601
v 2.988633 0.085005 0.181372
v 1.469400 0.085005 0.181372
v 2.988633 0.058407 0.085638
v 1.469400 0.058407 0.085638
v 2.988633 0.049426 -0.013923
v 1.469400 0.049426 -0.013923
v 2.988633 0.058407 -0.113483
v 1.469400 0.058407 -0.113483
v 2.988633 0.085005 -0.209217
v 1.469400 0.085005 -0.209217
v 2.988633 0.128197 -0.297446
v 1.469400 0.128197 -0.297446
v 2.988633 0.186324 -0.374780
v 1.469400 0.186324 -0.374780
v 2.988633 0.257153 -0.438246
v 1.469400 0.257153 -0.438246
v 2.988633 0.337960 -0.485405
v 1.469400 0.337960 -0.485405
v 2.988633 0.425641 -0.514446
v 1.469400 0.425641 -0.514446
v 2.988633 0.516827 -0.524252
v 1.469400 0.516826 -0.524252
v 2.988633 0.608012 -0.514446
v 1.469400 0.608012 -0.514446
v 2.988633 0.695693 -0.485405
v 1.469400 0.695693 -0.485405
v 2.988633 0.776500 -0.438246
v 1.469400 0.776500 -0.438246
v 2.988633 0.847329 -0.374780
v 1.469400 0.847329 -0.374780
v 2.988633 0.905456 -0.297446
v 1.469400 0.905456 -0.297446
v 2.988633 0.948649 -0.209217
v 1.469400 0.948648 -0.209217
v 2.988633 0.975246 -0.113483
v 1.469400 0.975246 -0.113483
v 2.988633 0.984227 -0.013923
v 1.469400 0.984227 -0.013923
v 2.988633 0.975246 0.085638
v 1.469400 0.975246 0.085638
v 2.988633 0.948649 0.181372
v 1.469400 0.948648 0.181372
v 2.988633 0.905456 0.269601
v 1.469400 0.905456 0.269601
v 2.988633 0.847329 0.346934
v 1.469400 0.847329 0.346934
v 2.988633 0.776500 0.410400
v 1.469400 0.776500 0.410400
v 2.988633 0.695693 0.457560
v 1.469400 0.695693 0.457560
v 2.988633 0.608012 0.486600
v 1.469400 0.608012 0.486600
v 2.988633 0.516827 0.496406
v 2.988633 0.425641 0.486600
v 2.988633 0.337960 0.457560
v 2.988633 0.257153 0.410400
v 2.988633 0.186324 0.346934
v 2.988633 0.128197 0.269601
v 2.988633 0.085005 0.181372
v 2.988633 0.058407 0.085638
v 2.988633 0.049426 -0.013923
v 2.988633 0.058407 -0.113483
v 2.988633 0.085005 -0.209217
v 2.988633 0.128197 -0.297446
v 2.988633 0.186324 -0.374780
v 2.988633 0.257153 -0.438246
v 2.988633 0.337960 -0.485405
v 2.988633 0.425641 -0.514446
v 2.988633 0.516827 -0.524252
v 2.988633 0.608012 -0.514446
v 2.988633 0.695693 -0.485405
v 2.988633 0.776500 -0.438246
v 2.988633 0.847329 -0.374780
v 2.988633 0.905456 -0.297446
v 2.988633 0.948649 -0.209217
v 2.988633 0.975246 -0.113483
v 2.988633 0.984227 -0.013923
v 2.988633 0.975246 0.085638
v 2.988633 0.948649 0.181372
v 2.988633 0.905456 0.269601
v 2.988633 0.847329 0.346934
v 2.988633 0.776500 0.410400
v 2.988633 0.695693 0.457560
v 2.988633 0.608012 0.486600
v 2.988633 0.516827 0.496406
v 2.988633 0.425641 0.486600
v 2.988633 0.337960 0.457560
v 2.988633 0.257153 0.410400
v 2.988633 0.186324 0.346934
v 2.988633 0.128197 0.269601
v 2.988633 0.085005 0.181372
v 2.988633 0.058407 0.085638
v 2.988633 0.049426 -0.013923
v 2.988633 0.058407 -0.113483
v 2.988633 0.085005 -0.209217
v 2.988633 0.128197 -0.297446
v 2.988633 0.186324 -0.374780
v 2.988633 0.257153 -0.438246
v 2.988633 0.337960 -0.485405
v 2.988633 0.425641 -0.514446
v 2.988633 0.516827 -0.524252
v 2.988633 0.608012 -0.514446
v 2.988633 0.695693 -0.485405
v 2.988633 0.776500 -0.438246
v 2.988633 0.847329 -0.374780
v 2.988633 0.905456 -0.297446
v 2.988633 0.948649 -0.209217
v 2.988633 0.975246 -0.113483
v 2.988633 0.984227 -0.013923
v 2.988633 0.975246 0.085638
v 2.988633 0.948649 0.181372
v 2.988633 0.905456 0.269601
v 2.988633 0.847329 0.346934
v 2.988633 0.776500 0.410400
v 2.988633 0.695693 0.457560
v 2.988633 0.608012 0.486600
v 3.147345 0.516827 0.259242
v 3.147345 0.468017 0.253994
v 3.147345 0.421084 0.238449
v 3.147345 0.377830 0.213206
v 3.147345 0.339918 0.179234
v 3.147345 0.308804 0.137840
v 3.147345 0.285684 0.090613
v 3.147345 0.271447 0.039369
v 3.147345 0.266640 -0.013923
v 3.147345 0.271447 -0.067214
v 3.147345 0.285684 -0.118458
v 3.147345 0.308804 -0.165685
v 3.147345 0.339918 -0.207079
v 3.147345 0.377830 -0.241051
v 3.147345 0.421084 -0.266294
v 3.147345 0.468017 -0.281839
v 3.147345 0.516827 -0.287088
v 3.147345 0.565636 -0.281839
v 3.147345 0.612569 -0.266294
v 3.147345 0.655823 -0.241051
v 3.147345 0.693735 -0.207079
v 3.147345 0.724849 -0.165685
v 3.147345 0.747969 -0.118458
v 3.147345 0.762206 -0.067214
v 3.147345 0.767013 -0.013923
v 3.147345 0.762206 0.039369
v 3.147345 0.747969 0.090613
v 3.147345 0.724849 0.137840
v 3.147345 0.693735 0.179234
v 3.147345 0.655823 0.213206
v 3.147345 0.612569 0.238449
v 3.147345 0.565636 0.253994
v 3.147345 0.516827 0.220859
v 3.147345 0.474876 0.216348
v 3.147345 0.434537 0.202987
v 3.147345 0.397361 0.181291
v 3.147345 0.364776 0.152093
v 3.147345 0.338034 0.116515
v 3.147345 0.318163 0.075924
v 3.147345 0.305926 0.031881
v 3.147345 0.301794 -0.013923
v 3.147345 0.305926 -0.059726
v 3.147345 0.318163 -0.103770
v 3.147345 0.338034 -0.144360
v 3.147345 0.364776 -0.179938
v 3.147345 0.397361 -0.209136
v 3.147345 0.434537 -0.230833
v 3.147345 0.474876 -0.244193
v 3.147345 0.516827 -0.248704
v 3.147345 0.558777 -0.244193
v 3.147345 0.599116 -0.230833
v 3.147345 0.636292 -0.209136
v 3.147345 0.668877 -0.179938
v 3.147345 0.695619 -0.144360
v 3.147345 0.715490 -0.103770
v 3.147345 0.727727 -0.059726
v 3.147345 0.731859 -0.013923
v 3.147345 0.727727 0.031881
v 3.147345 0.715490 0.075924
v 3.147345 0.695619 0.116515
v 3.147345 0.668877 0.152093
v 3.147345 0.636292 0.181291
v 3.147345 0.599116 0.202987
v 3.147345 0.558777 0.216348
v 1.343356 0.516826 0.260008
v 1.343356 0.467881 0.254745
v 1.343356 0.420816 0.239156
v 1.343356 0.377440 0.213843
v 1.343356 0.339422 0.179776
v 1.343356 0.308221 0.138265
v 1.343356 0.285036 0.090906
v 1.343356 0.270759 0.039519
v 1.343356 0.265938 -0.013923
v 1.343356 0.270759 -0.067364
v 1.343356 0.285036 -0.118751
v 1.343356 0.308221 -0.166110
v 1.343356 0.339422 -0.207621
v 1.343356 0.377440 -0.241688
v 1.343356 0.420816 -0.267002
v 1.343356 0.467881 -0.282590
v 1.343356 0.516826 -0.287853
v 1.343356 0.565772 -0.282590
v 1.343356 0.612837 -0.267002
v 1.343356 0.656213 -0.241688
v 1.343355 0.694231 -0.207621
v 1.343355 0.725432 -0.166110
v 1.343355 0.748617 -0.118751
v 1.343355 0.762894 -0.067364
v 1.343355 0.767715 -0.013923
v 1.343355 0.762894 0.039519
v 1.343355 0.748617 0.090906
v 1.343355 0.725432 0.138265
v 1.343355 0.694231 0.179776
v 1.343356 0.656213 0.213843
v 1.343356 0.612837 0.239156
v 1.343356 0.565772 0.254745
v 1.233457 0.516826 0.157073
v 1.233457 0.486273 0.153788
v 1.233457 0.456894 0.144057
v 1.233457 0.429817 0.128255
v 1.233457 0.406085 0.106990
v 1.233457 0.386608 0.081078
v 1.233457 0.372136 0.051515
v 1.233457 0.363224 0.019437
v 1.233457 0.360214 -0.013923
v 1.233457 0.363224 -0.047282
v 1.233457 0.372136 -0.079360
v 1.233457 0.386608 -0.108923
v 1.233457 0.406085 -0.134835
v 1.233457 0.429817 -0.156101
v 1.233457 0.456894 -0.171902
v 1.233457 0.486273 -0.181633
v 1.233457 0.516826 -0.184919
v 1.233457 0.547380 -0.181633
v 1.233457 0.576759 -0.171902
v 1.233457 0.603836 -0.156101
v 1.233457 0.627568 -0.134835
v 1.233457 0.647045 -0.108923
v 1.233457 0.661517 -0.079360
v 1.233457 0.670429 -0.047282
v 1.233457 0.673439 -0.013923
v 1.233457 0.670429 0.019437
v 1.233457 0.661517 0.051515
v 1.233457 0.647045 0.081078
v 1.233457 0.627568 0.106990
v 1.233457 0.603836 0.128255
v 1.233457 0.576759 0.144057
v 1.233457 0.547380 0.153788
v -0.175284 0.326255 -0.583097
v -0.175284 0.683084 -0.583097
v -0.175284 0.326255 -0.137670
v -0.175284 0.683084 -0.137670
v -0.579726 0.326255 -0.583097
v -0.579726 0.683084 -0.583097
v -0.579726 0.326255 -0.137670
v -0.579726 0.683084 -0.137670
v -0.182959 0.336543 0.696837
v -0.182959 0.336543 0.251410
v -0.182959 0.693373 0.251410
v -0.182959 0.693373 0.696837
v -0.587400 0.336543 0.696837
v -0.587400 0.693373 0.696837
v -0.587400 0.336543 0.251410
v -0.587400 0.693373 0.251410
v -0.579726 0.683084 -0.137670
v -0.579726 0.326255 -0.137670
v -0.579726 0.326255 -0.583097
v -0.579726 0.683084 -0.583097
v -0.579726 0.683084 -0.137670
v -0.579726 0.326255 -0.137670
v -0.579726 0.326255 -0.583097
v -0.579726 0.683084 -0.583097
v -0.579726 0.683084 -0.137670
v -0.579726 0.326255 -0.137670
v -0.579726 0.326255 -0.583097
v -0.579726 0.683084 -0.583097
v 1.431741 0.504665 0.168135
v -0.378746 0.504665 0.168135
v 1.431741 0.471269 0.164712
v -0.378746 0.471269 0.164712
v 1.431741 0.439156 0.154576
v -0.378746 0.439156 0.154576
v 1.431741 0.409561 0.138117
v -0.378746 0.409561 0.138117
v 1.431741 0.383621 0.115966
v -0.378746 0.383620 0.115966
v 1.431741 0.362332 0.088975
v -0.378746 0.362332 0.088975
v 1.431741 0.346513 0.058181
v -0.378746 0.346513 0.058181
v 1.431741 0.336771 0.024768
v -0.378746 0.336771 0.024768
v 1.431741 0.333482 -0.009981
v -0.378746 0.333482 -0.009981
v 1.431741 0.336771 -0.044729
v -0.378746 0.336771 -0.044729
v 1.431741 0.346513 -0.078142
v -0.378746 0.346513 -0.078142
v 1.431741 0.362332 -0.108936
v -0.378746 0.362332 -0.108936
v 1.431741 0.383621 -0.135927
v -0.378746 0.383620 -0.135927
v 1.431741 0.409561 -0.158078
v -0.378746 0.409561 -0.158078
v 1.431741 0.439156 -0.174538
v -0.378746 0.439156 -0.174538
v 1.431741 0.471269 -0.184673
v -0.378746 0.471269 -0.184673
v 1.431741 0.504665 -0.188096
v -0.378746 0.504665 -0.188096
v 1.431741 0.538061 -0.184673
v -0.378746 0.538061 -0.184673
v 1.431741 0.570174 -0.174538
v -0.378746 0.570174 -0.174538
v 1.431741 0.599769 -0.158078
v -0.378746 0.599769 -0.158078
v 1.431741 0.625709 -0.135927
v -0.378746 0.625709 -0.135927
v 1.431741 0.646998 -0.108936
v -0.378746 0.646998 -0.108936
v 1.431741 0.662817 -0.078142
v -0.378746 0.662817 -0.078142
v 1.431741 0.672558 -0.044729
v -0.378746 0.672558 -0.044729
v 1.431741 0.675848 -0.009981
v -0.378746 0.675847 -0.009981
v 1.431741 0.672558 0.024768
v -0.378746 0.672558 0.024768
v 1.431741 0.662817 0.058181
v -0.378746 0.662817 0.058181
v 1.431741 0.646998 0.088975
v -0.378746 0.646998 0.088975
v 1.431741 0.625709 0.115966
v -0.378746 0.625709 0.115966
v 1.431741 0.599769 0.138117
v -0.378746 0.599769 0.138117
v 1.431741 0.570174 0.154576
v -0.378746 0.570174 0.154576
v 1.431741 0.538061 0.164712
v -0.378746 0.538061 0.164712
vn 1.0000 -0.0000 -0.0000
vn -0.0000 -0.0000 1.0000
vn -1.0000 -0.0000 -0.0000
vn -0.0000 -0.0000 -1.0000
vn -0.0000 -1.0000 -0.0000
vn -0.0000 1.0000 -0.0000
vn -0.0000 -0.1069 0.9943
vn -0.0000 -0.3144 0.9493
vn -0.0000 -0.5040 0.8637
vn -0.0000 -0.6673 0.7448
vn -0.0000 -0.7994 0.6008
vn -0.0000 -0.8982 0.4397
vn -0.0000 -0.9635 0.2677
vn -0.0000 -0.9960 0.0898
vn -0.0000 -0.9960 -0.0898
vn -0.0000 -0.9635 -0.2677
vn -0.0000 -0.8982 -0.4397
vn -0.0000 -0.7994 -0.6008
vn -0.0000 -0.6673 -0.7448
vn -0.0000 -0.5040 -0.8637
vn -0.0000 -0.3144 -0.9493
vn -0.0000 -0.1069 -0.9943
vn -0.0000 0.1069 -0.9943
vn -0.0000 0.3144 -0.9493
vn -0.0000 0.5040 -0.8637
vn -0.0000 0.6673 -0.7448
vn -0.0000 0.7994 -0.6008
vn -0.0000 0.8982 -0.4397
vn -0.0000 0.9635 -0.2677
vn -0.0000 0.9960 -0.0898
vn -0.0000 0.9960 0.0898
vn -0.0000 0.9635 0.2677
vn -0.0000 0.8982 0.4397
vn -0.0000 0.7994 0.6008
vn -0.0000 0.6673 0.7448
vn -0.0000 0.5040 0.8637
vn -0.0000 0.3144 0.9493
vn -0.0000 0.1069 0.9943
vn 0.8200 -0.3819 0.4263
vn 0.8277 0.1764 0.5326
vn 0.8277 0.1764 -0.5326
vn 0.8154 -0.4628 0.3478
vn 0.8296 0.0597 0.5552
vn 0.8244 0.2853 -0.4889
vn 0.8112 -0.5252 0.2571
vn 0.8200 0.3819 -0.4263
vn 0.8080 -0.5677 0.1577
vn 0.8154 0.4628 -0.3478
vn 0.8063 -0.5891 0.0531
vn 0.8112 0.5252 -0.2571
vn 0.8063 -0.5891 -0.0531
vn 0.8080 0.5677 -0.1577
vn 0.8080 -0.5677 -0.1577
vn 0.8063 0.5891 -0.0531
vn 0.8112 -0.5252 -0.2571
vn 0.8063 0.5891 0.0531
vn 0.8154 -0.4628 -0.3478
vn 0.8080 0.5677 0.1577
vn 0.8200 -0.3819 -0.4263
vn 0.8112 0.5252 0.2571
vn 0.8244 -0.2853 -0.4889
vn 0.8296 -0.0597 0.5552
vn 0.8154 0.4628 0.3478
vn 0.8277 -0.1764 -0.5326
vn 0.8277 -0.1764 0.5326
vn 0.8200 0.3819 0.4263
vn 0.8296 -0.0597 -0.5552
vn 0.8244 -0.2853 0.4889
vn 0.8244 0.2853 0.4889
vn 0.8296 0.0597 -0.5552
vn -0.8799 -0.1494 -0.4511
vn -0.8633 0.5026 -0.0453
vn -0.8799 -0.1494 0.4511
vn -0.8671 -0.4474 -0.2190
vn -0.8740 0.3243 -0.3620
vn -0.8740 0.3243 0.3620
vn -0.8647 -0.4840 0.1345
vn -0.8813 -0.0505 -0.4699
vn -0.8633 0.5026 0.0453
vn -0.8773 -0.2419 0.4145
vn -0.8704 -0.3936 -0.2958
vn -0.8704 0.3936 -0.2958
vn -0.8773 0.2419 0.4145
vn -0.8633 -0.5026 0.0453
vn -0.8813 0.0505 -0.4699
vn -0.8647 0.4840 0.1345
vn -0.8740 -0.3243 0.3620
vn -0.8740 -0.3243 -0.3620
vn -0.8671 0.4474 -0.2190
vn -0.8799 0.1494 0.4511
vn -0.8633 -0.5026 -0.0453
vn -0.8799 0.1494 -0.4511
vn -0.8671 0.4474 0.2190
vn -0.8704 -0.3936 0.2958
vn -0.8773 -0.2419 -0.4145
vn -0.8647 0.4840 -0.1345
vn -0.8813 -0.0505 0.4699
vn -0.8813 0.0505 0.4699
vn -0.8647 -0.4840 -0.1345
vn -0.8773 0.2419 -0.4145
vn -0.8704 0.3936 0.2958
vn -0.8671 -0.4474 0.2190
vn -0.6561 0.6778 0.3318
vn -0.6742 -0.3723 -0.6379
vn -0.6815 -0.0782 0.7276
vn -0.6618 0.5993 0.4504
vn -0.6789 -0.2308 -0.6970
vn -0.6789 -0.2308 0.6970
vn -0.6682 0.4965 0.5541
vn -0.6815 -0.0782 -0.7276
vn -0.6742 -0.3723 0.6379
vn -0.6742 0.3723 0.6379
vn -0.6815 0.0782 -0.7276
vn -0.6682 -0.4965 0.5541
vn -0.6789 0.2308 0.6970
vn -0.6789 0.2308 -0.6970
vn -0.6618 -0.5993 0.4504
vn -0.6815 0.0782 0.7276
vn -0.6742 0.3723 -0.6379
vn -0.6561 -0.6778 0.3318
vn -0.6682 0.4965 -0.5541
vn -0.6519 -0.7307 0.2030
vn -0.6618 0.5993 -0.4504
vn -0.6496 -0.7572 0.0683
vn -0.6561 0.6778 -0.3318
vn -0.6496 -0.7572 -0.0683
vn -0.6519 0.7307 -0.2030
vn -0.6519 -0.7307 -0.2030
vn -0.6496 0.7572 -0.0683
vn -0.6561 -0.6778 -0.3318
vn -0.6496 0.7572 0.0683
vn -0.6618 -0.5993 -0.4504
vn -0.6519 0.7307 0.2030
vn -0.6682 -0.4965 -0.5541
vn -0.0000 -0.1019 0.9948
vn -0.0000 -0.3010 0.9536
vn -0.0000 -0.4860 0.8739
vn -0.0000 -0.6494 0.7605
vn -0.0000 -0.7852 0.6193
vn -0.0000 -0.8895 0.4569
vn -0.0000 -0.9600 0.2799
vn -0.0000 -0.9955 0.0942
vn -0.0000 -0.9955 -0.0942
vn -0.0000 -0.9600 -0.2799
vn -0.0000 -0.8895 -0.4569
vn -0.0000 -0.7852 -0.6193
vn -0.0000 -0.6494 -0.7605
vn -0.0000 -0.4860 -0.8739
vn -0.0000 -0.3010 -0.9536
vn -0.0000 -0.1019 -0.9948
vn -0.0000 0.1019 -0.9948
vn -0.0000 0.3010 -0.9536
vn -0.0000 0.4860 -0.8739
vn -0.0000 0.6494 -0.7605
vn -0.0000 0.7852 -0.6193
vn -0.0000 0.8895 -0.4569
vn -0.0000 0.9600 -0.2799
vn -0.0000 0.9955 -0.0942
vn -0.0000 0.9955 0.0942
vn -0.0000 0.9600 0.2799
vn -0.0000 0.8895 0.4569
vn -0.0000 0.7852 0.6193
vn -0.0000 0.6494 0.7605
vn -0.0000 0.4860 0.8739
vn -0.0000 0.3010 0.9536
vn -0.0000 0.1019 0.9948
vt 0.375000 0.000000
vt 0.625000 0.000000
vt 0.625000 0.250000
vt 0.375000 0.250000
vt 0.625000 0.500000
vt 0.375000 0.500000
vt 0.625000 0.750000
vt 0.375000 0.750000
vt 0.625000 1.000000
vt 0.375000 1.000000
vt 0.125000 0.500000
vt 0.125000 0.750000
vt 0.875000 0.500000
vt 0.875000 0.750000
vt 1.000000 0.500000
vt 1.000000 1.000000
vt 0.968750 1.000000
vt 0.968750 0.500000
vt 0.937500 1.000000
vt 0.937500 0.500000
vt 0.906250 1.000000
vt 0.906250 0.500000
vt 0.875000 1.000000
vt 0.843750 1.000000
vt 0.843750 0.500000
vt 0.812500 1.000000
vt 0.812500 0.500000
vt 0.781250 1.000000
vt 0.781250 0.500000
vt 0.750000 1.000000
vt 0.750000 0.500000
vt 0.718750 1.000000
vt 0.718750 0.500000
vt 0.687500 1.000000
vt 0.687500 0.500000
vt 0.656250 1.000000
vt 0.656250 0.500000
vt 0.593750 1.000000
vt 0.593750 0.500000
vt 0.562500 1.000000
vt 0.562500 0.500000
vt 0.531250 1.000000
vt 0.531250 0.500000
vt 0.500000 1.000000
vt 0.500000 0.500000
vt 0.468750 1.000000
vt 0.468750 0.500000
vt 0.437500 1.000000
vt 0.437500 0.500000
vt 0.406250 1.000000
vt 0.406250 0.500000
vt 0.343750 1.000000
vt 0.343750 0.500000
vt 0.312500 1.000000
vt 0.312500 0.500000
vt 0.281250 1.000000
vt 0.281250 0.500000
vt 0.250000 1.000000
vt 0.250000 0.500000
vt 0.218750 1.000000
vt 0.218750 0.500000
vt 0.187500 1.000000
vt 0.187500 0.500000
vt 0.156250 1.000000
vt 0.156250 0.500000
vt 0.125000 1.000000
vt 0.093750 1.000000
vt 0.093750 0.500000
vt 0.062500 1.000000
vt 0.062500 0.500000
vt 0.031250 1.000000
vt 0.031250 0.500000
vt 0.000000 1.000000
vt 0.000000 0.500000
vt 0.000000 0.000000
vt 0.296822 0.485388
vt 0.250000 0.490000
vt 0.203178 0.485388
vt 0.158156 0.471731
vt 0.116663 0.449553
vt 0.080294 0.419706
vt 0.050447 0.383337
vt 0.028269 0.341844
vt 0.014612 0.296822
vt 0.010000 0.250000
vt 0.014612 0.203178
vt 0.028269 0.158156
vt 0.050447 0.116663
vt 0.080294 0.080294
vt 0.116663 0.050447
vt 0.158156 0.028269
vt 0.203178 0.014612
vt 0.250000 0.010000
vt 0.296822 0.014612
vt 0.341844 0.028269
vt 0.383337 0.050447
vt 0.419706 0.080294
vt 0.449553 0.116663
vt 0.471731 0.158156
vt 0.485388 0.203178
vt 0.490000 0.250000
vt 0.485388 0.296822
vt 0.471731 0.341844
vt 0.449553 0.383337
vt 0.419706 0.419706
vt 0.383337 0.449553
vt 0.341844 0.471731
vt 0.750000 0.490000
vt 0.796822 0.485388
vt 0.841844 0.471731
vt 0.883337 0.449553
vt 0.919706 0.419706
vt 0.949553 0.383337
vt 0.971731 0.341844
vt 0.985388 0.296822
vt 0.990000 0.250000
vt 0.985388 0.203178
vt 0.971731 0.158156
vt 0.949553 0.116663
vt 0.919706 0.080294
vt 0.883337 0.050447
vt 0.841844 0.028269
vt 0.796822 0.014612
vt 0.750000 0.010000
vt 0.703178 0.014612
vt 0.658156 0.028269
vt 0.616663 0.050447
vt 0.580294 0.080294
vt 0.550447 0.116663
vt 0.528269 0.158156
vt 0.514612 0.203178
vt 0.510000 0.250000
vt 0.514612 0.296822
vt 0.528269 0.341844
vt 0.550447 0.383337
vt 0.580294 0.419706
vt 0.616663 0.449553
vt 0.658156 0.471731
vt 0.703178 0.485388
s 0
g off
g base_Material.004
usemtl Material.004
f 293/15/135 294/16/135 296/17/135 295/18/135
f 295/18/136 296/17/136 298/19/136 297/20/136
f 297/20/137 298/19/137 300/21/137 299/22/137
f 299/22/138 300/21/138 302/23/138 301/13/138
f 301/13/139 302/23/139 304/24/139 303/25/139
f 303/25/140 304/24/140 306/26/140 305/27/140
f 305/27/141 306/26/141 308/28/141 307/29/141
f 307/29/142 308/28/142 310/30/142 309/31/142
f 309/31/143 310/30/143 312/32/143 311/33/143
f 311/33/144 312/32/144 314/34/144 313/35/144
f 313/35/145 314/34/145 316/36/145 315/37/145
f 315/37/146 316/36/146 318/9/146 317/5/146
f 317/5/147 318/9/147 320/38/147 319/39/147
f 319/39/148 320/38/148 322/40/148 321/41/148
f 321/41/149 322/40/149 324/42/149 323/43/149
f 323/43/150 324/42/150 326/44/150 325/45/150
f 325/45/151 326/44/151 328/46/151 327/47/151
f 327/47/152 328/46/152 330/48/152 329/49/152
f 329/49/153 330/48/153 332/50/153 331/51/153
f 331/51/154 332/50/154 334/10/154 333/6/154
f 333/6/155 334/10/155 336/52/155 335/53/155
f 335/53/156 336/52/156 338/54/156 337/55/156
f 337/55/157 338/54/157 340/56/157 339/57/157
f 339/57/158 340/56/158 342/58/158 341/59/158
f 341/59/159 342/58/159 344/60/159 343/61/159
f 343/61/160 344/60/160 346/62/160 345/63/160
f 345/63/161 346/62/161 348/64/161 347/65/161
f 347/65/162 348/64/162 350/66/162 349/11/162
f 349/11/163 350/66/163 352/67/163 351/68/163
f 351/68/164 352/67/164 354/69/164 353/70/164
f 296/76/3 294/77/3 356/78/3 354/79/3 352/80/3 350/81/3 348/82/3 346/83/3 344/84/3 342/85/3 340/86/3 338/87/3 336/88/3 334/89/3 332/90/3 330/91/3 328/92/3 326/93/3 324/94/3 322/95/3 320/96/3 318/97/3 316/98/3 314/99/3 312/100/3 310/101/3 308/102/3 306/103/3 304/104/3 302/105/3 300/106/3 298/107/3
f 353/70/165 354/69/165 356/71/165 355/72/165
f 355/72/166 356/71/166 294/73/166 293/74/166
f 293/108/1 295/109/1 297/110/1 299/111/1 301/112/1 303/113/1 305/114/1 307/115/1 309/116/1 311/117/1 313/118/1 315/119/1 317/120/1 319/121/1 321/122/1 323/123/1 325/124/1 327/125/1 329/126/1 331/127/1 333/128/1 335/129/1 337/130/1 339/131/1 341/132/1 343/133/1 345/134/1 347/135/1 349/136/1 351/137/1 353/138/1 355/139/1
g base_Material.005
usemtl Material.005
f 9/15/7 10/16/7 12/17/7 11/18/7
f 11/18/8 12/17/8 14/19/8 13/20/8
f 13/20/9 14/19/9 16/21/9 15/22/9
f 15/22/10 16/21/10 18/23/10 17/13/10
f 17/13/11 18/23/11 20/24/11 19/25/11
f 19/25/12 20/24/12 22/26/12 21/27/12
f 21/27/13 22/26/13 24/28/13 23/29/13
f 23/29/14 24/28/14 26/30/14 25/31/14
f 25/31/15 26/30/15 28/32/15 27/33/15
f 27/33/16 28/32/16 30/34/16 29/35/16
f 29/35/17 30/34/17 32/36/17 31/37/17
f 31/37/18 32/36/18 34/9/18 33/5/18
f 33/5/19 34/9/19 36/38/19 35/39/19
f 35/39/20 36/38/20 38/40/20 37/41/20
f 37/41/21 38/40/21 40/42/21 39/43/21
f 39/43/22 40/42/22 42/44/22 41/45/22
f 41/45/23 42/44/23 44/46/23 43/47/23
f 43/47/24 44/46/24 46/48/24 45/49/24
f 45/49/25 46/48/25 48/50/25 47/51/25
f 47/51/26 48/50/26 50/10/26 49/6/26
f 49/6/27 50/10/27 52/52/27 51/53/27
f 51/53/28 52/52/28 54/54/28 53/55/28
f 53/55/29 54/54/29 56/56/29 55/57/29
f 55/57/30 56/56/30 58/58/30 57/59/30
f 57/59/31 58/58/31 60/60/31 59/61/31
f 59/61/32 60/60/32 62/62/32 61/63/32
f 61/63/33 62/62/33 64/64/33 63/65/33
f 63/65/34 64/64/34 66/66/34 65/11/34
f 65/11/35 66/66/35 68/67/35 67/68/35
f 67/68/36 68/67/36 70/69/36 69/70/36
f 19/25/6 21/27/6 79/27/6 78/25/6
f 69/70/37 70/69/37 72/71/37 71/72/37
f 71/72/38 72/71/38 10/73/38 9/74/38
f 37/41/6 39/43/6 88/43/6 87/41/6
f 55/57/6 57/59/6 97/59/6 96/57/6
f 11/18/6 13/20/6 75/20/6 74/18/6
f 29/35/6 31/37/6 84/37/6 83/35/6
f 47/51/6 49/6/6 93/6/6 92/51/6
f 65/11/6 67/68/6 102/68/6 101/11/6
f 21/27/6 23/29/6 80/29/6 79/27/6
f 39/43/6 41/45/6 89/45/6 88/43/6
f 57/59/6 59/61/6 98/61/6 97/59/6
f 13/20/6 15/22/6 76/22/6 75/20/6
f 31/37/6 33/5/6 85/5/6 84/37/6
f 49/6/6 51/53/6 94/53/6 93/6/6
f 67/68/6 69/70/6 103/70/6 102/68/6
f 23/29/6 25/31/6 81/31/6 80/29/6
f 41/45/6 43/47/6 90/47/6 89/45/6
f 59/61/6 61/63/6 99/63/6 98/61/6
f 15/22/6 17/13/6 77/13/6 76/22/6
f 33/5/6 35/39/6 86/39/6 85/5/6
f 51/53/6 53/55/6 95/55/6 94/53/6
f 69/70/6 71/72/6 104/72/6 103/70/6
f 25/31/6 27/33/6 82/33/6 81/31/6
f 43/47/6 45/49/6 91/49/6 90/47/6
f 61/63/6 63/65/6 100/65/6 99/63/6
f 17/13/6 19/25/6 78/25/6 77/13/6
f 35/39/6 37/41/6 87/41/6 86/39/6
f 53/55/6 55/57/6 96/57/6 95/55/6
f 9/15/6 11/18/6 74/18/6 73/15/6
f 71/72/6 9/74/6 73/74/6 104/72/6
f 27/33/6 29/35/6 83/35/6 82/33/6
f 45/49/6 47/51/6 92/51/6 91/49/6
f 63/65/6 65/11/6 101/11/6 100/65/6
f 73/15/6 74/18/6 106/18/6 105/15/6
f 100/65/6 101/11/6 133/11/6 132/65/6
f 87/41/6 88/43/6 120/43/6 119/41/6
f 74/18/6 75/20/6 107/20/6 106/18/6
f 101/11/6 102/68/6 134/68/6 133/11/6
f 88/43/6 89/45/6 121/45/6 120/43/6
f 75/20/6 76/22/6 108/22/6 107/20/6
f 102/68/6 103/70/6 135/70/6 134/68/6
f 89/45/6 90/47/6 122/47/6 121/45/6
f 76/22/6 77/13/6 109/13/6 108/22/6
f 103/70/6 104/72/6 136/72/6 135/70/6
f 90/47/6 91/49/6 123/49/6 122/47/6
f 77/13/6 78/25/6 110/25/6 109/13/6
f 104/72/6 73/74/6 105/74/6 136/72/6
f 91/49/6 92/51/6 124/51/6 123/49/6
f 78/25/6 79/27/6 111/27/6 110/25/6
f 92/51/6 93/6/6 125/6/6 124/51/6
f 79/27/6 80/29/6 112/29/6 111/27/6
f 93/6/6 94/53/6 126/53/6 125/6/6
f 80/29/6 81/31/6 113/31/6 112/29/6
f 94/53/6 95/55/6 127/55/6 126/53/6
f 81/31/6 82/33/6 114/33/6 113/31/6
f 95/55/6 96/57/6 128/57/6 127/55/6
f 82/33/6 83/35/6 115/35/6 114/33/6
f 96/57/6 97/59/6 129/59/6 128/57/6
f 83/35/6 84/37/6 116/37/6 115/35/6
f 97/59/6 98/61/6 130/61/6 129/59/6
f 84/37/6 85/5/6 117/5/6 116/37/6
f 98/61/6 99/63/6 131/63/6 130/61/6
f 85/5/6 86/39/6 118/39/6 117/5/6
f 99/63/6 100/65/6 132/65/6 131/63/6
f 86/39/6 87/41/6 119/41/6 118/39/6
f 108/22/39 109/13/39 141/13/39 140/22/39
f 135/70/40 136/72/40 168/72/40 167/70/40
f 122/47/41 123/49/41 155/49/41 154/47/41
f 109/13/42 110/25/42 142/25/42 141/13/42
f 136/72/43 105/74/43 137/74/43 168/72/43
f 123/49/44 124/51/44 156/51/44 155/49/44
f 110/25/45 111/27/45 143/27/45 142/25/45
f 124/51/46 125/6/46 157/6/46 156/51/46
f 111/27/47 112/29/47 144/29/47 143/27/47
f 125/6/48 126/53/48 158/53/48 157/6/48
f 112/29/49 113/31/49 145/31/49 144/29/49
f 126/53/50 127/55/50 159/55/50 158/53/50
f 113/31/51 114/33/51 146/33/51 145/31/51
f 127/55/52 128/57/52 160/57/52 159/55/52
f 114/33/53 115/35/53 147/35/53 146/33/53
f 128/57/54 129/59/54 161/59/54 160/57/54
f 115/35/55 116/37/55 148/37/55 147/35/55
f 129/59/56 130/61/56 162/61/56 161/59/56
f 116/37/57 117/5/57 149/5/57 148/37/57
f 130/61/58 131/63/58 163/63/58 162/61/58
f 117/5/59 118/39/59 150/39/59 149/5/59
f 131/63/60 132/65/60 164/65/60 163/63/60
f 118/39/61 119/41/61 151/41/61 150/39/61
f 105/15/62 106/18/62 138/18/62 137/15/62
f 132/65/63 133/11/63 165/11/63 164/65/63
f 119/41/64 120/43/64 152/43/64 151/41/64
f 106/18/65 107/20/65 139/20/65 138/18/65
f 133/11/66 134/68/66 166/68/66 165/11/66
f 120/43/67 121/45/67 153/45/67 152/43/67
f 107/20/68 108/22/68 140/22/68 139/20/68
f 134/68/69 135/70/69 167/70/69 166/68/69
f 121/45/70 122/47/70 154/47/70 153/45/70
f 158/53/1 159/55/1 191/55/1 190/53/1
f 145/31/1 146/33/1 178/33/1 177/31/1
f 159/55/1 160/57/1 192/57/1 191/55/1
f 146/33/1 147/35/1 179/35/1 178/33/1
f 160/57/1 161/59/1 193/59/1 192/57/1
f 147/35/1 148/37/1 180/37/1 179/35/1
f 161/59/1 162/61/1 194/61/1 193/59/1
f 148/37/1 149/5/1 181/5/1 180/37/1
f 162/61/1 163/63/1 195/63/1 194/61/1
f 149/5/1 150/39/1 182/39/1 181/5/1
f 163/63/1 164/65/1 196/65/1 195/63/1
f 150/39/1 151/41/1 183/41/1 182/39/1
f 137/15/1 138/18/1 170/18/1 169/15/1
f 164/65/1 165/11/1 197/11/1 196/65/1
f 151/41/1 152/43/1 184/43/1 183/41/1
f 138/18/1 139/20/1 171/20/1 170/18/1
f 165/11/1 166/68/1 198/68/1 197/11/1
f 152/43/1 153/45/1 185/45/1 184/43/1
f 139/20/1 140/22/1 172/22/1 171/20/1
f 166/68/1 167/70/1 199/70/1 198/68/1
f 153/45/1 154/47/1 186/47/1 185/45/1
f 140/22/1 141/13/1 173/13/1 172/22/1
f 167/70/1 168/72/1 200/72/1 199/70/1
f 154/47/1 155/49/1 187/49/1 186/47/1
f 141/13/1 142/25/1 174/25/1 173/13/1
f 168/72/1 137/74/1 169/74/1 200/72/1
f 155/49/1 156/51/1 188/51/1 187/49/1
f 142/25/1 143/27/1 175/27/1 174/25/1
f 156/51/1 157/6/1 189/6/1 188/51/1
f 143/27/1 144/29/1 176/29/1 175/27/1
f 157/6/1 158/53/1 190/53/1 189/6/1
f 144/29/1 145/31/1 177/31/1 176/29/1
f 40/42/71 38/40/71 215/40/71 216/42/71
f 58/58/72 56/56/72 224/56/72 225/58/72
f 14/19/73 12/17/73 202/17/73 203/19/73
f 32/36/74 30/34/74 211/34/74 212/36/74
f 50/10/75 48/50/75 220/50/75 221/10/75
f 68/67/76 66/66/76 229/66/76 230/67/76
f 24/28/77 22/26/77 207/26/77 208/28/77
f 42/44/78 40/42/78 216/42/78 217/44/78
f 60/60/79 58/58/79 225/58/79 226/60/79
f 16/21/80 14/19/80 203/19/80 204/21/80
f 34/9/81 32/36/81 212/36/81 213/9/81
f 52/52/82 50/10/82 221/10/82 222/52/82
f 70/69/83 68/67/83 230/67/83 231/69/83
f 26/30/84 24/28/84 208/28/84 209/30/84
f 44/46/85 42/44/85 217/44/85 218/46/85
f 62/62/86 60/60/86 226/60/86 227/62/86
f 18/23/87 16/21/87 204/21/87 205/23/87
f 36/38/88 34/9/88 213/9/88 214/38/88
f 54/54/89 52/52/89 222/52/89 223/54/89
f 72/71/90 70/69/90 231/69/90 232/71/90
f 28/32/91 26/30/91 209/30/91 210/32/91
f 46/48/92 44/46/92 218/46/92 219/48/92
f 64/64/93 62/62/93 227/62/93 228/64/93
f 20/24/94 18/23/94 205/23/94 206/24/94
f 38/40/95 36/38/95 214/38/95 215/40/95
f 56/56/96 54/54/96 223/54/96 224/56/96
f 12/17/97 10/16/97 201/16/97 202/17/97
f 10/73/98 72/71/98 232/71/98 201/73/98
f 30/34/99 28/32/99 210/32/99 211/34/99
f 48/50/100 46/48/100 219/48/100 220/50/100
f 66/66/101 64/64/101 228/64/101 229/66/101
f 22/26/102 20/24/102 206/24/102 207/26/102
f 228/64/103 227/62/103 259/62/103 260/64/103
f 215/40/104 214/38/104 246/38/104 247/40/104
f 202/17/105 201/16/105 233/16/105 234/17/105
f 229/66/106 228/64/106 260/64/106 261/66/106
f 216/42/107 215/40/107 247/40/107 248/42/107
f 203/19/108 202/17/108 234/17/108 235/19/108
f 230/67/109 229/66/109 261/66/109 262/67/109
f 217/44/110 216/42/110 248/42/110 249/44/110
f 204/21/111 203/19/111 235/19/111 236/21/111
f 231/69/112 230/67/112 262/67/112 263/69/112
f 218/46/113 217/44/113 249/44/113 250/46/113
f 205/23/114 204/21/114 236/21/114 237/23/114
f 232/71/115 231/69/115 263/69/115 264/71/115
f 219/48/116 218/46/116 250/46/116 251/48/116
f 206/24/117 205/23/117 237/23/117 238/24/117
f 201/73/118 232/71/118 264/71/118 233/73/118
f 220/50/119 219/48/119 251/48/119 252/50/119
f 207/26/120 206/24/120 238/24/120 239/26/120
f 221/10/121 220/50/121 252/50/121 253/10/121
f 208/28/122 207/26/122 239/26/122 240/28/122
f 222/52/123 221/10/123 253/10/123 254/52/123
f 209/30/124 208/28/124 240/28/124 241/30/124
f 223/54/125 222/52/125 254/52/125 255/54/125
f 210/32/126 209/30/126 241/30/126 242/32/126
f 224/56/127 223/54/127 255/54/127 256/56/127
f 211/34/128 210/32/128 242/32/128 243/34/128
f 225/58/129 224/56/129 256/56/129 257/58/129
f 212/36/130 211/34/130 243/34/130 244/36/130
f 226/60/131 225/58/131 257/58/131 258/60/131
f 213/9/132 212/36/132 244/36/132 245/9/132
f 227/62/133 226/60/133 258/60/133 259/62/133
f 214/38/134 213/9/134 245/9/134 246/38/134
g base_Material.006
usemtl Material.006
f 265/1/3 267/4/3 268/3/3 266/2/3
f 267/4/4 271/6/4 272/5/4 268/3/4
f 270/7/6 272/5/6 285/5/6 288/7/6
f 269/8/2 265/10/2 266/9/2 270/7/2
f 267/11/6 265/12/6 269/8/6 271/6/6
f 272/5/5 270/7/5 266/14/5 268/13/5
f 274/1/1 275/2/1 276/3/1 273/4/1
f 273/4/2 276/3/2 278/5/2 277/6/2
f 277/6/3 278/5/3 280/7/3 279/8/3
f 279/8/4 280/7/4 275/9/4 274/10/4
f 273/11/5 277/6/5 279/8/5 274/12/5
f 278/5/6 276/13/6 275/14/6 280/7/6
f 282/6/1 283/8/1 284/7/1 281/5/1
f 272/75/6 271/75/6 286/75/6 285/75/6
f 269/75/6 270/75/6 288/75/6 287/75/6
f 271/6/6 269/8/6 287/8/6 286/6/6
f 290/75/6 289/75/6 285/75/6 286/75/6
f 291/8/6 290/6/6 286/6/6 287/8/6
f 289/5/6 292/7/6 288/7/6 285/5/6
f 292/75/6 291/75/6 287/75/6 288/75/6
f 282/6/6 281/5/6 289/5/6 290/6/6
f 283/8/6 282/6/6 290/6/6 291/8/6
f 281/5/6 284/7/6 292/7/6 289/5/6
f 284/7/6 283/8/6 291/8/6 292/7/6
g base_Material.007
usemtl Material.007
f 1/1/1 2/2/1 4/3/1 3/4/1
f 3/4/2 4/3/2 8/5/2 7/6/2
f 7/6/3 8/5/3 6/7/3 5/8/3
f 5/8/4 6/7/4 2/9/4 1/10/4
f 3/11/5 7/6/5 5/8/5 1/12/5
f 8/5/6 4/13/6 2/14/6 6/7/6
