# Blender 5.1.1
# www.blender.org
mtllib brazo.mtl
g brazo_Cylinder.003
v -2.304189 1.682091 0.930356
v -2.230918 1.811616 0.930356
v -2.427553 1.751876 0.912667
v -2.354281 1.881402 0.912667
v -2.546175 1.818980 0.860277
v -2.472904 1.948506 0.860277
v -2.655499 1.880824 0.775202
v -2.582228 2.010350 0.775202
v -2.751322 1.935030 0.660709
v -2.678050 2.064556 0.660709
v -2.829962 1.979516 0.521200
v -2.756690 2.109041 0.521200
v -2.888396 2.012572 0.362035
v -2.815125 2.142098 0.362035
v -2.924380 2.032928 0.189330
v -2.851108 2.162453 0.189330
v -2.936530 2.039801 0.009724
v -2.863259 2.169327 0.009724
v -2.924380 2.032928 -0.169882
v -2.851108 2.162453 -0.169882
v -2.888396 2.012572 -0.342587
v -2.815125 2.142098 -0.342587
v -2.829962 1.979516 -0.501752
v -2.756690 2.109041 -0.501752
v -2.751322 1.935030 -0.641261
v -2.678050 2.064556 -0.641261
v -2.655499 1.880824 -0.755754
v -2.582228 2.010350 -0.755754
v -2.546175 1.818980 -0.840829
v -2.472904 1.948506 -0.840829
v -2.427553 1.751876 -0.893218
v -2.354281 1.881402 -0.893218
v -2.304189 1.682091 -0.910908
v -2.230918 1.811616 -0.910908
v -2.180826 1.612305 -0.893218
v -2.107554 1.741830 -0.893218
v -2.062203 1.545200 -0.840829
v -1.988931 1.674726 -0.840829
v -1.952879 1.483357 -0.755754
v -1.879608 1.612882 -0.755754
v -1.857057 1.429151 -0.641261
v -1.783785 1.558676 -0.641261
v -1.778417 1.384665 -0.501752
v -1.705145 1.514190 -0.501752
v -1.719982 1.351609 -0.342587
v -1.646711 1.481134 -0.342587
v -1.683999 1.331253 -0.169882
v -1.610727 1.460779 -0.169882
v -1.671848 1.324380 0.009724
v -1.598577 1.453905 0.009724
v -1.683999 1.331253 0.189330
v -1.610727 1.460779 0.189330
v -1.719982 1.351609 0.362035
v -1.646711 1.481134 0.362035
v -1.778417 1.384665 0.521200
v -1.705145 1.514190 0.521200
v -1.857057 1.429151 0.660709
v -1.783785 1.558676 0.660709
v -1.952879 1.483357 0.775202
v -1.879608 1.612882 0.775202
v -2.062203 1.545200 0.860277
v -1.988931 1.674726 0.860277
v -2.180826 1.612305 0.912667
v -2.107554 1.741830 0.912667
v -2.305223 1.853650 0.553589
v -2.230918 1.811616 0.564244
v -2.376672 1.894068 0.522034
v -2.442520 1.931318 0.470790
v -2.500237 1.963968 0.401829
v -2.547604 1.990763 0.317799
v -2.582800 2.010673 0.221930
v -2.604474 2.022934 0.117905
v -2.611793 2.027074 0.009724
v -2.604474 2.022934 -0.098457
v -2.582800 2.010673 -0.202482
v -2.547604 1.990763 -0.298351
v -2.500237 1.963968 -0.382381
v -2.442520 1.931318 -0.451342
v -2.376672 1.894068 -0.502585
v -2.305223 1.853650 -0.534141
v -2.230918 1.811616 -0.544796
v -2.156612 1.769582 -0.534141
v -2.085163 1.729164 -0.502585
v -2.019315 1.691914 -0.451342
v -1.961598 1.659264 -0.382381
v -1.914232 1.632469 -0.298351
v -1.879035 1.612558 -0.202482
v -1.857361 1.600298 -0.098457
v -1.850043 1.596158 0.009724
v -1.857361 1.600298 0.117905
v -1.879035 1.612558 0.221930
v -1.914232 1.632469 0.317799
v -1.961598 1.659264 0.401829
v -2.019315 1.691914 0.470790
v -2.085163 1.729164 0.522034
v -2.156612 1.769582 0.553589
v -2.324309 1.810346 0.553589
v -2.250004 1.768312 0.564244
v -2.395759 1.850765 0.522034
v -2.461607 1.888014 0.470790
v -2.519323 1.920664 0.401829
v -2.566690 1.947459 0.317799
v -2.601886 1.967370 0.221930
v -2.623560 1.979631 0.117905
v -2.630879 1.983770 0.009724
v -2.623560 1.979631 -0.098457
v -2.601886 1.967370 -0.202482
v -2.566690 1.947459 -0.298351
v -2.519323 1.920664 -0.382381
v -2.461607 1.888014 -0.451342
v -2.395759 1.850765 -0.502585
v -2.324309 1.810346 -0.534141
v -2.250004 1.768312 -0.544796
v -2.175699 1.726278 -0.534141
v -2.104249 1.685860 -0.502585
v -2.038402 1.648610 -0.451342
v -1.980685 1.615960 -0.382381
v -1.933319 1.589166 -0.298351
v -1.898122 1.569255 -0.202482
v -1.876448 1.556994 -0.098457
v -1.869129 1.552854 0.009724
v -1.876448 1.556994 0.117905
v -1.898122 1.569255 0.221930
v -1.933319 1.589166 0.317799
v -1.980685 1.615960 0.401829
v -2.038402 1.648610 0.470790
v -2.104249 1.685860 0.522034
v -2.175699 1.726278 0.553589
v 0.125312 0.182909 -0.210249
v -2.574830 1.880119 -0.210249
v 0.125312 0.182909 0.228100
v -2.574830 1.880119 0.228100
v -0.148656 -0.252954 -0.210249
v -2.848797 1.444255 -0.210249
v -0.148656 -0.252954 0.228100
v -2.848797 1.444255 0.228100
vn -0.1078 0.0610 0.9923
vn -0.3123 0.1767 0.9334
vn -0.4881 0.2761 0.8280
vn -0.6274 0.3549 0.6931
vn -0.7306 0.4133 0.5436
vn -0.8020 0.4537 0.3886
vn -0.8465 0.4788 0.2328
vn -0.8678 0.4909 0.0775
vn -0.8678 0.4909 -0.0775
vn -0.8465 0.4788 -0.2328
vn -0.8020 0.4537 -0.3886
vn -0.7306 0.4133 -0.5436
vn -0.6274 0.3549 -0.6931
vn -0.4881 0.2761 -0.8280
vn -0.3123 0.1767 -0.9334
vn -0.1078 0.0610 -0.9923
vn 0.1078 -0.0610 -0.9923
vn 0.3123 -0.1767 -0.9334
vn 0.4881 -0.2761 -0.8280
vn 0.6274 -0.3549 -0.6931
vn 0.7306 -0.4133 -0.5436
vn 0.8020 -0.4537 -0.3886
vn 0.8465 -0.4788 -0.2328
vn 0.8678 -0.4909 -0.0775
vn 0.8678 -0.4909 0.0775
vn 0.8465 -0.4788 0.2328
vn 0.8020 -0.4537 0.3886
vn 0.7306 -0.4133 0.5436
vn 0.6274 -0.3549 0.6931
vn 0.4881 -0.2761 0.8280
vn 0.4924 0.8704 -0.0000
vn 0.3123 -0.1767 0.9334
vn 0.1078 -0.0610 0.9923
vn -0.4924 -0.8704 -0.0000
vn 0.8438 -0.3719 0.3870
vn -0.9123 0.4021 -0.0771
vn 0.7692 -0.3390 0.5417
vn -0.8902 0.3923 -0.2317
vn 0.6612 -0.2914 0.6913
vn -0.8438 0.3719 -0.3870
vn 0.5149 -0.2270 0.8267
vn 0.1139 -0.0502 -0.9922
vn -0.7692 0.3390 -0.5417
vn 0.3298 -0.1453 0.9328
vn 0.3298 -0.1453 -0.9328
vn -0.6612 0.2914 -0.6913
vn 0.1139 -0.0502 0.9922
vn 0.5149 -0.2270 -0.8267
vn -0.5149 0.2270 -0.8267
vn -0.1139 0.0502 0.9922
vn 0.6612 -0.2914 -0.6913
vn -0.3298 0.1453 -0.9328
vn -0.3298 0.1453 0.9328
vn 0.7692 -0.3390 -0.5417
vn -0.1139 0.0502 -0.9922
vn -0.5149 0.2270 0.8267
vn 0.8438 -0.3719 -0.3870
vn -0.6612 0.2914 0.6913
vn 0.8902 -0.3923 -0.2317
vn -0.7692 0.3390 0.5417
vn 0.9123 -0.4021 -0.0771
vn -0.8438 0.3719 0.3870
vn 0.9123 -0.4021 0.0771
vn -0.8902 0.3923 0.2317
vn 0.8902 -0.3923 0.2317
vn -0.9123 0.4021 0.0771
vn 0.5322 0.8466 -0.0000
vn -0.0000 -0.0000 1.0000
vn -0.5322 -0.8466 -0.0000
vn -0.0000 -0.0000 -1.0000
vn 0.8466 -0.5322 -0.0000
vn -0.8466 0.5322 -0.0000
vt 1.000000 0.500000
vt 1.000000 1.000000
vt 0.968750 1.000000
vt 0.968750 0.500000
vt 0.937500 1.000000
vt 0.937500 0.500000
vt 0.906250 1.000000
vt 0.906250 0.500000
vt 0.875000 1.000000
vt 0.875000 0.500000
vt 0.843750 1.000000
vt 0.843750 0.500000
vt 0.812500 1.000000
vt 0.812500 0.500000
vt 0.781250 1.000000
vt 0.781250 0.500000
vt 0.750000 1.000000
vt 0.750000 0.500000
vt 0.718750 1.000000
vt 0.718750 0.500000
vt 0.687500 1.000000
vt 0.687500 0.500000
vt 0.656250 1.000000
vt 0.656250 0.500000
vt 0.625000 1.000000
vt 0.625000 0.500000
vt 0.593750 1.000000
vt 0.593750 0.500000
vt 0.562500 1.000000
vt 0.562500 0.500000
vt 0.531250 1.000000
vt 0.531250 0.500000
vt 0.500000 1.000000
vt 0.500000 0.500000
vt 0.468750 1.000000
vt 0.468750 0.500000
vt 0.437500 1.000000
vt 0.437500 0.500000
vt 0.406250 1.000000
vt 0.406250 0.500000
vt 0.375000 1.000000
vt 0.375000 0.500000
vt 0.343750 1.000000
vt 0.343750 0.500000
vt 0.312500 1.000000
vt 0.312500 0.500000
vt 0.281250 1.000000
vt 0.281250 0.500000
vt 0.250000 1.000000
vt 0.250000 0.500000
vt 0.218750 1.000000
vt 0.218750 0.500000
vt 0.187500 1.000000
vt 0.187500 0.500000
vt 0.156250 1.000000
vt 0.156250 0.500000
vt 0.125000 1.000000
vt 0.125000 0.500000
vt 0.093750 1.000000
vt 0.093750 0.500000
vt 0.062500 1.000000
vt 0.062500 0.500000
vt 0.031250 1.000000
vt 0.031250 0.500000
vt 0.000000 1.000000
vt 0.000000 0.500000
vt 0.750000 0.490000
vt 0.796822 0.485388
vt 0.841844 0.471731
vt 0.883337 0.449553
vt 0.919706 0.419706
vt 0.949553 0.383337
vt 0.971731 0.341844
vt 0.985388 0.296822
vt 0.990000 0.250000
vt 0.985388 0.203178
vt 0.971731 0.158156
vt 0.949553 0.116663
vt 0.919706 0.080294
vt 0.883337 0.050447
vt 0.841844 0.028269
vt 0.796822 0.014612
vt 0.750000 0.010000
vt 0.703178 0.014612
vt 0.658156 0.028269
vt 0.616663 0.050447
vt 0.580294 0.080294
vt 0.550447 0.116663
vt 0.528269 0.158156
vt 0.514612 0.203178
vt 0.510000 0.250000
vt 0.514612 0.296822
vt 0.528269 0.341844
vt 0.550447 0.383337
vt 0.580294 0.419706
vt 0.616663 0.449553
vt 0.658156 0.471731
vt 0.703178 0.485388
vt 0.296822 0.485388
vt 0.250000 0.490000
vt 0.203178 0.485388
vt 0.158156 0.471731
vt 0.116663 0.449553
vt 0.080294 0.419706
vt 0.050447 0.383337
vt 0.028269 0.341844
vt 0.014612 0.296822
vt 0.010000 0.250000
vt 0.014612 0.203178
vt 0.028269 0.158156
vt 0.050447 0.116663
vt 0.080294 0.080294
vt 0.116663 0.050447
vt 0.158156 0.028269
vt 0.203178 0.014612
vt 0.250000 0.010000
vt 0.296822 0.014612
vt 0.341844 0.028269
vt 0.383337 0.050447
vt 0.419706 0.080294
vt 0.449553 0.116663
vt 0.471731 0.158156
vt 0.485388 0.203178
vt 0.490000 0.250000
vt 0.485388 0.296822
vt 0.471731 0.341844
vt 0.449553 0.383337
vt 0.419706 0.419706
vt 0.383337 0.449553
vt 0.341844 0.471731
vt 0.375000 0.000000
vt 0.625000 0.000000
vt 0.625000 0.250000
vt 0.375000 0.250000
vt 0.625000 0.750000
vt 0.375000 0.750000
vt 0.125000 0.750000
vt 0.875000 0.750000
s 0
g off
g brazo_Material.002
usemtl Material.002
f 129/131/67 130/132/67 132/133/67 131/134/67
f 131/134/68 132/133/68 136/26/68 135/42/68
f 135/42/69 136/26/69 134/135/69 133/136/69
f 133/136/70 134/135/70 130/25/70 129/41/70
f 131/58/71 135/42/71 133/136/71 129/137/71
f 136/26/72 132/10/72 130/138/72 134/135/72
g brazo_Material.003
usemtl Material.003
f 1/1/1 2/2/1 4/3/1 3/4/1
f 3/4/2 4/3/2 6/5/2 5/6/2
f 5/6/3 6/5/3 8/7/3 7/8/3
f 7/8/4 8/7/4 10/9/4 9/10/4
f 9/10/5 10/9/5 12/11/5 11/12/5
f 11/12/6 12/11/6 14/13/6 13/14/6
f 13/14/7 14/13/7 16/15/7 15/16/7
f 15/16/8 16/15/8 18/17/8 17/18/8
f 17/18/9 18/17/9 20/19/9 19/20/9
f 19/20/10 20/19/10 22/21/10 21/22/10
f 21/22/11 22/21/11 24/23/11 23/24/11
f 23/24/12 24/23/12 26/25/12 25/26/12
f 25/26/13 26/25/13 28/27/13 27/28/13
f 27/28/14 28/27/14 30/29/14 29/30/14
f 29/30/15 30/29/15 32/31/15 31/32/15
f 31/32/16 32/31/16 34/33/16 33/34/16
f 33/34/17 34/33/17 36/35/17 35/36/17
f 35/36/18 36/35/18 38/37/18 37/38/18
f 37/38/19 38/37/19 40/39/19 39/40/19
f 39/40/20 40/39/20 42/41/20 41/42/20
f 41/42/21 42/41/21 44/43/21 43/44/21
f 43/44/22 44/43/22 46/45/22 45/46/22
f 45/46/23 46/45/23 48/47/23 47/48/23
f 47/48/24 48/47/24 50/49/24 49/50/24
f 49/50/25 50/49/25 52/51/25 51/52/25
f 51/52/26 52/51/26 54/53/26 53/54/26
f 53/54/27 54/53/27 56/55/27 55/56/27
f 55/56/28 56/55/28 58/57/28 57/58/28
f 57/58/29 58/57/29 60/59/29 59/60/29
f 59/60/30 60/59/30 62/61/30 61/62/30
f 20/19/31 18/17/31 73/17/31 74/19/31
f 61/62/32 62/61/32 64/63/32 63/64/32
f 63/64/33 64/63/33 2/65/33 1/66/33
f 1/67/34 3/68/34 5/69/34 7/70/34 9/71/34 11/72/34 13/73/34 15/74/34 17/75/34 19/76/34 21/77/34 23/78/34 25/79/34 27/80/34 29/81/34 31/82/34 33/83/34 35/84/34 37/85/34 39/86/34 41/87/34 43/88/34 45/89/34 47/90/34 49/91/34 51/92/34 53/93/34 55/94/34 57/95/34 59/96/34 61/97/34 63/98/34
f 76/23/35 75/21/35 107/21/35 108/23/35
f 38/37/31 36/35/31 82/35/31 83/37/31
f 56/55/31 54/53/31 91/53/31 92/55/31
f 12/11/31 10/9/31 69/9/31 70/11/31
f 30/29/31 28/27/31 78/27/31 79/29/31
f 48/47/31 46/45/31 87/45/31 88/47/31
f 4/3/31 2/2/31 66/2/31 65/3/31
f 2/65/31 64/63/31 96/63/31 66/65/31
f 22/21/31 20/19/31 74/19/31 75/21/31
f 40/39/31 38/37/31 83/37/31 84/39/31
f 58/57/31 56/55/31 92/55/31 93/57/31
f 14/13/31 12/11/31 70/11/31 71/13/31
f 32/31/31 30/29/31 79/29/31 80/31/31
f 50/49/31 48/47/31 88/47/31 89/49/31
f 6/5/31 4/3/31 65/3/31 67/5/31
f 24/23/31 22/21/31 75/21/31 76/23/31
f 42/41/31 40/39/31 84/39/31 85/41/31
f 60/59/31 58/57/31 93/57/31 94/59/31
f 16/15/31 14/13/31 71/13/31 72/15/31
f 34/33/31 32/31/31 80/31/31 81/33/31
f 52/51/31 50/49/31 89/49/31 90/51/31
f 8/7/31 6/5/31 67/5/31 68/7/31
f 26/25/31 24/23/31 76/23/31 77/25/31
f 44/43/31 42/41/31 85/41/31 86/43/31
f 62/61/31 60/59/31 94/59/31 95/61/31
f 18/17/31 16/15/31 72/15/31 73/17/31
f 36/35/31 34/33/31 81/33/31 82/35/31
f 54/53/31 52/51/31 90/51/31 91/53/31
f 10/9/31 8/7/31 68/7/31 69/9/31
f 28/27/31 26/25/31 77/25/31 78/27/31
f 46/45/31 44/43/31 86/43/31 87/45/31
f 64/63/31 62/61/31 95/61/31 96/63/31
f 97/99/31 98/100/31 128/101/31 127/102/31 126/103/31 125/104/31 124/105/31 123/106/31 122/107/31 121/108/31 120/109/31 119/110/31 118/111/31 117/112/31 116/113/31 115/114/31 114/115/31 113/116/31 112/117/31 111/118/31 110/119/31 109/120/31 108/121/31 107/122/31 106/123/31 105/124/31 104/125/31 103/126/31 102/127/31 101/128/31 100/129/31 99/130/31
f 90/51/36 89/49/36 121/49/36 122/51/36
f 77/25/37 76/23/37 108/23/37 109/25/37
f 91/53/38 90/51/38 122/51/38 123/53/38
f 78/27/39 77/25/39 109/25/39 110/27/39
f 92/55/40 91/53/40 123/53/40 124/55/40
f 79/29/41 78/27/41 110/27/41 111/29/41
f 65/3/42 66/2/42 98/2/42 97/3/42
f 93/57/43 92/55/43 124/55/43 125/57/43
f 80/31/44 79/29/44 111/29/44 112/31/44
f 67/5/45 65/3/45 97/3/45 99/5/45
f 94/59/46 93/57/46 125/57/46 126/59/46
f 81/33/47 80/31/47 112/31/47 113/33/47
f 68/7/48 67/5/48 99/5/48 100/7/48
f 95/61/49 94/59/49 126/59/49 127/61/49
f 82/35/50 81/33/50 113/33/50 114/35/50
f 69/9/51 68/7/51 100/7/51 101/9/51
f 96/63/52 95/61/52 127/61/52 128/63/52
f 83/37/53 82/35/53 114/35/53 115/37/53
f 70/11/54 69/9/54 101/9/54 102/11/54
f 66/65/55 96/63/55 128/63/55 98/65/55
f 84/39/56 83/37/56 115/37/56 116/39/56
f 71/13/57 70/11/57 102/11/57 103/13/57
f 85/41/58 84/39/58 116/39/58 117/41/58
f 72/15/59 71/13/59 103/13/59 104/15/59
f 86/43/60 85/41/60 117/41/60 118/43/60
f 73/17/61 72/15/61 104/15/61 105/17/61
f 87/45/62 86/43/62 118/43/62 119/45/62
f 74/19/63 73/17/63 105/17/63 106/19/63
f 88/47/64 87/45/64 119/45/64 120/47/64
f 75/21/65 74/19/65 106/19/65 107/21/65
f 89/49/66 88/47/66 120/47/66 121/49/66
