# Blender 5.1.1
# www.blender.org
mtllib hoyo.mtl
g Cylinder_Cylinder.001
v 0.000000 -0.080714 1.000000
v 0.000000 0.080714 1.596292
v -0.195090 -0.080714 0.980785
v -0.311421 0.080714 1.565620
v -0.382683 -0.080714 0.923880
v -0.610875 0.080714 1.474782
v -0.555570 -0.080714 0.831470
v -0.886853 0.080714 1.327268
v -0.707107 -0.080714 0.707107
v -1.128749 0.080714 1.128749
v -0.831470 -0.080714 0.555570
v -1.327268 0.080714 0.886853
v -0.923880 -0.080714 0.382683
v -1.474782 0.080714 0.610875
v -0.980785 -0.080714 0.195090
v -1.565620 0.080714 0.311421
v -1.000000 -0.080714 0.000000
v -1.596292 0.080714 -0.000000
v -0.980785 -0.080714 -0.195090
v -1.565620 0.080714 -0.311421
v -0.923880 -0.080714 -0.382683
v -1.474782 0.080714 -0.610875
v -0.831470 -0.080714 -0.555570
v -1.327268 0.080714 -0.886853
v -0.707107 -0.080714 -0.707107
v -1.128749 0.080714 -1.128749
v -0.555570 -0.080714 -0.831470
v -0.886853 0.080714 -1.327268
v -0.382683 -0.080714 -0.923880
v -0.610875 0.080714 -1.474782
v -0.195090 -0.080714 -0.980785
v -0.311421 0.080714 -1.565620
v 0.000000 -0.080714 -1.000000
v 0.000000 0.080714 -1.596292
v 0.195090 -0.080714 -0.980785
v 0.311421 0.080714 -1.565620
v 0.382683 -0.080714 -0.923880
v 0.610875 0.080714 -1.474782
v 0.555570 -0.080714 -0.831470
v 0.886853 0.080714 -1.327268
v 0.707107 -0.080714 -0.707107
v 1.128749 0.080714 -1.128749
v 0.831470 -0.080714 -0.555570
v 1.327268 0.080714 -0.886853
v 0.923880 -0.080714 -0.382683
v 1.474782 0.080714 -0.610875
v 0.980785 -0.080714 -0.195090
v 1.565620 0.080714 -0.311421
v 1.000000 -0.080714 0.000000
v 1.596292 0.080714 -0.000000
v 0.980785 -0.080714 0.195090
v 1.565620 0.080714 0.311421
v 0.923880 -0.080714 0.382683
v 1.474782 0.080714 0.610875
v 0.831470 -0.080714 0.555570
v 1.327268 0.080714 0.886853
v 0.707107 -0.080714 0.707107
v 1.128749 0.080714 1.128749
v 0.555570 -0.080714 0.831470
v 0.886853 0.080714 1.327268
v 0.382683 -0.080714 0.923880
v 0.610875 0.080714 1.474782
v 0.195090 -0.080714 0.980785
v 0.311421 0.080714 1.565620
v -0.228054 -0.019384 1.146503
v 0.000000 -0.019384 1.168964
v -0.447343 -0.019384 1.079982
v -0.649442 -0.019384 0.971958
v -0.826583 -0.019384 0.826583
v -0.971958 -0.019384 0.649442
v -1.079982 -0.019384 0.447343
v -1.146503 -0.019384 0.228054
v -1.168964 -0.019384 0.000000
v -1.146503 -0.019384 -0.228054
v -1.079982 -0.019384 -0.447343
v -0.971958 -0.019384 -0.649442
v -0.826583 -0.019384 -0.826582
v -0.649442 -0.019384 -0.971958
v -0.447343 -0.019384 -1.079982
v -0.228054 -0.019384 -1.146503
v 0.000000 -0.019384 -1.168964
v 0.228054 -0.019384 -1.146503
v 0.447343 -0.019384 -1.079982
v 0.649442 -0.019384 -0.971958
v 0.826582 -0.019384 -0.826582
v 0.971958 -0.019384 -0.649442
v 1.079982 -0.019384 -0.447343
v 1.146503 -0.019384 -0.228054
v 1.168964 -0.019384 0.000000
v 1.146503 -0.019384 0.228054
v 1.079982 -0.019384 0.447343
v 0.971958 -0.019384 0.649442
v 0.826582 -0.019384 0.826583
v 0.649442 -0.019384 0.971958
v 0.447343 -0.019384 1.079982
v 0.228054 -0.019384 1.146503
v 0.000000 -0.625783 1.000000
v -0.195090 -0.625783 0.980785
v -0.382683 -0.625783 0.923880
v -0.555570 -0.625783 0.831470
v -0.707107 -0.625783 0.707107
v -0.831470 -0.625783 0.555570
v -0.923880 -0.625783 0.382683
v -0.980785 -0.625783 0.195090
v -1.000000 -0.625783 0.000000
v -0.980785 -0.625783 -0.195090
v -0.923880 -0.625783 -0.382683
v -0.831470 -0.625783 -0.555570
v -0.707107 -0.625783 -0.707107
v -0.555570 -0.625783 -0.831470
v -0.382683 -0.625783 -0.923880
v -0.195090 -0.625783 -0.980785
v 0.000000 -0.625783 -1.000000
v 0.195090 -0.625783 -0.980785
v 0.382683 -0.625783 -0.923880
v 0.555570 -0.625783 -0.831470
v 0.707107 -0.625783 -0.707107
v 0.831470 -0.625783 -0.555570
v 0.923880 -0.625783 -0.382683
v 0.980785 -0.625783 -0.195090
v 1.000000 -0.625783 0.000000
v 0.980785 -0.625783 0.195090
v 0.923880 -0.625783 0.382683
v 0.831470 -0.625783 0.555570
v 0.707107 -0.625783 0.707107
v 0.555570 -0.625783 0.831470
v 0.382683 -0.625783 0.923880
v 0.195090 -0.625783 0.980785
v -0.228054 -0.019384 1.146503
v 0.000000 -0.019384 1.168964
v -0.447343 -0.019384 1.079982
v -0.649442 -0.019384 0.971958
v -0.826583 -0.019384 0.826583
v -0.971958 -0.019384 0.649442
v -1.079982 -0.019384 0.447343
v -1.146503 -0.019384 0.228054
v -1.168964 -0.019384 0.000000
v -1.146503 -0.019384 -0.228054
v -1.079982 -0.019384 -0.447343
v -0.971958 -0.019384 -0.649442
v -0.826583 -0.019384 -0.826582
v -0.649442 -0.019384 -0.971958
v -0.447343 -0.019384 -1.079982
v -0.228054 -0.019384 -1.146503
v 0.000000 -0.019384 -1.168964
v 0.228054 -0.019384 -1.146503
v 0.447343 -0.019384 -1.079982
v 0.649442 -0.019384 -0.971958
v 0.826582 -0.019384 -0.826582
v 0.971958 -0.019384 -0.649442
v 1.079982 -0.019384 -0.447343
v 1.146503 -0.019384 -0.228054
v 1.168964 -0.019384 0.000000
v 1.146503 -0.019384 0.228054
v 1.079982 -0.019384 0.447343
v 0.971958 -0.019384 0.649442
v 0.826582 -0.019384 0.826583
v 0.649442 -0.019384 0.971958
v 0.447343 -0.019384 1.079982
v 0.228054 -0.019384 1.146503
v 0.000000 -0.057917 1.596292
v -0.311421 -0.057917 1.565620
v -0.610875 -0.057917 1.474782
v -0.886853 -0.057917 1.327268
v -1.128749 -0.057917 1.128749
v -1.327268 -0.057917 0.886853
v -1.474782 -0.057917 0.610875
v -1.565620 -0.057917 0.311421
v -1.596292 -0.057917 -0.000000
v -1.565620 -0.057917 -0.311421
v -1.474782 -0.057917 -0.610875
v -1.327268 -0.057917 -0.886853
v -1.128749 -0.057917 -1.128749
v -0.886853 -0.057917 -1.327268
v -0.610875 -0.057917 -1.474782
v -0.311421 -0.057917 -1.565620
v 0.000000 -0.057917 -1.596292
v 0.311421 -0.057917 -1.565620
v 0.610875 -0.057917 -1.474782
v 0.886853 -0.057917 -1.327268
v 1.128749 -0.057917 -1.128749
v 1.327268 -0.057917 -0.886853
v 1.474782 -0.057917 -0.610875
v 1.565620 -0.057917 -0.311421
v 1.596292 -0.057917 -0.000000
v 1.565620 -0.057917 0.311421
v 1.474782 -0.057917 0.610875
v 1.327268 -0.057917 0.886853
v 1.128749 -0.057917 1.128749
v 0.886853 -0.057917 1.327268
v 0.610875 -0.057917 1.474782
v 0.311421 -0.057917 1.565620
vn -0.0257 -0.9649 0.2612
vn -0.0762 -0.9649 0.2512
vn -0.1237 -0.9649 0.2315
vn -0.1665 -0.9649 0.2029
vn -0.2029 -0.9649 0.1665
vn -0.2315 -0.9649 0.1237
vn -0.2512 -0.9649 0.0762
vn -0.2612 -0.9649 0.0257
vn -0.2612 -0.9649 -0.0257
vn -0.2512 -0.9649 -0.0762
vn -0.2315 -0.9649 -0.1237
vn -0.2029 -0.9649 -0.1665
vn -0.1665 -0.9649 -0.2029
vn -0.1237 -0.9649 -0.2315
vn -0.0762 -0.9649 -0.2512
vn -0.0257 -0.9649 -0.2612
vn 0.0257 -0.9649 -0.2612
vn 0.0762 -0.9649 -0.2512
vn 0.1237 -0.9649 -0.2315
vn 0.1665 -0.9649 -0.2029
vn 0.2029 -0.9649 -0.1665
vn 0.2315 -0.9649 -0.1237
vn 0.2512 -0.9649 -0.0762
vn 0.2612 -0.9649 -0.0257
vn 0.2612 -0.9649 0.0257
vn 0.2512 -0.9649 0.0762
vn 0.2315 -0.9649 0.1237
vn 0.2029 -0.9649 0.1665
vn 0.1665 -0.9649 0.2029
vn 0.1237 -0.9649 0.2315
vn -0.1771 0.9734 0.1453
vn 0.0762 -0.9649 0.2512
vn 0.0257 -0.9649 0.2612
vn -0.9952 -0.0000 0.0980
vn -0.0000 1.0000 -0.0000
vn -0.1080 0.9734 -0.2021
vn 0.2280 0.9734 -0.0225
vn -0.0225 0.9734 0.2280
vn -0.2192 0.9734 -0.0665
vn 0.1453 0.9734 -0.1771
vn 0.1453 0.9734 0.1771
vn -0.2021 0.9734 0.1080
vn -0.0665 0.9734 -0.2192
vn 0.2280 0.9734 0.0225
vn -0.0665 0.9734 0.2192
vn -0.2021 0.9734 -0.1080
vn 0.1771 0.9734 -0.1453
vn 0.1080 0.9734 0.2021
vn -0.2192 0.9734 0.0665
vn 0.0225 0.9734 -0.2280
vn -0.0225 0.9734 -0.2280
vn 0.2192 0.9734 0.0665
vn -0.1080 0.9734 0.2021
vn -0.1771 0.9734 -0.1453
vn 0.2021 0.9734 -0.1080
vn 0.0665 0.9734 0.2192
vn -0.2280 0.9734 0.0225
vn 0.0665 0.9734 -0.2192
vn 0.2021 0.9734 0.1080
vn -0.1453 0.9734 0.1771
vn -0.1453 0.9734 -0.1771
vn 0.2192 0.9734 -0.0665
vn 0.0225 0.9734 0.2280
vn -0.2280 0.9734 -0.0225
vn 0.1080 0.9734 -0.2021
vn 0.1771 0.9734 0.1453
vn -0.0000 -1.0000 -0.0000
vn 0.0980 -0.0000 -0.9952
vn 0.9569 -0.0000 0.2903
vn -0.6344 -0.0000 0.7730
vn -0.6344 -0.0000 -0.7730
vn 0.8819 -0.0000 -0.4714
vn 0.2903 -0.0000 0.9569
vn -0.9952 -0.0000 -0.0980
vn 0.2903 -0.0000 -0.9569
vn 0.8819 -0.0000 0.4714
vn -0.7730 -0.0000 0.6344
vn -0.4714 -0.0000 -0.8819
vn 0.9569 -0.0000 -0.2903
vn -0.0980 -0.0000 0.9952
vn 0.0980 -0.0000 0.9952
vn -0.9569 -0.0000 -0.2903
vn 0.4714 -0.0000 -0.8819
vn 0.7730 -0.0000 0.6344
vn -0.8819 -0.0000 0.4714
vn -0.2903 -0.0000 -0.9569
vn 0.9952 -0.0000 -0.0980
vn -0.2903 -0.0000 0.9569
vn -0.8819 -0.0000 -0.4714
vn 0.6344 -0.0000 -0.7730
vn 0.6344 -0.0000 0.7730
vn -0.9569 -0.0000 0.2903
vn -0.0980 -0.0000 -0.9952
vn 0.9952 -0.0000 0.0980
vn -0.4714 -0.0000 0.8819
vn -0.7730 -0.0000 -0.6344
vn 0.7730 -0.0000 -0.6344
vn 0.4714 -0.0000 0.8819
vt 1.000000 0.500000
vt 1.000000 1.000000
vt 0.968750 1.000000
vt 0.968750 0.500000
vt 0.937500 1.000000
vt 0.937500 0.500000
vt 0.906250 1.000000
vt 0.906250 0.500000
vt 0.875000 1.000000
vt 0.875000 0.500000
vt 0.843750 1.000000
vt 0.843750 0.500000
vt 0.812500 1.000000
vt 0.812500 0.500000
vt 0.781250 1.000000
vt 0.781250 0.500000
vt 0.750000 1.000000
vt 0.750000 0.500000
vt 0.718750 1.000000
vt 0.718750 0.500000
vt 0.687500 1.000000
vt 0.687500 0.500000
vt 0.656250 1.000000
vt 0.656250 0.500000
vt 0.625000 1.000000
vt 0.625000 0.500000
vt 0.593750 1.000000
vt 0.593750 0.500000
vt 0.562500 1.000000
vt 0.562500 0.500000
vt 0.531250 1.000000
vt 0.531250 0.500000
vt 0.500000 1.000000
vt 0.500000 0.500000
vt 0.468750 1.000000
vt 0.468750 0.500000
vt 0.437500 1.000000
vt 0.437500 0.500000
vt 0.406250 1.000000
vt 0.406250 0.500000
vt 0.375000 1.000000
vt 0.375000 0.500000
vt 0.343750 1.000000
vt 0.343750 0.500000
vt 0.312500 1.000000
vt 0.312500 0.500000
vt 0.281250 1.000000
vt 0.281250 0.500000
vt 0.250000 1.000000
vt 0.250000 0.500000
vt 0.218750 1.000000
vt 0.218750 0.500000
vt 0.187500 1.000000
vt 0.187500 0.500000
vt 0.156250 1.000000
vt 0.156250 0.500000
vt 0.125000 1.000000
vt 0.125000 0.500000
vt 0.093750 1.000000
vt 0.093750 0.500000
vt 0.062500 1.000000
vt 0.062500 0.500000
vt 0.031250 1.000000
vt 0.031250 0.500000
vt 0.000000 1.000000
vt 0.000000 0.500000
vt 0.750000 0.490000
vt 0.796822 0.485388
vt 0.841844 0.471731
vt 0.883337 0.449553
vt 0.919706 0.419706
vt 0.949553 0.383337
vt 0.971731 0.341844
vt 0.985388 0.296822
vt 0.990000 0.250000
vt 0.985388 0.203178
vt 0.971731 0.158156
vt 0.949553 0.116663
vt 0.919706 0.080294
vt 0.883337 0.050447
vt 0.841844 0.028269
vt 0.796822 0.014612
vt 0.750000 0.010000
vt 0.703178 0.014612
vt 0.658156 0.028269
vt 0.616663 0.050447
vt 0.580294 0.080294
vt 0.550447 0.116663
vt 0.528269 0.158156
vt 0.514612 0.203178
vt 0.510000 0.250000
vt 0.514612 0.296822
vt 0.528269 0.341844
vt 0.550447 0.383337
vt 0.580294 0.419706
vt 0.616663 0.449553
vt 0.658156 0.471731
vt 0.703178 0.485388
s 0
g off
g Cylinder_Material.008
usemtl Material.008
f 1/1/1 2/2/1 4/3/1 3/4/1
f 3/4/2 4/3/2 6/5/2 5/6/2
f 5/6/3 6/5/3 8/7/3 7/8/3
f 7/8/4 8/7/4 10/9/4 9/10/4
f 9/10/5 10/9/5 12/11/5 11/12/5
f 11/12/6 12/11/6 14/13/6 13/14/6
f 13/14/7 14/13/7 16/15/7 15/16/7
f 15/16/8 16/15/8 18/17/8 17/18/8
f 17/18/9 18/17/9 20/19/9 19/20/9
f 19/20/10 20/19/10 22/21/10 21/22/10
f 21/22/11 22/21/11 24/23/11 23/24/11
f 23/24/12 24/23/12 26/25/12 25/26/12
f 25/26/13 26/25/13 28/27/13 27/28/13
f 27/28/14 28/27/14 30/29/14 29/30/14
f 29/30/15 30/29/15 32/31/15 31/32/15
f 31/32/16 32/31/16 34/33/16 33/34/16
f 33/34/17 34/33/17 36/35/17 35/36/17
f 35/36/18 36/35/18 38/37/18 37/38/18
f 37/38/19 38/37/19 40/39/19 39/40/19
f 39/40/20 40/39/20 42/41/20 41/42/20
f 41/42/21 42/41/21 44/43/21 43/44/21
f 43/44/22 44/43/22 46/45/22 45/46/22
f 45/46/23 46/45/23 48/47/23 47/48/23
f 47/48/24 48/47/24 50/49/24 49/50/24
f 49/50/25 50/49/25 52/51/25 51/52/25
f 51/52/26 52/51/26 54/53/26 53/54/26
f 53/54/27 54/53/27 56/55/27 55/56/27
f 55/56/28 56/55/28 58/57/28 57/58/28
f 57/58/29 58/57/29 60/59/29 59/60/29
f 59/60/30 60/59/30 62/61/30 61/62/30
f 44/43/31 42/41/31 85/41/31 86/43/31
f 61/62/32 62/61/32 64/63/32 63/64/32
f 63/64/33 64/63/33 2/65/33 1/66/33
f 15/16/34 17/18/34 105/18/34 104/16/34
f 86/43/35 85/41/35 149/41/35 150/43/35
f 62/61/36 60/59/36 94/59/36 95/61/36
f 18/17/37 16/15/37 72/15/37 73/17/37
f 36/35/38 34/33/38 81/33/38 82/35/38
f 54/53/39 52/51/39 90/51/39 91/53/39
f 10/9/40 8/7/40 68/7/40 69/9/40
f 28/27/41 26/25/41 77/25/41 78/27/41
f 46/45/42 44/43/42 86/43/42 87/45/42
f 64/63/43 62/61/43 95/61/43 96/63/43
f 20/19/44 18/17/44 73/17/44 74/19/44
f 38/37/45 36/35/45 82/35/45 83/37/45
f 56/55/46 54/53/46 91/53/46 92/55/46
f 12/11/47 10/9/47 69/9/47 70/11/47
f 30/29/48 28/27/48 78/27/48 79/29/48
f 48/47/49 46/45/49 87/45/49 88/47/49
f 4/3/50 2/2/50 66/2/50 65/3/50
f 2/65/51 64/63/51 96/63/51 66/65/51
f 22/21/52 20/19/52 74/19/52 75/21/52
f 40/39/53 38/37/53 83/37/53 84/39/53
f 58/57/54 56/55/54 92/55/54 93/57/54
f 14/13/55 12/11/55 70/11/55 71/13/55
f 32/31/56 30/29/56 79/29/56 80/31/56
f 50/49/57 48/47/57 88/47/57 89/49/57
f 6/5/58 4/3/58 65/3/58 67/5/58
f 24/23/59 22/21/59 75/21/59 76/23/59
f 42/41/60 40/39/60 84/39/60 85/41/60
f 60/59/61 58/57/61 93/57/61 94/59/61
f 16/15/62 14/13/62 71/13/62 72/15/62
f 34/33/63 32/31/63 80/31/63 81/33/63
f 52/51/64 50/49/64 89/49/64 90/51/64
f 8/7/65 6/5/65 67/5/65 68/7/65
f 26/25/66 24/23/66 76/23/66 77/25/66
f 97/67/67 98/68/67 99/69/67 100/70/67 101/71/67 102/72/67 103/73/67 104/74/67 105/75/67 106/76/67 107/77/67 108/78/67 109/79/67 110/80/67 111/81/67 112/82/67 113/83/67 114/84/67 115/85/67 116/86/67 117/87/67 118/88/67 119/89/67 120/90/67 121/91/67 122/92/67 123/93/67 124/94/67 125/95/67 126/96/67 127/97/67 128/98/67
f 33/34/68 35/36/68 114/36/68 113/34/68
f 51/52/69 53/54/69 123/54/69 122/52/69
f 7/8/70 9/10/70 101/10/70 100/8/70
f 25/26/71 27/28/71 110/28/71 109/26/71
f 43/44/72 45/46/72 119/46/72 118/44/72
f 61/62/73 63/64/73 128/64/73 127/62/73
f 17/18/74 19/20/74 106/20/74 105/18/74
f 35/36/75 37/38/75 115/38/75 114/36/75
f 53/54/76 55/56/76 124/56/76 123/54/76
f 9/10/77 11/12/77 102/12/77 101/10/77
f 27/28/78 29/30/78 111/30/78 110/28/78
f 45/46/79 47/48/79 120/48/79 119/46/79
f 1/1/80 3/4/80 98/4/80 97/1/80
f 63/64/81 1/66/81 97/66/81 128/64/81
f 19/20/82 21/22/82 107/22/82 106/20/82
f 37/38/83 39/40/83 116/40/83 115/38/83
f 55/56/84 57/58/84 125/58/84 124/56/84
f 11/12/85 13/14/85 103/14/85 102/12/85
f 29/30/86 31/32/86 112/32/86 111/30/86
f 47/48/87 49/50/87 121/50/87 120/48/87
f 3/4/88 5/6/88 99/6/88 98/4/88
f 21/22/89 23/24/89 108/24/89 107/22/89
f 39/40/90 41/42/90 117/42/90 116/40/90
f 57/58/91 59/60/91 126/60/91 125/58/91
f 13/14/92 15/16/92 104/16/92 103/14/92
f 31/32/93 33/34/93 113/34/93 112/32/93
f 49/50/94 51/52/94 122/52/94 121/50/94
f 5/6/95 7/8/95 100/8/95 99/6/95
f 23/24/96 25/26/96 109/26/96 108/24/96
f 41/42/97 43/44/97 118/44/97 117/42/97
f 59/60/98 61/62/98 127/62/98 126/60/98
f 73/17/35 72/15/35 136/15/35 137/17/35
f 87/45/35 86/43/35 150/43/35 151/45/35
f 74/19/35 73/17/35 137/17/35 138/19/35
f 88/47/35 87/45/35 151/45/35 152/47/35
f 75/21/35 74/19/35 138/19/35 139/21/35
f 89/49/35 88/47/35 152/47/35 153/49/35
f 76/23/35 75/21/35 139/21/35 140/23/35
f 90/51/35 89/49/35 153/49/35 154/51/35
f 77/25/35 76/23/35 140/23/35 141/25/35
f 91/53/35 90/51/35 154/51/35 155/53/35
f 78/27/35 77/25/35 141/25/35 142/27/35
f 92/55/35 91/53/35 155/53/35 156/55/35
f 79/29/35 78/27/35 142/27/35 143/29/35
f 65/3/35 66/2/35 130/2/35 129/3/35
f 93/57/35 92/55/35 156/55/35 157/57/35
f 80/31/35 79/29/35 143/29/35 144/31/35
f 67/5/35 65/3/35 129/3/35 131/5/35
f 94/59/35 93/57/35 157/57/35 158/59/35
f 81/33/35 80/31/35 144/31/35 145/33/35
f 68/7/35 67/5/35 131/5/35 132/7/35
f 95/61/35 94/59/35 158/59/35 159/61/35
f 82/35/35 81/33/35 145/33/35 146/35/35
f 69/9/35 68/7/35 132/7/35 133/9/35
f 96/63/35 95/61/35 159/61/35 160/63/35
f 83/37/35 82/35/35 146/35/35 147/37/35
f 70/11/35 69/9/35 133/9/35 134/11/35
f 66/65/35 96/63/35 160/63/35 130/65/35
f 84/39/35 83/37/35 147/37/35 148/39/35
f 71/13/35 70/11/35 134/11/35 135/13/35
f 85/41/35 84/39/35 148/39/35 149/41/35
f 72/15/35 71/13/35 135/13/35 136/15/35
f 42/41/97 44/43/97 182/43/97 181/41/97
f 60/59/98 62/61/98 191/61/98 190/59/98
f 16/15/34 18/17/34 169/17/34 168/15/34
f 34/33/68 36/35/68 178/35/68 177/33/68
f 52/51/69 54/53/69 187/53/69 186/51/69
f 8/7/70 10/9/70 165/9/70 164/7/70
f 26/25/71 28/27/71 174/27/71 173/25/71
f 44/43/72 46/45/72 183/45/72 182/43/72
f 62/61/73 64/63/73 192/63/73 191/61/73
f 18/17/74 20/19/74 170/19/74 169/17/74
f 36/35/75 38/37/75 179/37/75 178/35/75
f 54/53/76 56/55/76 188/55/76 187/53/76
f 10/9/77 12/11/77 166/11/77 165/9/77
f 28/27/78 30/29/78 175/29/78 174/27/78
f 46/45/79 48/47/79 184/47/79 183/45/79
f 2/2/80 4/3/80 162/3/80 161/2/80
f 64/63/81 2/65/81 161/65/81 192/63/81
f 20/19/82 22/21/82 171/21/82 170/19/82
f 38/37/83 40/39/83 180/39/83 179/37/83
f 56/55/84 58/57/84 189/57/84 188/55/84
f 12/11/85 14/13/85 167/13/85 166/11/85
f 30/29/86 32/31/86 176/31/86 175/29/86
f 48/47/87 50/49/87 185/49/87 184/47/87
f 4/3/88 6/5/88 163/5/88 162/3/88
f 22/21/89 24/23/89 172/23/89 171/21/89
f 40/39/90 42/41/90 181/41/90 180/39/90
f 58/57/91 60/59/91 190/59/91 189/57/91
f 14/13/92 16/15/92 168/15/92 167/13/92
f 32/31/93 34/33/93 177/33/93 176/31/93
f 50/49/94 52/51/94 186/51/94 185/49/94
f 6/5/95 8/7/95 164/7/95 163/5/95
f 24/23/96 26/25/96 173/25/96 172/23/96
