# Blender 5.1.1
# www.blender.org
mtllib lampara.mtl
g LightPart_Sphere_Mesh
v -7.027680 0.000000 13.852616
v -6.750762 0.000000 13.852024
v -6.493424 0.000000 13.831039
v -6.265558 0.000000 13.790469
v -6.075919 0.000000 13.731872
v -5.931795 0.000000 13.657499
v -5.838725 0.000000 13.570210
v -5.800285 0.000000 13.473358
v -5.817953 0.000000 13.370667
v -5.891050 0.000000 13.266080
v -6.029702 0.000000 13.287883
v -6.203207 0.000000 13.191484
v -6.417832 0.000000 13.104853
v -6.665331 0.000000 13.031318
v -6.936191 0.000000 12.973705
v -7.033154 -0.038060 13.852046
v -6.761497 -0.074658 13.850906
v -6.509010 -0.108386 13.829417
v -6.285395 -0.137950 13.788404
v -6.099245 -0.162212 13.729444
v -5.957713 -0.180240 13.654801
v -5.866240 -0.191342 13.567346
v -5.828339 -0.195090 13.470438
v -5.845468 -0.191342 13.367803
v -5.916968 -0.180240 13.263382
v -6.053028 -0.162212 13.285455
v -6.223044 -0.137950 13.189420
v -6.433418 -0.108386 13.103230
v -6.676067 -0.074658 13.030200
v -6.941664 -0.038060 12.973135
v -7.049362 -0.074658 13.850359
v -6.793292 -0.146447 13.847597
v -6.555169 -0.212608 13.824612
v -6.344144 -0.270598 13.782289
v -6.168326 -0.318190 13.722253
v -6.034472 -0.353553 13.646811
v -5.947727 -0.375330 13.558864
v -5.911423 -0.382684 13.461790
v -5.926955 -0.375330 13.359320
v -5.993728 -0.353554 13.255392
v -6.122109 -0.318190 13.278264
v -6.281793 -0.270598 13.183304
v -6.479577 -0.212608 13.098426
v -6.707861 -0.146447 13.026891
v -6.957873 -0.074658 12.971448
v -7.075684 -0.108387 13.847619
v -6.844924 -0.212608 13.842222
v -6.630127 -0.308658 13.816810
v -6.439547 -0.392848 13.772358
v -6.280508 -0.461940 13.710575
v -6.159122 -0.513280 13.633836
v -6.080055 -0.544895 13.545089
v -6.046343 -0.555570 13.447745
v -6.059283 -0.544895 13.345546
v -6.118378 -0.513280 13.242416
v -6.234291 -0.461940 13.266586
v -6.377196 -0.392848 13.173373
v -6.554535 -0.308658 13.090623
v -6.759493 -0.212608 13.021516
v -6.984195 -0.108386 12.968708
v -7.111107 -0.137950 13.843931
v -6.914409 -0.270598 13.834990
v -6.731003 -0.392848 13.806309
v -6.567938 -0.500000 13.758993
v -6.431480 -0.587938 13.694860
v -6.326873 -0.653282 13.616374
v -6.258138 -0.693520 13.526551
v -6.227915 -0.707107 13.428844
v -6.237366 -0.693520 13.327008
v -6.286129 -0.653282 13.224955
v -6.385263 -0.587938 13.250871
v -6.505587 -0.500000 13.160008
v -6.655411 -0.392848 13.080122
v -6.828978 -0.270598 13.014283
v -7.019618 -0.137950 12.965021
v -7.154270 -0.162212 13.839438
v -6.999076 -0.318190 13.826176
v -6.853921 -0.461940 13.793513
v -6.724382 -0.587938 13.742708
v -6.615439 -0.691342 13.675711
v -6.531278 -0.768178 13.595097
v -6.475133 -0.815493 13.503963
v -6.449161 -0.831470 13.405814
v -6.454361 -0.815493 13.304420
v -6.490533 -0.768178 13.203677
v -6.569222 -0.691342 13.231722
v -6.662032 -0.587938 13.143723
v -6.778329 -0.461940 13.067327
v -6.913645 -0.318190 13.005469
v -7.062780 -0.162212 12.960527
v -7.203515 -0.180240 13.834312
v -7.095672 -0.353554 13.816120
v -6.994157 -0.513280 13.778916
v -6.902869 -0.653282 13.724129
v -6.825317 -0.768178 13.653864
v -6.764482 -0.853554 13.570822
v -6.722701 -0.906128 13.478193
v -6.701579 -0.923880 13.379539
v -6.701929 -0.906128 13.278649
v -6.723737 -0.853554 13.179402
v -6.779100 -0.768178 13.209875
v -6.840518 -0.653282 13.125144
v -6.918565 -0.513280 13.052730
v -7.010242 -0.353553 12.995415
v -7.112025 -0.180240 12.955401
v -7.256948 -0.191342 13.828751
v -7.200485 -0.375331 13.805210
v -7.146321 -0.544895 13.763077
v -7.096538 -0.693520 13.703969
v -7.053048 -0.815493 13.630157
v -7.017523 -0.906128 13.544481
v -6.991327 -0.961940 13.450231
v -6.975469 -0.980785 13.351028
v -6.970556 -0.961940 13.250687
v -6.976778 -0.906128 13.153062
v -7.006831 -0.815493 13.186170
v -7.034187 -0.693520 13.104984
v -7.070730 -0.544895 13.036890
v -7.115054 -0.375330 12.984504
v -7.165458 -0.191342 12.949840
v -7.312517 -0.195091 13.822966
v -7.309487 -0.382684 13.793863
v -7.304568 -0.555570 13.746604
v -7.297947 -0.707107 13.683003
v -7.289880 -0.831470 13.605505
v -7.280676 -0.923880 13.517088
v -7.270690 -0.980785 13.421150
v -7.260304 -1.000000 13.321379
v -7.249918 -0.980785 13.221607
v -7.239932 -0.923880 13.125669
v -7.243663 -0.831470 13.161516
v -7.235596 -0.707107 13.084019
v -7.228976 -0.555570 13.020417
v -7.224056 -0.382684 12.973158
v -7.221027 -0.195090 12.944056
v -7.368085 -0.191342 13.817182
v -7.418489 -0.375330 13.782517
v -7.462814 -0.544895 13.730131
v -7.499356 -0.693520 13.662038
v -7.526712 -0.815493 13.580853
v -7.543830 -0.906128 13.489696
v -7.550052 -0.961940 13.392071
v -7.545140 -0.980785 13.291729
v -7.529281 -0.961940 13.192527
v -7.503085 -0.906128 13.098276
v -7.480495 -0.815493 13.136864
v -7.437005 -0.693520 13.063053
v -7.387222 -0.544895 13.003944
v -7.333058 -0.375330 12.961811
v -7.276595 -0.191342 12.938271
v -7.421518 -0.180240 13.811620
v -7.523302 -0.353554 13.771606
v -7.614979 -0.513280 13.714292
v -7.693025 -0.653282 13.641877
v -7.754443 -0.768178 13.557147
v -7.796871 -0.853553 13.463355
v -7.818679 -0.906127 13.364108
v -7.819029 -0.923880 13.263219
v -7.797907 -0.906127 13.164564
v -7.756126 -0.853553 13.071936
v -7.708226 -0.768178 13.113158
v -7.630674 -0.653282 13.042892
v -7.539387 -0.513280 12.988105
v -7.437871 -0.353553 12.950901
v -7.330029 -0.180240 12.932709
v -7.470763 -0.162212 13.806494
v -7.619898 -0.318190 13.761552
v -7.755215 -0.461940 13.699694
v -7.871511 -0.587938 13.623298
v -7.964321 -0.691342 13.535299
v -8.030074 -0.768178 13.439080
v -8.066247 -0.815493 13.338338
v -8.071446 -0.831470 13.236943
v -8.045475 -0.815493 13.138794
v -7.989330 -0.768178 13.047661
v -7.918104 -0.691342 13.091311
v -7.809161 -0.587938 13.024313
v -7.679623 -0.461940 12.973508
v -7.534467 -0.318190 12.940845
v -7.379273 -0.162212 12.927583
v -7.513926 -0.137950 13.802000
v -7.704566 -0.270598 13.752738
v -7.878132 -0.392847 13.686899
v -8.027956 -0.500000 13.607013
v -8.148280 -0.587938 13.516150
v -8.234479 -0.653281 13.417803
v -8.283241 -0.693520 13.315749
v -8.292693 -0.707107 13.213913
v -8.262470 -0.693520 13.116206
v -8.193734 -0.653281 13.026383
v -8.102063 -0.587938 13.072162
v -7.965605 -0.500000 13.008028
v -7.802540 -0.392847 12.960712
v -7.619134 -0.270598 12.932033
v -7.422436 -0.137950 12.923090
v -7.549349 -0.108387 13.798313
v -7.774050 -0.212608 13.745505
v -7.979008 -0.308658 13.676398
v -8.156347 -0.392847 13.593648
v -8.299252 -0.461940 13.500435
v -8.402229 -0.513280 13.400341
v -8.461325 -0.544895 13.297212
v -8.474265 -0.555570 13.195012
v -8.440553 -0.544895 13.097669
v -8.361485 -0.513280 13.008922
v -8.253035 -0.461940 13.056446
v -8.093996 -0.392847 12.994663
v -7.903416 -0.308658 12.950212
v -7.688619 -0.212608 12.924799
v -7.457859 -0.108386 12.919402
v -7.575670 -0.074658 13.795573
v -7.825682 -0.146447 13.740130
v -8.053966 -0.212607 13.668595
v -8.251750 -0.270598 13.583717
v -8.411433 -0.318190 13.488757
v -8.526879 -0.353553 13.387365
v -8.593652 -0.375330 13.283438
v -8.609185 -0.382683 13.180967
v -8.572881 -0.375330 13.083894
v -8.486135 -0.353553 12.995946
v -8.365216 -0.318190 13.044768
v -8.189399 -0.270598 12.984733
v -7.978374 -0.212607 12.942410
v -7.740251 -0.146447 12.919425
v -7.484180 -0.074658 12.916662
v -7.591879 -0.038060 13.793886
v -7.857476 -0.074658 13.736821
v -8.100124 -0.108386 13.663791
v -8.310498 -0.137950 13.577602
v -8.480515 -0.162212 13.481566
v -8.603639 -0.180240 13.379375
v -8.675139 -0.191342 13.274955
v -8.692268 -0.195090 13.172319
v -8.654367 -0.191342 13.075412
v -8.562894 -0.180240 12.987956
v -8.434298 -0.162212 13.037578
v -8.248148 -0.137950 12.978618
v -8.024532 -0.108386 12.937604
v -7.772045 -0.074658 12.916115
v -7.500389 -0.038060 12.914975
v -7.597352 0.000000 13.793316
v -7.868212 0.000000 13.735703
v -8.115710 0.000000 13.662169
v -8.330336 0.000000 13.575537
v -8.503840 0.000000 13.479138
v -8.629557 0.000000 13.376678
v -8.702654 0.000000 13.272091
v -8.720322 0.000000 13.169399
v -8.681883 0.000000 13.072547
v -8.588813 0.000000 12.985258
v -8.457623 0.000000 13.035150
v -8.267984 0.000000 12.976552
v -8.040118 0.000000 12.935982
v -7.782781 0.000000 12.914997
v -7.505862 0.000000 12.914406
v -7.591879 0.038060 13.793886
v -7.857476 0.074658 13.736821
v -8.100124 0.108386 13.663791
v -8.310498 0.137950 13.577602
v -8.480515 0.162212 13.481566
v -8.603639 0.180240 13.379375
v -8.675138 0.191342 13.274955
v -8.692268 0.195090 13.172319
v -8.654367 0.191342 13.075412
v -8.562894 0.180240 12.987956
v -8.434298 0.162212 13.037578
v -8.248148 0.137950 12.978618
v -8.024532 0.108386 12.937604
v -7.772045 0.074658 12.916115
v -7.500389 0.038060 12.914975
v -7.575670 0.074658 13.795573
v -7.825682 0.146447 13.740130
v -8.053966 0.212608 13.668595
v -8.251750 0.270598 13.583717
v -8.411433 0.318190 13.488757
v -8.526879 0.353553 13.387365
v -8.593652 0.375330 13.283438
v -8.609184 0.382684 13.180967
v -8.572881 0.375330 13.083894
v -8.486135 0.353553 12.995946
v -8.365216 0.318190 13.044768
v -8.189399 0.270598 12.984733
v -7.978374 0.212608 12.942410
v -7.740251 0.146447 12.919425
v -7.484180 0.074658 12.916662
v -7.549349 0.108387 13.798313
v -7.774050 0.212608 13.745505
v -7.979008 0.308658 13.676398
v -8.156346 0.392847 13.593648
v -8.299252 0.461940 13.500435
v -8.402229 0.513280 13.400341
v -8.461324 0.544895 13.297212
v -8.474264 0.555570 13.195012
v -8.440553 0.544895 13.097669
v -8.361485 0.513280 13.008922
v -8.253035 0.461940 13.056446
v -8.093996 0.392847 12.994663
v -7.903416 0.308658 12.950212
v -7.688619 0.212608 12.924799
v -7.457859 0.108386 12.919402
v -7.513926 0.137950 13.802000
v -7.704565 0.270598 13.752738
v -7.878132 0.392847 13.686899
v -8.027956 0.500000 13.607013
v -8.148279 0.587938 13.516150
v -8.234479 0.653281 13.417803
v -8.283241 0.693520 13.315749
v -8.292692 0.707107 13.213913
v -8.262469 0.693520 13.116206
v -8.193734 0.653281 13.026383
v -8.102063 0.587938 13.072162
v -7.965605 0.500000 13.008028
v -7.802540 0.392847 12.960712
v -7.619134 0.270598 12.932033
v -7.422436 0.137950 12.923090
v -7.470763 0.162212 13.806494
v -7.619898 0.318190 13.761552
v -7.755214 0.461940 13.699694
v -7.871511 0.587938 13.623298
v -7.964320 0.691342 13.535299
v -8.030074 0.768178 13.439080
v -8.066246 0.815493 13.338338
v -8.071446 0.831470 13.236943
v -8.045475 0.815493 13.138794
v -7.989329 0.768178 13.047661
v -7.918103 0.691342 13.091311
v -7.809160 0.587938 13.024313
v -7.679622 0.461940 12.973508
v -7.534467 0.318190 12.940845
v -7.379273 0.162212 12.927583
v -7.220004 0.000000 12.934229
v -7.421518 0.180240 13.811620
v -7.523302 0.353554 13.771606
v -7.614978 0.513280 13.714292
v -7.693025 0.653281 13.641877
v -7.754442 0.768178 13.557147
v -7.796870 0.853553 13.463355
v -7.818678 0.906127 13.364108
v -7.819028 0.923879 13.263219
v -7.797907 0.906127 13.164564
v -7.756126 0.853553 13.071936
v -7.708226 0.768178 13.113158
v -7.630674 0.653281 13.042892
v -7.539386 0.513280 12.988106
v -7.437871 0.353553 12.950901
v -7.330029 0.180240 12.932709
v -7.368085 0.191342 13.817182
v -7.418489 0.375330 13.782517
v -7.462813 0.544895 13.730131
v -7.499356 0.693520 13.662038
v -7.526711 0.815493 13.580853
v -7.543829 0.906127 13.489696
v -7.550052 0.961939 13.392071
v -7.545139 0.980785 13.291729
v -7.529280 0.961939 13.192527
v -7.503085 0.906127 13.098276
v -7.480495 0.815493 13.136864
v -7.437005 0.693520 13.063053
v -7.387221 0.544895 13.003944
v -7.333058 0.375330 12.961811
v -7.276595 0.191342 12.938271
v -7.312516 0.195091 13.822966
v -7.309487 0.382683 13.793863
v -7.304567 0.555570 13.746604
v -7.297947 0.707107 13.683003
v -7.289880 0.831469 13.605505
v -7.280676 0.923879 13.517088
v -7.270689 0.980785 13.421150
v -7.260303 1.000000 13.321379
v -7.249918 0.980785 13.221607
v -7.239932 0.923879 13.125669
v -7.243663 0.831469 13.161516
v -7.235596 0.707107 13.084019
v -7.228975 0.555570 13.020417
v -7.224056 0.382683 12.973158
v -7.221026 0.195090 12.944056
v -7.256948 0.191342 13.828751
v -7.200485 0.375330 13.805210
v -7.146321 0.544895 13.763077
v -7.096538 0.693520 13.703969
v -7.053048 0.815493 13.630158
v -7.017522 0.906127 13.544481
v -6.991327 0.961939 13.450231
v -6.975468 0.980785 13.351028
v -6.970556 0.961939 13.250687
v -6.976778 0.906127 13.153062
v -7.006831 0.815493 13.186170
v -7.034187 0.693520 13.104984
v -7.070729 0.544895 13.036890
v -7.115054 0.375330 12.984504
v -7.165458 0.191342 12.949840
v -7.203515 0.180240 13.834312
v -7.095672 0.353553 13.816120
v -6.994157 0.513280 13.778916
v -6.902869 0.653281 13.724129
v -6.825317 0.768177 13.653864
v -6.764482 0.853553 13.570822
v -6.722701 0.906127 13.478193
v -6.701579 0.923879 13.379539
v -6.701929 0.906127 13.278649
v -6.723737 0.853553 13.179402
v -6.779100 0.768177 13.209875
v -6.840518 0.653281 13.125144
v -6.918565 0.513280 13.052730
v -7.010242 0.353553 12.995415
v -7.112025 0.180240 12.955401
v -7.154270 0.162212 13.839438
v -6.999076 0.318190 13.826176
v -6.853921 0.461939 13.793513
v -6.724382 0.587937 13.742708
v -6.615439 0.691341 13.675711
v -6.531278 0.768177 13.595097
v -6.475133 0.815493 13.503963
v -6.449162 0.831469 13.405814
v -6.454361 0.815493 13.304420
v -6.490534 0.768177 13.203677
v -6.569223 0.691341 13.231722
v -6.662032 0.587937 13.143723
v -6.778329 0.461939 13.067327
v -6.913645 0.318189 13.005469
v -7.062780 0.162212 12.960527
v -7.111107 0.137950 13.843931
v -6.914409 0.270598 13.834990
v -6.731003 0.392847 13.806309
v -6.567938 0.500000 13.758993
v -6.431480 0.587937 13.694860
v -6.326874 0.653281 13.616374
v -6.258138 0.693519 13.526551
v -6.227915 0.707106 13.428844
v -6.237367 0.693519 13.327008
v -6.286129 0.653281 13.224955
v -6.385263 0.587937 13.250871
v -6.505587 0.500000 13.160008
v -6.655411 0.392847 13.080122
v -6.828978 0.270598 13.014283
v -7.019618 0.137950 12.965021
v -7.075684 0.108386 13.847619
v -6.844924 0.212607 13.842222
v -6.630127 0.308658 13.816810
v -6.439548 0.392847 13.772358
v -6.280509 0.461939 13.710575
v -6.159123 0.513279 13.633836
v -6.080055 0.544895 13.545089
v -6.046343 0.555570 13.447745
v -6.059284 0.544895 13.345546
v -6.118379 0.513280 13.242416
v -6.234292 0.461939 13.266586
v -6.377196 0.392847 13.173373
v -6.554535 0.308658 13.090623
v -6.759494 0.212607 13.021516
v -6.984195 0.108386 12.968708
v -7.313539 0.000000 13.832792
v -7.049363 0.074658 13.850359
v -6.793293 0.146446 13.847596
v -6.555170 0.212607 13.824612
v -6.344144 0.270598 13.782289
v -6.168327 0.318189 13.722253
v -6.034473 0.353553 13.646811
v -5.947728 0.375330 13.558864
v -5.911424 0.382683 13.461790
v -5.926956 0.375330 13.359320
v -5.993729 0.353553 13.255392
v -6.122110 0.318189 13.278264
v -6.281794 0.270598 13.183304
v -6.479578 0.212607 13.098426
v -6.707862 0.146446 13.026891
v -6.957873 0.074658 12.971448
v -7.033154 0.038060 13.852046
v -6.761498 0.074658 13.850906
v -6.509011 0.108386 13.829417
v -6.285396 0.137949 13.788404
v -6.099246 0.162211 13.729444
v -5.957714 0.180240 13.654801
v -5.866241 0.191341 13.567346
v -5.828340 0.195090 13.470438
v -5.845469 0.191341 13.367803
v -5.916970 0.180240 13.263382
v -6.053029 0.162211 13.285455
v -6.223045 0.137949 13.189420
v -6.433419 0.108386 13.103230
v -6.676067 0.074658 13.030200
v -6.941664 0.038060 12.973135
vn -0.0303 -0.0000 0.9995
vn 0.0453 -0.0000 0.9990
vn 0.1326 -0.0000 0.9912
vn 0.2409 -0.0000 0.9706
vn 0.3849 -0.0000 0.9230
vn 0.5845 -0.0000 0.8114
vn 0.8318 -0.0000 0.5551
vn 0.9946 -0.0000 0.1035
vn 0.9283 -0.0000 -0.3719
vn 0.4329 -0.0000 -0.9015
vn 0.1453 -0.0000 -0.9894
vn 0.4356 -0.0000 -0.9001
vn 0.3339 -0.0000 -0.9426
vn 0.2501 -0.0000 -0.9682
vn 0.1762 -0.0000 -0.9844
vn -0.0319 -0.0214 0.9993
vn 0.0422 -0.0429 0.9982
vn 0.1277 -0.0675 0.9895
vn 0.2334 -0.0975 0.9675
vn 0.3734 -0.1365 0.9176
vn 0.5657 -0.1878 0.8029
vn 0.8013 -0.2455 0.5455
vn 0.9565 -0.2744 0.0996
vn 0.8965 -0.2455 -0.3688
vn 0.4196 -0.0998 -0.9022
vn 0.1461 -0.0080 -0.9892
vn 0.4277 -0.0975 -0.8987
vn 0.3288 -0.0675 -0.9420
vn 0.2469 -0.0430 -0.9681
vn 0.1746 -0.0214 -0.9844
vn -0.0365 -0.0417 0.9985
vn 0.0333 -0.0838 0.9959
vn 0.1134 -0.1316 0.9848
vn 0.2119 -0.1894 0.9588
vn 0.3406 -0.2632 0.9026
vn 0.5134 -0.3581 0.7799
vn 0.7191 -0.4610 0.5200
vn 0.8547 -0.5115 0.0890
vn 0.8108 -0.4610 -0.3608
vn 0.3842 -0.1854 -0.9044
vn 0.1473 -0.0182 -0.9889
vn 0.4048 -0.1894 -0.8946
vn 0.3138 -0.1316 -0.9403
vn 0.2377 -0.0838 -0.9677
vn 0.1699 -0.0417 -0.9846
vn -0.0437 -0.0600 0.9972
vn 0.0191 -0.1208 0.9925
vn 0.0909 -0.1893 0.9777
vn 0.1783 -0.2712 0.9459
vn 0.2905 -0.3734 0.8810
vn 0.4369 -0.5000 0.7478
vn 0.6050 -0.6310 0.4856
vn 0.7168 -0.6933 0.0746
vn 0.6920 -0.6310 -0.3506
vn 0.3366 -0.2500 -0.9079
vn 0.1469 -0.0307 -0.9887
vn 0.3692 -0.2712 -0.8889
vn 0.2903 -0.1893 -0.9380
vn 0.2231 -0.1208 -0.9673
vn 0.1626 -0.0600 -0.9849
vn -0.0530 -0.0756 0.9957
vn 0.0004 -0.1526 0.9883
vn 0.0614 -0.2387 0.9692
vn 0.1350 -0.3400 0.9307
vn 0.2279 -0.4633 0.8564
vn 0.3458 -0.6104 0.7127
vn 0.4771 -0.7553 0.4494
vn 0.5667 -0.8218 0.0590
vn 0.5594 -0.7553 -0.3415
vn 0.2850 -0.2945 -0.9122
vn 0.1435 -0.0440 -0.9887
vn 0.3238 -0.3400 -0.8829
vn 0.2597 -0.2387 -0.9357
vn 0.2040 -0.1526 -0.9670
vn 0.1532 -0.0756 -0.9853
vn -0.0641 -0.0881 0.9940
vn -0.0218 -0.1782 0.9838
vn 0.0264 -0.2781 0.9602
vn 0.0844 -0.3941 0.9152
vn 0.1568 -0.5322 0.8320
vn 0.2471 -0.6910 0.6793
vn 0.3462 -0.8409 0.4159
vn 0.4175 -0.9076 0.0435
vn 0.4244 -0.8409 -0.3357
vn 0.2343 -0.3229 -0.9170
vn 0.1369 -0.0563 -0.9890
vn 0.2711 -0.3941 -0.8782
vn 0.2236 -0.2781 -0.9341
vn 0.1813 -0.1782 -0.9671
vn 0.1421 -0.0881 -0.9859
vn -0.0763 -0.0973 0.9923
vn -0.0467 -0.1970 0.9793
vn -0.0126 -0.3069 0.9517
vn 0.0286 -0.4330 0.9010
vn 0.0802 -0.5803 0.8104
vn 0.1448 -0.7454 0.6508
vn 0.2168 -0.8960 0.3876
vn 0.2739 -0.9613 0.0285
vn 0.2920 -0.8960 -0.3346
vn 0.1863 -0.3398 -0.9219
vn 0.1275 -0.0661 -0.9896
vn 0.2135 -0.4330 -0.8758
vn 0.1837 -0.3069 -0.9339
vn 0.1560 -0.1970 -0.9679
vn 0.1297 -0.0973 -0.9868
vn -0.0894 -0.1028 0.9907
vn -0.0735 -0.2084 0.9753
vn -0.0544 -0.3243 0.9444
vn -0.0306 -0.4563 0.8893
vn 0.0003 -0.6087 0.7934
vn 0.0409 -0.7765 0.6287
vn 0.0896 -0.9266 0.3652
vn 0.1355 -0.9907 0.0141
vn 0.1629 -0.9266 -0.3389
vn 0.1408 -0.3484 -0.9267
vn 0.1159 -0.0725 -0.9906
vn 0.1532 -0.4563 -0.8766
vn 0.1412 -0.3243 -0.9354
vn 0.1290 -0.2084 -0.9695
vn 0.1165 -0.1028 -0.9879
vn -0.1030 -0.1047 0.9892
vn -0.1012 -0.2122 0.9720
vn -0.0977 -0.3301 0.9389
vn -0.0917 -0.4640 0.8811
vn -0.0814 -0.6181 0.7819
vn -0.0639 -0.7867 0.6140
vn -0.0363 -0.9364 0.3491
vn -0.0000 -1.0000 -0.0000
vn 0.0363 -0.9364 -0.3491
vn 0.0969 -0.3511 -0.9313
vn 0.1032 -0.0747 -0.9918
vn 0.0917 -0.4640 -0.8811
vn 0.0977 -0.3301 -0.9389
vn 0.1012 -0.2122 -0.9720
vn 0.1030 -0.1047 -0.9892
vn -0.1165 -0.1028 0.9879
vn -0.1290 -0.2084 0.9695
vn -0.1412 -0.3243 0.9354
vn -0.1532 -0.4563 0.8766
vn -0.1637 -0.6087 0.7763
vn -0.1695 -0.7766 0.6068
vn -0.1629 -0.9266 0.3389
vn -0.1355 -0.9907 -0.0141
vn -0.0897 -0.9266 -0.3652
vn 0.0530 -0.3484 -0.9358
vn 0.0906 -0.0725 -0.9932
vn 0.0306 -0.4563 -0.8893
vn 0.0544 -0.3243 -0.9444
vn 0.0735 -0.2084 -0.9753
vn 0.0894 -0.1028 -0.9907
vn -0.1297 -0.0973 0.9868
vn -0.1560 -0.1970 0.9679
vn -0.1837 -0.3069 0.9339
vn -0.2135 -0.4330 0.8758
vn -0.2454 -0.5803 0.7765
vn -0.2757 -0.7454 0.6070
vn -0.2920 -0.8960 0.3346
vn -0.2739 -0.9613 -0.0285
vn -0.2168 -0.8960 -0.3876
vn 0.0076 -0.3398 -0.9405
vn 0.0791 -0.0661 -0.9947
vn -0.0286 -0.4330 -0.9010
vn 0.0126 -0.3069 -0.9517
vn 0.0467 -0.1970 -0.9793
vn 0.0763 -0.0973 -0.9923
vn -0.1421 -0.0881 0.9859
vn -0.1813 -0.1782 0.9672
vn -0.2236 -0.2781 0.9341
vn -0.2711 -0.3941 0.8782
vn -0.3248 -0.5322 0.7819
vn -0.3817 -0.6910 0.6139
vn -0.4244 -0.8409 0.3357
vn -0.4175 -0.9076 -0.0435
vn -0.3462 -0.8409 -0.4159
vn -0.0404 -0.3229 -0.9456
vn 0.0697 -0.0563 -0.9960
vn -0.0844 -0.3941 -0.9152
vn -0.0264 -0.2781 -0.9602
vn 0.0218 -0.1782 -0.9838
vn 0.0641 -0.0881 -0.9940
vn -0.1532 -0.0756 0.9853
vn -0.2040 -0.1526 0.9670
vn -0.2597 -0.2387 0.9357
vn -0.3238 -0.3400 0.8829
vn -0.3994 -0.4633 0.7911
vn -0.4851 -0.6104 0.6262
vn -0.5594 -0.7553 0.3415
vn -0.5667 -0.8218 -0.0590
vn -0.4771 -0.7553 -0.4494
vn -0.0910 -0.2945 -0.9513
vn 0.0632 -0.0440 -0.9970
vn -0.1350 -0.3400 -0.9307
vn -0.0614 -0.2387 -0.9692
vn -0.0004 -0.1526 -0.9883
vn 0.0530 -0.0756 -0.9957
vn -0.1626 -0.0600 0.9849
vn -0.2231 -0.1208 0.9673
vn -0.2903 -0.1893 0.9380
vn -0.3692 -0.2712 0.8889
vn -0.4657 -0.3734 0.8023
vn -0.5815 -0.5000 0.6418
vn -0.6920 -0.6310 0.3506
vn -0.7168 -0.6933 -0.0746
vn -0.6050 -0.6310 -0.4856
vn -0.1424 -0.2500 -0.9577
vn 0.0599 -0.0307 -0.9977
vn -0.1783 -0.2712 -0.9459
vn -0.0909 -0.1893 -0.9777
vn -0.0191 -0.1208 -0.9925
vn 0.0437 -0.0600 -0.9972
vn -0.1699 -0.0417 0.9846
vn -0.2377 -0.0838 0.9677
vn -0.3138 -0.1316 0.9403
vn -0.4048 -0.1894 0.8946
vn -0.5192 -0.2632 0.8131
vn -0.6630 -0.3581 0.6574
vn -0.8108 -0.4610 0.3608
vn -0.8547 -0.5115 -0.0890
vn -0.7191 -0.4610 -0.5200
vn -0.1897 -0.1853 -0.9642
vn 0.0595 -0.0182 -0.9981
vn -0.2119 -0.1894 -0.9588
vn -0.1134 -0.1316 -0.9848
vn -0.0333 -0.0838 -0.9959
vn 0.0365 -0.0417 -0.9985
vn -0.1746 -0.0214 0.9844
vn -0.2469 -0.0430 0.9681
vn -0.3288 -0.0675 0.9420
vn -0.4277 -0.0975 0.8987
vn -0.5544 -0.1365 0.8210
vn -0.7189 -0.1878 0.6692
vn -0.8965 -0.2455 0.3688
vn -0.9565 -0.2744 -0.0996
vn -0.8013 -0.2455 -0.5455
vn -0.2247 -0.0998 -0.9693
vn 0.0608 -0.0081 -0.9981
vn -0.2334 -0.0975 -0.9675
vn -0.1277 -0.0675 -0.9895
vn -0.0422 -0.0430 -0.9982
vn 0.0319 -0.0214 -0.9993
vn -0.1762 -0.0000 0.9844
vn -0.2501 -0.0000 0.9682
vn -0.3339 -0.0000 0.9426
vn -0.4356 -0.0000 0.9001
vn -0.5667 -0.0000 0.8239
vn -0.7391 -0.0000 0.6736
vn -0.9283 -0.0000 0.3719
vn -0.9946 -0.0000 -0.1035
vn -0.8318 -0.0000 -0.5551
vn -0.2379 -0.0000 -0.9713
vn 0.0616 -0.0000 -0.9981
vn -0.2408 -0.0000 -0.9706
vn -0.1326 -0.0000 -0.9912
vn -0.0453 -0.0000 -0.9990
vn 0.0303 -0.0000 -0.9995
vn -0.1746 0.0214 0.9844
vn -0.2469 0.0430 0.9681
vn -0.3288 0.0675 0.9420
vn -0.4277 0.0975 0.8987
vn -0.5544 0.1365 0.8210
vn -0.7189 0.1878 0.6692
vn -0.8965 0.2455 0.3688
vn -0.9565 0.2744 -0.0996
vn -0.8013 0.2455 -0.5455
vn -0.2247 0.0998 -0.9693
vn 0.0608 0.0081 -0.9981
vn -0.2334 0.0975 -0.9675
vn -0.1277 0.0675 -0.9895
vn -0.0422 0.0430 -0.9982
vn 0.0319 0.0214 -0.9993
vn -0.1699 0.0417 0.9846
vn -0.2377 0.0838 0.9677
vn -0.3138 0.1316 0.9403
vn -0.4048 0.1894 0.8946
vn -0.5192 0.2632 0.8131
vn -0.6630 0.3581 0.6574
vn -0.8108 0.4610 0.3608
vn -0.8547 0.5115 -0.0890
vn -0.7191 0.4610 -0.5200
vn -0.1897 0.1853 -0.9642
vn 0.0595 0.0182 -0.9981
vn -0.2119 0.1894 -0.9588
vn -0.1134 0.1316 -0.9848
vn -0.0333 0.0838 -0.9959
vn 0.0365 0.0417 -0.9985
vn -0.1626 0.0600 0.9849
vn -0.2231 0.1208 0.9673
vn -0.2903 0.1893 0.9380
vn -0.3692 0.2712 0.8889
vn -0.4657 0.3734 0.8023
vn -0.5815 0.5000 0.6418
vn -0.6920 0.6310 0.3506
vn -0.7168 0.6933 -0.0746
vn -0.6050 0.6310 -0.4856
vn -0.1424 0.2500 -0.9577
vn 0.0599 0.0307 -0.9977
vn -0.1783 0.2712 -0.9459
vn -0.0909 0.1893 -0.9777
vn -0.0191 0.1208 -0.9925
vn 0.0437 0.0600 -0.9972
vn -0.1532 0.0756 0.9853
vn -0.2040 0.1526 0.9670
vn -0.2597 0.2387 0.9357
vn -0.3238 0.3400 0.8829
vn -0.3994 0.4633 0.7911
vn -0.4851 0.6104 0.6262
vn -0.5594 0.7553 0.3415
vn -0.5667 0.8218 -0.0590
vn -0.4771 0.7553 -0.4494
vn -0.0910 0.2945 -0.9513
vn 0.0632 0.0440 -0.9970
vn -0.1350 0.3400 -0.9307
vn -0.0614 0.2387 -0.9692
vn -0.0004 0.1526 -0.9883
vn 0.0530 0.0756 -0.9957
vn -0.1421 0.0881 0.9859
vn -0.1813 0.1782 0.9672
vn -0.2236 0.2781 0.9341
vn -0.2711 0.3941 0.8782
vn -0.3248 0.5322 0.7819
vn -0.3817 0.6910 0.6139
vn -0.4244 0.8409 0.3357
vn -0.4175 0.9076 -0.0435
vn -0.3462 0.8409 -0.4159
vn -0.0404 0.3229 -0.9456
vn 0.0697 0.0563 -0.9960
vn -0.0844 0.3941 -0.9152
vn -0.0264 0.2781 -0.9602
vn 0.0218 0.1782 -0.9838
vn 0.0641 0.0881 -0.9940
vn 0.1035 -0.0000 -0.9946
vn -0.1297 0.0973 0.9868
vn -0.1560 0.1970 0.9679
vn -0.1837 0.3069 0.9339
vn -0.2135 0.4330 0.8758
vn -0.2454 0.5803 0.7765
vn -0.2757 0.7454 0.6070
vn -0.2920 0.8960 0.3346
vn -0.2739 0.9613 -0.0285
vn -0.2168 0.8960 -0.3876
vn 0.0076 0.3398 -0.9405
vn 0.0791 0.0661 -0.9947
vn -0.0286 0.4330 -0.9010
vn 0.0126 0.3069 -0.9517
vn 0.0467 0.1970 -0.9793
vn 0.0763 0.0973 -0.9923
vn -0.1165 0.1028 0.9879
vn -0.1290 0.2084 0.9695
vn -0.1412 0.3243 0.9354
vn -0.1532 0.4563 0.8766
vn -0.1637 0.6087 0.7763
vn -0.1695 0.7766 0.6068
vn -0.1629 0.9266 0.3389
vn -0.1355 0.9907 -0.0141
vn -0.0896 0.9266 -0.3652
vn 0.0530 0.3484 -0.9358
vn 0.0906 0.0725 -0.9932
vn 0.0306 0.4563 -0.8893
vn 0.0544 0.3243 -0.9444
vn 0.0735 0.2084 -0.9753
vn 0.0894 0.1028 -0.9907
vn -0.1030 0.1047 0.9892
vn -0.1012 0.2122 0.9720
vn -0.0977 0.3301 0.9389
vn -0.0917 0.4640 0.8811
vn -0.0814 0.6181 0.7819
vn -0.0639 0.7867 0.6140
vn -0.0363 0.9364 0.3491
vn -0.0000 1.0000 -0.0000
vn 0.0363 0.9364 -0.3491
vn 0.0969 0.3511 -0.9313
vn 0.1032 0.0747 -0.9918
vn 0.0917 0.4640 -0.8811
vn 0.0977 0.3301 -0.9389
vn 0.1012 0.2122 -0.9720
vn 0.1030 0.1047 -0.9892
vn -0.0894 0.1028 0.9907
vn -0.0735 0.2084 0.9753
vn -0.0544 0.3243 0.9444
vn -0.0306 0.4563 0.8893
vn 0.0003 0.6087 0.7934
vn 0.0409 0.7766 0.6287
vn 0.0896 0.9266 0.3652
vn 0.1355 0.9907 0.0141
vn 0.1629 0.9266 -0.3389
vn 0.1408 0.3484 -0.9267
vn 0.1159 0.0725 -0.9906
vn 0.1532 0.4563 -0.8766
vn 0.1412 0.3243 -0.9354
vn 0.1290 0.2084 -0.9695
vn 0.1165 0.1028 -0.9879
vn -0.0763 0.0973 0.9923
vn -0.0467 0.1970 0.9793
vn -0.0126 0.3069 0.9517
vn 0.0286 0.4330 0.9010
vn 0.0802 0.5803 0.8104
vn 0.1448 0.7454 0.6508
vn 0.2168 0.8960 0.3876
vn 0.2739 0.9613 0.0285
vn 0.2920 0.8960 -0.3346
vn 0.1863 0.3398 -0.9219
vn 0.1275 0.0661 -0.9896
vn 0.2135 0.4330 -0.8758
vn 0.1837 0.3069 -0.9339
vn 0.1560 0.1970 -0.9679
vn 0.1297 0.0973 -0.9868
vn -0.0641 0.0881 0.9940
vn -0.0218 0.1782 0.9838
vn 0.0264 0.2781 0.9602
vn 0.0844 0.3941 0.9152
vn 0.1568 0.5322 0.8320
vn 0.2471 0.6910 0.6793
vn 0.3462 0.8409 0.4159
vn 0.4175 0.9076 0.0435
vn 0.4244 0.8409 -0.3357
vn 0.2343 0.3229 -0.9170
vn 0.1369 0.0563 -0.9890
vn 0.2711 0.3941 -0.8782
vn 0.2236 0.2781 -0.9341
vn 0.1813 0.1782 -0.9672
vn 0.1421 0.0881 -0.9859
vn -0.0530 0.0756 0.9957
vn 0.0004 0.1526 0.9883
vn 0.0614 0.2387 0.9692
vn 0.1350 0.3400 0.9307
vn 0.2279 0.4633 0.8564
vn 0.3458 0.6104 0.7127
vn 0.4771 0.7553 0.4494
vn 0.5667 0.8218 0.0590
vn 0.5594 0.7553 -0.3415
vn 0.2850 0.2945 -0.9122
vn 0.1435 0.0440 -0.9887
vn 0.3238 0.3400 -0.8829
vn 0.2597 0.2387 -0.9357
vn 0.2040 0.1526 -0.9670
vn 0.1532 0.0756 -0.9853
vn -0.0437 0.0600 0.9972
vn 0.0191 0.1208 0.9925
vn 0.0909 0.1893 0.9777
vn 0.1783 0.2712 0.9459
vn 0.2905 0.3734 0.8810
vn 0.4369 0.5000 0.7478
vn 0.6050 0.6310 0.4856
vn 0.7168 0.6933 0.0746
vn 0.6920 0.6310 -0.3506
vn 0.3366 0.2500 -0.9079
vn 0.1469 0.0307 -0.9887
vn 0.3692 0.2712 -0.8889
vn 0.2903 0.1893 -0.9380
vn 0.2231 0.1208 -0.9673
vn 0.1626 0.0600 -0.9849
vn -0.1035 -0.0000 0.9946
vn -0.0365 0.0417 0.9985
vn 0.0333 0.0838 0.9959
vn 0.1134 0.1316 0.9848
vn 0.2119 0.1894 0.9588
vn 0.3406 0.2632 0.9026
vn 0.5134 0.3581 0.7799
vn 0.7191 0.4610 0.5200
vn 0.8547 0.5115 0.0890
vn 0.8108 0.4610 -0.3608
vn 0.3842 0.1853 -0.9044
vn 0.1473 0.0182 -0.9889
vn 0.4048 0.1894 -0.8946
vn 0.3138 0.1316 -0.9403
vn 0.2377 0.0838 -0.9677
vn 0.1699 0.0417 -0.9846
vn -0.0319 0.0214 0.9993
vn 0.0422 0.0430 0.9982
vn 0.1277 0.0675 0.9895
vn 0.2334 0.0976 0.9675
vn 0.3734 0.1365 0.9176
vn 0.5657 0.1878 0.8029
vn 0.8013 0.2455 0.5455
vn 0.9565 0.2744 0.0996
vn 0.8965 0.2455 -0.3688
vn 0.4196 0.0998 -0.9022
vn 0.1461 0.0081 -0.9892
vn 0.4277 0.0975 -0.8987
vn 0.3288 0.0675 -0.9420
vn 0.2469 0.0430 -0.9681
vn 0.1746 0.0214 -0.9844
s 1
g off
g LightPart_Sphere_Metal
usemtl Metal
f 4//4 20//20 5//5
f 11//11 25//25 26//26
f 5//5 21//21 6//6
f 6//6 22//22 7//7
f 1//1 17//17 2//2
f 7//7 23//23 8//8
f 2//2 18//18 3//3
f 9//9 23//23 24//24
f 3//3 19//19 4//4
f 10//10 24//24 25//25
f 19//19 35//35 20//20
f 26//26 40//40 41//41
f 20//20 36//36 21//21
f 21//21 37//37 22//22
f 16//16 32//32 17//17
f 22//22 38//38 23//23
f 17//17 33//33 18//18
f 24//24 38//38 39//39
f 18//18 34//34 19//19
f 25//25 39//39 40//40
f 39//39 53//53 54//54
f 33//33 49//49 34//34
f 40//40 54//54 55//55
f 34//34 50//50 35//35
f 41//41 55//55 56//56
f 35//35 51//51 36//36
f 36//36 52//52 37//37
f 31//31 47//47 32//32
f 37//37 53//53 38//38
f 32//32 48//48 33//33
f 52//52 68//68 53//53
f 47//47 63//63 48//48
f 54//54 68//68 69//69
f 48//48 64//64 49//49
f 55//55 69//69 70//70
f 49//49 65//65 50//50
f 56//56 70//70 71//71
f 50//50 66//66 51//51
f 51//51 67//67 52//52
f 46//46 62//62 47//47
f 66//66 82//82 67//67
f 61//61 77//77 62//62
f 67//67 83//83 68//68
f 62//62 78//78 63//63
f 69//69 83//83 84//84
f 63//63 79//79 64//64
f 70//70 84//84 85//85
f 64//64 80//80 65//65
f 71//71 85//85 86//86
f 65//65 81//81 66//66
f 79//79 95//95 80//80
f 86//86 100//100 101//101
f 80//80 96//96 81//81
f 81//81 97//97 82//82
f 76//76 92//92 77//77
f 82//82 98//98 83//83
f 77//77 93//93 78//78
f 84//84 98//98 99//99
f 78//78 94//94 79//79
f 85//85 99//99 100//100
f 99//99 113//113 114//114
f 93//93 109//109 94//94
f 100//100 114//114 115//115
f 94//94 110//110 95//95
f 101//101 115//115 116//116
f 95//95 111//111 96//96
f 96//96 112//112 97//97
f 91//91 107//107 92//92
f 97//97 113//113 98//98
f 92//92 108//108 93//93
f 112//112 128//128 113//113
f 107//107 123//123 108//108
f 114//114 128//128 129//129
f 108//108 124//124 109//109
f 115//115 129//129 130//130
f 109//109 125//125 110//110
f 116//116 130//130 131//131
f 110//110 126//126 111//111
f 111//111 127//127 112//112
f 106//106 122//122 107//107
f 127//127 141//141 142//142
f 122//122 136//136 137//137
f 128//128 142//142 143//143
f 123//123 137//137 138//138
f 128//128 144//144 129//129
f 124//124 138//138 139//139
f 129//129 145//145 130//130
f 125//125 139//139 140//140
f 130//130 146//146 131//131
f 126//126 140//140 141//141
f 145//145 161//161 146//146
f 141//141 155//155 156//156
f 142//142 156//156 157//157
f 137//137 151//151 152//152
f 143//143 157//157 158//158
f 138//138 152//152 153//153
f 143//143 159//159 144//144
f 139//139 153//153 154//154
f 144//144 160//160 145//145
f 140//140 154//154 155//155
f 154//154 168//168 169//169
f 159//159 175//175 160//160
f 155//155 169//169 170//170
f 160//160 176//176 161//161
f 156//156 170//170 171//171
f 157//157 171//171 172//172
f 152//152 166//166 167//167
f 158//158 172//172 173//173
f 153//153 167//167 168//168
f 158//158 174//174 159//159
f 173//173 187//187 188//188
f 168//168 182//182 183//183
f 173//173 189//189 174//174
f 169//169 183//183 184//184
f 174//174 190//190 175//175
f 170//170 184//184 185//185
f 175//175 191//191 176//176
f 171//171 185//185 186//186
f 172//172 186//186 187//187
f 167//167 181//181 182//182
f 187//187 201//201 202//202
f 182//182 196//196 197//197
f 188//188 202//202 203//203
f 183//183 197//197 198//198
f 188//188 204//204 189//189
f 184//184 198//198 199//199
f 189//189 205//205 190//190
f 185//185 199//199 200//200
f 190//190 206//206 191//191
f 186//186 200//200 201//201
f 205//205 221//221 206//206
f 201//201 215//215 216//216
f 202//202 216//216 217//217
f 197//197 211//211 212//212
f 203//203 217//217 218//218
f 198//198 212//212 213//213
f 203//203 219//219 204//204
f 199//199 213//213 214//214
f 204//204 220//220 205//205
f 200//200 214//214 215//215
f 214//214 228//228 229//229
f 219//219 235//235 220//220
f 215//215 229//229 230//230
f 220//220 236//236 221//221
f 216//216 230//230 231//231
f 217//217 231//231 232//232
f 212//212 226//226 227//227
f 218//218 232//232 233//233
f 213//213 227//227 228//228
f 218//218 234//234 219//219
f 233//233 247//247 248//248
f 228//228 242//242 243//243
f 233//233 249//249 234//234
f 229//229 243//243 244//244
f 234//234 250//250 235//235
f 230//230 244//244 245//245
f 235//235 251//251 236//236
f 231//231 245//245 246//246
f 232//232 246//246 247//247
f 227//227 241//241 242//242
f 246//246 262//262 247//247
f 241//241 257//257 242//242
f 247//247 263//263 248//248
f 242//242 258//258 243//243
f 249//249 263//263 264//264
f 243//243 259//259 244//244
f 250//250 264//264 265//265
f 244//244 260//260 245//245
f 251//251 265//265 266//266
f 245//245 261//261 246//246
f 266//266 280//280 281//281
f 260//260 276//276 261//261
f 261//261 277//277 262//262
f 256//256 272//272 257//257
f 262//262 278//278 263//263
f 257//257 273//273 258//258
f 264//264 278//278 279//279
f 258//258 274//274 259//259
f 265//265 279//279 280//280
f 259//259 275//275 260//260
f 280//280 294//294 295//295
f 274//274 290//290 275//275
f 281//281 295//295 296//296
f 275//275 291//291 276//276
f 276//276 292//292 277//277
f 271//271 287//287 272//272
f 277//277 293//293 278//278
f 272//272 288//288 273//273
f 279//279 293//293 294//294
f 273//273 289//289 274//274
f 287//287 303//303 288//288
f 294//294 308//308 309//309
f 288//288 304//304 289//289
f 295//295 309//309 310//310
f 289//289 305//305 290//290
f 296//296 310//310 311//311
f 290//290 306//306 291//291
f 291//291 307//307 292//292
f 286//286 302//302 287//287
f 292//292 308//308 293//293
f 306//306 322//322 307//307
f 301//301 317//317 302//302
f 307//307 323//323 308//308
f 302//302 318//318 303//303
f 309//309 323//323 324//324
f 303//303 319//319 304//304
f 310//310 324//324 325//325
f 304//304 320//320 305//305
f 311//311 325//325 326//326
f 305//305 321//321 306//306
f 326//326 341//341 342//342
f 320//320 337//337 321//321
f 321//321 338//338 322//322
f 316//316 333//333 317//317
f 322//322 339//339 323//323
f 317//317 334//334 318//318
f 324//324 339//339 340//340
f 318//318 335//335 319//319
f 325//325 340//340 341//341
f 319//319 336//336 320//320
f 341//341 355//355 356//356
f 335//335 351//351 336//336
f 342//342 356//356 357//357
f 336//336 352//352 337//337
f 337//337 353//353 338//338
f 332//332 348//348 333//333
f 338//338 354//354 339//339
f 333//333 349//349 334//334
f 340//340 354//354 355//355
f 334//334 350//350 335//335
f 348//348 364//364 349//349
f 355//355 369//369 370//370
f 349//349 365//365 350//350
f 356//356 370//370 371//371
f 350//350 366//366 351//351
f 357//357 371//371 372//372
f 351//351 367//367 352//352
f 352//352 368//368 353//353
f 347//347 363//363 348//348
f 353//353 369//369 354//354
f 368//368 382//382 383//383
f 363//363 377//377 378//378
f 369//369 383//383 384//384
f 364//364 378//378 379//379
f 369//369 385//385 370//370
f 365//365 379//379 380//380
f 370//370 386//386 371//371
f 366//366 380//380 381//381
f 371//371 387//387 372//372
f 367//367 381//381 382//382
f 386//386 402//402 387//387
f 382//382 396//396 397//397
f 383//383 397//397 398//398
f 378//378 392//392 393//393
f 384//384 398//398 399//399
f 379//379 393//393 394//394
f 384//384 400//400 385//385
f 380//380 394//394 395//395
f 385//385 401//401 386//386
f 381//381 395//395 396//396
f 400//400 416//416 401//401
f 396//396 410//410 411//411
f 401//401 417//417 402//402
f 397//397 411//411 412//412
f 398//398 412//412 413//413
f 393//393 407//407 408//408
f 399//399 413//413 414//414
f 394//394 408//408 409//409
f 399//399 415//415 400//400
f 395//395 409//409 410//410
f 414//414 430//430 415//415
f 410//410 424//424 425//425
f 415//415 431//431 416//416
f 411//411 425//425 426//426
f 416//416 432//432 417//417
f 412//412 426//426 427//427
f 413//413 427//427 428//428
f 408//408 422//422 423//423
f 414//414 428//428 429//429
f 409//409 423//423 424//424
f 423//423 437//437 438//438
f 429//429 443//443 444//444
f 424//424 438//438 439//439
f 429//429 445//445 430//430
f 425//425 439//439 440//440
f 430//430 446//446 431//431
f 426//426 440//440 441//441
f 431//431 447//447 432//432
f 427//427 441//441 442//442
f 428//428 442//442 443//443
f 442//442 457//457 458//458
f 443//443 458//458 459//459
f 438//438 453//453 454//454
f 444//444 459//459 460//460
f 439//439 454//454 455//455
f 444//444 461//461 445//445
f 440//440 455//455 456//456
f 445//445 462//462 446//446
f 441//441 456//456 457//457
f 446//446 463//463 447//447
f 461//461 477//477 462//462
f 457//457 471//471 472//472
f 462//462 478//478 463//463
f 458//458 472//472 473//473
f 459//459 473//473 474//474
f 454//454 468//468 469//469
f 460//460 474//474 475//475
f 455//455 469//469 470//470
f 460//460 476//476 461//461
f 456//456 470//470 471//471
f 1//1 452//452 16//16
f 16//16 452//452 31//31
f 31//31 452//452 46//46
f 46//46 452//452 61//61
f 61//61 452//452 76//76
f 76//76 452//452 91//91
f 91//91 452//452 106//106
f 106//106 452//452 121//121
f 121//121 452//452 136//136
f 136//136 452//452 151//151
f 151//151 452//452 166//166
f 166//166 452//452 181//181
f 181//181 452//452 196//196
f 196//196 452//452 211//211
f 211//211 452//452 226//226
f 226//226 452//452 241//241
f 241//241 452//452 256//256
f 256//256 452//452 271//271
f 271//271 452//452 286//286
f 286//286 452//452 301//301
f 301//301 452//452 316//316
f 316//316 452//452 332//332
f 332//332 452//452 347//347
f 347//347 452//452 362//362
f 362//362 452//452 377//377
f 377//377 452//452 392//392
f 392//392 452//452 407//407
f 407//407 452//452 422//422
f 422//422 452//452 437//437
f 437//437 452//452 453//453
f 453//453 452//452 468//468
f 475//475 9//9 476//476
f 471//471 3//3 4//4
f 476//476 10//10 477//477
f 472//472 4//4 5//5
f 477//477 11//11 478//478
f 473//473 5//5 6//6
f 468//468 452//452 1//1
f 474//474 6//6 7//7
f 469//469 1//1 2//2
f 475//475 7//7 8//8
f 470//470 2//2 3//3
f 4//4 19//19 20//20
f 11//11 10//10 25//25
f 5//5 20//20 21//21
f 6//6 21//21 22//22
f 1//1 16//16 17//17
f 7//7 22//22 23//23
f 2//2 17//17 18//18
f 9//9 8//8 23//23
f 3//3 18//18 19//19
f 10//10 9//9 24//24
f 19//19 34//34 35//35
f 26//26 25//25 40//40
f 20//20 35//35 36//36
f 21//21 36//36 37//37
f 16//16 31//31 32//32
f 22//22 37//37 38//38
f 17//17 32//32 33//33
f 24//24 23//23 38//38
f 18//18 33//33 34//34
f 25//25 24//24 39//39
f 39//39 38//38 53//53
f 33//33 48//48 49//49
f 40//40 39//39 54//54
f 34//34 49//49 50//50
f 41//41 40//40 55//55
f 35//35 50//50 51//51
f 36//36 51//51 52//52
f 31//31 46//46 47//47
f 37//37 52//52 53//53
f 32//32 47//47 48//48
f 52//52 67//67 68//68
f 47//47 62//62 63//63
f 54//54 53//53 68//68
f 48//48 63//63 64//64
f 55//55 54//54 69//69
f 49//49 64//64 65//65
f 56//56 55//55 70//70
f 50//50 65//65 66//66
f 51//51 66//66 67//67
f 46//46 61//61 62//62
f 66//66 81//81 82//82
f 61//61 76//76 77//77
f 67//67 82//82 83//83
f 62//62 77//77 78//78
f 69//69 68//68 83//83
f 63//63 78//78 79//79
f 70//70 69//69 84//84
f 64//64 79//79 80//80
f 71//71 70//70 85//85
f 65//65 80//80 81//81
f 79//79 94//94 95//95
f 86//86 85//85 100//100
f 80//80 95//95 96//96
f 81//81 96//96 97//97
f 76//76 91//91 92//92
f 82//82 97//97 98//98
f 77//77 92//92 93//93
f 84//84 83//83 98//98
f 78//78 93//93 94//94
f 85//85 84//84 99//99
f 99//99 98//98 113//113
f 93//93 108//108 109//109
f 100//100 99//99 114//114
f 94//94 109//109 110//110
f 101//101 100//100 115//115
f 95//95 110//110 111//111
f 96//96 111//111 112//112
f 91//91 106//106 107//107
f 97//97 112//112 113//113
f 92//92 107//107 108//108
f 112//112 127//127 128//128
f 107//107 122//122 123//123
f 114//114 113//113 128//128
f 108//108 123//123 124//124
f 115//115 114//114 129//129
f 109//109 124//124 125//125
f 116//116 115//115 130//130
f 110//110 125//125 126//126
f 111//111 126//126 127//127
f 106//106 121//121 122//122
f 127//127 126//126 141//141
f 122//122 121//121 136//136
f 128//128 127//127 142//142
f 123//123 122//122 137//137
f 128//128 143//143 144//144
f 124//124 123//123 138//138
f 129//129 144//144 145//145
f 125//125 124//124 139//139
f 130//130 145//145 146//146
f 126//126 125//125 140//140
f 145//145 160//160 161//161
f 141//141 140//140 155//155
f 142//142 141//141 156//156
f 137//137 136//136 151//151
f 143//143 142//142 157//157
f 138//138 137//137 152//152
f 143//143 158//158 159//159
f 139//139 138//138 153//153
f 144//144 159//159 160//160
f 140//140 139//139 154//154
f 154//154 153//153 168//168
f 159//159 174//174 175//175
f 155//155 154//154 169//169
f 160//160 175//175 176//176
f 156//156 155//155 170//170
f 157//157 156//156 171//171
f 152//152 151//151 166//166
f 158//158 157//157 172//172
f 153//153 152//152 167//167
f 158//158 173//173 174//174
f 173//173 172//172 187//187
f 168//168 167//167 182//182
f 173//173 188//188 189//189
f 169//169 168//168 183//183
f 174//174 189//189 190//190
f 170//170 169//169 184//184
f 175//175 190//190 191//191
f 171//171 170//170 185//185
f 172//172 171//171 186//186
f 167//167 166//166 181//181
f 187//187 186//186 201//201
f 182//182 181//181 196//196
f 188//188 187//187 202//202
f 183//183 182//182 197//197
f 188//188 203//203 204//204
f 184//184 183//183 198//198
f 189//189 204//204 205//205
f 185//185 184//184 199//199
f 190//190 205//205 206//206
f 186//186 185//185 200//200
f 205//205 220//220 221//221
f 201//201 200//200 215//215
f 202//202 201//201 216//216
f 197//197 196//196 211//211
f 203//203 202//202 217//217
f 198//198 197//197 212//212
f 203//203 218//218 219//219
f 199//199 198//198 213//213
f 204//204 219//219 220//220
f 200//200 199//199 214//214
f 214//214 213//213 228//228
f 219//219 234//234 235//235
f 215//215 214//214 229//229
f 220//220 235//235 236//236
f 216//216 215//215 230//230
f 217//217 216//216 231//231
f 212//212 211//211 226//226
f 218//218 217//217 232//232
f 213//213 212//212 227//227
f 218//218 233//233 234//234
f 233//233 232//232 247//247
f 228//228 227//227 242//242
f 233//233 248//248 249//249
f 229//229 228//228 243//243
f 234//234 249//249 250//250
f 230//230 229//229 244//244
f 235//235 250//250 251//251
f 231//231 230//230 245//245
f 232//232 231//231 246//246
f 227//227 226//226 241//241
f 246//246 261//261 262//262
f 241//241 256//256 257//257
f 247//247 262//262 263//263
f 242//242 257//257 258//258
f 249//249 248//248 263//263
f 243//243 258//258 259//259
f 250//250 249//249 264//264
f 244//244 259//259 260//260
f 251//251 250//250 265//265
f 245//245 260//260 261//261
f 266//266 265//265 280//280
f 260//260 275//275 276//276
f 261//261 276//276 277//277
f 256//256 271//271 272//272
f 262//262 277//277 278//278
f 257//257 272//272 273//273
f 264//264 263//263 278//278
f 258//258 273//273 274//274
f 265//265 264//264 279//279
f 259//259 274//274 275//275
f 280//280 279//279 294//294
f 274//274 289//289 290//290
f 281//281 280//280 295//295
f 275//275 290//290 291//291
f 276//276 291//291 292//292
f 271//271 286//286 287//287
f 277//277 292//292 293//293
f 272//272 287//287 288//288
f 279//279 278//278 293//293
f 273//273 288//288 289//289
f 287//287 302//302 303//303
f 294//294 293//293 308//308
f 288//288 303//303 304//304
f 295//295 294//294 309//309
f 289//289 304//304 305//305
f 296//296 295//295 310//310
f 290//290 305//305 306//306
f 291//291 306//306 307//307
f 286//286 301//301 302//302
f 292//292 307//307 308//308
f 306//306 321//321 322//322
f 301//301 316//316 317//317
f 307//307 322//322 323//323
f 302//302 317//317 318//318
f 309//309 308//308 323//323
f 303//303 318//318 319//319
f 310//310 309//309 324//324
f 304//304 319//319 320//320
f 311//311 310//310 325//325
f 305//305 320//320 321//321
f 326//326 325//325 341//341
f 320//320 336//336 337//337
f 321//321 337//337 338//338
f 316//316 332//332 333//333
f 322//322 338//338 339//339
f 317//317 333//333 334//334
f 324//324 323//323 339//339
f 318//318 334//334 335//335
f 325//325 324//324 340//340
f 319//319 335//335 336//336
f 341//341 340//340 355//355
f 335//335 350//350 351//351
f 342//342 341//341 356//356
f 336//336 351//351 352//352
f 337//337 352//352 353//353
f 332//332 347//347 348//348
f 338//338 353//353 354//354
f 333//333 348//348 349//349
f 340//340 339//339 354//354
f 334//334 349//349 350//350
f 348//348 363//363 364//364
f 355//355 354//354 369//369
f 349//349 364//364 365//365
f 356//356 355//355 370//370
f 350//350 365//365 366//366
f 357//357 356//356 371//371
f 351//351 366//366 367//367
f 352//352 367//367 368//368
f 347//347 362//362 363//363
f 353//353 368//368 369//369
f 368//368 367//367 382//382
f 363//363 362//362 377//377
f 369//369 368//368 383//383
f 364//364 363//363 378//378
f 369//369 384//384 385//385
f 365//365 364//364 379//379
f 370//370 385//385 386//386
f 366//366 365//365 380//380
f 371//371 386//386 387//387
f 367//367 366//366 381//381
f 386//386 401//401 402//402
f 382//382 381//381 396//396
f 383//383 382//382 397//397
f 378//378 377//377 392//392
f 384//384 383//383 398//398
f 379//379 378//378 393//393
f 384//384 399//399 400//400
f 380//380 379//379 394//394
f 385//385 400//400 401//401
f 381//381 380//380 395//395
f 400//400 415//415 416//416
f 396//396 395//395 410//410
f 401//401 416//416 417//417
f 397//397 396//396 411//411
f 398//398 397//397 412//412
f 393//393 392//392 407//407
f 399//399 398//398 413//413
f 394//394 393//393 408//408
f 399//399 414//414 415//415
f 395//395 394//394 409//409
f 414//414 429//429 430//430
f 410//410 409//409 424//424
f 415//415 430//430 431//431
f 411//411 410//410 425//425
f 416//416 431//431 432//432
f 412//412 411//411 426//426
f 413//413 412//412 427//427
f 408//408 407//407 422//422
f 414//414 413//413 428//428
f 409//409 408//408 423//423
f 423//423 422//422 437//437
f 429//429 428//428 443//443
f 424//424 423//423 438//438
f 429//429 444//444 445//445
f 425//425 424//424 439//439
f 430//430 445//445 446//446
f 426//426 425//425 440//440
f 431//431 446//446 447//447
f 427//427 426//426 441//441
f 428//428 427//427 442//442
f 442//442 441//441 457//457
f 443//443 442//442 458//458
f 438//438 437//437 453//453
f 444//444 443//443 459//459
f 439//439 438//438 454//454
f 444//444 460//460 461//461
f 440//440 439//439 455//455
f 445//445 461//461 462//462
f 441//441 440//440 456//456
f 446//446 462//462 463//463
f 461//461 476//476 477//477
f 457//457 456//456 471//471
f 462//462 477//477 478//478
f 458//458 457//457 472//472
f 459//459 458//458 473//473
f 454//454 453//453 468//468
f 460//460 459//459 474//474
f 455//455 454//454 469//469
f 460//460 475//475 476//476
f 456//456 455//455 470//470
f 475//475 8//8 9//9
f 471//471 470//470 3//3
f 476//476 9//9 10//10
f 472//472 471//471 4//4
f 477//477 10//10 11//11
f 473//473 472//472 5//5
f 474//474 473//473 6//6
f 469//469 468//468 1//1
f 475//475 474//474 7//7
f 470//470 469//469 2//2
g LightPart_Sphere_Glass
usemtl Glass
f 12//12 26//26 27//27
f 13//13 27//27 28//28
f 14//14 28//28 29//29
f 15//15 29//29 30//30
f 27//27 41//41 42//42
f 28//28 42//42 43//43
f 29//29 43//43 44//44
f 30//30 44//44 45//45
f 45//45 59//59 60//60
f 42//42 56//56 57//57
f 43//43 57//57 58//58
f 44//44 58//58 59//59
f 58//58 72//72 73//73
f 59//59 73//73 74//74
f 60//60 74//74 75//75
f 57//57 71//71 72//72
f 72//72 86//86 87//87
f 73//73 87//87 88//88
f 74//74 88//88 89//89
f 75//75 89//89 90//90
f 87//87 101//101 102//102
f 88//88 102//102 103//103
f 89//89 103//103 104//104
f 90//90 104//104 105//105
f 105//105 119//119 120//120
f 102//102 116//116 117//117
f 103//103 117//117 118//118
f 104//104 118//118 119//119
f 118//118 132//132 133//133
f 119//119 133//133 134//134
f 120//120 134//134 135//135
f 117//117 131//131 132//132
f 131//131 147//147 132//132
f 132//132 148//148 133//133
f 133//133 149//149 134//134
f 134//134 150//150 135//135
f 146//146 162//162 147//147
f 147//147 163//163 148//148
f 148//148 164//164 149//149
f 149//149 165//165 150//150
f 164//164 180//180 165//165
f 161//161 177//177 162//162
f 162//162 178//178 163//163
f 163//163 179//179 164//164
f 178//178 194//194 179//179
f 179//179 195//195 180//180
f 176//176 192//192 177//177
f 177//177 193//193 178//178
f 191//191 207//207 192//192
f 192//192 208//208 193//193
f 193//193 209//209 194//194
f 194//194 210//210 195//195
f 206//206 222//222 207//207
f 207//207 223//223 208//208
f 208//208 224//224 209//209
f 209//209 225//225 210//210
f 224//224 240//240 225//225
f 221//221 237//237 222//222
f 222//222 238//238 223//223
f 223//223 239//239 224//224
f 238//238 254//254 239//239
f 239//239 255//255 240//240
f 236//236 252//252 237//237
f 237//237 253//253 238//238
f 252//252 266//266 267//267
f 253//253 267//267 268//268
f 254//254 268//268 269//269
f 255//255 269//269 270//270
f 267//267 281//281 282//282
f 268//268 282//282 283//283
f 269//269 283//283 284//284
f 270//270 284//284 285//285
f 285//285 299//299 300//300
f 282//282 296//296 297//297
f 283//283 297//297 298//298
f 284//284 298//298 299//299
f 299//299 313//313 314//314
f 300//300 314//314 315//315
f 297//297 311//311 312//312
f 298//298 312//312 313//313
f 313//313 327//327 328//328
f 314//314 328//328 329//329
f 315//315 329//329 330//330
f 312//312 326//326 327//327
f 327//327 342//342 343//343
f 328//328 343//343 344//344
f 329//329 344//344 345//345
f 330//330 345//345 346//346
f 346//346 360//360 361//361
f 343//343 357//357 358//358
f 344//344 358//358 359//359
f 345//345 359//359 360//360
f 360//360 374//374 375//375
f 361//361 375//375 376//376
f 358//358 372//372 373//373
f 359//359 373//373 374//374
f 373//373 389//389 374//374
f 374//374 390//390 375//375
f 375//375 391//391 376//376
f 372//372 388//388 373//373
f 387//387 403//403 388//388
f 388//388 404//404 389//389
f 389//389 405//405 390//390
f 390//390 406//406 391//391
f 405//405 421//421 406//406
f 402//402 418//418 403//403
f 403//403 419//419 404//404
f 404//404 420//420 405//405
f 419//419 435//435 420//420
f 420//420 436//436 421//421
f 417//417 433//433 418//418
f 418//418 434//434 419//419
f 433//433 449//449 434//434
f 434//434 450//450 435//435
f 435//435 451//451 436//436
f 432//432 448//448 433//433
f 447//447 464//464 448//448
f 448//448 465//465 449//449
f 449//449 466//466 450//450
f 450//450 467//467 451//451
f 463//463 479//479 464//464
f 464//464 480//480 465//465
f 465//465 481//481 466//466
f 466//466 482//482 467//467
f 331//331 15//15 30//30
f 331//331 30//30 45//45
f 331//331 45//45 60//60
f 331//331 60//60 75//75
f 331//331 75//75 90//90
f 331//331 90//90 105//105
f 331//331 105//105 120//120
f 331//331 120//120 135//135
f 331//331 135//135 150//150
f 331//331 150//150 165//165
f 331//331 165//165 180//180
f 331//331 180//180 195//195
f 331//331 195//195 210//210
f 331//331 210//210 225//225
f 331//331 225//225 240//240
f 331//331 240//240 255//255
f 331//331 255//255 270//270
f 331//331 270//270 285//285
f 331//331 285//285 300//300
f 331//331 300//300 315//315
f 331//331 315//315 330//330
f 331//331 330//330 346//346
f 331//331 346//346 361//361
f 331//331 361//361 376//376
f 331//331 376//376 391//391
f 331//331 391//391 406//406
f 331//331 406//406 421//421
f 331//331 421//421 436//436
f 331//331 436//436 451//451
f 331//331 451//451 467//467
f 331//331 467//467 482//482
f 480//480 14//14 481//481
f 481//481 15//15 482//482
f 331//331 482//482 15//15
f 478//478 12//12 479//479
f 479//479 13//13 480//480
f 12//12 11//11 26//26
f 13//13 12//12 27//27
f 14//14 13//13 28//28
f 15//15 14//14 29//29
f 27//27 26//26 41//41
f 28//28 27//27 42//42
f 29//29 28//28 43//43
f 30//30 29//29 44//44
f 45//45 44//44 59//59
f 42//42 41//41 56//56
f 43//43 42//42 57//57
f 44//44 43//43 58//58
f 58//58 57//57 72//72
f 59//59 58//58 73//73
f 60//60 59//59 74//74
f 57//57 56//56 71//71
f 72//72 71//71 86//86
f 73//73 72//72 87//87
f 74//74 73//73 88//88
f 75//75 74//74 89//89
f 87//87 86//86 101//101
f 88//88 87//87 102//102
f 89//89 88//88 103//103
f 90//90 89//89 104//104
f 105//105 104//104 119//119
f 102//102 101//101 116//116
f 103//103 102//102 117//117
f 104//104 103//103 118//118
f 118//118 117//117 132//132
f 119//119 118//118 133//133
f 120//120 119//119 134//134
f 117//117 116//116 131//131
f 131//131 146//146 147//147
f 132//132 147//147 148//148
f 133//133 148//148 149//149
f 134//134 149//149 150//150
f 146//146 161//161 162//162
f 147//147 162//162 163//163
f 148//148 163//163 164//164
f 149//149 164//164 165//165
f 164//164 179//179 180//180
f 161//161 176//176 177//177
f 162//162 177//177 178//178
f 163//163 178//178 179//179
f 178//178 193//193 194//194
f 179//179 194//194 195//195
f 176//176 191//191 192//192
f 177//177 192//192 193//193
f 191//191 206//206 207//207
f 192//192 207//207 208//208
f 193//193 208//208 209//209
f 194//194 209//209 210//210
f 206//206 221//221 222//222
f 207//207 222//222 223//223
f 208//208 223//223 224//224
f 209//209 224//224 225//225
f 224//224 239//239 240//240
f 221//221 236//236 237//237
f 222//222 237//237 238//238
f 223//223 238//238 239//239
f 238//238 253//253 254//254
f 239//239 254//254 255//255
f 236//236 251//251 252//252
f 237//237 252//252 253//253
f 252//252 251//251 266//266
f 253//253 252//252 267//267
f 254//254 253//253 268//268
f 255//255 254//254 269//269
f 267//267 266//266 281//281
f 268//268 267//267 282//282
f 269//269 268//268 283//283
f 270//270 269//269 284//284
f 285//285 284//284 299//299
f 282//282 281//281 296//296
f 283//283 282//282 297//297
f 284//284 283//283 298//298
f 299//299 298//298 313//313
f 300//300 299//299 314//314
f 297//297 296//296 311//311
f 298//298 297//297 312//312
f 313//313 312//312 327//327
f 314//314 313//313 328//328
f 315//315 314//314 329//329
f 312//312 311//311 326//326
f 327//327 326//326 342//342
f 328//328 327//327 343//343
f 329//329 328//328 344//344
f 330//330 329//329 345//345
f 346//346 345//345 360//360
f 343//343 342//342 357//357
f 344//344 343//343 358//358
f 345//345 344//344 359//359
f 360//360 359//359 374//374
f 361//361 360//360 375//375
f 358//358 357//357 372//372
f 359//359 358//358 373//373
f 373//373 388//388 389//389
f 374//374 389//389 390//390
f 375//375 390//390 391//391
f 372//372 387//387 388//388
f 387//387 402//402 403//403
f 388//388 403//403 404//404
f 389//389 404//404 405//405
f 390//390 405//405 406//406
f 405//405 420//420 421//421
f 402//402 417//417 418//418
f 403//403 418//418 419//419
f 404//404 419//419 420//420
f 419//419 434//434 435//435
f 420//420 435//435 436//436
f 417//417 432//432 433//433
f 418//418 433//433 434//434
f 433//433 448//448 449//449
f 434//434 449//449 450//450
f 435//435 450//450 451//451
f 432//432 447//447 448//448
f 447//447 463//463 464//464
f 448//448 464//464 465//465
f 449//449 465//465 466//466
f 450//450 466//466 467//467
f 463//463 478//478 479//479
f 464//464 479//479 480//480
f 465//465 480//480 481//481
f 466//466 481//481 482//482
f 480//480 13//13 14//14
f 481//481 14//14 15//15
f 478//478 11//11 12//12
f 479//479 12//12 13//13
g Pole_Cylinder_Mesh
v 0.000000 -0.369538 -0.039069
v 0.000000 -0.369538 13.836954
v -0.320030 -0.184769 -0.039069
v -0.320030 -0.184769 13.836954
v -0.320030 0.184769 -0.039069
v -0.320030 0.184769 13.836954
v 0.000000 0.369538 -0.039069
v 0.000000 0.369538 13.836954
v 0.320030 0.184769 -0.039069
v 0.320030 0.184769 13.836954
v 0.320030 -0.184769 -0.039069
v 0.320030 -0.184769 13.836954
v 0.000000 -0.369538 1.348534
v -0.320030 -0.184769 1.348534
v -0.320030 0.184769 1.348534
v 0.000000 0.369538 1.348534
v 0.320030 0.184769 1.348534
v 0.320030 -0.184769 1.348534
v -0.320030 0.184769 11.339271
v -0.320030 0.184769 12.588113
v 0.320030 -0.184769 3.846218
v 0.320030 -0.184769 5.095060
v 0.320030 0.184769 11.339271
v 0.320030 0.184769 12.588113
v 0.000000 -0.369538 8.841586
v 0.000000 -0.369538 10.090428
v 0.000000 -0.369538 6.343902
v 0.000000 -0.369538 7.592744
v 0.320030 0.184769 8.841586
v 0.320030 0.184769 10.090428
v 0.320030 0.184769 6.343902
v 0.320030 0.184769 7.592744
v -0.320030 0.184769 3.846218
v -0.320030 0.184769 5.095060
v -0.320030 0.184769 6.343902
v -0.320030 0.184769 7.592744
v -0.320030 -0.184769 3.846218
v -0.320030 -0.184769 5.095060
v 0.000000 0.369538 11.339271
v 0.000000 0.369538 12.588113
v -0.320030 -0.184769 8.841586
v -0.320030 -0.184769 10.090428
v -0.320030 -0.184769 6.343902
v -0.320030 -0.184769 7.592744
v 0.320030 -0.184769 2.597376
v 0.320030 0.184769 2.597376
v -0.320030 -0.184769 11.339271
v -0.320030 -0.184769 12.588113
v 0.000000 0.369538 3.846218
v 0.000000 0.369538 5.095060
v 0.000000 0.369538 2.597376
v -0.320030 0.184769 2.597376
v -0.320030 -0.184769 2.597376
v 0.000000 -0.369538 2.597376
v 0.000000 0.369538 6.343902
v 0.000000 0.369538 7.592744
v -0.320030 0.184769 8.841586
v -0.320030 0.184769 10.090428
v 0.000000 -0.369538 11.339271
v 0.000000 -0.369538 12.588113
v 0.000000 0.369538 8.841586
v 0.000000 0.369538 10.090428
v 0.320030 -0.184769 6.343902
v 0.320030 -0.184769 7.592744
v 0.320030 0.184769 3.846218
v 0.320030 0.184769 5.095060
v 0.000000 -0.369538 5.095060
v 0.000000 -0.369538 3.846218
v 0.320030 -0.184769 12.588113
v 0.320030 -0.184769 11.339271
v 0.320030 -0.184769 10.090428
v 0.320030 -0.184769 8.841586
vn -0.5000 -0.8660 -0.0000
vn -1.0000 -0.0000 -0.0000
vn -0.5000 0.8660 -0.0000
vn 0.5000 0.8660 -0.0000
vn -0.0000 -0.0000 1.0000
vn 0.5000 -0.8660 -0.0000
vn 1.0000 -0.0000 -0.0000
vn -0.0000 -0.0000 -1.0000
vt 0.000758 0.000758
vt 0.088472 0.143099
vt 0.000758 0.143099
vt 0.089989 0.000758
vt 0.177703 0.143099
vt 0.089989 0.143099
vt 0.179219 0.000758
vt 0.266933 0.143099
vt 0.179219 0.143099
vt 0.000758 0.144615
vt 0.088472 0.286956
vt 0.000758 0.286956
vt 0.040704 0.999242
vt 0.080650 0.908509
vt 0.000758 0.886964
vt 0.089989 0.144615
vt 0.177703 0.286956
vt 0.089989 0.286956
vt 0.179219 0.144615
vt 0.266933 0.286956
vt 0.179219 0.286956
vt 0.122112 0.999242
vt 0.162058 0.908509
vt 0.082166 0.886964
vt 0.268449 0.000758
vt 0.356163 0.143099
vt 0.268449 0.143099
vt 0.268449 0.144615
vt 0.356163 0.286956
vt 0.268449 0.286956
vt 0.000758 0.288473
vt 0.088472 0.430813
vt 0.000758 0.430813
vt 0.089989 0.288473
vt 0.177703 0.430813
vt 0.089989 0.430813
vt 0.179219 0.288473
vt 0.266933 0.430813
vt 0.179219 0.430813
vt 0.268449 0.288473
vt 0.356163 0.430813
vt 0.268449 0.430813
vt 0.357680 0.000758
vt 0.445394 0.143099
vt 0.357680 0.143099
vt 0.357680 0.144615
vt 0.445394 0.286956
vt 0.357680 0.286956
vt 0.357680 0.288473
vt 0.445394 0.430813
vt 0.357680 0.430813
vt 0.446910 0.000758
vt 0.534624 0.143099
vt 0.446910 0.143099
vt 0.446910 0.144615
vt 0.534624 0.286956
vt 0.446910 0.286956
vt 0.446910 0.288473
vt 0.534624 0.430813
vt 0.446910 0.430813
vt 0.000758 0.432330
vt 0.088472 0.574671
vt 0.000758 0.574671
vt 0.089989 0.432330
vt 0.177703 0.574670
vt 0.089989 0.574671
vt 0.179219 0.432330
vt 0.266933 0.574670
vt 0.179219 0.574670
vt 0.268449 0.432330
vt 0.356163 0.574670
vt 0.268449 0.574670
vt 0.357680 0.432330
vt 0.445394 0.574670
vt 0.357680 0.574670
vt 0.446910 0.432330
vt 0.534624 0.574670
vt 0.446910 0.574670
vt 0.536141 0.000758
vt 0.623855 0.143099
vt 0.536141 0.143099
vt 0.536141 0.144615
vt 0.623855 0.286956
vt 0.536141 0.286956
vt 0.536141 0.288473
vt 0.623855 0.430813
vt 0.536141 0.430813
vt 0.536141 0.432330
vt 0.623855 0.574670
vt 0.536141 0.574670
vt 0.625371 0.000758
vt 0.713085 0.143099
vt 0.625371 0.143099
vt 0.625371 0.144615
vt 0.713085 0.286956
vt 0.625371 0.286956
vt 0.625371 0.288473
vt 0.713085 0.430813
vt 0.625371 0.430813
vt 0.625371 0.432330
vt 0.713085 0.574671
vt 0.625371 0.574671
vt 0.000758 0.576187
vt 0.088472 0.718528
vt 0.000758 0.718528
vt 0.089989 0.576187
vt 0.177703 0.718528
vt 0.089989 0.718528
vt 0.179219 0.576187
vt 0.266933 0.718528
vt 0.179219 0.718528
vt 0.268449 0.576187
vt 0.356163 0.718528
vt 0.268449 0.718528
vt 0.357680 0.576187
vt 0.445394 0.718528
vt 0.357680 0.718528
vt 0.446910 0.576187
vt 0.534624 0.718528
vt 0.446910 0.718528
vt 0.536141 0.576187
vt 0.623855 0.718528
vt 0.536141 0.718528
vt 0.625371 0.576187
vt 0.713085 0.718528
vt 0.625371 0.718528
vt 0.714602 0.000758
vt 0.802315 0.143099
vt 0.714602 0.143099
vt 0.714602 0.144615
vt 0.802315 0.286956
vt 0.714602 0.286956
vt 0.714602 0.288473
vt 0.802315 0.430813
vt 0.714602 0.430813
vt 0.714602 0.432330
vt 0.802315 0.574671
vt 0.714602 0.574671
vt 0.714602 0.576187
vt 0.802315 0.718528
vt 0.714602 0.718528
vt 0.000758 0.720044
vt 0.088472 0.862385
vt 0.000758 0.862385
vt 0.089989 0.720044
vt 0.177703 0.862385
vt 0.089989 0.862385
vt 0.179219 0.720044
vt 0.266933 0.862385
vt 0.179219 0.862385
vt 0.268449 0.720044
vt 0.356163 0.862385
vt 0.268449 0.862385
vt 0.357680 0.720044
vt 0.445394 0.862385
vt 0.357680 0.862385
vt 0.446910 0.720044
vt 0.534624 0.862385
vt 0.446910 0.862385
vt 0.536141 0.720044
vt 0.623855 0.862385
vt 0.536141 0.862385
vt 0.625371 0.720044
vt 0.713085 0.862385
vt 0.625371 0.862385
vt 0.714602 0.720044
vt 0.802315 0.862385
vt 0.714602 0.862385
vt 0.803832 0.000758
vt 0.891546 0.143099
vt 0.803832 0.143099
vt 0.803832 0.144615
vt 0.891546 0.286956
vt 0.803832 0.286956
vt 0.803832 0.288473
vt 0.891546 0.430813
vt 0.803832 0.430813
vt 0.803832 0.432330
vt 0.891546 0.574671
vt 0.803832 0.574671
vt 0.803832 0.576187
vt 0.891546 0.718528
vt 0.803832 0.718528
vt 0.803832 0.720044
vt 0.891546 0.862385
vt 0.803832 0.862385
vt 0.893062 0.000758
vt 0.980776 0.143099
vt 0.893062 0.143099
vt 0.893062 0.144615
vt 0.980776 0.286956
vt 0.893062 0.286956
vt 0.893062 0.288473
vt 0.980776 0.430813
vt 0.893062 0.430813
vt 0.893062 0.432330
vt 0.980776 0.574671
vt 0.893062 0.574671
vt 0.893062 0.576187
vt 0.980776 0.718528
vt 0.893062 0.718528
vt 0.893062 0.720044
vt 0.980776 0.862385
vt 0.893062 0.862385
vt 0.088472 0.000758
vt 0.177703 0.000758
vt 0.266933 0.000758
vt 0.088472 0.144615
vt 0.000758 0.954634
vt 0.080650 0.976179
vt 0.040704 0.863901
vt 0.177703 0.144615
vt 0.266933 0.144615
vt 0.082166 0.954634
vt 0.162058 0.976179
vt 0.122112 0.863901
vt 0.356163 0.000758
vt 0.356163 0.144615
vt 0.088472 0.288473
vt 0.177703 0.288473
vt 0.266933 0.288473
vt 0.356163 0.288473
vt 0.445394 0.000758
vt 0.445394 0.144615
vt 0.445394 0.288473
vt 0.534624 0.000758
vt 0.534624 0.144615
vt 0.534624 0.288473
vt 0.088472 0.432330
vt 0.177703 0.432330
vt 0.266933 0.432330
vt 0.356163 0.432330
vt 0.445394 0.432330
vt 0.534624 0.432330
vt 0.623855 0.000758
vt 0.623855 0.144615
vt 0.623855 0.288473
vt 0.623855 0.432330
vt 0.713085 0.000758
vt 0.713085 0.144615
vt 0.713085 0.288473
vt 0.713085 0.432330
vt 0.088472 0.576187
vt 0.177703 0.576187
vt 0.266933 0.576187
vt 0.356163 0.576187
vt 0.445394 0.576187
vt 0.534624 0.576187
vt 0.623855 0.576187
vt 0.713085 0.576187
vt 0.802315 0.000758
vt 0.802315 0.144615
vt 0.802315 0.288473
vt 0.802315 0.432330
vt 0.802315 0.576187
vt 0.088472 0.720044
vt 0.177703 0.720044
vt 0.266933 0.720044
vt 0.356163 0.720044
vt 0.445394 0.720044
vt 0.534624 0.720044
vt 0.623855 0.720044
vt 0.713085 0.720044
vt 0.802315 0.720044
vt 0.891546 0.000758
vt 0.891546 0.144615
vt 0.891546 0.288473
vt 0.891546 0.432330
vt 0.891546 0.576187
vt 0.891546 0.720044
vt 0.980776 0.000758
vt 0.980776 0.144615
vt 0.980776 0.288473
vt 0.980776 0.432330
vt 0.980776 0.576187
vt 0.980776 0.720044
s 0
g off
g Pole_Cylinder_Material.002
usemtl Material.002
f 484/1/483 530/2/483 542/3/483
f 486/4/484 502/5/484 530/6/484
f 488/7/485 522/8/485 502/9/485
f 490/10/486 506/11/486 522/12/486
f 484/13/487 492/14/487 488/15/487
f 494/16/488 542/17/488 551/18/488
f 492/19/489 551/20/489 506/21/489
f 485/22/490 489/23/490 493/24/490
f 495/25/483 485/26/483 483/27/483
f 496/28/484 487/29/484 485/30/484
f 497/31/485 489/32/485 487/33/485
f 498/34/486 491/35/486 489/36/486
f 500/37/488 483/38/488 493/39/488
f 499/40/489 493/41/489 491/42/489
f 528/43/489 500/44/489 499/45/489
f 508/46/483 523/47/483 507/48/483
f 541/49/483 524/50/483 508/51/483
f 533/52/486 499/53/486 498/54/486
f 534/55/485 498/56/485 497/57/485
f 519/58/484 534/59/484 535/60/484
f 535/61/484 497/62/484 496/63/484
f 507/64/483 526/65/483 510/66/483
f 536/67/483 496/68/483 495/69/483
f 509/70/483 520/71/483 549/72/483
f 525/73/484 516/74/484 520/75/484
f 527/76/488 495/77/488 500/78/488
f 510/79/483 525/80/483 509/81/483
f 542/82/483 529/83/483 541/84/483
f 549/85/483 519/86/483 550/87/483
f 520/88/484 515/89/484 519/90/484
f 550/91/483 535/92/483 536/93/483
f 526/94/484 517/95/484 525/96/484
f 523/97/484 518/98/484 526/99/484
f 524/100/484 539/101/484 523/102/484
f 529/103/484 540/104/484 524/105/484
f 530/106/484 501/107/484 529/108/484
f 515/109/485 533/110/485 534/111/485
f 516/112/485 531/113/485 515/114/485
f 517/115/485 532/116/485 516/117/485
f 518/118/485 537/119/485 517/120/485
f 539/121/485 538/122/485 518/123/485
f 540/124/485 543/125/485 539/126/485
f 501/127/485 544/128/485 540/129/485
f 502/130/485 521/131/485 501/132/485
f 531/133/486 528/134/486 533/135/486
f 532/136/486 547/137/486 531/138/486
f 537/139/486 548/140/486 532/141/486
f 538/142/486 513/143/486 537/144/486
f 543/145/486 514/146/486 538/147/486
f 544/148/486 511/149/486 543/150/486
f 521/151/486 512/152/486 544/153/486
f 522/154/486 505/155/486 521/156/486
f 503/157/488 536/158/488 527/159/488
f 504/160/488 550/161/488 503/162/488
f 545/163/488 549/164/488 504/165/488
f 546/166/488 509/167/488 545/168/488
f 554/169/488 510/170/488 546/171/488
f 553/172/488 507/173/488 554/174/488
f 552/175/488 508/176/488 553/177/488
f 551/178/488 541/179/488 552/180/488
f 547/181/489 527/182/489 528/183/489
f 548/184/489 503/185/489 547/186/489
f 513/187/489 504/188/489 548/189/489
f 514/190/489 545/191/489 513/192/489
f 511/193/489 546/194/489 514/195/489
f 512/196/489 554/197/489 511/198/489
f 505/199/489 553/200/489 512/201/489
f 506/202/489 552/203/489 505/204/489
f 484/1/483 486/205/483 530/2/483
f 486/4/484 488/206/484 502/5/484
f 488/7/485 490/207/485 522/8/485
f 490/10/486 492/208/486 506/11/486
f 488/15/487 486/209/487 484/13/487
f 484/13/487 494/210/487 492/14/487
f 492/14/487 490/211/487 488/15/487
f 494/16/488 484/212/488 542/17/488
f 492/19/489 494/213/489 551/20/489
f 493/24/490 483/214/490 485/22/490
f 485/22/490 487/215/490 489/23/490
f 489/23/490 491/216/490 493/24/490
f 495/25/483 496/217/483 485/26/483
f 496/28/484 497/218/484 487/29/484
f 497/31/485 498/219/485 489/32/485
f 498/34/486 499/220/486 491/35/486
f 500/37/488 495/221/488 483/38/488
f 499/40/489 500/222/489 493/41/489
f 528/43/489 527/223/489 500/44/489
f 508/46/483 524/224/483 523/47/483
f 541/49/483 529/225/483 524/50/483
f 533/52/486 528/226/486 499/53/486
f 534/55/485 533/227/485 498/56/485
f 519/58/484 515/228/484 534/59/484
f 535/61/484 534/229/484 497/62/484
f 507/64/483 523/230/483 526/65/483
f 536/67/483 535/231/483 496/68/483
f 509/70/483 525/232/483 520/71/483
f 525/73/484 517/233/484 516/74/484
f 527/76/488 536/234/488 495/77/488
f 510/79/483 526/235/483 525/80/483
f 542/82/483 530/236/483 529/83/483
f 549/85/483 520/237/483 519/86/483
f 520/88/484 516/238/484 515/89/484
f 550/91/483 519/239/483 535/92/483
f 526/94/484 518/240/484 517/95/484
f 523/97/484 539/241/484 518/98/484
f 524/100/484 540/242/484 539/101/484
f 529/103/484 501/243/484 540/104/484
f 530/106/484 502/244/484 501/107/484
f 515/109/485 531/245/485 533/110/485
f 516/112/485 532/246/485 531/113/485
f 517/115/485 537/247/485 532/116/485
f 518/118/485 538/248/485 537/119/485
f 539/121/485 543/249/485 538/122/485
f 540/124/485 544/250/485 543/125/485
f 501/127/485 521/251/485 544/128/485
f 502/130/485 522/252/485 521/131/485
f 531/133/486 547/253/486 528/134/486
f 532/136/486 548/254/486 547/137/486
f 537/139/486 513/255/486 548/140/486
f 538/142/486 514/256/486 513/143/486
f 543/145/486 511/257/486 514/146/486
f 544/148/486 512/258/486 511/149/486
f 521/151/486 505/259/486 512/152/486
f 522/154/486 506/260/486 505/155/486
f 503/157/488 550/261/488 536/158/488
f 504/160/488 549/262/488 550/161/488
f 545/163/488 509/263/488 549/164/488
f 546/166/488 510/264/488 509/167/488
f 554/169/488 507/265/488 510/170/488
f 553/172/488 508/266/488 507/173/488
f 552/175/488 541/267/488 508/176/488
f 551/178/488 542/268/488 541/179/488
f 547/181/489 503/269/489 527/182/489
f 548/184/489 504/270/489 503/185/489
f 513/187/489 545/271/489 504/188/489
f 514/190/489 546/272/489 545/191/489
f 511/193/489 554/273/489 546/194/489
f 512/196/489 553/274/489 554/197/489
f 505/199/489 552/275/489 553/200/489
f 506/202/489 551/276/489 552/203/489
g Torus.001_Mesh
v -6.338235 0.000000 13.557651
v -6.302973 0.096472 13.543704
v -6.206634 0.167094 13.505601
v -6.075032 0.192943 13.453550
v -5.943431 0.167094 13.401501
v -5.847092 0.096472 13.363398
v -5.811830 0.000000 13.349451
v -5.847092 -0.096472 13.363398
v -5.943431 -0.167094 13.401501
v -6.075032 -0.192943 13.453550
v -6.206634 -0.167094 13.505601
v -6.302973 -0.096472 13.543704
v -5.882906 0.000000 13.649983
v -5.853944 0.096472 13.634759
v -5.774817 0.167094 13.593165
v -5.666728 0.192943 13.536348
v -5.558639 0.167094 13.479530
v -5.479511 0.096472 13.437937
v -5.450549 0.000000 13.422713
v -5.479511 -0.096472 13.437937
v -5.558639 -0.167094 13.479530
v -5.666728 -0.192943 13.536348
v -5.774817 -0.167094 13.593165
v -5.853944 -0.096472 13.634759
v -5.391764 0.000000 13.723489
v -5.369597 0.096472 13.707248
v -5.309036 0.167094 13.662876
v -5.226308 0.192943 13.602262
v -5.143579 0.167094 13.541650
v -5.083018 0.096472 13.497277
v -5.060851 0.000000 13.481036
v -5.083018 -0.096472 13.497277
v -5.143579 -0.167094 13.541650
v -5.226308 -0.192943 13.602262
v -5.309036 -0.167094 13.662876
v -5.369597 -0.096472 13.707248
v -4.873207 0.000000 13.776911
v -4.858215 0.096472 13.759931
v -4.817255 0.167094 13.713539
v -4.761304 0.192943 13.650167
v -4.705353 0.167094 13.586796
v -4.664394 0.096472 13.540404
v -4.649402 0.000000 13.523423
v -4.664394 -0.096472 13.540404
v -4.705353 -0.167094 13.586796
v -4.761304 -0.192943 13.650167
v -4.817255 -0.167094 13.713539
v -4.858215 -0.096472 13.759931
v -4.336111 0.000000 13.809334
v -4.328550 0.096472 13.791904
v -4.307894 0.167094 13.744287
v -4.279677 0.192943 13.679242
v -4.251460 0.167094 13.614196
v -4.230803 0.096472 13.566579
v -4.223243 0.000000 13.549150
v -4.230803 -0.096472 13.566579
v -4.251460 -0.167094 13.614196
v -4.279677 -0.192943 13.679242
v -4.307894 -0.167094 13.744287
v -4.328550 -0.096472 13.791904
v -3.789666 0.000000 13.820203
v -3.789666 0.096472 13.802624
v -3.789666 0.167094 13.754596
v -3.789666 0.192943 13.688989
v -3.789666 0.167094 13.623382
v -3.789666 0.096472 13.575354
v -3.789666 0.000000 13.557774
v -3.789666 -0.096472 13.575354
v -3.789666 -0.167094 13.623382
v -3.789666 -0.192943 13.688989
v -3.789666 -0.167094 13.754596
v -3.789666 -0.096472 13.802624
v -3.243219 0.000000 13.809334
v -3.250780 0.096472 13.791904
v -3.271436 0.167094 13.744287
v -3.299653 0.192943 13.679241
v -3.327870 0.167094 13.614196
v -3.348527 0.096472 13.566579
v -3.356088 0.000000 13.549150
v -3.348527 -0.096472 13.566579
v -3.327870 -0.167094 13.614196
v -3.299653 -0.192943 13.679241
v -3.271436 -0.167094 13.744287
v -3.250780 -0.096472 13.791904
v -2.706125 0.000000 13.776911
v -2.721117 0.096472 13.759931
v -2.762076 0.167094 13.713539
v -2.818027 0.192943 13.650167
v -2.873978 0.167094 13.586796
v -2.914937 0.096472 13.540404
v -2.929930 0.000000 13.523423
v -2.914937 -0.096472 13.540404
v -2.873978 -0.167094 13.586796
v -2.818027 -0.192943 13.650167
v -2.762076 -0.167094 13.713539
v -2.721117 -0.096472 13.759931
v -2.187568 0.000000 13.723489
v -2.209735 0.096472 13.707248
v -2.270296 0.167094 13.662876
v -2.353024 0.192943 13.602262
v -2.435752 0.167094 13.541650
v -2.496313 0.096472 13.497277
v -2.518480 0.000000 13.481036
v -2.496313 -0.096472 13.497277
v -2.435752 -0.167094 13.541650
v -2.353024 -0.192943 13.602262
v -2.270296 -0.167094 13.662876
v -2.209735 -0.096472 13.707248
v -1.696425 0.000000 13.649983
v -1.725387 0.096472 13.634759
v -1.804515 0.167094 13.593165
v -1.912604 0.192943 13.536348
v -2.020693 0.167094 13.479530
v -2.099820 0.096472 13.437937
v -2.128783 0.000000 13.422713
v -2.099820 -0.096472 13.437937
v -2.020693 -0.167094 13.479530
v -1.912604 -0.192943 13.536348
v -1.804515 -0.167094 13.593165
v -1.725387 -0.096472 13.634759
v -1.241097 0.000000 13.557651
v -1.276359 0.096472 13.543704
v -1.372698 0.167094 13.505601
v -1.504299 0.192943 13.453551
v -1.635901 0.167094 13.401501
v -1.732239 0.096472 13.363398
v -1.767502 0.000000 13.349451
v -1.732239 -0.096472 13.363398
v -1.635901 -0.167094 13.401502
v -1.504299 -0.192943 13.453551
v -1.372698 -0.167094 13.505601
v -1.276359 -0.096472 13.543704
v -0.829376 0.000000 13.448071
v -0.870334 0.096472 13.435640
v -0.982237 0.167094 13.401679
v -1.135098 0.192943 13.355288
v -1.287960 0.167094 13.308896
v -1.399862 0.096472 13.274936
v -1.440822 0.000000 13.262506
v -1.399862 -0.096472 13.274936
v -1.287960 -0.167094 13.308896
v -1.135098 -0.192943 13.355288
v -0.982237 -0.167094 13.401679
v -0.870334 -0.096472 13.435640
v -0.468306 0.000000 13.323119
v -0.514261 0.096472 13.312417
v -0.639812 0.167094 13.283180
v -0.811319 0.192943 13.243240
v -0.982825 0.167094 13.203301
v -1.108376 0.096472 13.174064
v -1.154331 0.000000 13.163363
v -1.108376 -0.096472 13.174064
v -0.982825 -0.167094 13.203301
v -0.811319 -0.192943 13.243240
v -0.639812 -0.167094 13.283180
v -0.514261 -0.096472 13.312417
v -0.164067 0.000000 13.184934
v -0.214231 0.096472 13.176144
v -0.351283 0.167094 13.152130
v -0.538499 0.192943 13.119327
v -0.725715 0.167094 13.086523
v -0.862767 0.096472 13.062509
v -0.912932 0.000000 13.053720
v -0.862767 -0.096472 13.062509
v -0.725715 -0.167094 13.086523
v -0.538499 -0.192943 13.119327
v -0.351283 -0.167094 13.152130
v -0.214231 -0.096472 13.176144
v 0.078139 0.000000 13.035878
v 0.024624 0.096472 13.029151
v -0.121584 0.167094 13.010772
v -0.321307 0.192943 12.985664
v -0.521030 0.167094 12.960558
v -0.667238 0.096472 12.942178
v -0.720754 0.000000 12.935451
v -0.667238 -0.096472 12.942178
v -0.521030 -0.167094 12.960558
v -0.321307 -0.192943 12.985664
v -0.121584 -0.167094 13.010772
v 0.024624 -0.096472 13.029151
v 0.254166 0.000000 12.878503
v 0.198215 0.096472 12.873954
v 0.045353 0.167094 12.861523
v -0.163460 0.192943 12.844543
v -0.372272 0.167094 12.827562
v -0.525134 0.096472 12.815131
v -0.581085 0.000000 12.810581
v -0.525134 -0.096472 12.815131
v -0.372272 -0.167094 12.827562
v -0.163460 -0.192943 12.844543
v 0.045353 -0.167094 12.861523
v 0.198215 -0.096472 12.873954
v 0.239964 0.000000 12.715503
v 0.303571 0.096472 12.713208
v 0.146671 0.167094 12.706939
v -0.067658 0.192943 12.698376
v -0.281988 0.167094 12.689812
v -0.438888 0.096472 12.683543
v -0.496317 0.000000 12.681249
v -0.438888 -0.096472 12.683543
v -0.281988 -0.167094 12.689812
v -0.067658 -0.192943 12.698376
v 0.146671 -0.167094 12.706939
v 0.303571 -0.096472 12.713208
v 0.280239 0.000000 12.549664
v 0.268637 0.078371 12.549664
v 0.140076 0.135742 12.549664
v -0.035541 0.156741 12.549664
v -0.211159 0.135742 12.549664
v -0.339719 0.078371 12.549664
v -0.386776 0.000000 12.549664
v -0.339719 -0.078371 12.549664
v -0.211159 -0.135742 12.549664
v -0.035541 -0.156741 12.549664
v 0.140076 -0.135742 12.549664
v 0.268637 -0.078371 12.549664
vn -0.9907 -0.0000 0.1363
vn -0.8459 0.5324 0.0327
vn -0.5545 0.8024 -0.2206
vn -0.3048 0.7930 -0.5276
vn -0.1447 0.5881 -0.7958
vn -0.0582 0.3055 -0.9504
vn -0.0254 -0.0000 -0.9997
vn -0.0582 -0.3055 -0.9504
vn -0.1447 -0.5881 -0.7958
vn -0.3048 -0.7930 -0.5276
vn -0.5545 -0.8024 -0.2206
vn -0.8459 -0.5324 0.0327
vn -0.1776 -0.0000 0.9841
vn -0.1596 0.4196 0.8936
vn -0.0995 0.8097 0.5783
vn 0.0030 0.9999 0.0119
vn 0.1023 0.8148 -0.5707
vn 0.1552 0.4171 -0.8955
vn 0.1693 -0.0000 -0.9856
vn 0.1552 -0.4171 -0.8955
vn 0.1023 -0.8148 -0.5707
vn 0.0030 -0.9999 0.0119
vn -0.0995 -0.8097 0.5783
vn -0.1596 -0.4196 0.8936
vn -0.1282 -0.0000 0.9918
vn -0.1166 0.4011 0.9086
vn -0.0742 0.7966 0.6000
vn 0.0030 1.0000 0.0094
vn 0.0762 0.8008 -0.5941
vn 0.1128 0.4002 -0.9095
vn 0.1224 -0.0000 -0.9925
vn 0.1128 -0.4002 -0.9095
vn 0.0762 -0.8008 -0.5941
vn 0.0030 -1.0000 0.0094
vn -0.0742 -0.7966 0.6000
vn -0.1166 -0.4011 0.9086
vn -0.0832 -0.0000 0.9965
vn -0.0763 0.3882 0.9184
vn -0.0493 0.7870 0.6149
vn 0.0026 1.0000 0.0071
vn 0.0505 0.7908 -0.6100
vn 0.0736 0.3887 -0.9184
vn 0.0795 -0.0000 -0.9968
vn 0.0736 -0.3887 -0.9184
vn 0.0505 -0.7908 -0.6100
vn 0.0026 -1.0000 0.0071
vn -0.0493 -0.7870 0.6149
vn -0.0763 -0.3882 0.9184
vn -0.0410 -0.0000 0.9992
vn -0.0378 0.3806 0.9240
vn -0.0246 0.7812 0.6238
vn 0.0015 1.0000 0.0053
vn 0.0251 0.7848 -0.6192
vn 0.0363 0.3821 -0.9234
vn 0.0392 -0.0000 -0.9992
vn 0.0363 -0.3821 -0.9234
vn 0.0251 -0.7848 -0.6192
vn 0.0015 -1.0000 0.0053
vn -0.0246 -0.7812 0.6238
vn -0.0378 -0.3806 0.9240
vn -0.0000 -0.0000 1.0000
vn -0.0000 0.3781 0.9258
vn -0.0000 0.7792 0.6267
vn -0.0000 1.0000 0.0046
vn -0.0000 0.7829 -0.6222
vn -0.0000 0.3799 -0.9250
vn -0.0000 -0.0000 -1.0000
vn -0.0000 -0.3799 -0.9250
vn -0.0000 -0.7829 -0.6222
vn -0.0000 -1.0000 0.0046
vn -0.0000 -0.7792 0.6267
vn -0.0000 -0.3781 0.9258
vn 0.0410 -0.0000 0.9992
vn 0.0378 0.3806 0.9240
vn 0.0246 0.7812 0.6238
vn -0.0015 1.0000 0.0053
vn -0.0251 0.7848 -0.6192
vn -0.0363 0.3821 -0.9234
vn -0.0392 -0.0000 -0.9992
vn -0.0363 -0.3821 -0.9234
vn -0.0251 -0.7848 -0.6192
vn -0.0015 -1.0000 0.0053
vn 0.0246 -0.7812 0.6238
vn 0.0378 -0.3806 0.9240
vn 0.0832 -0.0000 0.9965
vn 0.0763 0.3882 0.9184
vn 0.0493 0.7870 0.6149
vn -0.0026 1.0000 0.0071
vn -0.0505 0.7908 -0.6100
vn -0.0736 0.3887 -0.9184
vn -0.0795 -0.0000 -0.9968
vn -0.0736 -0.3887 -0.9184
vn -0.0505 -0.7908 -0.6100
vn -0.0026 -1.0000 0.0071
vn 0.0493 -0.7870 0.6149
vn 0.0763 -0.3882 0.9184
vn 0.1282 -0.0000 0.9918
vn 0.1166 0.4011 0.9086
vn 0.0742 0.7966 0.6000
vn -0.0030 1.0000 0.0094
vn -0.0762 0.8008 -0.5941
vn -0.1128 0.4002 -0.9095
vn -0.1224 -0.0000 -0.9925
vn -0.1128 -0.4002 -0.9095
vn -0.0762 -0.8008 -0.5941
vn -0.0030 -1.0000 0.0094
vn 0.0742 -0.7966 0.6000
vn 0.1166 -0.4011 0.9086
vn 0.1776 -0.0000 0.9841
vn 0.1596 0.4196 0.8936
vn 0.0995 0.8097 0.5783
vn -0.0030 0.9999 0.0119
vn -0.1023 0.8148 -0.5706
vn -0.1552 0.4171 -0.8955
vn -0.1693 -0.0000 -0.9856
vn -0.1552 -0.4171 -0.8955
vn -0.1023 -0.8148 -0.5707
vn -0.0030 -0.9999 0.0119
vn 0.0995 -0.8097 0.5783
vn 0.1596 -0.4196 0.8936
vn 0.2337 -0.0000 0.9723
vn 0.2067 0.4444 0.8717
vn 0.1253 0.8263 0.5491
vn -0.0026 0.9999 0.0143
vn -0.1286 0.8327 -0.5386
vn -0.2019 0.4405 -0.8748
vn -0.2224 -0.0000 -0.9750
vn -0.2019 -0.4405 -0.8748
vn -0.1286 -0.8327 -0.5386
vn -0.0026 -0.9999 0.0143
vn 0.1253 -0.8263 0.5491
vn 0.2067 -0.4444 0.8716
vn 0.2999 -0.0000 0.9540
vn 0.2595 0.4762 0.8402
vn 0.1516 0.8460 0.5111
vn -0.0017 0.9999 0.0167
vn -0.1550 0.8541 -0.4965
vn -0.2546 0.4714 -0.8444
vn -0.2846 -0.0000 -0.9586
vn -0.2546 -0.4714 -0.8444
vn -0.1550 -0.8541 -0.4965
vn -0.0017 -0.9999 0.0167
vn 0.1516 -0.8460 0.5111
vn 0.2595 -0.4762 0.8402
vn 0.3807 -0.0000 0.9247
vn 0.3199 0.5155 0.7949
vn 0.1784 0.8683 0.4629
vn -0.0004 0.9998 0.0186
vn -0.1809 0.8783 -0.4426
vn -0.3151 0.5112 -0.7996
vn -0.3604 -0.0000 -0.9328
vn -0.3151 -0.5112 -0.7996
vn -0.1809 -0.8783 -0.4426
vn -0.0004 -0.9998 0.0186
vn 0.1784 -0.8683 0.4629
vn 0.3199 -0.5155 0.7949
vn 0.4827 -0.0000 0.8758
vn 0.3900 0.5623 0.7292
vn 0.2053 0.8922 0.4024
vn 0.0016 0.9998 0.0200
vn -0.2050 0.9039 -0.3754
vn -0.3852 0.5611 -0.7327
vn -0.4562 -0.0000 -0.8899
vn -0.3852 -0.5611 -0.7327
vn -0.2050 -0.9039 -0.3754
vn 0.0016 -0.9998 0.0200
vn 0.2053 -0.8922 0.4024
vn 0.3900 -0.5623 0.7292
vn 0.6134 -0.0000 0.7898
vn 0.4713 0.6150 0.6322
vn 0.2317 0.9160 0.3275
vn 0.0045 0.9998 0.0202
vn -0.2256 0.9288 -0.2941
vn -0.4649 0.6212 -0.6308
vn -0.5808 -0.0000 -0.8141
vn -0.4649 -0.6212 -0.6308
vn -0.2256 -0.9288 -0.2941
vn 0.0045 -0.9998 0.0202
vn 0.2317 -0.9160 0.3275
vn 0.4713 -0.6150 0.6322
vn 0.9420 -0.0000 0.3356
vn 0.6483 0.6277 0.4310
vn 0.2564 0.9374 0.2357
vn 0.0086 0.9998 0.0182
vn -0.2398 0.9499 -0.2004
vn -0.5478 0.6874 -0.4769
vn -0.7405 -0.0000 -0.6721
vn -0.5478 -0.6874 -0.4769
vn -0.2398 -0.9499 -0.2004
vn 0.0086 -0.9998 0.0182
vn 0.2564 -0.9374 0.2357
vn 0.6483 -0.6277 0.4310
vn 0.9817 -0.0000 0.1905
vn 0.9536 0.2649 0.1429
vn 0.2905 0.9569 -0.0005
vn 0.0177 0.9941 -0.1069
vn -0.2421 0.9402 -0.2395
vn -0.5743 0.6908 -0.4393
vn -0.8099 -0.0000 -0.5866
vn -0.5743 -0.6908 -0.4393
vn -0.2421 -0.9402 -0.2395
vn 0.0177 -0.9941 -0.1069
vn 0.2905 -0.9569 -0.0005
vn 0.9536 -0.2649 0.1429
vn 0.8113 -0.0000 -0.5847
vn 0.6672 0.3788 -0.6414
vn 0.1781 0.6422 -0.7456
vn 0.0125 0.6477 -0.7618
vn -0.1399 0.6052 -0.7837
vn -0.3430 0.4644 -0.8165
vn -0.5303 -0.0000 -0.8478
vn -0.3430 -0.4644 -0.8165
vn -0.1399 -0.6052 -0.7837
vn 0.0125 -0.6477 -0.7618
vn 0.1781 -0.6422 -0.7456
vn 0.6672 -0.3788 -0.6414
s 1
g off
g Torus.001_Metal
usemtl Metal
f 567//503 556//492 555//491
f 568//504 557//493 556//492
f 569//505 558//494 557//493
f 570//506 559//495 558//494
f 571//507 560//496 559//495
f 572//508 561//497 560//496
f 561//497 574//510 562//498
f 562//498 575//511 563//499
f 563//499 576//512 564//500
f 564//500 577//513 565//501
f 565//501 578//514 566//502
f 566//502 567//503 555//491
f 579//515 568//504 567//503
f 580//516 569//505 568//504
f 581//517 570//506 569//505
f 582//518 571//507 570//506
f 583//519 572//508 571//507
f 584//520 573//509 572//508
f 573//509 586//522 574//510
f 574//510 587//523 575//511
f 575//511 588//524 576//512
f 576//512 589//525 577//513
f 577//513 590//526 578//514
f 578//514 579//515 567//503
f 591//527 580//516 579//515
f 592//528 581//517 580//516
f 593//529 582//518 581//517
f 594//530 583//519 582//518
f 595//531 584//520 583//519
f 596//532 585//521 584//520
f 585//521 598//534 586//522
f 586//522 599//535 587//523
f 587//523 600//536 588//524
f 588//524 601//537 589//525
f 589//525 602//538 590//526
f 590//526 591//527 579//515
f 603//539 592//528 591//527
f 604//540 593//529 592//528
f 605//541 594//530 593//529
f 606//542 595//531 594//530
f 607//543 596//532 595//531
f 608//544 597//533 596//532
f 597//533 610//546 598//534
f 598//534 611//547 599//535
f 599//535 612//548 600//536
f 600//536 613//549 601//537
f 601//537 614//550 602//538
f 602//538 603//539 591//527
f 615//551 604//540 603//539
f 616//552 605//541 604//540
f 617//553 606//542 605//541
f 618//554 607//543 606//542
f 619//555 608//544 607//543
f 620//556 609//545 608//544
f 609//545 622//558 610//546
f 610//546 623//559 611//547
f 611//547 624//560 612//548
f 612//548 625//561 613//549
f 613//549 626//562 614//550
f 614//550 615//551 603//539
f 615//551 628//564 616//552
f 616//552 629//565 617//553
f 617//553 630//566 618//554
f 618//554 631//567 619//555
f 619//555 632//568 620//556
f 620//556 633//569 621//557
f 633//569 622//558 621//557
f 634//570 623//559 622//558
f 635//571 624//560 623//559
f 636//572 625//561 624//560
f 637//573 626//562 625//561
f 638//574 615//551 626//562
f 627//563 640//576 628//564
f 628//564 641//577 629//565
f 629//565 642//578 630//566
f 630//566 643//579 631//567
f 631//567 644//580 632//568
f 632//568 645//581 633//569
f 645//581 634//570 633//569
f 646//582 635//571 634//570
f 647//583 636//572 635//571
f 648//584 637//573 636//572
f 649//585 638//574 637//573
f 650//586 627//563 638//574
f 639//575 652//588 640//576
f 640//576 653//589 641//577
f 641//577 654//590 642//578
f 642//578 655//591 643//579
f 643//579 656//592 644//580
f 644//580 657//593 645//581
f 657//593 646//582 645//581
f 658//594 647//583 646//582
f 659//595 648//584 647//583
f 660//596 649//585 648//584
f 661//597 650//586 649//585
f 662//598 639//575 650//586
f 651//587 664//600 652//588
f 652//588 665//601 653//589
f 653//589 666//602 654//590
f 654//590 667//603 655//591
f 655//591 668//604 656//592
f 656//592 669//605 657//593
f 669//605 658//594 657//593
f 670//606 659//595 658//594
f 671//607 660//596 659//595
f 672//608 661//597 660//596
f 673//609 662//598 661//597
f 674//610 651//587 662//598
f 663//599 676//612 664//600
f 664//600 677//613 665//601
f 665//601 678//614 666//602
f 666//602 679//615 667//603
f 667//603 680//616 668//604
f 668//604 681//617 669//605
f 681//617 670//606 669//605
f 682//618 671//607 670//606
f 683//619 672//608 671//607
f 684//620 673//609 672//608
f 685//621 674//610 673//609
f 686//622 663//599 674//610
f 675//611 688//624 676//612
f 676//612 689//625 677//613
f 677//613 690//626 678//614
f 678//614 691//627 679//615
f 679//615 692//628 680//616
f 680//616 693//629 681//617
f 693//629 682//618 681//617
f 694//630 683//619 682//618
f 695//631 684//620 683//619
f 696//632 685//621 684//620
f 697//633 686//622 685//621
f 698//634 675//611 686//622
f 687//623 700//636 688//624
f 688//624 701//637 689//625
f 689//625 702//638 690//626
f 690//626 703//639 691//627
f 691//627 704//640 692//628
f 692//628 705//641 693//629
f 705//641 694//630 693//629
f 706//642 695//631 694//630
f 707//643 696//632 695//631
f 708//644 697//633 696//632
f 709//645 698//634 697//633
f 710//646 687//623 698//634
f 699//635 712//648 700//636
f 700//636 713//649 701//637
f 701//637 714//650 702//638
f 702//638 715//651 703//639
f 703//639 716//652 704//640
f 704//640 717//653 705//641
f 717//653 706//642 705//641
f 718//654 707//643 706//642
f 719//655 708//644 707//643
f 720//656 709//645 708//644
f 721//657 710//646 709//645
f 722//658 699//635 710//646
f 711//647 724//660 712//648
f 712//648 725//661 713//649
f 713//649 726//662 714//650
f 714//650 727//663 715//651
f 715//651 728//664 716//652
f 716//652 729//665 717//653
f 729//665 718//654 717//653
f 730//666 719//655 718//654
f 731//667 720//656 719//655
f 732//668 721//657 720//656
f 733//669 722//658 721//657
f 734//670 711//647 722//658
f 723//659 736//672 724//660
f 724//660 737//673 725//661
f 725//661 738//674 726//662
f 726//662 739//675 727//663
f 727//663 740//676 728//664
f 728//664 741//677 729//665
f 741//677 730//666 729//665
f 742//678 731//667 730//666
f 743//679 732//668 731//667
f 744//680 733//669 732//668
f 745//681 734//670 733//669
f 746//682 723//659 734//670
f 747//683 736//672 735//671
f 736//672 749//685 737//673
f 737//673 750//686 738//674
f 738//674 751//687 739//675
f 739//675 752//688 740//676
f 740//676 753//689 741//677
f 753//689 742//678 741//677
f 754//690 743//679 742//678
f 755//691 744//680 743//679
f 756//692 745//681 744//680
f 757//693 746//682 745//681
f 746//682 747//683 735//671
f 747//683 760//696 748//684
f 760//696 749//685 748//684
f 749//685 762//698 750//686
f 750//686 763//699 751//687
f 751//687 764//700 752//688
f 752//688 765//701 753//689
f 765//701 754//690 753//689
f 766//702 755//691 754//690
f 767//703 756//692 755//691
f 768//704 757//693 756//692
f 757//693 770//706 758//694
f 770//706 747//683 758//694
f 764//700 760//696 768//704
f 557//493 561//497 565//501
f 567//503 568//504 556//492
f 568//504 569//505 557//493
f 569//505 570//506 558//494
f 570//506 571//507 559//495
f 571//507 572//508 560//496
f 572//508 573//509 561//497
f 561//497 573//509 574//510
f 562//498 574//510 575//511
f 563//499 575//511 576//512
f 564//500 576//512 577//513
f 565//501 577//513 578//514
f 566//502 578//514 567//503
f 579//515 580//516 568//504
f 580//516 581//517 569//505
f 581//517 582//518 570//506
f 582//518 583//519 571//507
f 583//519 584//520 572//508
f 584//520 585//521 573//509
f 573//509 585//521 586//522
f 574//510 586//522 587//523
f 575//511 587//523 588//524
f 576//512 588//524 589//525
f 577//513 589//525 590//526
f 578//514 590//526 579//515
f 591//527 592//528 580//516
f 592//528 593//529 581//517
f 593//529 594//530 582//518
f 594//530 595//531 583//519
f 595//531 596//532 584//520
f 596//532 597//533 585//521
f 585//521 597//533 598//534
f 586//522 598//534 599//535
f 587//523 599//535 600//536
f 588//524 600//536 601//537
f 589//525 601//537 602//538
f 590//526 602//538 591//527
f 603//539 604//540 592//528
f 604//540 605//541 593//529
f 605//541 606//542 594//530
f 606//542 607//543 595//531
f 607//543 608//544 596//532
f 608//544 609//545 597//533
f 597//533 609//545 610//546
f 598//534 610//546 611//547
f 599//535 611//547 612//548
f 600//536 612//548 613//549
f 601//537 613//549 614//550
f 602//538 614//550 603//539
f 615//551 616//552 604//540
f 616//552 617//553 605//541
f 617//553 618//554 606//542
f 618//554 619//555 607//543
f 619//555 620//556 608//544
f 620//556 621//557 609//545
f 609//545 621//557 622//558
f 610//546 622//558 623//559
f 611//547 623//559 624//560
f 612//548 624//560 625//561
f 613//549 625//561 626//562
f 614//550 626//562 615//551
f 615//551 627//563 628//564
f 616//552 628//564 629//565
f 617//553 629//565 630//566
f 618//554 630//566 631//567
f 619//555 631//567 632//568
f 620//556 632//568 633//569
f 633//569 634//570 622//558
f 634//570 635//571 623//559
f 635//571 636//572 624//560
f 636//572 637//573 625//561
f 637//573 638//574 626//562
f 638//574 627//563 615//551
f 627//563 639//575 640//576
f 628//564 640//576 641//577
f 629//565 641//577 642//578
f 630//566 642//578 643//579
f 631//567 643//579 644//580
f 632//568 644//580 645//581
f 645//581 646//582 634//570
f 646//582 647//583 635//571
f 647//583 648//584 636//572
f 648//584 649//585 637//573
f 649//585 650//586 638//574
f 650//586 639//575 627//563
f 639//575 651//587 652//588
f 640//576 652//588 653//589
f 641//577 653//589 654//590
f 642//578 654//590 655//591
f 643//579 655//591 656//592
f 644//580 656//592 657//593
f 657//593 658//594 646//582
f 658//594 659//595 647//583
f 659//595 660//596 648//584
f 660//596 661//597 649//585
f 661//597 662//598 650//586
f 662//598 651//587 639//575
f 651//587 663//599 664//600
f 652//588 664//600 665//601
f 653//589 665//601 666//602
f 654//590 666//602 667//603
f 655//591 667//603 668//604
f 656//592 668//604 669//605
f 669//605 670//606 658//594
f 670//606 671//607 659//595
f 671//607 672//608 660//596
f 672//608 673//609 661//597
f 673//609 674//610 662//598
f 674//610 663//599 651//587
f 663//599 675//611 676//612
f 664//600 676//612 677//613
f 665//601 677//613 678//614
f 666//602 678//614 679//615
f 667//603 679//615 680//616
f 668//604 680//616 681//617
f 681//617 682//618 670//606
f 682//618 683//619 671//607
f 683//619 684//620 672//608
f 684//620 685//621 673//609
f 685//621 686//622 674//610
f 686//622 675//611 663//599
f 675//611 687//623 688//624
f 676//612 688//624 689//625
f 677//613 689//625 690//626
f 678//614 690//626 691//627
f 679//615 691//627 692//628
f 680//616 692//628 693//629
f 693//629 694//630 682//618
f 694//630 695//631 683//619
f 695//631 696//632 684//620
f 696//632 697//633 685//621
f 697//633 698//634 686//622
f 698//634 687//623 675//611
f 687//623 699//635 700//636
f 688//624 700//636 701//637
f 689//625 701//637 702//638
f 690//626 702//638 703//639
f 691//627 703//639 704//640
f 692//628 704//640 705//641
f 705//641 706//642 694//630
f 706//642 707//643 695//631
f 707//643 708//644 696//632
f 708//644 709//645 697//633
f 709//645 710//646 698//634
f 710//646 699//635 687//623
f 699//635 711//647 712//648
f 700//636 712//648 713//649
f 701//637 713//649 714//650
f 702//638 714//650 715//651
f 703//639 715//651 716//652
f 704//640 716//652 717//653
f 717//653 718//654 706//642
f 718//654 719//655 707//643
f 719//655 720//656 708//644
f 720//656 721//657 709//645
f 721//657 722//658 710//646
f 722//658 711//647 699//635
f 711//647 723//659 724//660
f 712//648 724//660 725//661
f 713//649 725//661 726//662
f 714//650 726//662 727//663
f 715//651 727//663 728//664
f 716//652 728//664 729//665
f 729//665 730//666 718//654
f 730//666 731//667 719//655
f 731//667 732//668 720//656
f 732//668 733//669 721//657
f 733//669 734//670 722//658
f 734//670 723//659 711//647
f 723//659 735//671 736//672
f 724//660 736//672 737//673
f 725//661 737//673 738//674
f 726//662 738//674 739//675
f 727//663 739//675 740//676
f 728//664 740//676 741//677
f 741//677 742//678 730//666
f 742//678 743//679 731//667
f 743//679 744//680 732//668
f 744//680 745//681 733//669
f 745//681 746//682 734//670
f 746//682 735//671 723//659
f 747//683 748//684 736//672
f 736//672 748//684 749//685
f 737//673 749//685 750//686
f 738//674 750//686 751//687
f 739//675 751//687 752//688
f 740//676 752//688 753//689
f 753//689 754//690 742//678
f 754//690 755//691 743//679
f 755//691 756//692 744//680
f 756//692 757//693 745//681
f 757//693 758//694 746//682
f 746//682 758//694 747//683
f 747//683 759//695 760//696
f 760//696 761//697 749//685
f 749//685 761//697 762//698
f 750//686 762//698 763//699
f 751//687 763//699 764//700
f 752//688 764//700 765//701
f 765//701 766//702 754//690
f 766//702 767//703 755//691
f 767//703 768//704 756//692
f 768//704 769//705 757//693
f 757//693 769//705 770//706
f 770//706 759//695 747//683
f 768//704 767//703 766//702
f 766//702 765//701 764//700
f 764//700 763//699 762//698
f 762//698 761//697 760//696
f 760//696 759//695 770//706
f 770//706 769//705 768//704
f 768//704 766//702 764//700
f 764//700 762//698 760//696
f 760//696 770//706 768//704
f 565//501 566//502 555//491
f 555//491 556//492 557//493
f 557//493 558//494 559//495
f 559//495 560//496 561//497
f 561//497 562//498 563//499
f 563//499 564//500 565//501
f 565//501 555//491 557//493
f 557//493 559//495 561//497
f 561//497 563//499 565//501
