# Blender 5.0.1
# www.blender.org
o LlantaDD
v -0.787714 0.009777 -0.273153
v -0.625553 0.377378 0.034206
v -0.722593 0.015298 0.040526
v -0.681953 0.404498 -0.280033
v -0.360434 0.642498 0.029567
v -0.392994 0.693458 -0.285073
v 0.001806 0.739538 0.027886
v 0.001806 0.799218 -0.286994
v 0.363966 0.642498 0.029567
v 0.396526 0.693458 -0.285073
v 0.629086 0.377378 0.034206
v 0.685486 0.404498 -0.280033
v 0.726126 0.015298 0.040526
v 0.791327 0.009777 -0.273153
v 0.629086 -0.346863 0.046846
v 0.685486 -0.384863 -0.266273
v 0.363966 -0.611902 0.051486
v 0.396526 -0.673822 -0.261233
v 0.001806 -0.708942 0.053166
v 0.001806 -0.779582 -0.259394
v -0.360434 -0.611902 0.051486
v -0.392994 -0.673822 -0.261233
v -0.625553 -0.346863 0.046846
v -0.681953 -0.384863 -0.266274
v -1.328835 1.354338 -0.272194
v 1.345964 -1.321422 -0.225473
v -1.329473 -1.320702 -0.225554
v 1.346685 1.353698 -0.272194
v 1.023726 0.870418 -0.279234
v 1.254526 0.468018 -0.427713
v 1.254526 0.470738 -0.272194
v 1.023726 0.867698 -0.434673
v 0.670046 1.167138 -0.284353
v 1.023726 0.867698 -0.434673
v 1.023726 0.870418 -0.279234
v 0.670046 1.164418 -0.439874
v 0.236286 1.324978 -0.287153
v 0.670046 1.164418 -0.439874
v 0.670046 1.167138 -0.284353
v 0.236286 1.322258 -0.442674
v -0.225313 1.324978 -0.287153
v 0.236286 1.322258 -0.442674
v 0.236286 1.324978 -0.287153
v -0.225313 1.322258 -0.442674
v -0.659075 1.167138 -0.284353
v -0.225313 1.322258 -0.442674
v -0.225313 1.324978 -0.287153
v -0.659075 1.164418 -0.439874
v -1.012674 0.870418 -0.279234
v -0.659075 1.164418 -0.439874
v -0.659075 1.167138 -0.284353
v -1.012674 0.867698 -0.434673
v -1.243475 0.470738 -0.272194
v -1.012674 0.867698 -0.434673
v -1.012674 0.870418 -0.279234
v -1.243475 0.468018 -0.427713
v -1.323633 0.016177 -0.264274
v -1.243475 0.468018 -0.427713
v -1.243475 0.470738 -0.272194
v -1.323633 0.013458 -0.419793
v 1.254526 0.470738 -0.272194
v 1.334684 0.013458 -0.419793
v 1.334684 0.016177 -0.264274
v 1.254526 0.468018 -0.427713
v -1.243475 -0.438302 -0.256353
v -1.323633 0.013458 -0.419793
v -1.323633 0.016177 -0.264274
v -1.243475 -0.441023 -0.411874
v -1.012674 -0.838063 -0.249394
v -1.243475 -0.441023 -0.411874
v -1.243475 -0.438302 -0.256353
v -1.012674 -0.840782 -0.404914
v 1.023726 -0.838063 -0.249393
v 0.670046 -1.137422 -0.399713
v 0.670046 -1.134702 -0.244194
v 1.023726 -0.840782 -0.404914
v -0.225313 -1.292542 -0.241473
v -0.659075 -1.137422 -0.399714
v -0.659075 -1.134702 -0.244194
v -0.225313 -1.295263 -0.396914
v 0.236286 -1.292542 -0.241473
v -0.225313 -1.295263 -0.396914
v -0.225313 -1.292542 -0.241473
v 0.236286 -1.295263 -0.396914
v 0.670046 -1.134702 -0.244194
v 0.236286 -1.295263 -0.396914
v 0.236286 -1.292542 -0.241473
v 0.670046 -1.137422 -0.399713
v -0.659075 -1.134702 -0.244194
v -1.012674 -0.840782 -0.404914
v -1.012674 -0.838063 -0.249394
v -0.659075 -1.137422 -0.399714
v 1.254526 -0.438302 -0.256353
v 1.023726 -0.840782 -0.404914
v 1.023726 -0.838063 -0.249393
v 1.254526 -0.441023 -0.411874
v 1.334684 0.016177 -0.264274
v 1.254526 -0.441023 -0.411874
v 1.254526 -0.438302 -0.256353
v 1.334684 0.013458 -0.419793
v -1.295074 0.494338 -0.091873
v -0.974594 0.072257 -0.165713
v -1.364115 0.097778 -0.084913
v -0.912434 0.351138 -0.170513
v -0.965473 -0.233022 -0.160354
v -1.307554 -0.281742 -0.078274
v -1.415154 0.532658 -0.445554
v -1.491795 0.108738 -0.171634
v -1.491795 0.104098 -0.438113
v -1.415154 0.537298 -0.179154
v -1.428675 -0.311582 -0.164353
v -1.428675 -0.316302 -0.430754
v -0.935314 -0.248942 -0.431953
v -1.354994 -0.357902 -0.168994
v -1.354994 -0.362462 -0.429954
v -0.943073 0.055858 -0.437234
v -0.882515 0.335298 -0.442114
v -1.088995 0.840098 -0.097874
v -0.777874 0.603218 -0.174913
v -0.798834 1.091138 -0.102274
v -0.571955 0.828818 -0.178913
v -1.193954 0.907698 -0.452113
v -1.193954 0.912338 -0.185714
v -0.872114 1.185378 -0.456994
v -0.872194 1.190018 -0.190514
v -0.786194 1.172498 -0.456754
v -0.541794 0.812898 -0.450514
v -0.786194 1.176978 -0.195793
v -0.746353 0.586738 -0.446513
v 1.900766 0.031458 0.858287
v 2.109247 -0.418862 0.890447
v 1.859327 -0.366142 0.865167
v 2.156286 0.032018 0.882527
v 1.970125 -0.847102 0.897886
v 1.736685 -0.743582 0.871806
v 1.744925 -1.237102 0.904686
v 1.538206 -1.087343 0.877807
v 1.443647 -1.571662 0.910526
v 1.272608 -1.382303 0.882926
v 1.079325 -1.836382 0.915167
v 0.951487 -1.615582 0.887007
v 0.667967 -2.019583 0.918366
v 0.588926 -1.777023 0.889807
v 0.227406 -2.113182 0.919967
v 0.200605 -1.859503 0.891247
v -0.222914 -2.113262 0.919967
v -0.196274 -1.859582 0.891247
v -0.663395 -2.019662 0.918366
v -0.584595 -1.777023 0.889807
v -1.075314 -1.836222 0.915167
v -0.948195 -1.615022 0.887007
v -1.439154 -1.571903 0.910526
v -1.268354 -1.382383 0.882926
v -1.740515 -1.237262 0.904686
v -1.533955 -1.087423 0.877807
v -1.965714 -0.847342 0.897886
v -1.732433 -0.743742 0.871806
v -2.104914 -0.419102 0.890447
v -1.855074 -0.366302 0.865167
v -2.152035 0.031698 0.882526
v -1.896595 0.031298 0.858287
v -2.104994 0.476498 0.874766
v -1.855154 0.423138 0.851406
v -1.965874 0.904738 0.867327
v -1.732513 0.800578 0.844847
v -1.740675 1.294658 0.860526
v -1.534035 1.144258 0.838846
v -1.439394 1.629297 0.854687
v -1.268435 1.439218 0.833647
v -1.075073 1.894017 0.850046
v -0.947313 1.672498 0.829566
v -0.663633 2.077138 0.846847
v -0.584675 1.833937 0.826766
v -0.223154 2.170818 0.845246
v -0.196434 1.916497 0.825326
v 0.227165 2.170818 0.845246
v 0.200525 1.916497 0.825326
v 0.667646 2.077218 0.846847
v 0.588766 1.834018 0.826766
v 1.078527 1.894418 0.850046
v 0.950365 1.673218 0.829566
v 1.443407 1.629458 0.854687
v 1.272528 1.439298 0.833647
v 1.744764 1.294898 0.860526
v 1.538126 1.144418 0.838846
v 1.969965 0.904978 0.867327
v 1.736605 0.800658 0.844847
v 2.109167 0.476737 0.874766
v 1.859247 0.423218 0.851406
v 2.420687 0.251298 -0.944274
v 1.648127 -0.535743 -0.870354
v 2.315004 -0.754302 -0.926754
v 1.723326 0.180338 -0.882833
v 1.288046 -1.159262 -0.859473
v 1.809484 -1.629902 -0.911473
v 0.705486 -1.582463 -0.852034
v 0.991568 -2.224303 -0.901073
v 0.001085 -1.732142 -0.849474
v 0.002365 -2.434542 -0.897393
v -0.703314 -1.582463 -0.852034
v -0.986673 -2.224462 -0.901074
v -1.285873 -1.159262 -0.859473
v -1.804914 -1.630223 -0.911473
v -1.645954 -0.535743 -0.870354
v -2.310595 -0.754622 -0.926754
v -1.721233 0.180338 -0.882834
v -2.416353 0.250898 -0.944274
v -1.498674 0.865138 -0.894754
v -2.103954 1.212498 -0.961074
v -1.016834 1.400178 -0.904114
v -1.427395 1.963938 -0.974194
v -0.358994 1.692978 -0.909234
v -0.503633 2.375218 -0.981314
v 0.361166 1.692978 -0.909234
v 0.507567 2.375298 -0.981314
v 1.019007 1.400178 -0.904114
v 1.431486 1.964098 -0.974194
v 1.500845 0.865138 -0.894753
v 2.108126 1.212818 -0.961074
v -0.015795 -1.064142 0.329566
v -0.072193 -1.129262 0.371806
v -0.072193 -1.079502 0.339486
v -0.015795 -1.144623 0.381806
v 0.019007 -1.104382 0.355646
v -0.015795 -1.259662 0.204606
v 0.019007 -1.219423 0.178527
v -0.072193 -1.244303 0.194687
v -0.072193 -1.194542 0.162367
v -0.015795 -1.179182 0.152367
v -0.015795 -1.064142 0.329566
v -0.015795 -1.064142 0.329566
v -0.015795 -1.179182 0.152367
v -0.742674 2.318098 0.736767
v -0.267075 2.583698 0.599887
v -0.249874 2.422898 0.734926
v -0.793314 2.471778 0.601887
v 0.270925 2.583778 0.599887
v 0.253805 2.422898 0.734926
v -0.267075 2.558978 -0.815873
v -0.793314 2.447057 -0.813873
v 0.270926 2.559057 -0.815873
v -0.503633 2.375218 -0.981314
v 0.507567 2.375298 -0.981314
v 0.253805 2.422898 0.734926
v 0.797245 2.472018 0.601887
v 0.746607 2.318258 0.736767
v 0.270925 2.583778 0.599887
v 1.288767 2.253298 0.605646
v 1.206766 2.113457 0.740366
v 0.797245 2.447298 -0.813873
v 0.270926 2.559057 -0.815873
v 1.288767 2.228577 -0.810114
v 0.507567 2.375298 -0.981314
v 1.431486 1.964098 -0.974194
v -1.610353 1.817137 0.745486
v -1.284754 2.252898 0.605646
v -1.202833 2.113218 0.740366
v -1.719954 1.936658 0.611166
v -0.793314 2.471778 0.601887
v -0.742674 2.318098 0.736767
v -1.284754 2.228178 -0.810114
v -1.719954 1.911937 -0.804594
v -0.793314 2.447057 -0.813873
v -1.427395 1.963938 -0.974194
v -0.503633 2.375218 -0.981314
v 1.951487 1.443138 0.752047
v 2.353167 1.071698 0.626287
v 2.203325 1.006978 0.759647
v 2.084127 1.537538 0.618127
v 2.519567 0.560098 0.635246
v 2.359087 0.527938 0.768046
v 2.353167 1.046978 -0.789473
v 2.084127 1.512818 -0.797554
v 2.519567 0.535378 -0.780514
v 2.108126 1.212818 -0.961074
v 2.420687 0.251298 -0.944274
v 2.359087 0.527938 0.768046
v 2.575888 0.025138 0.644527
v 2.411726 0.030257 0.776687
v 2.519567 0.560098 0.635246
v 2.519648 -0.509823 0.653887
v 2.359087 -0.473822 0.785486
v 2.575888 0.000418 -0.771153
v 2.519567 0.535378 -0.780514
v 2.519648 -0.534542 -0.761873
v 2.420687 0.251298 -0.944274
v 2.315004 -0.754302 -0.926754
v 1.206766 2.113457 0.740366
v 1.724047 1.937217 0.611166
v 1.614367 1.817378 0.745486
v 1.288767 2.253298 0.605646
v 2.084127 1.537538 0.618127
v 1.951487 1.443138 0.752047
v 1.724047 1.912498 -0.804594
v 1.288767 2.228577 -0.810114
v 2.084127 1.512818 -0.797554
v 1.431486 1.964098 -0.974194
v 2.108126 1.212818 -0.961074
v -2.407394 0.029858 0.776687
v -2.514994 0.559298 0.635246
v -2.354834 0.527538 0.768046
v -2.571074 0.024338 0.644606
v -2.348835 1.070898 0.626286
v -2.199154 1.006578 0.759646
v -2.514994 0.534578 -0.780514
v -2.571074 -0.000382 -0.771154
v -2.348835 1.046257 -0.789474
v -2.416353 0.250898 -0.944274
v -2.103954 1.212498 -0.961074
v -2.199154 1.006578 0.759646
v -2.079874 1.536818 0.618206
v -1.947393 1.442818 0.752047
v -2.348835 1.070898 0.626286
v -1.719954 1.936658 0.611166
v -1.610353 1.817137 0.745486
v -2.079874 1.512098 -0.797554
v -2.348835 1.046257 -0.789474
v -1.719954 1.911937 -0.804594
v -2.103954 1.212498 -0.961074
v -1.427395 1.963938 -0.974194
v 1.207167 -2.059502 0.813167
v 0.798046 -2.422302 0.687246
v 0.747005 -2.264383 0.816767
v 1.289484 -2.203422 0.683486
v 0.271807 -2.534222 0.689246
v 0.254206 -2.369102 0.818606
v 0.798046 -2.447022 -0.728434
v 1.289484 -2.228142 -0.732274
v 0.271807 -2.558943 -0.726514
v 0.991568 -2.224303 -0.901073
v 0.002365 -2.434542 -0.897393
v 0.254206 -2.369102 0.818606
v -0.266193 -2.534302 0.689246
v -0.249474 -2.369182 0.818606
v 0.271807 -2.534222 0.689246
v -0.792515 -2.422542 0.687326
v -0.742273 -2.264542 0.816767
v -0.266193 -2.559022 -0.726514
v 0.271807 -2.558943 -0.726514
v -0.792515 -2.447263 -0.728434
v 0.002365 -2.434542 -0.897393
v -0.986673 -2.224462 -0.901074
v 1.951727 -1.389102 0.801486
v 1.724688 -1.887182 0.677966
v 1.614687 -1.763422 0.808046
v 2.084604 -1.487342 0.670926
v 1.289484 -2.203422 0.683486
v 1.207167 -2.059502 0.813167
v 1.724688 -1.911902 -0.737794
v 2.084604 -1.512062 -0.744754
v 1.289484 -2.228142 -0.732274
v 1.809484 -1.629902 -0.911473
v 0.991568 -2.224303 -0.901073
v -1.610035 -1.763663 0.808046
v -2.079393 -1.488062 0.671006
v -1.947075 -1.389423 0.801486
v -1.719315 -1.887742 0.677966
v -2.348515 -1.022222 0.662846
v -2.198994 -0.953263 0.793886
v -2.079393 -1.512782 -0.744754
v -1.719315 -1.912462 -0.737794
v -2.348515 -1.046942 -0.752914
v -1.804914 -1.630223 -0.911473
v -2.310595 -0.754622 -0.926754
v -2.198994 -0.953263 0.793886
v -2.514833 -0.510623 0.653887
v -2.354753 -0.474222 0.785486
v -2.348515 -1.022222 0.662846
v -2.571074 0.024338 0.644606
v -2.407394 0.029858 0.776687
v -2.514833 -0.535342 -0.761873
v -2.348515 -1.046942 -0.752914
v -2.571074 -0.000382 -0.771154
v -2.310595 -0.754622 -0.926754
v -2.416353 0.250898 -0.944274
v -0.742273 -2.264542 0.816767
v -1.284035 -2.203822 0.683486
v -1.202435 -2.059663 0.813167
v -0.792515 -2.422542 0.687326
v -1.719315 -1.887742 0.677966
v -1.610035 -1.763663 0.808046
v -1.284035 -2.228543 -0.732274
v -0.792515 -2.447263 -0.728434
v -1.719315 -1.912462 -0.737794
v -0.986673 -2.224462 -0.901074
v -1.804914 -1.630223 -0.911473
v 2.359087 -0.473822 0.785486
v 2.353567 -1.021423 0.662847
v 2.203485 -0.952863 0.793886
v 2.519648 -0.509823 0.653887
v 2.084604 -1.487342 0.670926
v 1.951727 -1.389102 0.801486
v 2.353567 -1.046142 -0.752913
v 2.519648 -0.534542 -0.761873
v 2.084604 -1.512062 -0.744754
v 2.315004 -0.754302 -0.926754
v 1.809484 -1.629902 -0.911473
v 1.645327 0.029778 0.769647
v 1.609407 -0.314623 0.775646
v 2.359087 -0.473822 0.785486
v 2.411726 0.030257 0.776687
v 1.503244 -0.641262 0.781406
v 2.203485 -0.952863 0.793886
v 1.331488 -0.938702 0.786527
v 1.951727 -1.389102 0.801486
v 1.101564 -1.193982 0.791006
v 1.614687 -1.763422 0.808046
v 0.823646 -1.395902 0.794526
v 1.207167 -2.059502 0.813167
v 0.509806 -1.535582 0.797007
v 0.747005 -2.264383 0.816767
v 0.173805 -1.607023 0.798206
v 0.254206 -2.369102 0.818606
v -0.169714 -1.607023 0.798206
v -0.249474 -2.369182 0.818606
v -0.505714 -1.535582 0.797007
v -0.742273 -2.264542 0.816767
v -0.821154 -1.394943 0.794526
v -1.202435 -2.059663 0.813167
v -1.097473 -1.193982 0.791006
v -1.610035 -1.763663 0.808046
v -1.327394 -0.938702 0.786527
v -1.947075 -1.389423 0.801486
v -1.499153 -0.641262 0.781406
v -2.198994 -0.953263 0.793886
v -1.605314 -0.314623 0.775646
v -2.354753 -0.474222 0.785486
v -1.641233 0.029778 0.769647
v -2.407394 0.029858 0.776687
v -1.605314 0.368578 0.763726
v -2.354834 0.527538 0.768046
v -1.499153 0.695298 0.758046
v -2.199154 1.006578 0.759646
v -1.327394 0.992738 0.752847
v -1.947393 1.442818 0.752047
v -1.097473 1.248018 0.748366
v -1.610353 1.817137 0.745486
v -0.819553 1.449938 0.744846
v -1.202833 2.113218 0.740366
v -0.505714 1.589617 0.742446
v -0.742674 2.318098 0.736767
v -0.169714 1.661058 0.741166
v -0.249874 2.422898 0.734926
v 0.173805 1.661058 0.741166
v 0.253805 2.422898 0.734926
v 0.509806 1.589617 0.742446
v 0.746607 2.318258 0.736767
v 0.822126 1.450818 0.744846
v 1.206766 2.113457 0.740366
v 1.101564 1.248018 0.748366
v 1.614367 1.817378 0.745486
v 1.331488 0.992738 0.752847
v 1.951487 1.443138 0.752047
v 1.503244 0.695298 0.758046
v 2.203325 1.006978 0.759647
v 1.609407 0.368578 0.763726
v 2.359087 0.527938 0.768046
v 0.229727 0.717218 0.223006
v -0.052275 0.360658 0.128686
v 0.002365 0.753218 0.222366
v 0.160927 0.326898 0.129327
v -0.043715 0.307458 0.175007
v 0.136045 0.278978 0.175487
v -0.026915 0.209058 0.612046
v 0.087326 0.190978 0.612367
v 0.076687 0.170418 0.634287
v 0.002365 0.025138 0.667167
v -0.023233 0.186258 0.634047
v -0.224995 0.717218 0.223006
v -0.244595 0.262738 0.130446
v -0.430115 0.612738 0.224847
v -0.205874 0.224818 0.176446
v -0.129953 0.156577 0.612926
v -0.113394 0.140338 0.634847
v -0.592834 0.450018 0.227647
v -0.342514 0.070418 0.133806
v -0.697393 0.244898 0.231246
v -0.288513 0.062658 0.179246
v -0.182514 0.053538 0.614766
v -0.159313 0.050178 0.636367
v -0.733395 0.017617 0.235247
v -0.308754 -0.142702 0.137486
v -0.697393 -0.209742 0.239166
v -0.260035 -0.117022 0.182446
v -0.164434 -0.060702 0.616766
v -0.143475 -0.049742 0.638126
v -0.592834 -0.414782 0.242766
v -0.156195 -0.295262 0.140126
v -0.430115 -0.577502 0.245566
v -0.131313 -0.245662 0.184687
v -0.082594 -0.142543 0.618206
v -0.071955 -0.121262 0.639406
v -0.224995 -0.682062 0.247406
v 0.057007 -0.329022 0.140766
v 0.002365 -0.718062 0.248047
v 0.048447 -0.274143 0.185166
v 0.031647 -0.160622 0.618526
v 0.027966 -0.137023 0.639647
v 0.229727 -0.682062 0.247406
v 0.249247 -0.231023 0.139007
v 0.434847 -0.577502 0.245566
v 0.210606 -0.191582 0.183726
v 0.134685 -0.108143 0.617566
v 0.118126 -0.091102 0.638846
v 0.597567 -0.414782 0.242766
v 0.347246 -0.038782 0.135647
v 0.702045 -0.209742 0.239166
v 0.293165 -0.029423 0.180846
v 0.187246 -0.005022 0.615807
v 0.164045 -0.001022 0.637326
v 0.738127 0.017617 0.235247
v 0.313486 0.174338 0.131967
v 0.702045 0.244898 0.231246
v 0.264767 0.150257 0.177727
v 0.169167 0.109218 0.613807
v 0.148207 0.098898 0.635567
v 0.597567 0.450018 0.227647
v 0.434847 0.612738 0.224847
v 0.266287 0.829778 0.219326
v 0.002365 0.871538 0.218606
v 0.229727 0.717218 0.223006
v -0.261555 0.829778 0.219326
v -0.430115 0.612738 0.224847
v -0.499714 0.708418 0.221486
v -0.592834 0.450018 0.227647
v -0.688595 0.519538 0.224767
v -0.697393 0.244898 0.231246
v -0.809954 0.281458 0.228927
v -0.733395 0.017617 0.235247
v -0.851713 0.017537 0.233566
v -0.697393 -0.209742 0.239166
v -0.809954 -0.246302 0.238127
v -0.592834 -0.414782 0.242766
v -0.688595 -0.484382 0.242287
v -0.430115 -0.577502 0.245566
v -0.499714 -0.673342 0.245566
v -0.224995 -0.682062 0.247406
v -0.261555 -0.794622 0.247726
v 0.002365 -0.718062 0.248047
v 0.002365 -0.836383 0.248446
v 0.229727 -0.682062 0.247406
v 0.266287 -0.794622 0.247726
v 0.434847 -0.577502 0.245566
v 0.504366 -0.673342 0.245566
v 0.597567 -0.414782 0.242766
v 0.693325 -0.484382 0.242287
v 0.702045 -0.209742 0.239166
v 0.814686 -0.246302 0.238127
v 0.738127 0.017617 0.235247
v 0.856447 0.017537 0.233566
v 0.702045 0.244898 0.231246
v 0.814686 0.281458 0.228927
v 0.597567 0.450018 0.227647
v 0.693325 0.519538 0.224767
v 0.434847 0.612738 0.224847
v 0.504366 0.708418 0.221486
v 0.002365 0.974738 0.179966
v -0.293634 0.927858 0.180766
v -0.159313 1.137058 0.084927
v -0.389874 1.221218 0.024206
v -0.193394 1.252338 0.023646
v -0.082193 1.066338 0.126846
v 0.002365 1.036578 0.148526
v 0.298367 0.927858 0.180766
v 0.086845 1.066338 0.126846
v 0.394606 1.221218 0.024206
v 0.164045 1.137058 0.084927
v 0.198126 1.252338 0.023646
v 0.565407 0.791778 0.183167
v 0.531006 1.017858 0.087007
v 0.571806 1.130978 0.025806
v 0.551407 0.915378 0.129486
v 0.602125 0.841698 0.151966
v 0.777407 0.579938 0.186847
v 0.688206 0.816018 0.131247
v 1.029245 0.760258 0.032287
v 0.792606 0.827857 0.090286
v 0.888605 0.900818 0.029806
v 0.913406 0.312898 0.191567
v 1.019407 0.515698 0.095726
v 1.119566 0.583058 0.035326
v 0.975246 0.420978 0.138126
v 0.972767 0.331618 0.160847
v 0.960367 0.016897 0.196687
v 1.027487 0.260178 0.140926
v 1.271646 0.014258 0.045246
v 1.119326 0.208258 0.101167
v 1.240526 0.210658 0.041886
v 0.913406 -0.279102 0.201886
v 1.119326 -0.177583 0.107886
v 1.240526 -0.182142 0.048686
v 1.027487 -0.228142 0.149487
v 0.972767 -0.298862 0.171886
v 0.777407 -0.546062 0.206527
v 0.975246 -0.388942 0.152287
v 1.029245 -0.731663 0.058287
v 1.019407 -0.485102 0.113246
v 1.119566 -0.554462 0.055246
v 0.565407 -0.757982 0.210206
v 0.792606 -0.797182 0.118687
v 0.888605 -0.872302 0.060766
v 0.688206 -0.783983 0.159166
v 0.602125 -0.808943 0.180766
v 0.298367 -0.893983 0.212606
v 0.551407 -0.883343 0.160927
v 0.394606 -1.192703 0.066366
v 0.531006 -0.987262 0.121966
v 0.571806 -1.102382 0.064767
v 0.002365 -0.940862 0.213407
v 0.164045 -1.106462 0.124046
v 0.198126 -1.223822 0.066926
v 0.086845 -1.034222 0.163567
v 0.002365 -1.003823 0.184206
v -0.293634 -0.893983 0.212606
v -0.082193 -1.034222 0.163567
v -0.389874 -1.192703 0.066366
v -0.159313 -1.106462 0.124046
v -0.193394 -1.223822 0.066926
v -0.560755 -0.757982 0.210206
v -0.526274 -0.987262 0.121966
v -0.567074 -1.102382 0.064767
v -0.546675 -0.883343 0.160927
v -0.597395 -0.808943 0.180766
v -0.772675 -0.546062 0.206527
v -0.683474 -0.783983 0.159166
v -1.024513 -0.731663 0.058287
v -0.787874 -0.797182 0.118687
v -0.883875 -0.872302 0.060766
v -0.908754 -0.279102 0.201886
v -1.014673 -0.485102 0.113246
v -1.114834 -0.554462 0.055246
v -0.970514 -0.388942 0.152286
v -0.968035 -0.298862 0.171886
v -0.955633 0.016897 0.196687
v -1.022755 -0.228142 0.149486
v -1.266914 0.014258 0.045246
v -1.114594 -0.177583 0.107886
v -1.235794 -0.182142 0.048686
v -0.908754 0.312898 0.191566
v -1.114594 0.208258 0.101167
v -1.235794 0.210658 0.041886
v -1.022755 0.260178 0.140926
v -0.968035 0.331618 0.160847
v -0.772675 0.579938 0.186847
v -0.970514 0.420978 0.138126
v -1.024513 0.760258 0.032287
v -1.014673 0.515698 0.095726
v -1.114834 0.583058 0.035326
v -0.560755 0.791778 0.183166
v -0.787874 0.827857 0.090286
v -0.883875 0.900818 0.029806
v -0.683474 0.816018 0.131247
v -0.597395 0.841698 0.151966
v -0.546675 0.915378 0.129486
v -0.526274 1.017858 0.087007
v -0.567074 1.130978 0.025806
v 0.506287 1.578178 0.766446
v 0.157967 1.507057 0.726526
v 0.172846 1.649058 0.765166
v 0.462446 1.442338 0.727726
v -0.153235 1.507057 0.726526
v -0.168114 1.649058 0.765166
v -0.457714 1.442338 0.727726
v -0.501635 1.578178 0.766446
v 0.446047 1.390658 0.651007
v 0.125727 1.187858 0.024766
v 0.152447 1.453058 0.649966
v 0.367086 1.136578 0.025726
v -0.120995 1.187858 0.024766
v -0.147715 1.453058 0.649966
v -0.362354 1.136578 0.025726
v -0.441315 1.390658 0.651007
v 0.154285 1.471378 0.691566
v 0.451567 1.408178 0.692606
v -0.149553 1.471378 0.691566
v -0.446835 1.408178 0.692606
v -0.501635 -1.523503 0.820606
v -0.153235 -1.453822 0.778286
v -0.168114 -1.594383 0.821806
v -0.457714 -1.389102 0.777086
v 0.157967 -1.453822 0.778286
v 0.172846 -1.594383 0.821806
v 0.462446 -1.389102 0.777086
v 0.506287 -1.523503 0.820606
v -0.441315 -1.340142 0.698687
v -0.120995 -1.159262 0.065726
v -0.147715 -1.402542 0.699806
v -0.362354 -1.107982 0.064846
v 0.125727 -1.159262 0.065726
v 0.152447 -1.402542 0.699806
v 0.367086 -1.107982 0.064846
v 0.446047 -1.340142 0.698687
v -0.149553 -1.419342 0.741966
v -0.446835 -1.356222 0.740847
v 0.154285 -1.419342 0.741966
v 0.451567 -1.356222 0.740847
v -1.317074 -0.931103 0.810206
v -0.993874 -1.079582 0.771727
v -1.088915 -1.184462 0.814687
v -1.202114 -0.848382 0.767647
v -0.742035 -1.262542 0.774926
v -0.813074 -1.384783 0.818127
v -0.457714 -1.389102 0.777086
v -0.501635 -1.523503 0.820606
v -1.159313 -0.818622 0.689567
v -0.787313 -0.862622 0.060606
v -0.958433 -1.041662 0.693486
v -0.952435 -0.679343 0.057406
v -0.587713 -1.007663 0.063086
v -0.715553 -1.218063 0.696526
v -0.362354 -1.107982 0.064846
v -0.441315 -1.340142 0.698687
v -0.970274 -1.054062 0.735646
v -1.173553 -0.828223 0.731646
v -0.724434 -1.232622 0.738687
v -0.446835 -1.356222 0.740847
v -1.628513 0.027297 0.793487
v -1.453955 -0.282862 0.757807
v -1.592834 -0.311662 0.799406
v -1.486435 0.026657 0.752366
v -1.357714 -0.578862 0.763006
v -1.487474 -0.635902 0.805086
v -1.202114 -0.848382 0.767647
v -1.317074 -0.931103 0.810206
v -1.433474 0.025297 0.674847
v -1.152035 -0.231103 0.049566
v -1.402115 -0.273263 0.680046
v -1.177874 0.014258 0.045246
v -1.075794 -0.465663 0.053646
v -1.309395 -0.558702 0.685086
v -0.952435 -0.679343 0.057406
v -1.159313 -0.818622 0.689567
v -1.419394 -0.276142 0.722047
v -1.451155 0.026017 0.716766
v -1.325554 -0.565102 0.727086
v -1.173553 -0.828223 0.731646
v -1.317074 0.985778 0.776767
v -1.357714 0.632098 0.741806
v -1.487474 0.690578 0.781966
v -1.202114 0.901618 0.737166
v -1.453955 0.336098 0.747006
v -1.592834 0.366338 0.787566
v -1.486435 0.026657 0.752366
v -1.628513 0.027297 0.793487
v -1.159313 0.869138 0.660127
v -1.075794 0.494258 0.036926
v -1.309395 0.609218 0.664686
v -0.952435 0.707858 0.033167
v -1.152035 0.259618 0.041006
v -1.402115 0.323778 0.669646
v -1.177874 0.014258 0.045246
v -1.433474 0.025297 0.674847
v -1.325554 0.617138 0.706447
v -1.173553 0.880258 0.701806
v -1.419394 0.328178 0.711487
v -1.451155 0.026017 0.716766
v -0.501635 1.578178 0.766446
v -0.742035 1.315778 0.729886
v -0.813074 1.439458 0.768846
v -0.457714 1.442338 0.727726
v -0.993874 1.132818 0.733087
v -1.088915 1.239138 0.772366
v -1.202114 0.901618 0.737166
v -1.317074 0.985778 0.776767
v -0.441315 1.390658 0.651007
v -0.587713 1.036178 0.027407
v -0.715553 1.268578 0.653167
v -0.362354 1.136578 0.025726
v -0.787313 0.891218 0.029966
v -0.958433 1.092178 0.656206
v -0.952435 0.707858 0.033167
v -1.159313 0.869138 0.660127
v -0.724434 1.284578 0.694766
v -0.446835 1.408178 0.692606
v -0.970274 1.106018 0.697886
v -1.173553 0.880258 0.701806
v 1.321726 0.985778 0.776767
v 0.998606 1.132818 0.733087
v 1.093645 1.239138 0.772367
v 1.206846 0.901618 0.737166
v 0.746765 1.315778 0.729886
v 0.817806 1.439458 0.768847
v 0.462446 1.442338 0.727726
v 0.506287 1.578178 0.766446
v 1.163965 0.869138 0.660127
v 0.792046 0.891218 0.029966
v 0.963167 1.092178 0.656206
v 0.957167 0.707858 0.033167
v 0.592445 1.036178 0.027407
v 0.720285 1.268578 0.653167
v 0.367086 1.136578 0.025726
v 0.446047 1.390658 0.651007
v 0.975006 1.106018 0.697887
v 1.178286 0.880258 0.701806
v 0.729166 1.284578 0.694766
v 0.451567 1.408178 0.692606
v 1.633245 0.027297 0.793487
v 1.458605 0.336098 0.747006
v 1.597567 0.366338 0.787566
v 1.491167 0.026657 0.752366
v 1.362448 0.632098 0.741806
v 1.492205 0.690578 0.781966
v 1.206846 0.901618 0.737166
v 1.321726 0.985778 0.776767
v 1.438208 0.025297 0.674847
v 1.156767 0.259618 0.041006
v 1.406847 0.323778 0.669646
v 1.182528 0.014258 0.045246
v 1.080526 0.494258 0.036926
v 1.314127 0.609218 0.664686
v 0.957167 0.707858 0.033167
v 1.163965 0.869138 0.660127
v 1.424128 0.328178 0.711487
v 1.455885 0.026017 0.716766
v 1.330206 0.617138 0.706447
v 1.178286 0.880258 0.701806
v 1.321726 -0.931103 0.810206
v 1.362448 -0.578862 0.763006
v 1.492205 -0.635902 0.805086
v 1.206846 -0.848382 0.767647
v 1.458605 -0.282862 0.757807
v 1.597567 -0.311662 0.799406
v 1.491167 0.026657 0.752366
v 1.633245 0.027297 0.793487
v 1.163965 -0.818622 0.689567
v 1.080526 -0.465663 0.053646
v 1.314127 -0.558702 0.685086
v 0.957167 -0.679343 0.057406
v 1.156767 -0.231103 0.049566
v 1.406847 -0.273263 0.680046
v 1.182528 0.014258 0.045246
v 1.438208 0.025297 0.674847
v 1.330206 -0.565102 0.727086
v 1.178286 -0.828223 0.731647
v 1.424128 -0.276142 0.722047
v 1.455885 0.026017 0.716766
v 0.506287 -1.523503 0.820606
v 0.746765 -1.262542 0.774926
v 0.817806 -1.384783 0.818127
v 0.462446 -1.389102 0.777086
v 0.998606 -1.079582 0.771727
v 1.093645 -1.184462 0.814687
v 1.206846 -0.848382 0.767647
v 1.321726 -0.931103 0.810206
v 0.446047 -1.340142 0.698687
v 0.592445 -1.007663 0.063087
v 0.720285 -1.218063 0.696527
v 0.367086 -1.107982 0.064846
v 0.792046 -0.862622 0.060606
v 0.963167 -1.041662 0.693486
v 0.957167 -0.679343 0.057406
v 1.163965 -0.818622 0.689567
v 0.729166 -1.232622 0.738687
v 0.451567 -1.356222 0.740847
v 0.975006 -1.054062 0.735646
v 1.178286 -0.828223 0.731647
v 0.509806 1.589617 0.742446
v 0.173805 1.661058 0.741166
v 0.822126 1.450818 0.744846
v 1.101564 1.248018 0.748366
v 1.331488 0.992738 0.752847
v 1.503244 0.695298 0.758046
v 1.609407 0.368578 0.763726
v 1.645327 0.029778 0.769647
v 1.609407 -0.314623 0.775646
v 1.503244 -0.641262 0.781406
v 1.331488 -0.938702 0.786527
v 1.101564 -1.193982 0.791006
v 0.823646 -1.395902 0.794526
v 0.509806 -1.535582 0.797007
v 0.173805 -1.607023 0.798206
v -0.169714 -1.607023 0.798206
v -0.505714 -1.535582 0.797007
v -0.821154 -1.394943 0.794526
v -1.097473 -1.193982 0.791006
v -1.327394 -0.938702 0.786527
v -1.499153 -0.641262 0.781406
v -1.605314 -0.314623 0.775646
v -1.641233 0.029778 0.769647
v -1.605314 0.368578 0.763726
v -1.499153 0.695298 0.758046
v -1.327394 0.992738 0.752847
v -1.097473 1.248018 0.748366
v -0.819553 1.449938 0.744846
v -0.505714 1.589617 0.742446
v -0.169714 1.661058 0.741166
vn -0.9754 0.0906 0.2010
vn -0.9754 -0.0835 0.2040
vn -0.8883 0.4157 0.1953
vn -0.8012 0.5666 0.1927
vn -0.5631 0.8046 0.1885
vn -0.4123 0.8917 0.1870
vn -0.0871 0.9788 0.1855
vn 0.0871 0.9788 0.1855
vn 0.4123 0.8917 0.1870
vn 0.5631 0.8046 0.1885
vn 0.8012 0.5666 0.1927
vn 0.8883 0.4157 0.1953
vn 0.9754 0.0906 0.2010
vn 0.9754 -0.0835 0.2040
vn 0.8883 -0.4087 0.2097
vn 0.8012 -0.5595 0.2123
vn 0.5631 -0.7975 0.2165
vn 0.4123 -0.8846 0.2180
vn 0.0871 -0.9717 0.2195
vn -0.0871 -0.9717 0.2195
vn -0.4123 -0.8846 0.2180
vn -0.5631 -0.7975 0.2165
vn -0.8012 -0.5595 0.2123
vn -0.8883 -0.4087 0.2097
vn -0.0000 0.0174 0.9998
vn -0.0000 0.0175 0.9998
vn 0.8660 0.4999 -0.0087
vn 0.6428 0.7659 -0.0134
vn 0.3420 0.9396 -0.0164
vn -0.0000 0.9998 -0.0175
vn -0.3420 0.9396 -0.0164
vn -0.6429 0.7659 -0.0134
vn -0.8660 0.4999 -0.0087
vn -0.9848 0.1736 -0.0030
vn 0.9848 0.1736 -0.0030
vn -0.9848 -0.1736 0.0030
vn -0.8661 -0.4999 0.0087
vn 0.6427 -0.7660 0.0134
vn -0.3420 -0.9396 0.0164
vn -0.0000 -0.9998 0.0175
vn 0.3420 -0.9396 0.0164
vn -0.6428 -0.7659 0.0134
vn 0.8661 -0.4999 0.0087
vn 0.9848 -0.1736 0.0030
vn -0.1743 0.1062 0.9789
vn -0.1893 0.0383 0.9812
vn 0.7337 -0.0362 0.6785
vn 0.6944 -0.2228 0.6842
vn -0.2356 -0.3543 0.9050
vn 0.5297 -0.4421 0.7238
vn -0.9568 0.2907 -0.0051
vn -0.9992 -0.0407 0.0007
vn -0.8825 0.0335 0.4690
vn -0.8213 0.3278 0.4669
vn -0.7440 -0.6680 0.0117
vn -0.8188 -0.4393 0.3696
vn 0.8043 -0.5851 0.1035
vn -0.1144 -0.9578 0.2636
vn -0.1472 -0.9890 0.0173
vn 0.9839 -0.1324 0.1201
vn 0.9145 -0.3848 0.1252
vn -0.1344 0.1615 0.9777
vn 0.6107 -0.4033 0.6815
vn 0.1864 0.3166 0.9301
vn 0.9134 0.0181 0.4066
vn -0.8015 0.5979 -0.0104
vn -0.6681 0.5845 0.4605
vn -0.2778 0.9605 -0.0167
vn -0.2623 0.7989 0.5412
vn 0.9914 -0.0653 0.1138
vn 0.6607 0.7505 0.0118
vn 0.4623 0.8458 0.2662
vn 0.7864 -0.6047 0.1261
vn -0.2127 0.0128 0.9770
vn -0.2089 0.0571 0.9763
vn 0.1433 -0.0220 0.9894
vn 0.1483 0.0087 0.9889
vn -0.1960 0.0998 0.9755
vn 0.1320 -0.0509 0.9899
vn -0.1745 0.1387 0.9748
vn 0.1149 -0.0769 0.9904
vn -0.1453 0.1723 0.9743
vn 0.0928 -0.0987 0.9908
vn -0.1099 0.1991 0.9738
vn 0.0667 -0.1155 0.9911
vn -0.0696 0.2180 0.9735
vn 0.0376 -0.1264 0.9913
vn -0.0263 0.2281 0.9733
vn 0.0069 -0.1311 0.9913
vn 0.0181 0.2289 0.9733
vn -0.0241 -0.1293 0.9913
vn 0.0618 0.2206 0.9734
vn -0.0540 -0.1211 0.9912
vn 0.1028 0.2032 0.9737
vn -0.0816 -0.1068 0.9909
vn 0.1393 0.1778 0.9742
vn -0.1056 -0.0872 0.9906
vn 0.1696 0.1454 0.9747
vn -0.1251 -0.0630 0.9901
vn 0.1926 0.1073 0.9754
vn -0.1390 -0.0352 0.9897
vn 0.2072 0.0652 0.9761
vn -0.1469 -0.0051 0.9891
vn 0.2127 0.0210 0.9769
vn -0.1483 0.0260 0.9886
vn 0.2089 -0.0233 0.9777
vn -0.1434 0.0565 0.9881
vn 0.1960 -0.0657 0.9784
vn -0.1321 0.0855 0.9875
vn 0.1746 -0.1047 0.9791
vn -0.1150 0.1114 0.9871
vn 0.1454 -0.1383 0.9797
vn -0.0929 0.1333 0.9867
vn 0.1099 -0.1651 0.9801
vn -0.0667 0.1501 0.9864
vn 0.0697 -0.1840 0.9804
vn -0.0377 0.1610 0.9862
vn 0.0263 -0.1941 0.9806
vn -0.0070 0.1657 0.9862
vn -0.0182 -0.1949 0.9806
vn 0.0241 0.1639 0.9862
vn -0.0618 -0.1865 0.9805
vn 0.0540 0.1557 0.9863
vn -0.1027 -0.1692 0.9802
vn 0.0816 0.1415 0.9866
vn -0.1393 -0.1438 0.9798
vn 0.1057 0.1218 0.9869
vn -0.1697 -0.1113 0.9792
vn 0.1251 0.0975 0.9873
vn -0.1927 -0.0732 0.9785
vn 0.1390 0.0697 0.9878
vn -0.2072 -0.0312 0.9778
vn 0.1469 0.0398 0.9884
vn -0.0857 -0.0203 -0.9961
vn -0.0794 0.0148 -0.9967
vn -0.0832 0.0033 -0.9965
vn -0.0845 -0.0324 -0.9959
vn -0.0595 0.0443 -0.9972
vn -0.0676 0.0353 -0.9971
vn -0.0293 0.0631 -0.9976
vn -0.0403 0.0582 -0.9975
vn 0.0061 0.0681 -0.9977
vn -0.0060 0.0681 -0.9977
vn 0.0403 0.0583 -0.9975
vn 0.0293 0.0632 -0.9976
vn 0.0677 0.0354 -0.9971
vn 0.0596 0.0444 -0.9972
vn 0.0835 0.0033 -0.9965
vn 0.0797 0.0149 -0.9967
vn 0.0847 -0.0324 -0.9959
vn 0.0860 -0.0203 -0.9961
vn 0.0713 -0.0656 -0.9953
vn 0.0774 -0.0551 -0.9955
vn 0.0456 -0.0904 -0.9949
vn 0.0554 -0.0833 -0.9950
vn 0.0119 -0.1026 -0.9946
vn 0.0238 -0.1001 -0.9947
vn -0.0237 -0.1001 -0.9947
vn -0.0119 -0.1026 -0.9947
vn -0.0553 -0.0832 -0.9950
vn -0.0455 -0.0903 -0.9949
vn -0.0772 -0.0549 -0.9955
vn -0.0712 -0.0655 -0.9953
vn -0.0001 0.5445 0.8387
vn -0.6015 0.7955 -0.0733
vn -0.7217 0.0911 0.6862
vn 0.0597 -0.3122 0.9481
vn 0.9023 0.0192 0.4308
vn 0.5241 -0.7142 0.4640
vn 0.9719 0.1973 -0.1282
vn -0.6480 -0.6389 0.4146
vn -0.9246 0.3194 -0.2075
vn -0.3090 0.7976 -0.5180
vn 0.8090 0.4930 -0.3201
vn 0.8091 0.4929 -0.3201
vn -0.1309 0.6293 0.7661
vn -0.0438 0.6397 0.7674
vn -0.0872 0.9049 0.4165
vn -0.1995 0.9428 0.2669
vn -0.0000 0.6429 0.7659
vn -0.0001 0.8337 0.5522
vn -0.1052 0.9150 -0.3894
vn -0.1972 0.9216 -0.3344
vn -0.0002 0.9600 -0.2799
vn -0.0835 0.7241 -0.6846
vn -0.0001 0.6691 -0.7432
vn 0.1307 0.6292 0.7662
vn 0.2146 0.6032 0.7682
vn 0.2853 0.8628 0.4174
vn 0.1992 0.9429 0.2670
vn 0.2560 0.5886 0.7668
vn 0.3350 0.7624 0.5536
vn 0.2788 0.8781 -0.3889
vn 0.1970 0.9216 -0.3346
vn 0.3923 0.8767 -0.2785
vn 0.2230 0.6943 -0.6843
vn 0.2772 0.6101 -0.7422
vn -0.3704 0.5231 0.7676
vn -0.2948 0.5679 0.7685
vn -0.4448 0.7919 0.4184
vn -0.5638 0.7806 0.2697
vn -0.2563 0.5889 0.7665
vn -0.3353 0.7625 0.5533
vn -0.4710 0.7926 -0.3872
vn -0.5574 0.7612 -0.3315
vn -0.3926 0.8766 -0.2784
vn -0.3758 0.6267 -0.6827
vn -0.2775 0.6104 -0.7419
vn 0.5451 0.3283 0.7714
vn 0.5818 0.2486 0.7744
vn 0.8266 0.3678 0.4260
vn 0.8304 0.4845 0.2750
vn 0.5985 0.2082 0.7736
vn 0.7835 0.2645 0.5623
vn 0.8440 0.3783 -0.3802
vn 0.8209 0.4685 -0.3267
vn 0.9175 0.2936 -0.2684
vn 0.6739 0.2950 -0.6774
vn 0.6485 0.1980 -0.7350
vn 0.6264 0.0796 0.7754
vn 0.6273 -0.0080 0.7787
vn 0.9017 0.0006 0.4324
vn 0.9537 0.1053 0.2816
vn 0.6261 -0.0518 0.7780
vn 0.8193 -0.0760 0.5684
vn 0.9276 0.0018 -0.3735
vn 0.9427 0.0936 -0.3201
vn 0.9595 -0.1054 -0.2613
vn 0.7405 -0.0056 -0.6720
vn 0.6783 -0.0840 -0.7299
vn 0.3699 0.5228 0.7680
vn 0.4359 0.4649 0.7706
vn 0.6086 0.6728 0.4207
vn 0.5636 0.7808 0.2699
vn 0.4676 0.4347 0.7696
vn 0.6121 0.5612 0.5571
vn 0.6145 0.6883 -0.3856
vn 0.5570 0.7613 -0.3318
vn 0.7168 0.6410 -0.2745
vn 0.4909 0.5425 -0.6817
vn 0.5067 0.4435 -0.7393
vn -0.6272 0.0796 0.7748
vn -0.6097 0.1657 0.7751
vn -0.8808 0.2019 0.4282
vn -0.9540 0.1050 0.2810
vn -0.5992 0.2083 0.7730
vn -0.7840 0.2644 0.5616
vn -0.9093 0.1782 -0.3761
vn -0.9430 0.0933 -0.3194
vn -0.9177 0.2934 -0.2680
vn -0.7264 0.1363 -0.6737
vn -0.6492 0.1980 -0.7344
vn -0.5457 0.3284 0.7709
vn -0.4950 0.4003 0.7712
vn -0.7255 0.5432 0.4226
vn -0.8307 0.4843 0.2747
vn -0.4682 0.4350 0.7691
vn -0.6125 0.5612 0.5566
vn -0.7554 0.5320 -0.3825
vn -0.8212 0.4683 -0.3261
vn -0.7171 0.6408 -0.2742
vn -0.6032 0.4188 -0.6788
vn -0.5073 0.4437 -0.7388
vn 0.2563 -0.5620 0.7864
vn 0.1732 -0.5903 0.7884
vn 0.2720 -0.8522 0.4469
vn 0.3902 -0.8710 0.2984
vn 0.1310 -0.6027 0.7871
vn 0.1715 -0.7963 0.5801
vn 0.2946 -0.8862 -0.3575
vn 0.3858 -0.8716 -0.3026
vn 0.2008 -0.9482 -0.2464
vn 0.2349 -0.7148 -0.6587
vn 0.1420 -0.6803 -0.7190
vn 0.0001 -0.6167 0.7872
vn -0.0875 -0.6088 0.7885
vn -0.1013 -0.8886 0.4474
vn 0.0001 -0.9540 0.2997
vn -0.1310 -0.6030 0.7869
vn -0.1713 -0.7964 0.5800
vn -0.0887 -0.9300 -0.3567
vn 0.0001 -0.9536 -0.3012
vn -0.2005 -0.9482 -0.2463
vn -0.0714 -0.7496 -0.6581
vn -0.1419 -0.6806 -0.7188
vn 0.4684 -0.4079 0.7837
vn 0.4037 -0.4675 0.7864
vn 0.5982 -0.6673 0.4438
vn 0.7128 -0.6366 0.2944
vn 0.3702 -0.4960 0.7855
vn 0.4845 -0.6567 0.5779
vn 0.6270 -0.6903 -0.3611
vn 0.7047 -0.6397 -0.3070
vn 0.5672 -0.7849 -0.2492
vn 0.5004 -0.5582 -0.6619
vn 0.4013 -0.5648 -0.7211
vn -0.4685 -0.4084 0.7834
vn -0.5212 -0.3379 0.7837
vn -0.7339 -0.5169 0.4408
vn -0.7127 -0.6368 0.2942
vn -0.5459 -0.3017 0.7817
vn -0.7139 -0.4024 0.5731
vn -0.7458 -0.5585 -0.3631
vn -0.7046 -0.6400 -0.3065
vn -0.8355 -0.4871 -0.2543
vn -0.5963 -0.4525 -0.6631
vn -0.5913 -0.3542 -0.7245
vn -0.5996 -0.1813 0.7795
vn -0.6188 -0.0954 0.7797
vn -0.8837 -0.1731 0.4348
vn -0.9121 -0.2915 0.2882
vn -0.6263 -0.0519 0.7778
vn -0.8197 -0.0762 0.5677
vn -0.9059 -0.2075 -0.3693
vn -0.9018 -0.2987 -0.3125
vn -0.9596 -0.1055 -0.2610
vn -0.7239 -0.1718 -0.6681
vn -0.6792 -0.0841 -0.7291
vn -0.2564 -0.5624 0.7861
vn -0.3331 -0.5195 0.7869
vn -0.4571 -0.7700 0.4452
vn -0.3900 -0.8712 0.2983
vn -0.3705 -0.4966 0.7849
vn -0.4845 -0.6571 0.5775
vn -0.4567 -0.8141 -0.3586
vn -0.3855 -0.8717 -0.3025
vn -0.5670 -0.7851 -0.2491
vn -0.3654 -0.6568 -0.6596
vn -0.4013 -0.5652 -0.7207
vn 0.5989 -0.1811 0.7801
vn 0.5643 -0.2616 0.7830
vn 0.8209 -0.3656 0.4387
vn 0.9122 -0.2912 0.2884
vn 0.5453 -0.3012 0.7823
vn 0.7137 -0.4020 0.5736
vn 0.8509 -0.3762 -0.3668
vn 0.9017 -0.2983 -0.3131
vn 0.8356 -0.4868 -0.2546
vn 0.6792 -0.3073 -0.6665
vn 0.5909 -0.3538 -0.7250
vn -0.3277 0.0277 0.9444
vn -0.3181 0.0957 0.9432
vn 0.3772 -0.0501 0.9248
vn 0.3828 0.0298 0.9234
vn -0.2946 0.1602 0.9421
vn 0.3551 -0.1272 0.9261
vn -0.2583 0.2183 0.9411
vn 0.3175 -0.1979 0.9274
vn -0.2107 0.2676 0.9402
vn 0.2661 -0.2592 0.9284
vn -0.1539 0.3059 0.9396
vn 0.2030 -0.3085 0.9293
vn -0.0903 0.3315 0.9391
vn 0.1310 -0.3436 0.9299
vn -0.0228 0.3434 0.9389
vn 0.0534 -0.3630 0.9303
vn 0.0456 0.3410 0.9389
vn -0.0266 -0.3658 0.9303
vn 0.1122 0.3244 0.9392
vn -0.1055 -0.3520 0.9301
vn 0.1739 0.2943 0.9397
vn -0.1797 -0.3220 0.9295
vn 0.2278 0.2522 0.9405
vn -0.2462 -0.2773 0.9287
vn 0.2718 0.1998 0.9414
vn -0.3018 -0.2197 0.9277
vn 0.3040 0.1393 0.9424
vn -0.3442 -0.1518 0.9265
vn 0.3230 0.0732 0.9436
vn -0.3717 -0.0765 0.9252
vn 0.3277 0.0047 0.9448
vn -0.3829 0.0029 0.9238
vn 0.3182 -0.0629 0.9459
vn -0.3773 0.0827 0.9224
vn 0.2948 -0.1273 0.9471
vn -0.3553 0.1595 0.9210
vn 0.2584 -0.1854 0.9481
vn -0.3177 0.2303 0.9198
vn 0.2108 -0.2347 0.9489
vn -0.2662 0.2917 0.9187
vn 0.1540 -0.2731 0.9496
vn -0.2031 0.3410 0.9179
vn 0.0904 -0.2988 0.9500
vn -0.1311 0.3761 0.9173
vn 0.0229 -0.3107 0.9502
vn -0.0534 0.3955 0.9169
vn -0.0457 -0.3082 0.9502
vn 0.0266 0.3983 0.9169
vn -0.1121 -0.2917 0.9499
vn 0.1055 0.3844 0.9171
vn -0.1737 -0.2617 0.9494
vn 0.1798 0.3544 0.9176
vn -0.2278 -0.2194 0.9487
vn 0.2462 0.3096 0.9185
vn -0.2719 -0.1668 0.9478
vn 0.3018 0.2520 0.9195
vn -0.3040 -0.1063 0.9467
vn 0.3443 0.1841 0.9207
vn -0.3229 -0.0406 0.9456
vn 0.3716 0.1089 0.9220
vn -0.0647 -0.2222 0.9729
vn 0.0008 -0.0745 0.9972
vn -0.0674 0.1554 0.9856
vn 0.0267 0.1686 0.9853
vn -0.1497 0.8407 0.5204
vn 0.3677 0.7699 0.5216
vn -0.1190 0.8592 0.4976
vn 0.4036 0.7668 0.4992
vn 0.2647 0.4350 0.8607
vn -0.0327 0.5104 0.8593
vn 0.0426 -0.0924 0.9948
vn 0.1471 -0.1842 0.9718
vn -0.1358 0.0894 0.9867
vn -0.6098 0.5940 0.5247
vn -0.5961 0.6269 0.5016
vn -0.3175 0.3966 0.8613
vn 0.2074 -0.1186 0.9710
vn 0.2372 -0.0593 0.9696
vn -0.1522 -0.0042 0.9883
vn -0.8371 0.1239 0.5329
vn -0.8456 0.1586 0.5098
vn -0.4811 0.1371 0.8659
vn 0.2474 0.0292 0.9685
vn 0.2367 0.0946 0.9670
vn -0.1106 -0.0896 0.9898
vn -0.7445 -0.3899 0.5419
vn -0.7720 -0.3670 0.5190
vn -0.4610 -0.1689 0.8712
vn 0.1929 0.1723 0.9660
vn 0.1458 0.2189 0.9648
vn -0.0267 -0.1341 0.9906
vn -0.3676 -0.7512 0.5482
vn -0.4036 -0.7489 0.5256
vn -0.2647 -0.4047 0.8753
vn 0.0648 0.2560 0.9645
vn -0.0008 0.2660 0.9640
vn 0.0674 -0.1209 0.9904
vn 0.1497 -0.8220 0.5494
vn 0.1190 -0.8413 0.5272
vn 0.0326 -0.4801 0.8766
vn -0.0882 0.2484 0.9646
vn -0.1471 0.2180 0.9648
vn 0.1358 -0.0549 0.9892
vn 0.6098 -0.5753 0.5451
vn 0.5961 -0.6090 0.5232
vn 0.3175 -0.3663 0.8746
vn -0.2074 0.1524 0.9663
vn -0.2372 0.0931 0.9670
vn 0.1522 0.0387 0.9876
vn 0.8371 -0.1052 0.5369
vn 0.8455 -0.1407 0.5150
vn 0.4811 -0.1068 0.8701
vn -0.2474 0.0046 0.9689
vn -0.2367 -0.0609 0.9697
vn 0.1106 0.1240 0.9861
vn 0.7445 0.4086 0.5279
vn 0.7720 0.3848 0.5058
vn 0.4610 0.1992 0.8648
vn -0.1929 -0.1385 0.9714
vn -0.1458 -0.1851 0.9718
vn 0.0627 0.1823 0.9812
vn 0.0085 0.1936 0.9810
vn 0.0049 0.0309 0.9995
vn -0.0464 0.1876 0.9811
vn -0.0968 0.1649 0.9815
vn -0.0079 0.0294 0.9995
vn -0.1377 0.1278 0.9822
vn -0.0111 0.0264 0.9996
vn -0.1652 0.0798 0.9830
vn -0.0133 0.0225 0.9997
vn -0.1765 0.0257 0.9840
vn -0.0143 0.0181 0.9997
vn -0.1705 -0.0292 0.9849
vn -0.0138 0.0137 0.9998
vn -0.1478 -0.0796 0.9858
vn -0.0118 0.0095 0.9999
vn -0.1106 -0.1205 0.9865
vn -0.0089 0.0063 0.9999
vn -0.0627 -0.1480 0.9870
vn -0.0050 0.0042 1.0000
vn -0.0085 -0.1593 0.9872
vn -0.0006 0.0032 1.0000
vn 0.0464 -0.1533 0.9871
vn 0.0037 0.0037 1.0000
vn 0.0968 -0.1306 0.9867
vn 0.0079 0.0056 1.0000
vn 0.1377 -0.0935 0.9860
vn 0.0111 0.0085 0.9999
vn 0.1652 -0.0455 0.9852
vn 0.0133 0.0123 0.9998
vn 0.1765 0.0086 0.9843
vn 0.0142 0.0168 0.9998
vn 0.1705 0.0636 0.9833
vn 0.0138 0.0211 0.9997
vn 0.1478 0.1140 0.9824
vn 0.0119 0.0253 0.9996
vn 0.1106 0.1549 0.9817
vn 0.0090 0.0285 0.9996
vn -0.0076 0.4098 0.9122
vn -0.1303 0.3979 0.9081
vn -0.0692 0.4520 0.8893
vn -0.0691 0.4523 0.8892
vn -0.1351 0.4317 0.8918
vn -0.0000 0.4532 0.8914
vn -0.0691 0.4519 0.8894
vn 0.1191 0.4015 0.9081
vn 0.0691 0.4519 0.8894
vn 0.1351 0.4317 0.8918
vn 0.0691 0.4523 0.8892
vn 0.0692 0.4520 0.8894
vn 0.2253 0.3390 0.9134
vn 0.2005 0.4092 0.8902
vn 0.2004 0.4093 0.8901
vn 0.2568 0.3693 0.8931
vn 0.3230 0.2579 0.9106
vn 0.3124 0.3279 0.8916
vn 0.3538 0.2727 0.8947
vn 0.3123 0.3282 0.8915
vn 0.3124 0.3281 0.8915
vn 0.3722 0.1449 0.9168
vn 0.3937 0.2161 0.8935
vn 0.3936 0.2160 0.8936
vn 0.4164 0.1508 0.8966
vn 0.3939 0.2163 0.8934
vn 0.4036 0.0219 0.9147
vn 0.4364 0.0849 0.8957
vn 0.4376 0.0156 0.8991
vn 0.4364 0.0845 0.8958
vn 0.4363 0.0847 0.8958
vn 0.3769 -0.0984 0.9210
vn 0.4365 -0.0534 0.8981
vn 0.4366 -0.0535 0.8980
vn 0.4159 -0.1194 0.9015
vn 0.4364 -0.0534 0.8982
vn 0.3299 -0.2164 0.9189
vn 0.3937 -0.1849 0.9005
vn 0.3539 -0.2414 0.9036
vn 0.3934 -0.1850 0.9006
vn 0.3936 -0.1849 0.9005
vn 0.2376 -0.2980 0.9245
vn 0.3124 -0.2967 0.9024
vn 0.3125 -0.2965 0.9025
vn 0.2571 -0.3381 0.9053
vn 0.3123 -0.2967 0.9025
vn 0.1303 -0.3660 0.9215
vn 0.2005 -0.3779 0.9039
vn 0.1352 -0.4001 0.9064
vn 0.2008 -0.3779 0.9038
vn 0.2006 -0.3780 0.9038
vn 0.0076 -0.3777 0.9259
vn 0.0691 -0.4206 0.9046
vn 0.0691 -0.4203 0.9048
vn -0.0000 -0.4216 0.9068
vn 0.0691 -0.4207 0.9045
vn -0.1191 -0.3696 0.9215
vn -0.0693 -0.4205 0.9046
vn -0.1352 -0.4001 0.9064
vn -0.0691 -0.4207 0.9046
vn -0.0691 -0.4206 0.9046
vn -0.2253 -0.3069 0.9247
vn -0.2006 -0.3780 0.9038
vn -0.2008 -0.3779 0.9038
vn -0.2572 -0.3381 0.9053
vn -0.2005 -0.3780 0.9038
vn -0.3231 -0.2260 0.9190
vn -0.3124 -0.2967 0.9024
vn -0.3539 -0.2414 0.9036
vn -0.3124 -0.2965 0.9025
vn -0.3722 -0.1128 0.9213
vn -0.3936 -0.1849 0.9005
vn -0.3934 -0.1850 0.9006
vn -0.4163 -0.1195 0.9013
vn -0.3938 -0.1850 0.9004
vn -0.4036 0.0101 0.9149
vn -0.4365 -0.0534 0.8981
vn -0.4376 0.0156 0.8991
vn -0.4366 -0.0535 0.8980
vn -0.3768 0.1305 0.9170
vn -0.4363 0.0847 0.8958
vn -0.4364 0.0845 0.8958
vn -0.4161 0.1509 0.8967
vn -0.3300 0.2484 0.9107
vn -0.3940 0.2164 0.8933
vn -0.3538 0.2727 0.8947
vn -0.3936 0.2160 0.8936
vn -0.3937 0.2161 0.8935
vn -0.2376 0.3301 0.9136
vn -0.3124 0.3281 0.8915
vn -0.3123 0.3282 0.8915
vn -0.2569 0.3695 0.8930
vn -0.3125 0.3280 0.8915
vn -0.2005 0.4092 0.8901
vn -0.2004 0.4093 0.8901
vn -0.2005 0.4092 0.8902
vn 0.0284 0.1511 0.9881
vn 0.0671 0.4023 0.9130
vn -0.0456 -0.4936 0.8685
vn -0.1217 -0.5582 0.8207
vn -0.0147 0.4069 0.9134
vn 0.0612 -0.4920 0.8685
vn -0.1289 0.6198 0.7741
vn 0.0908 -0.4112 0.9070
vn -0.1924 -0.8986 0.3943
vn -0.0966 -0.9120 0.3986
vn -0.1291 -0.9109 0.3920
vn -0.1928 -0.9003 0.3902
vn 0.0966 -0.9120 0.3986
vn 0.0646 -0.9177 0.3921
vn 0.1921 -0.8969 0.3984
vn 0.1928 -0.9003 0.3902
vn -0.0832 -0.8171 0.5705
vn -0.1801 -0.8385 0.5143
vn 0.0906 -0.8163 0.5704
vn 0.1654 -0.7673 0.6196
vn -0.0285 -0.1169 0.9927
vn -0.0673 -0.3718 0.9259
vn 0.0456 0.5236 0.8507
vn 0.1217 0.5865 0.8007
vn 0.0149 -0.3783 0.9256
vn -0.0612 0.5220 0.8507
vn 0.1301 -0.5986 0.7904
vn -0.0907 0.4426 0.8921
vn 0.1924 0.9118 0.3627
vn 0.0965 0.9255 0.3663
vn 0.1290 0.9240 0.3599
vn 0.1928 0.9134 0.3586
vn -0.0966 0.9255 0.3662
vn -0.0646 0.9308 0.3598
vn -0.1921 0.9102 0.3668
vn -0.1928 0.9134 0.3586
vn 0.0832 0.8365 0.5416
vn 0.1801 0.8559 0.4848
vn -0.0906 0.8357 0.5416
vn -0.1654 0.7885 0.5924
vn -0.1008 -0.0735 0.9922
vn -0.2803 -0.2560 0.9251
vn 0.3359 0.3997 0.8529
vn 0.4349 0.4057 0.8039
vn -0.2181 -0.3092 0.9257
vn 0.2486 0.4611 0.8518
vn -0.2539 -0.5562 0.7913
vn 0.1775 0.4144 0.8926
vn 0.6878 0.6258 0.3677
vn 0.6182 0.6932 0.3705
vn 0.6437 0.6730 0.3643
vn 0.6889 0.6270 0.3636
vn 0.4619 0.8068 0.3684
vn 0.4911 0.7922 0.3622
vn 0.3758 0.8505 0.3679
vn 0.3771 0.8535 0.3596
vn 0.5534 0.6297 0.5452
vn 0.6437 0.5883 0.4894
vn 0.4123 0.7312 0.5434
vn 0.3235 0.7371 0.5933
vn -0.1362 0.0030 0.9907
vn -0.3861 -0.0390 0.9216
vn 0.4979 0.1288 0.8576
vn 0.5820 0.0753 0.8097
vn -0.3653 -0.1179 0.9234
vn 0.4634 0.2298 0.8559
vn -0.5356 -0.2955 0.7911
vn 0.3780 0.2339 0.8958
vn 0.9205 0.1033 0.3768
vn 0.9039 0.1988 0.3788
vn 0.9126 0.1673 0.3731
vn 0.9222 0.1037 0.3726
vn 0.8441 0.3824 0.3760
vn 0.8592 0.3536 0.3699
vn 0.8001 0.4686 0.3745
vn 0.8030 0.4700 0.3663
vn 0.8122 0.1861 0.5529
vn 0.8615 0.0992 0.4980
vn 0.7577 0.3511 0.5500
vn 0.6888 0.4082 0.5991
vn -0.1165 0.0846 0.9896
vn -0.3431 0.1974 0.9183
vn 0.4697 -0.1855 0.8631
vn 0.5068 -0.2784 0.8159
vn -0.3732 0.1221 0.9197
vn 0.5012 -0.0835 0.8613
vn -0.6103 0.0782 0.7883
vn 0.4341 -0.0299 0.9004
vn 0.8016 -0.4561 0.3866
vn 0.8440 -0.3690 0.3892
vn 0.8328 -0.3997 0.3830
vn 0.8030 -0.4570 0.3825
vn 0.9038 -0.1853 0.3857
vn 0.8991 -0.2177 0.3799
vn 0.9188 -0.0899 0.3842
vn 0.9222 -0.0901 0.3761
vn 0.7608 -0.3249 0.5618
vn 0.7502 -0.4243 0.5071
vn 0.8137 -0.1594 0.5590
vn 0.7910 -0.0726 0.6075
vn -0.0550 0.1409 0.9885
vn -0.1716 0.3656 0.9148
vn 0.2621 -0.4233 0.8672
vn 0.2380 -0.5204 0.8201
vn -0.2401 0.3218 0.9158
vn 0.3475 -0.3592 0.8661
vn -0.4586 0.4265 0.7796
vn 0.3244 -0.2763 0.9047
vn 0.3765 -0.8388 0.3933
vn 0.4621 -0.7934 0.3963
vn 0.4349 -0.8115 0.3902
vn 0.3773 -0.8404 0.3891
vn 0.6182 -0.6799 0.3944
vn 0.5955 -0.7032 0.3883
vn 0.6866 -0.6114 0.3934
vn 0.6891 -0.6138 0.3853
vn 0.4188 -0.7081 0.5685
vn 0.3523 -0.7825 0.5134
vn 0.5589 -0.6053 0.5668
vn 0.5911 -0.5216 0.6153
vn 0.1028 0.1099 0.9886
vn 0.2835 0.2913 0.9137
vn -0.3359 -0.3697 0.8663
vn -0.4349 -0.3774 0.8176
vn 0.2195 0.3433 0.9132
vn -0.2486 -0.4311 0.8674
vn 0.2527 0.5817 0.7732
vn -0.1775 -0.3830 0.9065
vn -0.6878 -0.6126 0.3893
vn -0.6182 -0.6799 0.3944
vn -0.6437 -0.6598 0.3876
vn -0.6891 -0.6138 0.3852
vn -0.4619 -0.7934 0.3965
vn -0.4911 -0.7791 0.3897
vn -0.3758 -0.8372 0.3974
vn -0.3773 -0.8404 0.3892
vn -0.5534 -0.6103 0.5668
vn -0.6437 -0.5708 0.5097
vn -0.4123 -0.7118 0.5686
vn -0.3235 -0.7159 0.6187
vn 0.1363 0.0316 0.9902
vn 0.3917 0.0724 0.9172
vn -0.4979 -0.0988 0.8616
vn -0.5820 -0.0470 0.8118
vn 0.3724 0.1527 0.9154
vn -0.4633 -0.1998 0.8634
vn 0.5432 0.3271 0.7733
vn -0.3780 -0.2025 0.9034
vn -0.9205 -0.0901 0.3802
vn -0.9038 -0.1853 0.3858
vn -0.9126 -0.1542 0.3788
vn -0.9222 -0.0903 0.3761
vn -0.8442 -0.3692 0.3886
vn -0.8592 -0.3404 0.3820
vn -0.8001 -0.4552 0.3907
vn -0.8030 -0.4571 0.3825
vn -0.8122 -0.1667 0.5591
vn -0.8615 -0.0818 0.5011
vn -0.7577 -0.3317 0.5620
vn -0.6888 -0.3871 0.6129
vn 0.1208 -0.0524 0.9913
vn 0.3517 -0.1696 0.9206
vn -0.4697 0.2155 0.8561
vn -0.5068 0.3067 0.8057
vn 0.3827 -0.0925 0.9192
vn -0.5012 0.1135 0.8579
vn 0.6285 -0.0522 0.7760
vn -0.4341 0.0613 0.8988
vn -0.8016 0.4693 0.3704
vn -0.8443 0.3825 0.3753
vn -0.8328 0.4128 0.3689
vn -0.8031 0.4701 0.3663
vn -0.9038 0.1986 0.3791
vn -0.8991 0.2308 0.3720
vn -0.9188 0.1032 0.3809
vn -0.9222 0.1034 0.3727
vn -0.7608 0.3443 0.5502
vn -0.7502 0.4418 0.4920
vn -0.8137 0.1788 0.5530
vn -0.7910 0.0937 0.6046
vn 0.0564 -0.1094 0.9924
vn 0.1748 -0.3397 0.9242
vn -0.2621 0.4533 0.8519
vn -0.2380 0.5487 0.8014
vn 0.2454 -0.2961 0.9231
vn -0.3475 0.3892 0.8531
vn 0.4672 -0.4070 0.7849
vn -0.3244 0.3077 0.8945
vn -0.3765 0.8520 0.3638
vn -0.4619 0.8067 0.3687
vn -0.4349 0.8246 0.3617
vn -0.3771 0.8535 0.3596
vn -0.6182 0.6932 0.3705
vn -0.5955 0.7163 0.3636
vn -0.6866 0.6248 0.3718
vn -0.6890 0.6270 0.3636
vn -0.4188 0.7275 0.5435
vn -0.3523 0.7999 0.4858
vn -0.5589 0.6248 0.5453
vn -0.5911 0.5427 0.5967
vn 0.2443 0.8606 0.4468
vn 0.0617 0.8918 0.4482
vn 0.4167 0.7921 0.4460
vn 0.5719 0.6898 0.4440
vn 0.7012 0.5558 0.4465
vn 0.8005 0.3984 0.4477
vn 0.8648 0.2238 0.4495
vn 0.8912 0.0393 0.4519
vn 0.8799 -0.1469 0.4519
vn 0.8912 0.0392 0.4520
vn 0.8271 -0.3261 0.4578
vn 0.7394 -0.4906 0.4611
vn 0.6193 -0.6332 0.4643
vn 0.4722 -0.7473 0.4675
vn 0.3046 -0.8283 0.4703
vn 0.1239 -0.8724 0.4728
vn 0.3045 -0.8283 0.4703
vn -0.0618 -0.8779 0.4748
vn -0.2445 -0.8446 0.4762
vn -0.4160 -0.7743 0.4769
vn -0.2446 -0.8446 0.4762
vn -0.5684 -0.6690 0.4788
vn -0.6967 -0.5363 0.4765
vn -0.7940 -0.3792 0.4752
vn -0.6967 -0.5362 0.4765
vn -0.8566 -0.2052 0.4733
vn -0.8819 -0.0225 0.4710
vn -0.8672 0.1614 0.4711
vn -0.8180 0.3386 0.4651
vn -0.7315 0.5015 0.4620
vn -0.6134 0.6432 0.4583
vn -0.4682 0.7571 0.4556
vn -0.3025 0.8388 0.4527
vn -0.1232 0.8844 0.4502
vn -0.3024 0.8388 0.4527
vt 0.341800 0.488280
vt 0.339840 0.488280
vt 0.339840 0.486330
vt 0.337890 0.488280
vt 1.000000 0.000000
vt 0.000000 0.000000
vt 0.000000 1.000000
vt 1.000000 1.000000
vt 0.562500 0.398440
vt 0.562500 0.605470
vt 0.437500 0.605470
vt 0.437500 0.398440
vt 0.876950 0.962890
vt 0.931640 0.949220
vt 0.914060 0.832030
vt 0.875000 0.835940
vt 0.978520 0.916020
vt 0.953130 0.820310
vt 0.876950 0.998050
vt 0.937500 0.988280
vt 0.990230 0.949220
vt 0.953130 0.810550
vt 0.992190 0.923830
vt 0.914060 0.822270
vt 0.875000 0.826170
vt 0.818360 0.941410
vt 0.832030 0.826170
vt 0.769530 0.902340
vt 0.791020 0.808590
vt 0.814450 0.980470
vt 0.759770 0.933590
vt 0.791020 0.798830
vt 0.757810 0.906250
vt 0.832030 0.816410
vt 0.912110 0.564450
vt 0.916020 0.478520
vt 0.943360 0.476560
vt 0.939450 0.570310
vt 0.902340 0.390630
vt 0.929690 0.382810
vt 0.871090 0.308590
vt 0.896480 0.296880
vt 0.824220 0.236330
vt 0.845700 0.218750
vt 0.763670 0.173830
vt 0.779300 0.152340
vt 0.689450 0.125000
vt 0.703130 0.101560
vt 0.607420 0.093750
vt 0.615230 0.068360
vt 0.521480 0.080080
vt 0.523440 0.052730
vt 0.435550 0.085940
vt 0.431640 0.058590
vt 0.351560 0.107420
vt 0.339840 0.082030
vt 0.273440 0.148440
vt 0.257810 0.125000
vt 0.205080 0.203130
vt 0.185550 0.183590
vt 0.150390 0.271480
vt 0.126950 0.255860
vt 0.111330 0.349610
vt 0.083980 0.339840
vt 0.087890 0.435550
vt 0.060550 0.429690
vt 0.083980 0.521480
vt 0.054690 0.523440
vt 0.097660 0.609380
vt 0.070310 0.615230
vt 0.126950 0.691410
vt 0.103520 0.703130
vt 0.175780 0.763670
vt 0.154300 0.781250
vt 0.236330 0.826170
vt 0.218750 0.847660
vt 0.310550 0.873050
vt 0.296880 0.898440
vt 0.390630 0.906250
vt 0.384770 0.931640
vt 0.478520 0.917970
vt 0.476560 0.947270
vt 0.564450 0.914060
vt 0.568360 0.941410
vt 0.648440 0.890630
vt 0.658200 0.917970
vt 0.726560 0.851560
vt 0.742190 0.875000
vt 0.794920 0.796880
vt 0.814450 0.816410
vt 0.849610 0.728520
vt 0.873050 0.742190
vt 0.888670 0.650390
vt 0.916020 0.660160
vt 0.035160 0.625000
vt 0.025390 0.423830
vt 0.113280 0.437500
vt 0.123050 0.601560
vt 0.095700 0.236330
vt 0.171880 0.285160
vt 0.238280 0.093750
vt 0.287110 0.169920
vt 0.423830 0.021480
vt 0.437500 0.111330
vt 0.625000 0.033200
vt 0.601560 0.121090
vt 0.802730 0.125000
vt 0.746090 0.195310
vt 0.927730 0.281250
vt 0.847660 0.322270
vt 0.980470 0.474610
vt 0.890630 0.480470
vt 0.949220 0.673830
vt 0.865230 0.640630
vt 0.839840 0.841800
vt 0.777340 0.777340
vt 0.671880 0.951170
vt 0.640630 0.867190
vt 0.474610 0.982420
vt 0.480470 0.892580
vt 0.281250 0.929690
vt 0.322270 0.849610
vt 0.126950 0.804690
vt 0.195310 0.748050
vt 0.986330 0.003910
vt 0.984380 0.003910
vt 0.988280 0.003910
vt 0.986330 0.007810
vt 0.988280 0.007810
vt 0.984380 0.007810
vt 0.982420 0.007810
vt 0.982420 0.003910
vt 0.990230 0.007810
vt 0.990230 0.003910
vt 0.753910 0.500000
vt 0.753910 0.583980
vt 0.701170 0.583980
vt 0.701170 0.500000
vt 0.753910 0.667970
vt 0.701170 0.667970
vt 0.298830 0.583980
vt 0.298830 0.500000
vt 0.298830 0.667970
vt 0.246090 0.509770
vt 0.246090 0.667970
vt 0.884770 0.560550
vt 0.888670 0.478520
vt 0.970700 0.474610
vt 0.966800 0.574220
vt 0.876950 0.398440
vt 0.957030 0.376950
vt 0.921880 0.283200
vt 0.802730 0.253910
vt 0.867190 0.201170
vt 0.796880 0.130860
vt 0.677730 0.150390
vt 0.714840 0.076170
vt 0.623050 0.041020
vt 0.521480 0.109380
vt 0.525390 0.025390
vt 0.439450 0.113280
vt 0.425780 0.031250
vt 0.361330 0.134770
vt 0.330080 0.056640
vt 0.287110 0.171880
vt 0.242190 0.101560
vt 0.224610 0.222660
vt 0.166020 0.164060
vt 0.173830 0.287110
vt 0.103520 0.242190
vt 0.136720 0.359380
vt 0.058590 0.330080
vt 0.115230 0.439450
vt 0.033200 0.425780
vt 0.111330 0.521480
vt 0.027340 0.525390
vt 0.042970 0.623050
vt 0.152340 0.677730
vt 0.078130 0.714840
vt 0.197270 0.746090
vt 0.132810 0.798830
vt 0.253910 0.804690
vt 0.203130 0.869140
vt 0.285160 0.923830
vt 0.398440 0.878910
vt 0.376950 0.958980
vt 0.478520 0.890630
vt 0.474610 0.974610
vt 0.560550 0.886720
vt 0.574220 0.968750
vt 0.638670 0.865230
vt 0.667970 0.943360
vt 0.712890 0.828130
vt 0.755860 0.898440
vt 0.775390 0.777340
vt 0.833980 0.835940
vt 0.826170 0.712890
vt 0.896480 0.757810
vt 0.863280 0.640630
vt 0.941410 0.669920
vt 0.568360 0.718750
vt 0.500000 0.730470
vt 0.482420 0.611330
vt 0.548830 0.601560
vt 0.484380 0.595700
vt 0.542970 0.587890
vt 0.488280 0.572270
vt 0.531250 0.566410
vt 0.523440 0.550780
vt 0.490230 0.556640
vt 0.500000 0.501950
vt 0.429690 0.718750
vt 0.365230 0.685550
vt 0.421880 0.580080
vt 0.431640 0.570310
vt 0.449220 0.552730
vt 0.460940 0.541020
vt 0.314450 0.636720
vt 0.283200 0.572270
vt 0.390630 0.519530
vt 0.406250 0.517580
vt 0.429690 0.513670
vt 0.445310 0.511720
vt 0.271480 0.501950
vt 0.283200 0.431640
vt 0.400390 0.453130
vt 0.414060 0.458980
vt 0.435550 0.470700
vt 0.451170 0.478520
vt 0.314450 0.369140
vt 0.365230 0.318360
vt 0.449220 0.404300
vt 0.457030 0.417970
vt 0.466800 0.439450
vt 0.474610 0.453130
vt 0.429690 0.287110
vt 0.500000 0.275390
vt 0.515630 0.394530
vt 0.513670 0.408200
vt 0.509770 0.433590
vt 0.507810 0.449220
vt 0.570310 0.287110
vt 0.632810 0.318360
vt 0.576170 0.423830
vt 0.566410 0.435550
vt 0.548830 0.453130
vt 0.537110 0.464840
vt 0.683590 0.369140
vt 0.714840 0.431640
vt 0.607420 0.486330
vt 0.593750 0.488280
vt 0.568360 0.492190
vt 0.552730 0.494140
vt 0.726560 0.501950
vt 0.714840 0.572270
vt 0.597660 0.552730
vt 0.583980 0.544920
vt 0.562500 0.535160
vt 0.546880 0.527340
vt 0.683590 0.636720
vt 0.632810 0.687500
vt 0.417970 0.753910
vt 0.500000 0.765630
vt 0.500000 0.798830
vt 0.408200 0.783200
vt 0.449220 0.849610
vt 0.439450 0.884770
vt 0.378910 0.875000
vt 0.500000 0.818360
vt 0.472660 0.828130
vt 0.341800 0.050780
vt 0.445310 0.029300
vt 0.451170 0.076170
vt 0.357420 0.095700
vt 0.552730 0.029300
vt 0.546880 0.076170
vt 0.656250 0.050780
vt 0.642580 0.095700
vt 0.361330 0.111330
vt 0.453130 0.091800
vt 0.460940 0.171880
vt 0.386720 0.187500
vt 0.544920 0.091800
vt 0.537110 0.171880
vt 0.636720 0.111330
vt 0.613280 0.187500
vt 0.451170 0.085940
vt 0.359380 0.105470
vt 0.546880 0.085940
vt 0.638670 0.105470
vt 0.492190 0.011720
vt 0.492190 0.009770
s 1
g off
f 1/1/1 3/1/2 2/1/3
f 2/1/3 4/1/4 1/1/1
f 4/1/4 2/1/3 5/1/5
f 5/1/5 6/2/6 4/1/4
f 6/2/6 5/1/5 7/3/7
f 7/3/7 8/2/8 6/2/6
f 8/2/8 7/3/7 9/3/9
f 9/3/9 10/2/10 8/2/8
f 10/2/10 9/3/9 11/3/11
f 11/3/11 12/2/12 10/2/10
f 12/2/12 11/3/11 13/3/13
f 13/3/13 14/4/14 12/2/12
f 14/4/14 13/3/13 15/3/15
f 15/3/15 16/4/16 14/4/14
f 16/4/16 15/3/15 17/3/17
f 17/3/17 18/3/18 16/4/16
f 18/3/18 17/3/17 19/3/19
f 19/3/19 20/3/20 18/3/18
f 20/3/20 19/3/19 21/3/21
f 21/3/21 22/3/22 20/3/20
f 22/3/22 21/3/21 23/3/23
f 23/3/23 24/1/24 22/3/22
f 24/1/24 23/3/23 3/1/2
f 3/1/2 1/1/1 24/1/24
f 25/5/25 27/6/25 26/7/25
f 26/7/25 28/8/26 25/5/25
f 29/9/27 31/10/27 30/11/27
f 30/11/27 32/12/27 29/9/27
f 33/9/28 35/10/28 34/11/28
f 34/11/28 36/12/28 33/9/28
f 37/9/29 39/10/29 38/11/29
f 38/11/29 40/12/29 37/9/29
f 41/9/30 43/10/30 42/11/30
f 42/11/30 44/12/30 41/9/30
f 45/9/31 47/10/31 46/11/31
f 46/11/31 48/12/31 45/9/31
f 49/9/32 51/10/32 50/11/32
f 50/11/32 52/12/32 49/9/32
f 53/9/33 55/10/33 54/11/33
f 54/11/33 56/12/33 53/9/33
f 57/9/34 59/10/34 58/11/34
f 58/11/34 60/12/34 57/9/34
f 61/9/35 63/10/35 62/11/35
f 62/11/35 64/12/35 61/9/35
f 65/9/36 67/10/36 66/11/36
f 66/11/36 68/12/36 65/9/36
f 69/9/37 71/10/37 70/11/37
f 70/11/37 72/12/37 69/9/37
f 73/9/38 75/10/38 74/11/38
f 74/11/38 76/12/38 73/9/38
f 77/9/39 79/10/39 78/11/39
f 78/11/39 80/12/39 77/9/39
f 81/9/40 83/10/40 82/11/40
f 82/11/40 84/12/40 81/9/40
f 85/9/41 87/10/41 86/11/41
f 86/11/41 88/12/41 85/9/41
f 89/9/42 91/10/42 90/11/42
f 90/11/42 92/12/42 89/9/42
f 93/9/43 95/10/43 94/11/43
f 94/11/43 96/12/43 93/9/43
f 97/9/44 99/10/44 98/11/44
f 98/11/44 100/12/44 97/9/44
f 101/13/45 103/14/46 102/15/47
f 102/15/47 104/16/48 101/13/45
f 103/14/46 106/17/49 105/18/50
f 105/18/50 102/15/47 103/14/46
f 107/19/51 109/20/52 108/20/53
f 108/20/53 110/19/54 107/19/51
f 109/20/52 112/21/55 111/21/56
f 111/21/56 108/20/53 109/20/52
f 113/22/57 105/18/50 114/23/58
f 114/23/58 115/23/59 113/22/57
f 113/22/57 116/24/60 102/15/47
f 102/15/47 105/18/50 113/22/57
f 116/24/60 117/25/61 104/16/48
f 104/16/48 102/15/47 116/24/60
f 110/19/54 108/20/53 103/14/46
f 103/14/46 101/13/45 110/19/54
f 108/20/53 111/21/56 106/17/49
f 106/17/49 103/14/46 108/20/53
f 112/21/55 115/23/59 114/23/58
f 114/23/58 111/21/56 112/21/55
f 114/23/58 105/18/50 106/17/49
f 106/17/49 111/21/56 114/23/58
f 118/26/62 101/13/45 104/16/48
f 104/16/48 119/27/63 118/26/62
f 120/28/64 118/26/62 119/27/63
f 119/27/63 121/29/65 120/28/64
f 122/30/66 107/19/51 110/19/54
f 110/19/54 123/30/67 122/30/66
f 124/31/68 122/30/66 123/30/67
f 123/30/67 125/31/69 124/31/68
f 121/29/65 127/32/70 126/33/71
f 126/33/71 128/33/72 121/29/65
f 129/34/73 127/32/70 121/29/65
f 121/29/65 119/27/63 129/34/73
f 117/25/61 129/34/73 119/27/63
f 119/27/63 104/16/48 117/25/61
f 123/30/67 110/19/54 101/13/45
f 101/13/45 118/26/62 123/30/67
f 125/31/69 123/30/67 118/26/62
f 118/26/62 120/28/64 125/31/69
f 128/33/72 126/33/71 124/31/68
f 124/31/68 125/31/69 128/33/72
f 128/33/72 125/31/69 120/28/64
f 120/28/64 121/29/65 128/33/72
f 130/35/74 132/36/75 131/37/76
f 131/37/76 133/38/77 130/35/74
f 132/36/75 135/39/78 134/40/79
f 134/40/79 131/37/76 132/36/75
f 135/39/78 137/41/80 136/42/81
f 136/42/81 134/40/79 135/39/78
f 137/41/80 139/43/82 138/44/83
f 138/44/83 136/42/81 137/41/80
f 139/43/82 141/45/84 140/46/85
f 140/46/85 138/44/83 139/43/82
f 141/45/84 143/47/86 142/48/87
f 142/48/87 140/46/85 141/45/84
f 143/47/86 145/49/88 144/50/89
f 144/50/89 142/48/87 143/47/86
f 145/49/88 147/51/90 146/52/91
f 146/52/91 144/50/89 145/49/88
f 147/51/90 149/53/92 148/54/93
f 148/54/93 146/52/91 147/51/90
f 149/53/92 151/55/94 150/56/95
f 150/56/95 148/54/93 149/53/92
f 151/55/94 153/57/96 152/58/97
f 152/58/97 150/56/95 151/55/94
f 153/57/96 155/59/98 154/60/99
f 154/60/99 152/58/97 153/57/96
f 155/59/98 157/61/100 156/62/101
f 156/62/101 154/60/99 155/59/98
f 157/61/100 159/63/102 158/64/103
f 158/64/103 156/62/101 157/61/100
f 159/63/102 161/65/104 160/66/105
f 160/66/105 158/64/103 159/63/102
f 161/65/104 163/67/106 162/68/107
f 162/68/107 160/66/105 161/65/104
f 163/67/106 165/69/108 164/70/109
f 164/70/109 162/68/107 163/67/106
f 165/69/108 167/71/110 166/72/111
f 166/72/111 164/70/109 165/69/108
f 167/71/110 169/73/112 168/74/113
f 168/74/113 166/72/111 167/71/110
f 169/73/112 171/75/114 170/76/115
f 170/76/115 168/74/113 169/73/112
f 171/75/114 173/77/116 172/78/117
f 172/78/117 170/76/115 171/75/114
f 173/77/116 175/79/118 174/80/119
f 174/80/119 172/78/117 173/77/116
f 175/79/118 177/81/120 176/82/121
f 176/82/121 174/80/119 175/79/118
f 177/81/120 179/83/122 178/84/123
f 178/84/123 176/82/121 177/81/120
f 179/83/122 181/85/124 180/86/125
f 180/86/125 178/84/123 179/83/122
f 181/85/124 183/87/126 182/88/127
f 182/88/127 180/86/125 181/85/124
f 183/87/126 185/89/128 184/90/129
f 184/90/129 182/88/127 183/87/126
f 185/89/128 187/91/130 186/92/131
f 186/92/131 184/90/129 185/89/128
f 187/91/130 189/93/132 188/94/133
f 188/94/133 186/92/131 187/91/130
f 189/93/132 130/35/74 133/38/77
f 133/38/77 188/94/133 189/93/132
f 190/95/134 192/96/135 191/97/136
f 191/97/136 193/98/137 190/95/134
f 192/96/135 195/99/138 194/100/139
f 194/100/139 191/97/136 192/96/135
f 195/99/138 197/101/140 196/102/141
f 196/102/141 194/100/139 195/99/138
f 197/101/140 199/103/142 198/104/143
f 198/104/143 196/102/141 197/101/140
f 199/103/142 201/105/144 200/106/145
f 200/106/145 198/104/143 199/103/142
f 201/105/144 203/107/146 202/108/147
f 202/108/147 200/106/145 201/105/144
f 203/107/146 205/109/148 204/110/149
f 204/110/149 202/108/147 203/107/146
f 205/109/148 207/111/150 206/112/151
f 206/112/151 204/110/149 205/109/148
f 207/111/150 209/113/152 208/114/153
f 208/114/153 206/112/151 207/111/150
f 209/113/152 211/115/154 210/116/155
f 210/116/155 208/114/153 209/113/152
f 211/115/154 213/117/156 212/118/157
f 212/118/157 210/116/155 211/115/154
f 213/117/156 215/119/158 214/120/159
f 214/120/159 212/118/157 213/117/156
f 215/119/158 217/121/160 216/122/161
f 216/122/161 214/120/159 215/119/158
f 217/121/160 219/123/162 218/124/163
f 218/124/163 216/122/161 217/121/160
f 219/123/162 190/95/134 193/98/137
f 193/98/137 218/124/163 219/123/162
f 220/125/164 222/126/165 221/126/166
f 220/125/164 221/126/166 223/125/167
f 220/125/164 223/125/167 224/127/168
f 225/128/169 226/129/170 224/127/168
f 224/127/168 223/125/167 225/128/169
f 227/130/171 225/128/169 223/125/167
f 223/125/167 221/126/166 227/130/171
f 228/130/172 227/130/171 221/126/166
f 221/126/166 222/126/165 228/130/172
f 229/131/173 228/130/172 222/126/165
f 222/126/165 230/132/173 229/131/173
f 226/129/170 232/133/174 231/134/175
f 231/134/175 224/127/168 226/129/170
f 233/135/176 235/136/177 234/137/178
f 234/137/178 236/138/179 233/135/176
f 235/136/177 238/139/180 237/140/181
f 237/140/181 234/137/178 235/136/177
f 236/138/179 234/137/178 239/141/182
f 239/141/182 240/142/183 236/138/179
f 234/137/178 237/140/181 241/143/184
f 241/143/184 239/141/182 234/137/178
f 242/144/185 240/142/183 239/141/182
f 239/141/182 241/143/184 243/145/186
f 243/145/186 242/144/185 239/141/182
f 244/135/187 246/136/188 245/137/189
f 245/137/189 247/138/190 244/135/187
f 246/136/188 249/139/191 248/140/192
f 248/140/192 245/137/189 246/136/188
f 247/138/190 245/137/189 250/141/193
f 250/141/193 251/142/194 247/138/190
f 245/137/189 248/140/192 252/143/195
f 252/143/195 250/141/193 245/137/189
f 253/144/196 251/142/194 250/141/193
f 250/141/193 252/143/195 254/145/197
f 254/145/197 253/144/196 250/141/193
f 255/135/198 257/136/199 256/137/200
f 256/137/200 258/138/201 255/135/198
f 257/136/199 260/139/202 259/140/203
f 259/140/203 256/137/200 257/136/199
f 258/138/201 256/137/200 261/141/204
f 261/141/204 262/142/205 258/138/201
f 256/137/200 259/140/203 263/143/206
f 263/143/206 261/141/204 256/137/200
f 264/144/207 262/142/205 261/141/204
f 261/141/204 263/143/206 265/145/208
f 265/145/208 264/144/207 261/141/204
f 266/135/209 268/136/210 267/137/211
f 267/137/211 269/138/212 266/135/209
f 268/136/210 271/139/213 270/140/214
f 270/140/214 267/137/211 268/136/210
f 269/138/212 267/137/211 272/141/215
f 272/141/215 273/142/216 269/138/212
f 267/137/211 270/140/214 274/143/217
f 274/143/217 272/141/215 267/137/211
f 275/144/218 273/142/216 272/141/215
f 272/141/215 274/143/217 276/145/219
f 276/145/219 275/144/218 272/141/215
f 277/135/220 279/136/221 278/137/222
f 278/137/222 280/138/223 277/135/220
f 279/136/221 282/139/224 281/140/225
f 281/140/225 278/137/222 279/136/221
f 280/138/223 278/137/222 283/141/226
f 283/141/226 284/142/227 280/138/223
f 278/137/222 281/140/225 285/143/228
f 285/143/228 283/141/226 278/137/222
f 286/144/229 284/142/227 283/141/226
f 283/141/226 285/143/228 287/145/230
f 287/145/230 286/144/229 283/141/226
f 288/135/231 290/136/232 289/137/233
f 289/137/233 291/138/234 288/135/231
f 290/136/232 293/139/235 292/140/236
f 292/140/236 289/137/233 290/136/232
f 291/138/234 289/137/233 294/141/237
f 294/141/237 295/142/238 291/138/234
f 289/137/233 292/140/236 296/143/239
f 296/143/239 294/141/237 289/137/233
f 297/144/240 295/142/238 294/141/237
f 294/141/237 296/143/239 298/145/241
f 298/145/241 297/144/240 294/141/237
f 299/135/242 301/136/243 300/137/244
f 300/137/244 302/138/245 299/135/242
f 301/136/243 304/139/246 303/140/247
f 303/140/247 300/137/244 301/136/243
f 302/138/245 300/137/244 305/141/248
f 305/141/248 306/142/249 302/138/245
f 300/137/244 303/140/247 307/143/250
f 307/143/250 305/141/248 300/137/244
f 308/144/251 306/142/249 305/141/248
f 305/141/248 307/143/250 309/145/252
f 309/145/252 308/144/251 305/141/248
f 310/135/253 312/136/254 311/137/255
f 311/137/255 313/138/256 310/135/253
f 312/136/254 315/139/257 314/140/258
f 314/140/258 311/137/255 312/136/254
f 313/138/256 311/137/255 316/141/259
f 316/141/259 317/142/260 313/138/256
f 311/137/255 314/140/258 318/143/261
f 318/143/261 316/141/259 311/137/255
f 319/144/262 317/142/260 316/141/259
f 316/141/259 318/143/261 320/145/263
f 320/145/263 319/144/262 316/141/259
f 321/135/264 323/136/265 322/137/266
f 322/137/266 324/138/267 321/135/264
f 323/136/265 326/139/268 325/140/269
f 325/140/269 322/137/266 323/136/265
f 324/138/267 322/137/266 327/141/270
f 327/141/270 328/142/271 324/138/267
f 322/137/266 325/140/269 329/143/272
f 329/143/272 327/141/270 322/137/266
f 330/144/273 328/142/271 327/141/270
f 327/141/270 329/143/272 331/145/274
f 331/145/274 330/144/273 327/141/270
f 332/135/275 334/136/276 333/137/277
f 333/137/277 335/138/278 332/135/275
f 334/136/276 337/139/279 336/140/280
f 336/140/280 333/137/277 334/136/276
f 335/138/278 333/137/277 338/141/281
f 338/141/281 339/142/282 335/138/278
f 333/137/277 336/140/280 340/143/283
f 340/143/283 338/141/281 333/137/277
f 341/144/284 339/142/282 338/141/281
f 338/141/281 340/143/283 342/145/285
f 342/145/285 341/144/284 338/141/281
f 343/135/286 345/136/287 344/137/288
f 344/137/288 346/138/289 343/135/286
f 345/136/287 348/139/290 347/140/291
f 347/140/291 344/137/288 345/136/287
f 346/138/289 344/137/288 349/141/292
f 349/141/292 350/142/293 346/138/289
f 344/137/288 347/140/291 351/143/294
f 351/143/294 349/141/292 344/137/288
f 352/144/295 350/142/293 349/141/292
f 349/141/292 351/143/294 353/145/296
f 353/145/296 352/144/295 349/141/292
f 354/135/297 356/136/298 355/137/299
f 355/137/299 357/138/300 354/135/297
f 356/136/298 359/139/301 358/140/302
f 358/140/302 355/137/299 356/136/298
f 357/138/300 355/137/299 360/141/303
f 360/141/303 361/142/304 357/138/300
f 355/137/299 358/140/302 362/143/305
f 362/143/305 360/141/303 355/137/299
f 363/144/306 361/142/304 360/141/303
f 360/141/303 362/143/305 364/145/307
f 364/145/307 363/144/306 360/141/303
f 365/135/308 367/136/309 366/137/310
f 366/137/310 368/138/311 365/135/308
f 367/136/309 370/139/312 369/140/313
f 369/140/313 366/137/310 367/136/309
f 368/138/311 366/137/310 371/141/314
f 371/141/314 372/142/315 368/138/311
f 366/137/310 369/140/313 373/143/316
f 373/143/316 371/141/314 366/137/310
f 374/144/317 372/142/315 371/141/314
f 371/141/314 373/143/316 375/145/318
f 375/145/318 374/144/317 371/141/314
f 376/135/319 378/136/320 377/137/321
f 377/137/321 379/138/322 376/135/319
f 378/136/320 381/139/323 380/140/324
f 380/140/324 377/137/321 378/136/320
f 379/138/322 377/137/321 382/141/325
f 382/141/325 383/142/326 379/138/322
f 377/137/321 380/140/324 384/143/327
f 384/143/327 382/141/325 377/137/321
f 385/144/328 383/142/326 382/141/325
f 382/141/325 384/143/327 386/145/329
f 386/145/329 385/144/328 382/141/325
f 387/135/330 389/136/331 388/137/332
f 388/137/332 390/138/333 387/135/330
f 389/136/331 392/139/334 391/140/335
f 391/140/335 388/137/332 389/136/331
f 390/138/333 388/137/332 393/141/336
f 393/141/336 394/142/337 390/138/333
f 388/137/332 391/140/335 395/143/338
f 395/143/338 393/141/336 388/137/332
f 396/144/339 394/142/337 393/141/336
f 393/141/336 395/143/338 397/145/340
f 397/145/340 396/144/339 393/141/336
f 398/146/341 399/147/342 132/36/75
f 132/36/75 130/35/74 398/146/341
f 400/148/343 401/149/344 133/38/77
f 133/38/77 131/37/76 400/148/343
f 399/147/342 402/150/345 135/39/78
f 135/39/78 132/36/75 399/147/342
f 403/151/346 400/148/343 131/37/76
f 131/37/76 134/40/79 403/151/346
f 402/150/345 404/110/347 137/41/80
f 137/41/80 135/39/78 402/150/345
f 405/152/348 403/151/346 134/40/79
f 134/40/79 136/42/81 405/152/348
f 404/110/347 406/153/349 139/43/82
f 139/43/82 137/41/80 404/110/347
f 407/154/350 405/152/348 136/42/81
f 136/42/81 138/44/83 407/154/350
f 406/153/349 408/108/351 141/45/84
f 141/45/84 139/43/82 406/153/349
f 409/155/352 407/154/350 138/44/83
f 138/44/83 140/46/85 409/155/352
f 408/108/351 410/156/353 143/47/86
f 143/47/86 141/45/84 408/108/351
f 411/157/354 409/155/352 140/46/85
f 140/46/85 142/48/87 411/157/354
f 410/156/353 412/106/355 145/49/88
f 145/49/88 143/47/86 410/156/353
f 413/158/356 411/157/354 142/48/87
f 142/48/87 144/50/89 413/158/356
f 412/106/355 414/159/357 147/51/90
f 147/51/90 145/49/88 412/106/355
f 415/160/358 413/158/356 144/50/89
f 144/50/89 146/52/91 415/160/358
f 414/159/357 416/161/359 149/53/92
f 149/53/92 147/51/90 414/159/357
f 417/162/360 415/160/358 146/52/91
f 146/52/91 148/54/93 417/162/360
f 416/161/359 418/163/361 151/55/94
f 151/55/94 149/53/92 416/161/359
f 419/164/362 417/162/360 148/54/93
f 148/54/93 150/56/95 419/164/362
f 418/163/361 420/165/363 153/57/96
f 153/57/96 151/55/94 418/163/361
f 421/166/364 419/164/362 150/56/95
f 150/56/95 152/58/97 421/166/364
f 420/165/363 422/167/365 155/59/98
f 155/59/98 153/57/96 420/165/363
f 423/168/366 421/166/364 152/58/97
f 152/58/97 154/60/99 423/168/366
f 422/167/365 424/169/367 157/61/100
f 157/61/100 155/59/98 422/167/365
f 425/170/368 423/168/366 154/60/99
f 154/60/99 156/62/101 425/170/368
f 424/169/367 426/171/369 159/63/102
f 159/63/102 157/61/100 424/169/367
f 427/172/370 425/170/368 156/62/101
f 156/62/101 158/64/103 427/172/370
f 426/171/369 428/173/371 161/65/104
f 161/65/104 159/63/102 426/171/369
f 429/174/372 427/172/370 158/64/103
f 158/64/103 160/66/105 429/174/372
f 428/173/371 430/175/373 163/67/106
f 163/67/106 161/65/104 428/173/371
f 431/176/374 429/174/372 160/66/105
f 160/66/105 162/68/107 431/176/374
f 430/175/373 432/98/375 165/69/108
f 165/69/108 163/67/106 430/175/373
f 433/177/376 431/176/374 162/68/107
f 162/68/107 164/70/109 433/177/376
f 432/98/375 434/178/377 167/71/110
f 167/71/110 165/69/108 432/98/375
f 435/179/378 433/177/376 164/70/109
f 164/70/109 166/72/111 435/179/378
f 434/178/377 436/180/379 169/73/112
f 169/73/112 167/71/110 434/178/377
f 437/181/380 435/179/378 166/72/111
f 166/72/111 168/74/113 437/181/380
f 436/180/379 438/182/381 171/75/114
f 171/75/114 169/73/112 436/180/379
f 439/183/382 437/181/380 168/74/113
f 168/74/113 170/76/115 439/183/382
f 438/182/381 440/122/383 173/77/116
f 173/77/116 171/75/114 438/182/381
f 441/184/384 439/183/382 170/76/115
f 170/76/115 172/78/117 441/184/384
f 440/122/383 442/185/385 175/79/118
f 175/79/118 173/77/116 440/122/383
f 443/186/386 441/184/384 172/78/117
f 172/78/117 174/80/119 443/186/386
f 442/185/385 444/187/387 177/81/120
f 177/81/120 175/79/118 442/185/385
f 445/188/388 443/186/386 174/80/119
f 174/80/119 176/82/121 445/188/388
f 444/187/387 446/189/389 179/83/122
f 179/83/122 177/81/120 444/187/387
f 447/190/390 445/188/388 176/82/121
f 176/82/121 178/84/123 447/190/390
f 446/189/389 448/191/391 181/85/124
f 181/85/124 179/83/122 446/189/389
f 449/192/392 447/190/390 178/84/123
f 178/84/123 180/86/125 449/192/392
f 448/191/391 450/193/393 183/87/126
f 183/87/126 181/85/124 448/191/391
f 451/194/394 449/192/392 180/86/125
f 180/86/125 182/88/127 451/194/394
f 450/193/393 452/195/395 185/89/128
f 185/89/128 183/87/126 450/193/393
f 453/196/396 451/194/394 182/88/127
f 182/88/127 184/90/129 453/196/396
f 452/195/395 454/197/397 187/91/130
f 187/91/130 185/89/128 452/195/395
f 455/198/398 453/196/396 184/90/129
f 184/90/129 186/92/131 455/198/398
f 454/197/397 456/199/399 189/93/132
f 189/93/132 187/91/130 454/197/397
f 457/200/400 455/198/398 186/92/131
f 186/92/131 188/94/133 457/200/400
f 456/199/399 398/146/341 130/35/74
f 130/35/74 189/93/132 456/199/399
f 401/149/344 457/200/400 188/94/133
f 188/94/133 133/38/77 401/149/344
f 458/201/401 460/202/402 459/203/403
f 459/203/403 461/204/404 458/201/401
f 461/204/404 459/203/403 462/205/405
f 462/205/405 463/206/406 461/204/404
f 463/206/406 462/205/405 464/207/407
f 464/207/407 465/208/408 463/206/406
f 466/209/409 468/210/410 467/211/25
f 460/202/402 469/212/411 459/203/403
f 469/212/411 471/213/412 470/214/413
f 470/214/413 459/203/403 469/212/411
f 459/203/403 470/214/413 472/215/414
f 472/215/414 462/205/405 459/203/403
f 462/205/405 472/215/414 473/216/415
f 473/216/415 464/207/407 462/205/405
f 468/210/410 474/217/416 467/211/25
f 471/213/412 475/218/417 470/214/413
f 475/218/417 477/219/418 476/220/419
f 476/220/419 470/214/413 475/218/417
f 470/214/413 476/220/419 478/221/420
f 478/221/420 472/215/414 470/214/413
f 472/215/414 478/221/420 479/222/421
f 479/222/421 473/216/415 472/215/414
f 474/217/416 480/223/422 467/211/25
f 477/219/418 481/224/423 476/220/419
f 481/224/423 483/225/424 482/226/425
f 482/226/425 476/220/419 481/224/423
f 476/220/419 482/226/425 484/227/426
f 484/227/426 478/221/420 476/220/419
f 478/221/420 484/227/426 485/228/427
f 485/228/427 479/222/421 478/221/420
f 480/223/422 486/229/428 467/211/25
f 483/225/424 487/230/429 482/226/425
f 487/230/429 489/231/430 488/232/431
f 488/232/431 482/226/425 487/230/429
f 482/226/425 488/232/431 490/233/432
f 490/233/432 484/227/426 482/226/425
f 484/227/426 490/233/432 491/234/433
f 491/234/433 485/228/427 484/227/426
f 486/229/428 492/235/434 467/211/25
f 489/231/430 493/236/435 488/232/431
f 493/236/435 495/237/436 494/238/437
f 494/238/437 488/232/431 493/236/435
f 488/232/431 494/238/437 496/239/438
f 496/239/438 490/233/432 488/232/431
f 490/233/432 496/239/438 497/240/439
f 497/240/439 491/234/433 490/233/432
f 492/235/434 498/241/440 467/211/25
f 495/237/436 499/242/441 494/238/437
f 499/242/441 501/243/442 500/244/443
f 500/244/443 494/238/437 499/242/441
f 494/238/437 500/244/443 502/245/444
f 502/245/444 496/239/438 494/238/437
f 496/239/438 502/245/444 503/246/445
f 503/246/445 497/240/439 496/239/438
f 498/241/440 504/247/446 467/211/25
f 501/243/442 505/248/447 500/244/443
f 505/248/447 507/249/448 506/250/449
f 506/250/449 500/244/443 505/248/447
f 500/244/443 506/250/449 508/251/450
f 508/251/450 502/245/444 500/244/443
f 502/245/444 508/251/450 509/252/451
f 509/252/451 503/246/445 502/245/444
f 504/247/446 510/253/452 467/211/25
f 507/249/448 511/254/453 506/250/449
f 511/254/453 513/255/454 512/256/455
f 512/256/455 506/250/449 511/254/453
f 506/250/449 512/256/455 514/257/456
f 514/257/456 508/251/450 506/250/449
f 508/251/450 514/257/456 515/258/457
f 515/258/457 509/252/451 508/251/450
f 510/253/452 516/259/458 467/211/25
f 513/255/454 517/260/459 512/256/455
f 517/260/459 518/261/460 461/204/404
f 461/204/404 512/256/455 517/260/459
f 512/256/455 461/204/404 463/206/406
f 463/206/406 514/257/456 512/256/455
f 514/257/456 463/206/406 465/208/408
f 465/208/408 515/258/457 514/257/456
f 516/259/458 466/209/409 467/211/25
f 518/261/460 458/201/401 461/204/404
f 465/208/408 464/207/407 468/210/410
f 468/210/410 466/209/409 465/208/408
f 464/207/407 473/216/415 474/217/416
f 474/217/416 468/210/410 464/207/407
f 473/216/415 479/222/421 480/223/422
f 480/223/422 474/217/416 473/216/415
f 479/222/421 485/228/427 486/229/428
f 486/229/428 480/223/422 479/222/421
f 485/228/427 491/234/433 492/235/434
f 492/235/434 486/229/428 485/228/427
f 491/234/433 497/240/439 498/241/440
f 498/241/440 492/235/434 491/234/433
f 497/240/439 503/246/445 504/247/446
f 504/247/446 498/241/440 497/240/439
f 503/246/445 509/252/451 510/253/452
f 510/253/452 504/247/446 503/246/445
f 509/252/451 515/258/457 516/259/458
f 516/259/458 510/253/452 509/252/451
f 515/258/457 465/208/408 466/209/409
f 466/209/409 516/259/458 515/258/457
f 519/262/461 520/263/462 460/202/402
f 460/202/402 521/212/463 519/262/461
f 520/263/462 522/262/464 469/212/411
f 469/212/411 460/202/402 520/263/462
f 522/262/464 524/263/465 523/202/466
f 523/202/466 469/212/411 522/262/464
f 524/263/465 526/262/467 525/212/468
f 525/212/468 523/202/466 524/263/465
f 526/262/467 528/263/469 527/202/470
f 527/202/470 525/212/468 526/262/467
f 528/263/469 530/262/471 529/212/472
f 529/212/472 527/202/470 528/263/469
f 530/262/471 532/263/473 531/202/474
f 531/202/474 529/212/472 530/262/471
f 532/263/473 534/262/475 533/212/476
f 533/212/476 531/202/474 532/263/473
f 534/262/475 536/263/477 535/202/478
f 535/202/478 533/212/476 534/262/475
f 536/263/477 538/262/479 537/212/480
f 537/212/480 535/202/478 536/263/477
f 538/262/479 540/263/481 539/202/482
f 539/202/482 537/212/480 538/262/479
f 540/263/481 542/262/483 541/212/484
f 541/212/484 539/202/482 540/263/481
f 542/262/483 544/263/485 543/202/486
f 543/202/486 541/212/484 542/262/483
f 544/263/485 546/262/487 545/212/488
f 545/212/488 543/202/486 544/263/485
f 546/262/487 548/263/489 547/202/490
f 547/202/490 545/212/488 546/262/487
f 548/263/489 550/262/491 549/212/492
f 549/212/492 547/202/490 548/263/489
f 550/262/491 552/263/493 551/202/494
f 551/202/494 549/212/492 550/262/491
f 552/263/493 554/262/495 553/212/496
f 553/212/496 551/202/494 552/263/493
f 554/262/495 556/263/497 555/202/498
f 555/202/498 553/212/496 554/262/495
f 556/263/497 519/262/461 521/212/463
f 521/212/463 555/202/498 556/263/497
f 557/264/499 558/265/500 522/262/464
f 522/262/464 520/263/462 557/264/499
f 559/266/501 561/267/502 560/268/503
f 559/266/501 560/268/503 558/265/500
f 557/264/499 563/269/504 562/270/505
f 558/265/500 557/264/499 562/270/505
f 559/266/501 558/265/500 562/270/505
f 564/265/506 557/264/499 520/263/462
f 520/263/462 519/262/461 564/265/506
f 565/270/507 563/269/504 557/264/499
f 565/270/507 557/264/499 564/265/506
f 566/268/508 568/267/509 567/266/510
f 564/265/506 566/268/508 567/266/510
f 565/270/507 564/265/506 567/266/510
f 569/264/511 564/265/506 519/262/461
f 519/262/461 556/263/497 569/264/511
f 570/266/512 571/267/513 566/268/508
f 570/266/512 566/268/508 564/265/506
f 569/264/511 573/269/514 572/270/512
f 564/265/506 569/264/511 572/270/512
f 570/266/512 564/265/506 572/270/512
f 574/265/515 569/264/511 556/263/497
f 556/263/497 554/262/495 574/265/515
f 575/270/516 573/269/514 569/264/511
f 575/270/516 569/264/511 574/265/515
f 576/268/517 578/267/518 577/266/519
f 574/265/515 576/268/517 577/266/519
f 575/270/516 574/265/515 577/266/519
f 579/264/520 574/265/515 554/262/495
f 554/262/495 552/263/493 579/264/520
f 580/266/521 581/267/522 576/268/517
f 580/266/521 576/268/517 574/265/515
f 579/264/520 583/269/523 582/270/524
f 574/265/515 579/264/520 582/270/524
f 580/266/521 574/265/515 582/270/524
f 584/265/525 579/264/520 552/263/493
f 552/263/493 550/262/491 584/265/525
f 585/270/526 583/269/523 579/264/520
f 585/270/526 579/264/520 584/265/525
f 586/268/527 588/267/528 587/266/529
f 584/265/525 586/268/527 587/266/529
f 585/270/526 584/265/525 587/266/529
f 589/264/530 584/265/525 550/262/491
f 550/262/491 548/263/489 589/264/530
f 590/266/531 591/267/532 586/268/527
f 590/266/531 586/268/527 584/265/525
f 589/264/530 593/269/533 592/270/534
f 584/265/525 589/264/530 592/270/534
f 590/266/531 584/265/525 592/270/534
f 594/265/535 589/264/530 548/263/489
f 548/263/489 546/262/487 594/265/535
f 595/270/536 593/269/533 589/264/530
f 595/270/536 589/264/530 594/265/535
f 596/268/537 598/267/538 597/266/539
f 594/265/535 596/268/537 597/266/539
f 595/270/536 594/265/535 597/266/539
f 599/264/540 594/265/535 546/262/487
f 546/262/487 544/263/485 599/264/540
f 600/266/541 601/267/542 596/268/537
f 600/266/541 596/268/537 594/265/535
f 599/264/540 603/269/543 602/270/544
f 594/265/535 599/264/540 602/270/544
f 600/266/541 594/265/535 602/270/544
f 604/265/545 599/264/540 544/263/485
f 544/263/485 542/262/483 604/265/545
f 605/270/546 603/269/543 599/264/540
f 605/270/546 599/264/540 604/265/545
f 606/268/547 608/267/548 607/266/549
f 604/265/545 606/268/547 607/266/549
f 605/270/546 604/265/545 607/266/549
f 609/264/550 604/265/545 542/262/483
f 542/262/483 540/263/481 609/264/550
f 610/266/551 611/267/552 606/268/547
f 610/266/551 606/268/547 604/265/545
f 609/264/550 613/269/553 612/270/554
f 604/265/545 609/264/550 612/270/554
f 610/266/551 604/265/545 612/270/554
f 614/265/555 609/264/550 540/263/481
f 540/263/481 538/262/479 614/265/555
f 615/270/556 613/269/553 609/264/550
f 615/270/556 609/264/550 614/265/555
f 616/268/557 618/267/558 617/266/559
f 614/265/555 616/268/557 617/266/559
f 615/270/556 614/265/555 617/266/559
f 619/264/560 614/265/555 538/262/479
f 538/262/479 536/263/477 619/264/560
f 620/266/561 621/267/562 616/268/557
f 620/266/561 616/268/557 614/265/555
f 619/264/560 623/269/563 622/270/564
f 614/265/555 619/264/560 622/270/564
f 620/266/561 614/265/555 622/270/564
f 624/265/565 619/264/560 536/263/477
f 536/263/477 534/262/475 624/265/565
f 625/270/566 623/269/563 619/264/560
f 625/270/566 619/264/560 624/265/565
f 626/268/567 628/267/568 627/266/566
f 624/265/565 626/268/567 627/266/566
f 625/270/566 624/265/565 627/266/566
f 629/264/569 624/265/565 534/262/475
f 534/262/475 532/263/473 629/264/569
f 630/266/570 631/267/571 626/268/567
f 630/266/570 626/268/567 624/265/565
f 629/264/569 633/269/572 632/270/573
f 624/265/565 629/264/569 632/270/573
f 630/266/570 624/265/565 632/270/573
f 634/265/574 629/264/569 532/263/473
f 532/263/473 530/262/471 634/265/574
f 635/270/575 633/269/572 629/264/569
f 635/270/575 629/264/569 634/265/574
f 636/268/576 638/267/577 637/266/575
f 634/265/574 636/268/576 637/266/575
f 635/270/575 634/265/574 637/266/575
f 639/264/578 634/265/574 530/262/471
f 530/262/471 528/263/469 639/264/578
f 640/266/579 641/267/580 636/268/576
f 640/266/579 636/268/576 634/265/574
f 639/264/578 643/269/581 642/270/579
f 634/265/574 639/264/578 642/270/579
f 640/266/579 634/265/574 642/270/579
f 644/265/582 639/264/578 528/263/469
f 528/263/469 526/262/467 644/265/582
f 645/270/583 643/269/581 639/264/578
f 645/270/583 639/264/578 644/265/582
f 646/268/584 648/267/585 647/266/586
f 644/265/582 646/268/584 647/266/586
f 645/270/583 644/265/582 647/266/586
f 649/264/587 644/265/582 526/262/467
f 526/262/467 524/263/465 649/264/587
f 650/266/588 651/267/589 646/268/584
f 650/266/588 646/268/584 644/265/582
f 649/264/587 653/269/590 652/270/591
f 644/265/582 649/264/587 652/270/591
f 650/266/588 644/265/582 652/270/591
f 558/265/500 649/264/587 524/263/465
f 524/263/465 522/262/464 558/265/500
f 654/270/592 653/269/590 649/264/587
f 654/270/592 649/264/587 558/265/500
f 560/268/503 656/267/593 655/266/594
f 558/265/500 560/268/503 655/266/594
f 654/270/592 558/265/500 655/266/594
f 657/271/595 659/272/596 658/273/597
f 658/273/597 660/274/598 657/271/595
f 659/272/596 662/275/599 661/276/600
f 661/276/600 658/273/597 659/272/596
f 662/275/599 664/277/601 663/278/602
f 663/278/602 661/276/600 662/275/599
f 665/279/603 667/280/604 666/281/605
f 666/281/605 668/282/606 665/279/603
f 667/280/604 670/283/607 669/284/608
f 669/284/608 666/281/605 667/280/604
f 670/283/607 672/285/609 671/286/610
f 671/286/610 669/284/608 670/283/607
f 660/274/598 658/273/597 673/287/611
f 673/287/611 674/288/612 660/274/598
f 658/273/597 661/276/600 675/289/613
f 675/289/613 673/287/611 658/273/597
f 661/276/600 663/278/602 676/290/614
f 676/290/614 675/289/613 661/276/600
f 674/288/612 673/287/611 667/280/604
f 667/280/604 665/279/603 674/288/612
f 673/287/611 675/289/613 670/283/607
f 670/283/607 667/280/604 673/287/611
f 675/289/613 676/290/614 672/285/609
f 672/285/609 670/283/607 675/289/613
f 677/271/615 679/272/616 678/273/617
f 678/273/617 680/274/618 677/271/615
f 679/272/616 682/275/619 681/276/620
f 681/276/620 678/273/617 679/272/616
f 682/275/619 684/277/621 683/278/622
f 683/278/622 681/276/620 682/275/619
f 685/279/623 687/280/624 686/281/625
f 686/281/625 688/282/626 685/279/623
f 687/280/624 690/283/627 689/284/628
f 689/284/628 686/281/625 687/280/624
f 690/283/627 692/285/629 691/286/630
f 691/286/630 689/284/628 690/283/627
f 680/274/618 678/273/617 693/287/631
f 693/287/631 694/288/632 680/274/618
f 678/273/617 681/276/620 695/289/633
f 695/289/633 693/287/631 678/273/617
f 681/276/620 683/278/622 696/290/634
f 696/290/634 695/289/633 681/276/620
f 694/288/632 693/287/631 687/280/624
f 687/280/624 685/279/623 694/288/632
f 693/287/631 695/289/633 690/283/627
f 690/283/627 687/280/624 693/287/631
f 695/289/633 696/290/634 692/285/629
f 692/285/629 690/283/627 695/289/633
f 697/271/635 699/272/636 698/273/637
f 698/273/637 700/274/638 697/271/635
f 699/272/636 702/275/639 701/276/640
f 701/276/640 698/273/637 699/272/636
f 702/275/639 704/277/641 703/278/642
f 703/278/642 701/276/640 702/275/639
f 705/279/643 707/280/644 706/281/645
f 706/281/645 708/282/646 705/279/643
f 707/280/644 710/283/647 709/284/648
f 709/284/648 706/281/645 707/280/644
f 710/283/647 712/285/649 711/286/650
f 711/286/650 709/284/648 710/283/647
f 700/274/638 698/273/637 713/287/651
f 713/287/651 714/288/652 700/274/638
f 698/273/637 701/276/640 715/289/653
f 715/289/653 713/287/651 698/273/637
f 701/276/640 703/278/642 716/290/654
f 716/290/654 715/289/653 701/276/640
f 714/288/652 713/287/651 707/280/644
f 707/280/644 705/279/643 714/288/652
f 713/287/651 715/289/653 710/283/647
f 710/283/647 707/280/644 713/287/651
f 715/289/653 716/290/654 712/285/649
f 712/285/649 710/283/647 715/289/653
f 717/271/655 719/272/656 718/273/657
f 718/273/657 720/274/658 717/271/655
f 719/272/656 722/275/659 721/276/660
f 721/276/660 718/273/657 719/272/656
f 722/275/659 724/277/661 723/278/662
f 723/278/662 721/276/660 722/275/659
f 725/279/663 727/280/664 726/281/665
f 726/281/665 728/282/666 725/279/663
f 727/280/664 730/283/667 729/284/668
f 729/284/668 726/281/665 727/280/664
f 730/283/667 732/285/669 731/286/670
f 731/286/670 729/284/668 730/283/667
f 720/274/658 718/273/657 733/287/671
f 733/287/671 734/288/672 720/274/658
f 718/273/657 721/276/660 735/289/673
f 735/289/673 733/287/671 718/273/657
f 721/276/660 723/278/662 736/290/674
f 736/290/674 735/289/673 721/276/660
f 734/288/672 733/287/671 727/280/664
f 727/280/664 725/279/663 734/288/672
f 733/287/671 735/289/673 730/283/667
f 730/283/667 727/280/664 733/287/671
f 735/289/673 736/290/674 732/285/669
f 732/285/669 730/283/667 735/289/673
f 737/271/675 739/272/676 738/273/677
f 738/273/677 740/274/678 737/271/675
f 739/272/676 742/275/679 741/276/680
f 741/276/680 738/273/677 739/272/676
f 742/275/679 744/277/681 743/278/682
f 743/278/682 741/276/680 742/275/679
f 745/279/683 747/280/684 746/281/685
f 746/281/685 748/282/686 745/279/683
f 747/280/684 750/283/687 749/284/688
f 749/284/688 746/281/685 747/280/684
f 750/283/687 752/285/689 751/286/690
f 751/286/690 749/284/688 750/283/687
f 740/274/678 738/273/677 753/287/691
f 753/287/691 754/288/692 740/274/678
f 738/273/677 741/276/680 755/289/693
f 755/289/693 753/287/691 738/273/677
f 741/276/680 743/278/682 756/290/694
f 756/290/694 755/289/693 741/276/680
f 754/288/692 753/287/691 747/280/684
f 747/280/684 745/279/683 754/288/692
f 753/287/691 755/289/693 750/283/687
f 750/283/687 747/280/684 753/287/691
f 755/289/693 756/290/694 752/285/689
f 752/285/689 750/283/687 755/289/693
f 757/271/695 759/272/696 758/273/697
f 758/273/697 760/274/698 757/271/695
f 759/272/696 762/275/699 761/276/700
f 761/276/700 758/273/697 759/272/696
f 762/275/699 764/277/701 763/278/702
f 763/278/702 761/276/700 762/275/699
f 765/279/703 767/280/704 766/281/705
f 766/281/705 768/282/706 765/279/703
f 767/280/704 770/283/707 769/284/708
f 769/284/708 766/281/705 767/280/704
f 770/283/707 772/285/709 771/286/710
f 771/286/710 769/284/708 770/283/707
f 760/274/698 758/273/697 773/287/711
f 773/287/711 774/288/712 760/274/698
f 758/273/697 761/276/700 775/289/713
f 775/289/713 773/287/711 758/273/697
f 761/276/700 763/278/702 776/290/714
f 776/290/714 775/289/713 761/276/700
f 774/288/712 773/287/711 767/280/704
f 767/280/704 765/279/703 774/288/712
f 773/287/711 775/289/713 770/283/707
f 770/283/707 767/280/704 773/287/711
f 775/289/713 776/290/714 772/285/709
f 772/285/709 770/283/707 775/289/713
f 777/271/715 779/272/716 778/273/717
f 778/273/717 780/274/718 777/271/715
f 779/272/716 782/275/719 781/276/720
f 781/276/720 778/273/717 779/272/716
f 782/275/719 784/277/721 783/278/722
f 783/278/722 781/276/720 782/275/719
f 785/279/723 787/280/724 786/281/725
f 786/281/725 788/282/726 785/279/723
f 787/280/724 790/283/727 789/284/728
f 789/284/728 786/281/725 787/280/724
f 790/283/727 792/285/729 791/286/730
f 791/286/730 789/284/728 790/283/727
f 780/274/718 778/273/717 793/287/731
f 793/287/731 794/288/732 780/274/718
f 778/273/717 781/276/720 795/289/733
f 795/289/733 793/287/731 778/273/717
f 781/276/720 783/278/722 796/290/734
f 796/290/734 795/289/733 781/276/720
f 794/288/732 793/287/731 787/280/724
f 787/280/724 785/279/723 794/288/732
f 793/287/731 795/289/733 790/283/727
f 790/283/727 787/280/724 793/287/731
f 795/289/733 796/290/734 792/285/729
f 792/285/729 790/283/727 795/289/733
f 797/271/735 799/272/736 798/273/737
f 798/273/737 800/274/738 797/271/735
f 799/272/736 802/275/739 801/276/740
f 801/276/740 798/273/737 799/272/736
f 802/275/739 804/277/741 803/278/742
f 803/278/742 801/276/740 802/275/739
f 805/279/743 807/280/744 806/281/745
f 806/281/745 808/282/746 805/279/743
f 807/280/744 810/283/747 809/284/748
f 809/284/748 806/281/745 807/280/744
f 810/283/747 812/285/749 811/286/750
f 811/286/750 809/284/748 810/283/747
f 800/274/738 798/273/737 813/287/751
f 813/287/751 814/288/752 800/274/738
f 798/273/737 801/276/740 815/289/753
f 815/289/753 813/287/751 798/273/737
f 801/276/740 803/278/742 816/290/754
f 816/290/754 815/289/753 801/276/740
f 814/288/752 813/287/751 807/280/744
f 807/280/744 805/279/743 814/288/752
f 813/287/751 815/289/753 810/283/747
f 810/283/747 807/280/744 813/287/751
f 815/289/753 816/290/754 812/285/749
f 812/285/749 810/283/747 815/289/753
f 817/271/755 819/272/756 818/273/757
f 818/273/757 820/274/758 817/271/755
f 819/272/756 822/275/759 821/276/760
f 821/276/760 818/273/757 819/272/756
f 822/275/759 824/277/761 823/278/762
f 823/278/762 821/276/760 822/275/759
f 825/279/763 827/280/764 826/281/765
f 826/281/765 828/282/766 825/279/763
f 827/280/764 830/283/767 829/284/768
f 829/284/768 826/281/765 827/280/764
f 830/283/767 832/285/769 831/286/770
f 831/286/770 829/284/768 830/283/767
f 820/274/758 818/273/757 833/287/771
f 833/287/771 834/288/772 820/274/758
f 818/273/757 821/276/760 835/289/773
f 835/289/773 833/287/771 818/273/757
f 821/276/760 823/278/762 836/290/774
f 836/290/774 835/289/773 821/276/760
f 834/288/772 833/287/771 827/280/764
f 827/280/764 825/279/763 834/288/772
f 833/287/771 835/289/773 830/283/767
f 830/283/767 827/280/764 833/287/771
f 835/289/773 836/290/774 832/285/769
f 832/285/769 830/283/767 835/289/773
f 837/271/775 839/272/776 838/273/777
f 838/273/777 840/274/778 837/271/775
f 839/272/776 842/275/779 841/276/780
f 841/276/780 838/273/777 839/272/776
f 842/275/779 844/277/781 843/278/782
f 843/278/782 841/276/780 842/275/779
f 845/279/783 847/280/784 846/281/785
f 846/281/785 848/282/786 845/279/783
f 847/280/784 850/283/787 849/284/788
f 849/284/788 846/281/785 847/280/784
f 850/283/787 852/285/789 851/286/790
f 851/286/790 849/284/788 850/283/787
f 840/274/778 838/273/777 853/287/791
f 853/287/791 854/288/792 840/274/778
f 838/273/777 841/276/780 855/289/793
f 855/289/793 853/287/791 838/273/777
f 841/276/780 843/278/782 856/290/794
f 856/290/794 855/289/793 841/276/780
f 854/288/792 853/287/791 847/280/784
f 847/280/784 845/279/783 854/288/792
f 853/287/791 855/289/793 850/283/787
f 850/283/787 847/280/784 853/287/791
f 855/289/793 856/290/794 852/285/789
f 852/285/789 850/283/787 855/289/793
f 857/291/795 858/291/796 659/272/596
f 659/272/596 657/271/595 857/291/795
f 859/291/797 857/291/795 784/277/721
f 784/277/721 782/275/719 859/291/797
f 860/291/798 859/291/797 782/275/719
f 782/275/719 779/272/716 860/291/798
f 861/291/799 860/291/798 779/272/716
f 779/272/716 777/271/715 861/291/799
f 862/291/800 861/291/799 804/277/741
f 804/277/741 802/275/739 862/291/800
f 863/291/801 862/291/800 802/275/739
f 802/275/739 799/272/736 863/291/801
f 864/291/802 863/291/801 799/272/736
f 799/272/736 797/271/735 864/291/802
f 865/291/803 864/291/804 824/277/761
f 824/277/761 822/275/759 865/291/803
f 866/291/805 865/291/803 822/275/759
f 822/275/759 819/272/756 866/291/805
f 867/291/806 866/291/805 819/272/756
f 819/272/756 817/271/755 867/291/806
f 868/291/807 867/291/806 844/277/781
f 844/277/781 842/275/779 868/291/807
f 869/292/808 868/291/807 842/275/779
f 842/275/779 839/272/776 869/292/808
f 870/291/809 869/292/808 839/272/776
f 839/272/776 837/271/775 870/291/809
f 871/291/810 870/291/811 684/277/621
f 684/277/621 682/275/619 871/291/810
f 872/291/812 871/291/810 682/275/619
f 682/275/619 679/272/616 872/291/812
f 873/291/813 872/291/812 679/272/616
f 679/272/616 677/271/615 873/291/813
f 874/291/814 873/291/815 704/277/641
f 704/277/641 702/275/639 874/291/814
f 875/291/816 874/291/814 702/275/639
f 702/275/639 699/272/636 875/291/816
f 876/291/817 875/291/816 699/272/636
f 699/272/636 697/271/635 876/291/817
f 877/291/818 876/291/819 724/277/661
f 724/277/661 722/275/659 877/291/818
f 878/291/820 877/291/818 722/275/659
f 722/275/659 719/272/656 878/291/820
f 879/291/821 878/291/820 719/272/656
f 719/272/656 717/271/655 879/291/821
f 880/291/822 879/291/821 744/277/681
f 744/277/681 742/275/679 880/291/822
f 881/291/823 880/291/822 742/275/679
f 742/275/679 739/272/676 881/291/823
f 882/291/824 881/291/823 739/272/676
f 739/272/676 737/271/675 882/291/824
f 883/291/825 882/291/824 764/277/701
f 764/277/701 762/275/699 883/291/825
f 884/291/826 883/291/825 762/275/699
f 762/275/699 759/272/696 884/291/826
f 885/291/827 884/291/826 759/272/696
f 759/272/696 757/271/695 885/291/827
f 886/291/828 885/291/829 664/277/601
f 664/277/601 662/275/599 886/291/828
f 858/291/796 886/291/828 662/275/599
f 662/275/599 659/272/596 858/291/796
