# Blender 5.0.1
# www.blender.org
o LlantaTI
v 0.791959 -0.033476 -0.235309
v 0.629798 0.334125 0.072131
v 0.726838 -0.028035 0.078451
v 0.686198 0.361245 -0.242189
v 0.364678 0.599245 0.067491
v 0.397239 0.650125 -0.247229
v 0.002439 0.696285 0.065811
v 0.002439 0.755885 -0.249069
v -0.359721 0.599245 0.067491
v -0.392282 0.650125 -0.247229
v -0.624843 0.334125 0.072131
v -0.681241 0.361245 -0.242189
v -0.721881 -0.028035 0.078451
v -0.787082 -0.033476 -0.235309
v -0.624843 -0.390115 0.084771
v -0.681241 -0.428195 -0.228429
v -0.359721 -0.655235 0.089331
v -0.392282 -0.717075 -0.223389
v 0.002439 -0.752275 0.091091
v 0.002439 -0.822835 -0.221550
v 0.364678 -0.655235 0.089331
v 0.397239 -0.717075 -0.223389
v 0.629798 -0.390115 0.084771
v 0.686198 -0.428195 -0.228429
v 1.333077 1.311085 -0.234349
v -1.341722 -1.364675 -0.187629
v 1.333718 -1.364035 -0.187629
v -1.342443 1.310365 -0.234349
v -1.019483 0.827165 -0.241309
v -1.250281 0.424765 -0.389869
v -1.250281 0.427485 -0.234349
v -1.019483 0.824445 -0.396829
v -0.665801 1.123805 -0.246509
v -1.019483 0.824445 -0.396829
v -1.019483 0.827165 -0.241309
v -0.665801 1.121085 -0.402029
v -0.232041 1.281645 -0.249310
v -0.665801 1.121085 -0.402029
v -0.665801 1.123805 -0.246509
v -0.232041 1.279005 -0.404749
v 0.229558 1.281645 -0.249310
v -0.232041 1.279005 -0.404749
v -0.232041 1.281645 -0.249310
v 0.229558 1.279005 -0.404749
v 0.663318 1.123805 -0.246509
v 0.229558 1.279005 -0.404749
v 0.229558 1.281645 -0.249310
v 0.663318 1.121085 -0.402030
v 1.016919 0.827165 -0.241309
v 0.663318 1.121085 -0.402030
v 0.663318 1.123805 -0.246509
v 1.016919 0.824445 -0.396829
v 1.247718 0.427485 -0.234349
v 1.016919 0.824445 -0.396829
v 1.016919 0.827165 -0.241309
v 1.247718 0.424765 -0.389869
v 1.327878 -0.027076 -0.226430
v 1.247718 0.424765 -0.389869
v 1.247718 0.427485 -0.234349
v 1.327878 -0.029795 -0.381949
v -1.250281 0.427485 -0.234349
v -1.330441 -0.029795 -0.381949
v -1.330441 -0.027076 -0.226429
v -1.250281 0.424765 -0.389869
v 1.247718 -0.481635 -0.218509
v 1.327878 -0.029795 -0.381949
v 1.327878 -0.027076 -0.226430
v 1.247718 -0.484356 -0.374029
v 1.016919 -0.881315 -0.211549
v 1.247718 -0.484356 -0.374029
v 1.247718 -0.481635 -0.218509
v 1.016919 -0.884035 -0.366989
v -1.019483 -0.881315 -0.211549
v -0.665801 -1.180675 -0.361869
v -0.665801 -1.177955 -0.206349
v -1.019483 -0.884035 -0.366989
v 0.229558 -1.335875 -0.203549
v 0.663318 -1.180675 -0.361869
v 0.663318 -1.177955 -0.206349
v 0.229558 -1.338596 -0.359069
v -0.232041 -1.335875 -0.203549
v 0.229558 -1.338596 -0.359069
v 0.229558 -1.335875 -0.203549
v -0.232041 -1.338596 -0.359069
v -0.665801 -1.177955 -0.206349
v -0.232041 -1.338596 -0.359069
v -0.232041 -1.335875 -0.203549
v -0.665801 -1.180675 -0.361869
v 0.663318 -1.177955 -0.206349
v 1.016919 -0.884035 -0.366989
v 1.016919 -0.881315 -0.211549
v 0.663318 -1.180675 -0.361869
v -1.250281 -0.481635 -0.218509
v -1.019483 -0.884035 -0.366989
v -1.019483 -0.881315 -0.211549
v -1.250281 -0.484356 -0.374029
v -1.330441 -0.027076 -0.226429
v -1.250281 -0.484356 -0.374029
v -1.250281 -0.481635 -0.218509
v -1.330441 -0.029795 -0.381949
v 1.299317 0.451005 -0.053949
v 0.978839 0.029004 -0.127790
v 1.368358 0.054525 -0.047069
v 0.916678 0.307885 -0.132669
v 0.969718 -0.276275 -0.122510
v 1.311799 -0.324995 -0.040429
v 1.419398 0.489325 -0.407709
v 1.496037 0.065405 -0.133790
v 1.496037 0.060765 -0.400270
v 1.419398 0.494045 -0.141309
v 1.432918 -0.354835 -0.126509
v 1.432918 -0.359555 -0.392910
v 0.939559 -0.292195 -0.394109
v 1.359239 -0.401155 -0.131149
v 1.359239 -0.405795 -0.392109
v 0.947318 0.012605 -0.399389
v 0.886758 0.292045 -0.404269
v 1.093238 0.796845 -0.060030
v 0.782119 0.559885 -0.137069
v 0.803079 1.047885 -0.064429
v 0.576198 0.785485 -0.140989
v 1.198197 0.864365 -0.414270
v 1.198197 0.869085 -0.147869
v 0.876359 1.142125 -0.419149
v 0.876439 1.146765 -0.152669
v 0.790439 1.129165 -0.418909
v 0.546039 0.769645 -0.412589
v 0.790439 1.133725 -0.157869
v 0.750598 0.543485 -0.408670
v 1.904838 -0.011795 0.898771
v 2.113238 -0.462115 0.930930
v 1.863399 -0.409395 0.905731
v 2.160357 -0.011235 0.923090
v 1.974118 -0.890355 0.938371
v 1.740758 -0.786835 0.912291
v 1.748998 -1.280276 0.945250
v 1.542277 -1.130595 0.918291
v 1.447719 -1.614915 0.951091
v 1.276679 -1.425475 0.923411
v 1.083398 -1.879635 0.955651
v 0.955558 -1.658835 0.927491
v 0.671958 -2.062755 0.958851
v 0.592918 -1.820276 0.930291
v 0.231479 -2.156435 0.960531
v 0.204679 -1.902755 0.931731
v -0.218842 -2.156435 0.960531
v -0.192283 -1.902755 0.931731
v -0.659322 -2.062915 0.958851
v -0.580522 -1.820276 0.930291
v -1.071322 -1.879475 0.955651
v -0.944201 -1.658275 0.927491
v -1.435082 -1.615155 0.951091
v -1.264281 -1.425636 0.923411
v -1.736442 -1.280515 0.945251
v -1.529881 -1.130676 0.918291
v -1.961642 -0.890595 0.938451
v -1.728362 -0.786995 0.912291
v -2.100842 -0.462355 0.930931
v -1.851081 -0.409555 0.905731
v -2.147962 -0.011475 0.923091
v -1.892522 -0.011955 0.898771
v -2.100923 0.433245 0.915331
v -1.851081 0.379885 0.891891
v -1.961802 0.861485 0.907811
v -1.728442 0.757325 0.885331
v -1.736602 1.251405 0.901011
v -1.529962 1.101005 0.879331
v -1.435321 1.586045 0.895171
v -1.264361 1.395965 0.874211
v -1.071002 1.850765 0.890531
v -0.943242 1.629245 0.870131
v -0.659642 2.033965 0.887331
v -0.580682 1.790684 0.867331
v -0.219161 2.127565 0.885731
v -0.192361 1.873245 0.865891
v 0.231238 2.127565 0.885731
v 0.204518 1.873245 0.865891
v 0.671718 2.034045 0.887331
v 0.592837 1.790765 0.867331
v 1.082599 1.851165 0.890531
v 0.954438 1.629965 0.870130
v 1.447478 1.586285 0.895171
v 1.276599 1.396045 0.874211
v 1.748837 1.251645 0.901010
v 1.542199 1.101165 0.879331
v 1.974038 0.861725 0.907811
v 1.740678 0.757485 0.885331
v 2.113238 0.433485 0.915331
v 1.863318 0.379965 0.891890
v 2.424758 0.208045 -0.903790
v 1.652118 -0.578915 -0.829789
v 2.319077 -0.797555 -0.886190
v 1.727399 0.137085 -0.842350
v 1.292119 -1.202515 -0.818909
v 1.813558 -1.673155 -0.870909
v 0.709477 -1.625715 -0.811549
v 0.995639 -2.267555 -0.860590
v 0.005158 -1.775395 -0.808909
v 0.006438 -2.477795 -0.856909
v -0.699243 -1.625715 -0.811549
v -0.982602 -2.267715 -0.860589
v -1.281802 -1.202515 -0.818909
v -1.800841 -1.673476 -0.870909
v -1.641881 -0.578915 -0.829789
v -2.306521 -0.797875 -0.886189
v -1.717162 0.137085 -0.842349
v -2.412282 0.207645 -0.903789
v -1.494601 0.821885 -0.854269
v -2.099881 1.169245 -0.920589
v -1.012761 1.356925 -0.863629
v -1.423322 1.920685 -0.933629
v -0.354922 1.649805 -0.868749
v -0.499562 2.331965 -0.940829
v 0.365159 1.649805 -0.868749
v 0.511638 2.332045 -0.940829
v 1.023078 1.356925 -0.863629
v 1.435557 1.920845 -0.933630
v 1.504918 0.821885 -0.854270
v 2.112199 1.169565 -0.920590
v -0.011722 -1.107395 0.370051
v -0.068122 -1.172435 0.412291
v -0.068122 -1.122755 0.380051
v -0.011722 -1.187876 0.422291
v 0.023078 -1.147635 0.396131
v -0.011722 -1.302915 0.245171
v 0.023078 -1.262676 0.219011
v -0.068122 -1.287475 0.235171
v -0.068122 -1.237795 0.202851
v -0.011722 -1.222435 0.192931
v -0.011722 -1.107395 0.370051
v -0.011722 -1.107395 0.370051
v -0.011722 -1.222435 0.192931
v -0.738603 2.274845 0.777251
v -0.263001 2.540445 0.640371
v -0.245881 2.379645 0.775491
v -0.789243 2.428525 0.642371
v 0.274999 2.540525 0.640371
v 0.257878 2.379645 0.775491
v -0.263001 2.515725 -0.775309
v -0.789243 2.403805 -0.773389
v 0.274999 2.515805 -0.775309
v -0.499562 2.331965 -0.940829
v 0.511638 2.332045 -0.940829
v 0.257878 2.379645 0.775491
v 0.801238 2.428765 0.642371
v 0.750598 2.275005 0.777251
v 0.274999 2.540525 0.640371
v 1.292838 2.210045 0.646211
v 1.210837 2.070204 0.780851
v 0.801238 2.404045 -0.773389
v 0.274999 2.515805 -0.775309
v 1.292838 2.185405 -0.769549
v 0.511638 2.332045 -0.940829
v 1.435557 1.920845 -0.933630
v -1.606282 1.773885 0.786051
v -1.280683 2.209645 0.646211
v -1.198762 2.069965 0.780851
v -1.715882 1.893405 0.651731
v -0.789243 2.428525 0.642371
v -0.738603 2.274845 0.777251
v -1.280683 2.184925 -0.769549
v -1.715882 1.868685 -0.764029
v -0.789243 2.403805 -0.773389
v -1.423322 1.920685 -0.933629
v -0.499562 2.331965 -0.940829
v 1.955478 1.399885 0.792530
v 2.357238 1.028445 0.666770
v 2.207398 0.963725 0.800131
v 2.088199 1.494285 0.658690
v 2.523559 0.516845 0.675731
v 2.363078 0.484765 0.808531
v 2.357238 1.003725 -0.748989
v 2.088199 1.469565 -0.757069
v 2.523559 0.492205 -0.740029
v 2.112199 1.169565 -0.920590
v 2.424758 0.208045 -0.903790
v 2.363078 0.484765 0.808531
v 2.579879 -0.018115 0.685090
v 2.415799 -0.012995 0.817251
v 2.523559 0.516845 0.675731
v 2.523719 -0.553076 0.694371
v 2.363158 -0.517075 0.826051
v 2.579879 -0.042755 -0.730670
v 2.523559 0.492205 -0.740029
v 2.523719 -0.577795 -0.721309
v 2.424758 0.208045 -0.903790
v 2.319077 -0.797555 -0.886190
v 1.210837 2.070204 0.780851
v 1.728118 1.893965 0.651730
v 1.618358 1.774204 0.786051
v 1.292838 2.210045 0.646211
v 2.088199 1.494285 0.658690
v 1.955478 1.399885 0.792530
v 1.728118 1.869245 -0.764030
v 1.292838 2.185405 -0.769549
v 2.088199 1.469565 -0.757069
v 1.435557 1.920845 -0.933630
v 2.112199 1.169565 -0.920590
v -2.403321 -0.013395 0.817251
v -2.510922 0.516045 0.675731
v -2.350762 0.484365 0.808531
v -2.567002 -0.018915 0.685091
v -2.344762 1.027725 0.666851
v -2.195161 0.963325 0.800211
v -2.510922 0.491325 -0.740029
v -2.567002 -0.043555 -0.730669
v -2.344762 1.003005 -0.748909
v -2.412282 0.207645 -0.903789
v -2.099881 1.169245 -0.920589
v -2.195161 0.963325 0.800211
v -2.075801 1.493565 0.658691
v -1.943322 1.399565 0.792531
v -2.344762 1.027725 0.666851
v -1.715882 1.893405 0.651731
v -1.606282 1.773885 0.786051
v -2.075801 1.468845 -0.757069
v -2.344762 1.003005 -0.748909
v -1.715882 1.868685 -0.764029
v -2.099881 1.169245 -0.920589
v -1.423322 1.920685 -0.933629
v 1.211158 -2.102755 0.853731
v 0.802039 -2.465555 0.727811
v 0.750999 -2.307636 0.857251
v 1.293559 -2.246675 0.723971
v 0.275798 -2.577475 0.729731
v 0.258279 -2.412355 0.859091
v 0.802039 -2.490275 -0.687949
v 1.293559 -2.271395 -0.691789
v 0.275798 -2.602196 -0.686029
v 0.995639 -2.267555 -0.860590
v 0.006438 -2.477795 -0.856909
v 0.258279 -2.412355 0.859091
v -0.262202 -2.577555 0.729731
v -0.245402 -2.412435 0.859091
v 0.275798 -2.577475 0.729731
v -0.788442 -2.465795 0.727811
v -0.738202 -2.307715 0.857251
v -0.262202 -2.602275 -0.686029
v 0.275798 -2.602196 -0.686029
v -0.788442 -2.490515 -0.687949
v 0.006438 -2.477795 -0.856909
v -0.982602 -2.267715 -0.860589
v 1.955718 -1.432275 0.841971
v 1.728759 -1.930435 0.718450
v 1.618678 -1.806595 0.848531
v 2.088677 -1.530595 0.711491
v 1.293559 -2.246675 0.723971
v 1.211158 -2.102755 0.853731
v 1.728759 -1.955076 -0.697310
v 2.088677 -1.555315 -0.704270
v 1.293559 -2.271395 -0.691789
v 1.813558 -1.673155 -0.870909
v 0.995639 -2.267555 -0.860590
v -1.605962 -1.806916 0.848531
v -2.075322 -1.531235 0.711491
v -1.943082 -1.432676 0.841971
v -1.715322 -1.930995 0.718451
v -2.344441 -1.065475 0.703331
v -2.195003 -0.996516 0.834371
v -2.075322 -1.555955 -0.704269
v -1.715322 -1.955715 -0.697309
v -2.344441 -1.090195 -0.712429
v -1.800841 -1.673476 -0.870909
v -2.306521 -0.797875 -0.886189
v -2.195003 -0.996516 0.834371
v -2.510762 -0.553876 0.694451
v -2.350682 -0.517475 0.826051
v -2.344441 -1.065475 0.703331
v -2.567002 -0.018915 0.685091
v -2.403321 -0.013395 0.817251
v -2.510762 -0.578595 -0.721309
v -2.344441 -1.090195 -0.712429
v -2.567002 -0.043555 -0.730669
v -2.306521 -0.797875 -0.886189
v -2.412282 0.207645 -0.903789
v -0.738202 -2.307715 0.857251
v -1.279962 -2.247075 0.723971
v -1.198361 -2.102916 0.853731
v -0.788442 -2.465795 0.727811
v -1.715322 -1.930995 0.718451
v -1.605962 -1.806916 0.848531
v -1.279962 -2.271796 -0.691789
v -0.788442 -2.490515 -0.687949
v -1.715322 -1.955715 -0.697309
v -0.982602 -2.267715 -0.860589
v -1.800841 -1.673476 -0.870909
v 2.363158 -0.517075 0.826051
v 2.357558 -1.064676 0.703330
v 2.207559 -0.996115 0.834370
v 2.523719 -0.553076 0.694371
v 2.088677 -1.530595 0.711491
v 1.955718 -1.432275 0.841971
v 2.357558 -1.089395 -0.712430
v 2.523719 -0.577795 -0.721309
v 2.088677 -1.555315 -0.704270
v 2.319077 -0.797555 -0.886190
v 1.813558 -1.673155 -0.870909
v 1.649398 -0.013475 0.810131
v 1.613479 -0.357795 0.816211
v 2.363158 -0.517075 0.826051
v 2.415799 -0.012995 0.817251
v 1.507318 -0.684515 0.821891
v 2.207559 -0.996115 0.834370
v 1.335559 -0.981955 0.827091
v 1.955718 -1.432275 0.841971
v 1.105638 -1.237235 0.831490
v 1.618678 -1.806595 0.848531
v 0.827718 -1.439075 0.835091
v 1.211158 -2.102755 0.853731
v 0.513879 -1.578835 0.837491
v 0.750999 -2.307636 0.857251
v 0.177878 -1.650195 0.838771
v 0.258279 -2.412355 0.859091
v -0.165643 -1.650195 0.838771
v -0.245402 -2.412435 0.859091
v -0.501721 -1.578835 0.837491
v -0.738202 -2.307715 0.857251
v -0.817082 -1.438195 0.835011
v -1.198361 -2.102916 0.853731
v -1.093482 -1.237235 0.831491
v -1.605962 -1.806916 0.848531
v -1.323321 -0.981955 0.827091
v -1.943082 -1.432676 0.841971
v -1.495082 -0.684515 0.821891
v -2.195003 -0.996516 0.834371
v -1.601241 -0.357795 0.816211
v -2.350682 -0.517475 0.826051
v -1.637162 -0.013475 0.810131
v -2.403321 -0.013395 0.817251
v -1.601241 0.325405 0.804291
v -2.350762 0.484365 0.808531
v -1.495082 0.652045 0.798531
v -2.195161 0.963325 0.800211
v -1.323321 0.949485 0.793331
v -1.943322 1.399565 0.792531
v -1.093482 1.204765 0.788931
v -1.606282 1.773885 0.786051
v -0.815562 1.406685 0.785411
v -1.198762 2.069965 0.780851
v -0.501721 1.546365 0.782931
v -0.738603 2.274845 0.777251
v -0.165643 1.617805 0.781731
v -0.245881 2.379645 0.775491
v 0.177878 1.617805 0.781731
v 0.257878 2.379645 0.775491
v 0.513879 1.546365 0.782931
v 0.750598 2.275005 0.777251
v 0.826198 1.407565 0.785331
v 1.210837 2.070204 0.780851
v 1.105638 1.204765 0.788931
v 1.618358 1.774204 0.786051
v 1.335559 0.949485 0.793331
v 1.955478 1.399885 0.792530
v 1.507318 0.652045 0.798531
v 2.207398 0.963725 0.800131
v 1.613479 0.325405 0.804291
v 2.363078 0.484765 0.808531
v 0.233798 0.673965 0.263491
v -0.048202 0.317485 0.169171
v 0.006438 0.709965 0.262851
v 0.164918 0.283725 0.169811
v -0.039641 0.264205 0.215491
v 0.140119 0.235725 0.215971
v -0.022841 0.165805 0.652531
v 0.091397 0.147725 0.652851
v 0.080758 0.127165 0.674771
v 0.006438 -0.018115 0.707651
v -0.019162 0.143005 0.674531
v -0.220922 0.673965 0.263491
v -0.240521 0.219485 0.170931
v -0.426042 0.569485 0.265331
v -0.201802 0.181565 0.216931
v -0.125962 0.113324 0.653491
v -0.109323 0.097085 0.675331
v -0.588841 0.406765 0.268211
v -0.338521 0.027245 0.174291
v -0.693322 0.201645 0.271731
v -0.284442 0.019485 0.219811
v -0.178441 0.010285 0.655251
v -0.155242 0.007005 0.676931
v -0.729321 -0.025635 0.275731
v -0.304761 -0.185876 0.177971
v -0.693322 -0.252995 0.279651
v -0.255961 -0.160275 0.222931
v -0.160361 -0.103955 0.657251
v -0.139482 -0.092915 0.678611
v -0.588841 -0.458035 0.283251
v -0.152122 -0.338515 0.180691
v -0.426042 -0.620755 0.286131
v -0.127242 -0.288915 0.225171
v -0.078523 -0.185796 0.658690
v -0.067882 -0.164435 0.679891
v -0.220922 -0.725235 0.287971
v 0.061078 -0.372275 0.181251
v 0.006438 -0.761235 0.288531
v 0.052518 -0.317395 0.225651
v 0.035718 -0.203875 0.659011
v 0.032039 -0.180276 0.680211
v 0.233798 -0.725235 0.287971
v 0.253318 -0.274276 0.179571
v 0.438838 -0.620755 0.286131
v 0.214599 -0.234755 0.224211
v 0.138759 -0.151315 0.658051
v 0.122199 -0.134355 0.679410
v 0.601638 -0.458035 0.283251
v 0.351317 -0.082035 0.176211
v 0.706119 -0.252995 0.279651
v 0.297238 -0.072675 0.221411
v 0.191318 -0.048275 0.656291
v 0.168119 -0.044275 0.677811
v 0.742118 -0.025635 0.275731
v 0.317557 0.131085 0.172451
v 0.706119 0.201645 0.271731
v 0.268758 0.107085 0.218211
v 0.173158 0.065965 0.654291
v 0.152278 0.055645 0.676051
v 0.601638 0.406765 0.268211
v 0.438838 0.569485 0.265331
v 0.270358 0.786525 0.259891
v 0.006438 0.828285 0.259091
v 0.233798 0.673965 0.263491
v -0.257482 0.786525 0.259891
v -0.426042 0.569485 0.265331
v -0.495643 0.665245 0.261971
v -0.588841 0.406765 0.268211
v -0.684602 0.476285 0.265251
v -0.693322 0.201645 0.271731
v -0.805882 0.238205 0.269411
v -0.729321 -0.025635 0.275731
v -0.847722 -0.025635 0.274051
v -0.693322 -0.252995 0.279651
v -0.805882 -0.289555 0.278611
v -0.588841 -0.458035 0.283251
v -0.684602 -0.527635 0.282771
v -0.426042 -0.620755 0.286131
v -0.495643 -0.716595 0.286131
v -0.220922 -0.725235 0.287971
v -0.257482 -0.837875 0.288211
v 0.006438 -0.761235 0.288531
v 0.006438 -0.879636 0.288931
v 0.233798 -0.725235 0.287971
v 0.270358 -0.837875 0.288211
v 0.438838 -0.620755 0.286131
v 0.508439 -0.716595 0.286131
v 0.601638 -0.458035 0.283251
v 0.697398 -0.527635 0.282771
v 0.706119 -0.252995 0.279651
v 0.818759 -0.289555 0.278611
v 0.742118 -0.025635 0.275731
v 0.860518 -0.025635 0.274051
v 0.706119 0.201645 0.271731
v 0.818759 0.238205 0.269411
v 0.601638 0.406765 0.268211
v 0.697398 0.476285 0.265251
v 0.438838 0.569485 0.265331
v 0.508439 0.665245 0.261970
v 0.006438 0.931485 0.220531
v -0.289641 0.884605 0.221331
v -0.155242 1.093805 0.125411
v -0.385802 1.178045 0.064691
v -0.189403 1.209165 0.064211
v -0.078122 1.023085 0.167411
v 0.006438 0.993325 0.189091
v 0.302438 0.884605 0.221331
v 0.090919 1.023085 0.167411
v 0.398679 1.178045 0.064691
v 0.168118 1.093805 0.125411
v 0.202199 1.209165 0.064211
v 0.569478 0.748605 0.223650
v 0.535079 0.974605 0.127490
v 0.575879 1.087725 0.066291
v 0.555478 0.872125 0.170051
v 0.606118 0.798525 0.192450
v 0.781398 0.536685 0.227411
v 0.692199 0.772765 0.171730
v 1.033319 0.717005 0.072771
v 0.796678 0.784605 0.130851
v 0.892678 0.857645 0.070291
v 0.917478 0.269645 0.232051
v 1.023479 0.472445 0.136291
v 1.123559 0.539805 0.075890
v 0.979318 0.377725 0.178691
v 0.976838 0.288445 0.201411
v 0.964358 -0.026356 0.237251
v 1.031558 0.216925 0.181491
v 1.275718 -0.028995 0.085811
v 1.123399 0.165005 0.141651
v 1.244597 0.167485 0.082371
v 0.917478 -0.322275 0.242371
v 1.123399 -0.220835 0.148371
v 1.244597 -0.225395 0.089251
v 1.031558 -0.271395 0.189970
v 0.976838 -0.342115 0.212371
v 0.781398 -0.589315 0.247011
v 0.979318 -0.432115 0.192770
v 1.033319 -0.774915 0.098771
v 1.023479 -0.528275 0.153731
v 1.123559 -0.597715 0.095731
v 0.569478 -0.801235 0.250771
v 0.796678 -0.840435 0.159171
v 0.892678 -0.915555 0.101251
v 0.692199 -0.827235 0.199651
v 0.606118 -0.852196 0.221251
v 0.302438 -0.937236 0.253091
v 0.555478 -0.926595 0.201411
v 0.398679 -1.235955 0.106851
v 0.535079 -1.030435 0.162531
v 0.575879 -1.145635 0.105251
v 0.006438 -0.984115 0.253971
v 0.168118 -1.149715 0.164611
v 0.202199 -1.267075 0.107411
v 0.090919 -1.077475 0.204051
v 0.006438 -1.046995 0.224691
v -0.289641 -0.937236 0.253091
v -0.078122 -1.077475 0.204051
v -0.385802 -1.235955 0.106851
v -0.155242 -1.149715 0.164611
v -0.189403 -1.267075 0.107411
v -0.556682 -0.801235 0.250771
v -0.522283 -1.030435 0.162531
v -0.563003 -1.145635 0.105251
v -0.542602 -0.926595 0.201411
v -0.593322 -0.852196 0.221251
v -0.768601 -0.589315 0.247011
v -0.679402 -0.827235 0.199651
v -1.020442 -0.774915 0.098771
v -0.783801 -0.840435 0.159171
v -0.879802 -0.915555 0.101251
v -0.904681 -0.322275 0.242371
v -1.010682 -0.528275 0.153731
v -1.110763 -0.597715 0.095731
v -0.966521 -0.432115 0.192771
v -0.963962 -0.342115 0.212371
v -0.951562 -0.026356 0.237251
v -1.018762 -0.271395 0.189971
v -1.262841 -0.028995 0.085811
v -1.110602 -0.220835 0.148371
v -1.231721 -0.225395 0.089251
v -0.904681 0.269645 0.232051
v -1.110602 0.165005 0.141651
v -1.231721 0.167485 0.082371
v -1.018762 0.216925 0.181491
v -0.963962 0.288445 0.201411
v -0.768601 0.536685 0.227411
v -0.966521 0.377725 0.178691
v -1.020442 0.717005 0.072771
v -1.010682 0.472445 0.136291
v -1.110763 0.539805 0.075891
v -0.556682 0.748605 0.223650
v -0.783801 0.784605 0.130851
v -0.879802 0.857645 0.070291
v -0.679402 0.772765 0.171731
v -0.593322 0.798525 0.192451
v -0.542602 0.872125 0.170051
v -0.522283 0.974605 0.127491
v -0.563003 1.087725 0.066291
v 0.510358 1.534925 0.806931
v 0.162038 1.463804 0.767091
v 0.176919 1.605805 0.805731
v 0.466517 1.399085 0.768211
v -0.149241 1.463804 0.767091
v -0.164042 1.605805 0.805731
v -0.453641 1.399085 0.768211
v -0.497561 1.534925 0.806931
v 0.450118 1.347405 0.691571
v 0.129798 1.144605 0.065330
v 0.156518 1.409805 0.690451
v 0.371078 1.093325 0.066211
v -0.116921 1.144605 0.065331
v -0.143641 1.409805 0.690451
v -0.358281 1.093325 0.066211
v -0.437322 1.347405 0.691571
v 0.158359 1.428125 0.732051
v 0.455558 1.364925 0.733171
v -0.145562 1.428125 0.732051
v -0.442761 1.364925 0.733171
v -0.497561 -1.566675 0.861091
v -0.149241 -1.497075 0.818771
v -0.164042 -1.637555 0.862291
v -0.453641 -1.432355 0.817651
v 0.162038 -1.497075 0.818771
v 0.176919 -1.637555 0.862291
v 0.466517 -1.432355 0.817651
v 0.510358 -1.566675 0.861091
v -0.437322 -1.383395 0.739171
v -0.116921 -1.202515 0.106291
v -0.143641 -1.445795 0.740291
v -0.358281 -1.151235 0.105411
v 0.129798 -1.202515 0.106291
v 0.156518 -1.445795 0.740291
v 0.371078 -1.151235 0.105411
v 0.450118 -1.383395 0.739171
v -0.145482 -1.462595 0.782451
v -0.442761 -1.399395 0.781411
v 0.158359 -1.462595 0.782451
v 0.455558 -1.399395 0.781411
v -1.313003 -0.974355 0.850771
v -0.989802 -1.122835 0.812211
v -1.084842 -1.227715 0.855171
v -1.198041 -0.891556 0.808211
v -0.737962 -1.305795 0.815411
v -0.809001 -1.428035 0.858691
v -0.453641 -1.432355 0.817651
v -0.497561 -1.566675 0.861091
v -1.155242 -0.861795 0.730131
v -0.783322 -0.905875 0.101091
v -0.954362 -1.084835 0.733971
v -0.948361 -0.722595 0.097891
v -0.583722 -1.050915 0.103651
v -0.711482 -1.261316 0.737091
v -0.358281 -1.151235 0.105411
v -0.437322 -1.383395 0.739171
v -0.966203 -1.097235 0.776131
v -1.169562 -0.871475 0.772211
v -0.720363 -1.275875 0.779251
v -0.442761 -1.399395 0.781411
v -1.624442 -0.015876 0.834051
v -1.449882 -0.326115 0.798291
v -1.588841 -0.354915 0.839971
v -1.482362 -0.016596 0.792931
v -1.353642 -0.622115 0.803491
v -1.483481 -0.679155 0.845571
v -1.198041 -0.891556 0.808211
v -1.313003 -0.974355 0.850771
v -1.429482 -0.017956 0.715331
v -1.147962 -0.274276 0.090051
v -1.398042 -0.316436 0.720611
v -1.173802 -0.028995 0.085811
v -1.071721 -0.508916 0.094131
v -1.305322 -0.601875 0.725571
v -0.948361 -0.722595 0.097891
v -1.155242 -0.861795 0.730131
v -1.415402 -0.319395 0.762531
v -1.447162 -0.017236 0.757251
v -1.321483 -0.608355 0.767571
v -1.169562 -0.871475 0.772211
v -1.313003 0.942525 0.817251
v -1.353642 0.588845 0.782371
v -1.483481 0.647325 0.822451
v -1.198041 0.858365 0.777651
v -1.449882 0.292845 0.787491
v -1.588841 0.323085 0.828131
v -1.482362 -0.016596 0.792931
v -1.624442 -0.015876 0.834051
v -1.155242 0.825885 0.700611
v -1.071721 0.451005 0.077411
v -1.305322 0.565965 0.705171
v -0.948361 0.664605 0.073651
v -1.147962 0.216365 0.081491
v -1.398042 0.280525 0.710131
v -1.173802 -0.028995 0.085811
v -1.429482 -0.017956 0.715331
v -1.321483 0.573885 0.746931
v -1.169562 0.837005 0.742371
v -1.415402 0.284925 0.751971
v -1.447162 -0.017236 0.757251
v -0.497561 1.534925 0.806931
v -0.737962 1.272525 0.770371
v -0.809001 1.396285 0.809331
v -0.453641 1.399085 0.768211
v -0.989802 1.089645 0.773571
v -1.084842 1.195885 0.812851
v -1.198041 0.858365 0.777651
v -1.313003 0.942525 0.817251
v -0.437322 1.347405 0.691571
v -0.583722 0.993005 0.067971
v -0.711482 1.225325 0.693651
v -0.358281 1.093325 0.066211
v -0.783322 0.847965 0.070451
v -0.954362 1.048925 0.696771
v -0.948361 0.664605 0.073651
v -1.155242 0.825885 0.700611
v -0.720363 1.241405 0.735331
v -0.442761 1.364925 0.733171
v -0.966203 1.062765 0.738371
v -1.169562 0.837005 0.742371
v 1.325799 0.942525 0.817251
v 1.002599 1.089645 0.773570
v 1.097638 1.195885 0.812850
v 1.210917 0.858365 0.777651
v 0.750838 1.272525 0.770370
v 0.821878 1.396285 0.809330
v 0.466517 1.399085 0.768211
v 0.510358 1.534925 0.806931
v 1.168038 0.825885 0.700611
v 0.796119 0.847965 0.070451
v 0.967238 1.048925 0.696771
v 0.961238 0.664605 0.073651
v 0.596519 0.993005 0.067971
v 0.724359 1.225325 0.693651
v 0.371078 1.093325 0.066211
v 0.450118 1.347405 0.691571
v 0.978999 1.062765 0.738371
v 1.182359 0.837005 0.742371
v 0.733159 1.241405 0.735331
v 0.455558 1.364925 0.733171
v 1.637239 -0.015876 0.834051
v 1.462678 0.292845 0.787491
v 1.601638 0.323085 0.828131
v 1.495238 -0.016596 0.792931
v 1.366519 0.588845 0.782371
v 1.496278 0.647325 0.822451
v 1.210917 0.858365 0.777651
v 1.325799 0.942525 0.817251
v 1.442279 -0.017956 0.715331
v 1.160838 0.216365 0.081490
v 1.410918 0.280525 0.710131
v 1.186599 -0.028995 0.085811
v 1.084598 0.451005 0.077411
v 1.318118 0.565965 0.705171
v 0.961238 0.664605 0.073651
v 1.168038 0.825885 0.700611
v 1.428199 0.284925 0.751971
v 1.459958 -0.017236 0.757251
v 1.334279 0.573885 0.746931
v 1.182359 0.837005 0.742371
v 1.325799 -0.974355 0.850770
v 1.366519 -0.622115 0.803491
v 1.496278 -0.679155 0.845571
v 1.210917 -0.891556 0.808211
v 1.462678 -0.326115 0.798291
v 1.601638 -0.354915 0.839971
v 1.495238 -0.016596 0.792931
v 1.637239 -0.015876 0.834051
v 1.168038 -0.861795 0.730131
v 1.084598 -0.508916 0.094130
v 1.318118 -0.601875 0.725571
v 0.961238 -0.722595 0.097891
v 1.160838 -0.274276 0.090051
v 1.410918 -0.316436 0.720611
v 1.186599 -0.028995 0.085811
v 1.442279 -0.017956 0.715331
v 1.334279 -0.608355 0.767570
v 1.182359 -0.871475 0.772211
v 1.428199 -0.319395 0.762531
v 1.459958 -0.017236 0.757251
v 0.510358 -1.566675 0.861091
v 0.750838 -1.305795 0.815411
v 0.821878 -1.428035 0.858691
v 0.466517 -1.432355 0.817651
v 1.002599 -1.122835 0.812211
v 1.097638 -1.227715 0.855171
v 1.210917 -0.891556 0.808211
v 1.325799 -0.974355 0.850770
v 0.450118 -1.383395 0.739171
v 0.596519 -1.050915 0.103651
v 0.724359 -1.261316 0.737091
v 0.371078 -1.151235 0.105411
v 0.796119 -0.905875 0.101091
v 0.967238 -1.084835 0.733971
v 0.961238 -0.722595 0.097891
v 1.168038 -0.861795 0.730131
v 0.733159 -1.275875 0.779251
v 0.455558 -1.399395 0.781411
v 0.978999 -1.097235 0.776131
v 1.182359 -0.871475 0.772211
v 0.513879 1.546365 0.782931
v 0.177878 1.617805 0.781731
v 0.826198 1.407565 0.785331
v 1.105638 1.204765 0.788931
v 1.335559 0.949485 0.793331
v 1.507318 0.652045 0.798531
v 1.613479 0.325405 0.804291
v 1.649398 -0.013475 0.810131
v 1.613479 -0.357795 0.816211
v 1.507318 -0.684515 0.821891
v 1.335559 -0.981955 0.827091
v 1.105638 -1.237235 0.831490
v 0.827718 -1.439075 0.835091
v 0.513879 -1.578835 0.837491
v 0.177878 -1.650195 0.838771
v -0.165643 -1.650195 0.838771
v -0.501721 -1.578835 0.837491
v -0.817082 -1.438195 0.835011
v -1.093482 -1.237235 0.831491
v -1.323321 -0.981955 0.827091
v -1.495082 -0.684515 0.821891
v -1.601241 -0.357795 0.816211
v -1.637162 -0.013475 0.810131
v -1.601241 0.325405 0.804291
v -1.495082 0.652045 0.798531
v -1.323321 0.949485 0.793331
v -1.093482 1.204765 0.788931
v -0.815562 1.406685 0.785411
v -0.501721 1.546365 0.782931
v -0.165643 1.617805 0.781731
vn 0.9754 -0.0836 0.2040
vn 0.9754 0.0906 0.2010
vn 0.8883 0.4157 0.1953
vn 0.8012 0.5666 0.1927
vn 0.5631 0.8046 0.1885
vn 0.4123 0.8917 0.1870
vn 0.0871 0.9788 0.1855
vn -0.0871 0.9788 0.1855
vn -0.4123 0.8917 0.1870
vn -0.5631 0.8046 0.1885
vn -0.8012 0.5666 0.1927
vn -0.8883 0.4158 0.1953
vn -0.9754 0.0906 0.2010
vn -0.9754 -0.0835 0.2040
vn -0.8883 -0.4087 0.2097
vn -0.8012 -0.5595 0.2123
vn -0.5631 -0.7975 0.2165
vn -0.4123 -0.8846 0.2180
vn -0.0871 -0.9717 0.2195
vn 0.0871 -0.9717 0.2195
vn 0.4123 -0.8846 0.2180
vn 0.5631 -0.7975 0.2165
vn 0.8012 -0.5595 0.2123
vn 0.8883 -0.4087 0.2097
vn -0.0000 0.0175 0.9998
vn -0.8660 0.4999 -0.0087
vn -0.6427 0.7660 -0.0134
vn -0.3420 0.9396 -0.0164
vn -0.3420 0.9395 -0.0164
vn -0.3420 0.9395 -0.0163
vn -0.0000 0.9998 -0.0175
vn -0.0000 0.9999 -0.0170
vn -0.0000 0.9999 -0.0173
vn 0.3420 0.9396 -0.0163
vn 0.3421 0.9395 -0.0163
vn 0.3420 0.9396 -0.0161
vn 0.3421 0.9395 -0.0164
vn 0.6428 0.7660 -0.0134
vn 0.8660 0.4999 -0.0087
vn 0.9848 0.1736 -0.0030
vn -0.9848 0.1736 -0.0030
vn 0.9848 -0.1736 0.0030
vn 0.8660 -0.4999 0.0087
vn -0.6427 -0.7660 0.0134
vn 0.3422 -0.9395 0.0164
vn -0.0000 -0.9998 0.0175
vn -0.3418 -0.9396 0.0164
vn -0.3422 -0.9395 0.0164
vn 0.6428 -0.7659 0.0134
vn 0.6428 -0.7660 0.0134
vn -0.8660 -0.4999 0.0087
vn -0.9848 -0.1736 0.0030
vn 0.1893 0.0383 0.9812
vn 0.1743 0.1062 0.9790
vn -0.7337 -0.0363 0.6785
vn -0.6944 -0.2227 0.6842
vn 0.2356 -0.3542 0.9050
vn -0.5297 -0.4421 0.7238
vn 0.9992 -0.0408 0.0007
vn 0.9568 0.2907 -0.0051
vn 0.8826 0.0335 0.4690
vn 0.8213 0.3278 0.4669
vn 0.7441 -0.6680 0.0118
vn 0.8188 -0.4392 0.3696
vn -0.8043 -0.5852 0.1035
vn 0.1144 -0.9578 0.2636
vn 0.1475 -0.9889 0.0176
vn -0.9839 -0.1325 0.1201
vn -0.9145 -0.3848 0.1252
vn 0.1344 0.1615 0.9777
vn -0.6107 -0.4033 0.6815
vn -0.1864 0.3166 0.9301
vn -0.9134 0.0181 0.4066
vn 0.8015 0.5979 -0.0105
vn 0.6681 0.5845 0.4605
vn 0.2777 0.9605 -0.0166
vn 0.2623 0.7989 0.5412
vn -0.9914 -0.0653 0.1138
vn -0.6607 0.7505 0.0118
vn -0.4623 0.8458 0.2662
vn -0.7864 -0.6047 0.1261
vn -0.2127 0.0128 0.9770
vn -0.2089 0.0571 0.9763
vn 0.1433 -0.0220 0.9894
vn 0.1483 0.0088 0.9889
vn -0.1959 0.0998 0.9755
vn 0.1320 -0.0509 0.9899
vn -0.1744 0.1387 0.9749
vn 0.1149 -0.0769 0.9904
vn -0.1453 0.1723 0.9743
vn 0.0928 -0.0987 0.9908
vn -0.1099 0.1991 0.9738
vn 0.0667 -0.1155 0.9911
vn -0.0696 0.2180 0.9735
vn 0.0376 -0.1264 0.9913
vn -0.0263 0.2281 0.9733
vn 0.0070 -0.1311 0.9913
vn 0.0181 0.2289 0.9733
vn -0.0241 -0.1293 0.9913
vn 0.0618 0.2205 0.9734
vn -0.0540 -0.1211 0.9912
vn 0.1028 0.2032 0.9737
vn -0.0816 -0.1069 0.9909
vn 0.1393 0.1778 0.9742
vn -0.1056 -0.0872 0.9906
vn 0.1696 0.1454 0.9747
vn -0.1251 -0.0630 0.9901
vn 0.1926 0.1073 0.9754
vn -0.1390 -0.0352 0.9897
vn 0.2072 0.0652 0.9761
vn -0.1469 -0.0051 0.9891
vn 0.2127 0.0210 0.9769
vn -0.1484 0.0260 0.9886
vn 0.2089 -0.0233 0.9777
vn -0.1433 0.0565 0.9881
vn 0.1960 -0.0657 0.9784
vn -0.1321 0.0855 0.9875
vn 0.1745 -0.1047 0.9791
vn -0.1150 0.1114 0.9871
vn 0.1455 -0.1383 0.9796
vn -0.0929 0.1333 0.9867
vn 0.1100 -0.1651 0.9801
vn -0.0668 0.1501 0.9864
vn 0.0697 -0.1840 0.9804
vn -0.0377 0.1610 0.9862
vn 0.0263 -0.1941 0.9806
vn -0.0069 0.1657 0.9862
vn -0.0182 -0.1949 0.9806
vn 0.0241 0.1639 0.9862
vn -0.0618 -0.1865 0.9805
vn 0.0540 0.1557 0.9863
vn -0.1028 -0.1693 0.9802
vn 0.0816 0.1415 0.9866
vn -0.1392 -0.1438 0.9798
vn 0.1057 0.1218 0.9869
vn -0.1697 -0.1113 0.9792
vn 0.1251 0.0975 0.9873
vn -0.1927 -0.0732 0.9785
vn 0.1390 0.0697 0.9878
vn -0.2072 -0.0312 0.9778
vn 0.1469 0.0398 0.9884
vn -0.0857 -0.0203 -0.9961
vn -0.0794 0.0148 -0.9967
vn -0.0832 0.0033 -0.9965
vn -0.0845 -0.0324 -0.9959
vn -0.0595 0.0443 -0.9972
vn -0.0676 0.0353 -0.9971
vn -0.0292 0.0631 -0.9976
vn -0.0403 0.0582 -0.9975
vn 0.0060 0.0681 -0.9977
vn -0.0060 0.0681 -0.9977
vn 0.0403 0.0583 -0.9975
vn 0.0293 0.0632 -0.9976
vn 0.0677 0.0354 -0.9971
vn 0.0596 0.0444 -0.9972
vn 0.0835 0.0033 -0.9965
vn 0.0797 0.0149 -0.9967
vn 0.0847 -0.0324 -0.9959
vn 0.0860 -0.0203 -0.9961
vn 0.0713 -0.0656 -0.9953
vn 0.0774 -0.0551 -0.9955
vn 0.0456 -0.0904 -0.9949
vn 0.0554 -0.0833 -0.9950
vn 0.0119 -0.1026 -0.9946
vn 0.0238 -0.1001 -0.9947
vn -0.0238 -0.1000 -0.9947
vn -0.0119 -0.1026 -0.9947
vn -0.0553 -0.0832 -0.9950
vn -0.0455 -0.0903 -0.9949
vn -0.0772 -0.0550 -0.9955
vn -0.0712 -0.0655 -0.9953
vn 0.0001 0.5446 0.8387
vn -0.6015 0.7955 -0.0733
vn -0.7217 0.0911 0.6862
vn 0.0597 -0.3122 0.9481
vn 0.9022 0.0193 0.4308
vn 0.5242 -0.7142 0.4638
vn 0.9719 0.1975 -0.1280
vn -0.6480 -0.6388 0.4148
vn -0.9246 0.3196 -0.2072
vn -0.3091 0.7976 -0.5180
vn 0.8091 0.4929 -0.3201
vn 0.8090 0.4930 -0.3201
vn -0.1310 0.6293 0.7660
vn -0.0438 0.6397 0.7674
vn -0.0872 0.9049 0.4165
vn -0.1995 0.9428 0.2669
vn -0.0000 0.6431 0.7658
vn -0.0002 0.8337 0.5522
vn -0.1052 0.9150 -0.3894
vn -0.1972 0.9216 -0.3344
vn -0.0002 0.9600 -0.2799
vn -0.0835 0.7241 -0.6846
vn -0.0001 0.6692 -0.7430
vn 0.1308 0.6293 0.7660
vn 0.2146 0.6032 0.7682
vn 0.2853 0.8628 0.4173
vn 0.1992 0.9429 0.2670
vn 0.2558 0.5884 0.7670
vn 0.3349 0.7625 0.5536
vn 0.2787 0.8781 -0.3889
vn 0.1969 0.9216 -0.3346
vn 0.3922 0.8767 -0.2785
vn 0.2230 0.6943 -0.6843
vn 0.2772 0.6100 -0.7423
vn -0.3703 0.5230 0.7677
vn -0.2948 0.5679 0.7685
vn -0.4448 0.7919 0.4183
vn -0.5638 0.7806 0.2697
vn -0.2561 0.5886 0.7668
vn -0.3353 0.7625 0.5533
vn -0.4710 0.7926 -0.3871
vn -0.5574 0.7612 -0.3315
vn -0.3926 0.8766 -0.2784
vn -0.3757 0.6267 -0.6827
vn -0.2776 0.6103 -0.7419
vn 0.5450 0.3283 0.7715
vn 0.5818 0.2486 0.7744
vn 0.8266 0.3678 0.4260
vn 0.8304 0.4845 0.2750
vn 0.5985 0.2081 0.7736
vn 0.7835 0.2645 0.5623
vn 0.8440 0.3783 -0.3802
vn 0.8209 0.4685 -0.3267
vn 0.9175 0.2936 -0.2684
vn 0.6739 0.2950 -0.6774
vn 0.6486 0.1980 -0.7349
vn 0.6262 0.0796 0.7756
vn 0.6273 -0.0080 0.7787
vn 0.9017 0.0006 0.4324
vn 0.9537 0.1053 0.2816
vn 0.6263 -0.0518 0.7778
vn 0.8193 -0.0760 0.5684
vn 0.9276 0.0017 -0.3735
vn 0.9427 0.0936 -0.3201
vn 0.9595 -0.1054 -0.2613
vn 0.7405 -0.0056 -0.6720
vn 0.6784 -0.0840 -0.7299
vn 0.3698 0.5227 0.7681
vn 0.4359 0.4649 0.7706
vn 0.6086 0.6728 0.4207
vn 0.5636 0.7807 0.2699
vn 0.4675 0.4344 0.7699
vn 0.6122 0.5611 0.5571
vn 0.6145 0.6883 -0.3856
vn 0.5571 0.7613 -0.3318
vn 0.7168 0.6410 -0.2744
vn 0.4909 0.5426 -0.6817
vn 0.5067 0.4435 -0.7393
vn -0.6272 0.0796 0.7748
vn -0.6097 0.1657 0.7751
vn -0.8808 0.2019 0.4282
vn -0.9540 0.1050 0.2810
vn -0.5994 0.2082 0.7729
vn -0.7840 0.2644 0.5616
vn -0.9093 0.1782 -0.3761
vn -0.9430 0.0933 -0.3195
vn -0.9176 0.2934 -0.2681
vn -0.7264 0.1363 -0.6737
vn -0.6493 0.1981 -0.7343
vn -0.5457 0.3286 0.7709
vn -0.4950 0.4003 0.7712
vn -0.7255 0.5432 0.4226
vn -0.8306 0.4843 0.2748
vn -0.4683 0.4349 0.7691
vn -0.6126 0.5612 0.5566
vn -0.7554 0.5320 -0.3825
vn -0.8212 0.4683 -0.3262
vn -0.7171 0.6408 -0.2742
vn -0.6031 0.4188 -0.6788
vn -0.5072 0.4438 -0.7388
vn 0.2564 -0.5621 0.7864
vn 0.1732 -0.5903 0.7884
vn 0.2720 -0.8523 0.4469
vn 0.3902 -0.8710 0.2984
vn 0.1310 -0.6027 0.7871
vn 0.1715 -0.7963 0.5801
vn 0.2946 -0.8862 -0.3575
vn 0.3858 -0.8716 -0.3025
vn 0.2008 -0.9482 -0.2464
vn 0.2349 -0.7148 -0.6587
vn 0.1420 -0.6804 -0.7190
vn 0.0001 -0.6167 0.7872
vn -0.0875 -0.6088 0.7885
vn -0.1013 -0.8886 0.4473
vn 0.0001 -0.9540 0.2998
vn -0.1310 -0.6028 0.7871
vn -0.1713 -0.7964 0.5800
vn -0.0887 -0.9300 -0.3567
vn 0.0001 -0.9536 -0.3011
vn -0.2005 -0.9482 -0.2463
vn -0.0714 -0.7496 -0.6581
vn -0.1419 -0.6806 -0.7188
vn 0.4680 -0.4076 0.7841
vn 0.4037 -0.4675 0.7864
vn 0.5982 -0.6672 0.4438
vn 0.7128 -0.6366 0.2944
vn 0.3705 -0.4960 0.7853
vn 0.4846 -0.6567 0.5779
vn 0.6269 -0.6903 -0.3611
vn 0.7046 -0.6397 -0.3070
vn 0.5672 -0.7849 -0.2492
vn 0.5004 -0.5582 -0.6619
vn 0.4013 -0.5647 -0.7211
vn -0.4686 -0.4083 0.7834
vn -0.5212 -0.3379 0.7837
vn -0.7339 -0.5169 0.4408
vn -0.7127 -0.6368 0.2942
vn -0.5460 -0.3018 0.7815
vn -0.7139 -0.4024 0.5731
vn -0.7458 -0.5585 -0.3631
vn -0.7046 -0.6400 -0.3065
vn -0.8355 -0.4871 -0.2543
vn -0.5963 -0.4525 -0.6631
vn -0.5911 -0.3542 -0.7246
vn -0.5997 -0.1814 0.7794
vn -0.6188 -0.0954 0.7797
vn -0.8837 -0.1731 0.4348
vn -0.9121 -0.2915 0.2882
vn -0.6263 -0.0518 0.7779
vn -0.8197 -0.0762 0.5677
vn -0.9059 -0.2075 -0.3693
vn -0.9017 -0.2987 -0.3125
vn -0.9596 -0.1055 -0.2610
vn -0.7240 -0.1719 -0.6681
vn -0.6792 -0.0842 -0.7292
vn -0.2564 -0.5623 0.7862
vn -0.3332 -0.5195 0.7869
vn -0.4571 -0.7700 0.4452
vn -0.3900 -0.8712 0.2983
vn -0.3705 -0.4964 0.7850
vn -0.4845 -0.6571 0.5775
vn -0.4568 -0.8141 -0.3586
vn -0.3855 -0.8717 -0.3024
vn -0.5670 -0.7852 -0.2491
vn -0.3654 -0.6569 -0.6595
vn -0.4014 -0.5652 -0.7207
vn 0.5990 -0.1809 0.7800
vn 0.5643 -0.2616 0.7830
vn 0.8210 -0.3656 0.4386
vn 0.9121 -0.2912 0.2885
vn 0.5455 -0.3012 0.7821
vn 0.7137 -0.4019 0.5737
vn 0.8509 -0.3762 -0.3668
vn 0.9017 -0.2982 -0.3131
vn 0.8356 -0.4868 -0.2546
vn 0.6792 -0.3073 -0.6665
vn 0.5908 -0.3537 -0.7252
vn -0.3277 0.0277 0.9444
vn -0.3181 0.0957 0.9432
vn 0.3772 -0.0501 0.9248
vn 0.3827 0.0298 0.9234
vn -0.2946 0.1602 0.9421
vn 0.3551 -0.1272 0.9261
vn -0.2583 0.2183 0.9411
vn 0.3175 -0.1979 0.9274
vn -0.2107 0.2676 0.9402
vn 0.2661 -0.2592 0.9284
vn -0.1539 0.3059 0.9396
vn 0.2030 -0.3085 0.9293
vn -0.0903 0.3315 0.9391
vn 0.1311 -0.3436 0.9299
vn -0.0229 0.3434 0.9389
vn 0.0534 -0.3630 0.9303
vn 0.0456 0.3410 0.9389
vn -0.0266 -0.3658 0.9303
vn 0.1122 0.3244 0.9392
vn -0.1055 -0.3520 0.9301
vn 0.1739 0.2944 0.9397
vn -0.1798 -0.3220 0.9295
vn 0.2278 0.2522 0.9405
vn -0.2462 -0.2773 0.9287
vn 0.2718 0.1998 0.9414
vn -0.3018 -0.2197 0.9277
vn 0.3040 0.1393 0.9424
vn -0.3442 -0.1518 0.9265
vn 0.3230 0.0732 0.9436
vn -0.3717 -0.0765 0.9252
vn 0.3277 0.0048 0.9448
vn -0.3829 0.0030 0.9238
vn 0.3182 -0.0630 0.9459
vn -0.3773 0.0827 0.9224
vn 0.2948 -0.1273 0.9471
vn -0.3553 0.1596 0.9210
vn 0.2585 -0.1854 0.9481
vn -0.3177 0.2303 0.9198
vn 0.2108 -0.2348 0.9489
vn -0.2662 0.2916 0.9187
vn 0.1540 -0.2731 0.9496
vn -0.2031 0.3410 0.9179
vn 0.0904 -0.2988 0.9500
vn -0.1311 0.3761 0.9173
vn 0.0228 -0.3107 0.9502
vn -0.0534 0.3955 0.9169
vn -0.0456 -0.3083 0.9502
vn 0.0267 0.3983 0.9169
vn -0.1121 -0.2917 0.9499
vn 0.1055 0.3844 0.9171
vn -0.1737 -0.2617 0.9494
vn 0.1798 0.3544 0.9176
vn -0.2278 -0.2194 0.9487
vn 0.2462 0.3096 0.9185
vn -0.2719 -0.1668 0.9478
vn 0.3018 0.2520 0.9195
vn -0.3040 -0.1063 0.9467
vn 0.3443 0.1841 0.9207
vn -0.3229 -0.0406 0.9456
vn 0.3716 0.1089 0.9220
vn -0.0647 -0.2222 0.9729
vn 0.0008 -0.0744 0.9972
vn -0.0674 0.1554 0.9856
vn 0.0267 0.1686 0.9853
vn -0.1497 0.8407 0.5204
vn 0.3677 0.7699 0.5216
vn -0.1190 0.8592 0.4975
vn 0.4036 0.7668 0.4992
vn 0.2647 0.4350 0.8607
vn -0.0327 0.5104 0.8593
vn 0.0426 -0.0924 0.9948
vn 0.1471 -0.1842 0.9718
vn -0.1358 0.0894 0.9867
vn -0.6098 0.5940 0.5247
vn -0.5961 0.6269 0.5016
vn -0.3175 0.3966 0.8613
vn 0.2074 -0.1185 0.9710
vn 0.2372 -0.0593 0.9696
vn -0.1522 -0.0042 0.9883
vn -0.8371 0.1239 0.5329
vn -0.8456 0.1586 0.5098
vn -0.4812 0.1371 0.8658
vn 0.2474 0.0292 0.9685
vn 0.2367 0.0947 0.9670
vn -0.1106 -0.0896 0.9898
vn -0.7445 -0.3899 0.5419
vn -0.7720 -0.3670 0.5190
vn -0.4610 -0.1689 0.8712
vn 0.1929 0.1723 0.9660
vn 0.1458 0.2189 0.9648
vn -0.0267 -0.1341 0.9906
vn -0.3676 -0.7512 0.5482
vn -0.4036 -0.7489 0.5256
vn -0.2647 -0.4047 0.8753
vn 0.0647 0.2560 0.9645
vn -0.0008 0.2660 0.9640
vn 0.0674 -0.1209 0.9904
vn 0.1497 -0.8220 0.5494
vn 0.1190 -0.8413 0.5273
vn 0.0327 -0.4801 0.8766
vn -0.0882 0.2484 0.9646
vn -0.1471 0.2180 0.9648
vn 0.1358 -0.0549 0.9892
vn 0.6098 -0.5753 0.5451
vn 0.5961 -0.6090 0.5232
vn 0.3175 -0.3663 0.8746
vn -0.2074 0.1523 0.9663
vn -0.2372 0.0931 0.9670
vn 0.1522 0.0387 0.9876
vn 0.8371 -0.1052 0.5369
vn 0.8456 -0.1407 0.5150
vn 0.4811 -0.1069 0.8701
vn -0.2474 0.0046 0.9689
vn -0.2367 -0.0608 0.9697
vn 0.1106 0.1240 0.9861
vn 0.7445 0.4086 0.5280
vn 0.7720 0.3848 0.5058
vn 0.4609 0.1992 0.8648
vn -0.1929 -0.1385 0.9714
vn -0.1458 -0.1851 0.9718
vn 0.0627 0.1823 0.9812
vn 0.0086 0.1936 0.9810
vn 0.0049 0.0307 0.9995
vn -0.0464 0.1876 0.9811
vn -0.0968 0.1649 0.9815
vn -0.0079 0.0293 0.9995
vn -0.1378 0.1278 0.9822
vn -0.0110 0.0265 0.9996
vn -0.1652 0.0798 0.9830
vn -0.0133 0.0225 0.9997
vn -0.1765 0.0257 0.9840
vn -0.0143 0.0182 0.9997
vn -0.1705 -0.0292 0.9849
vn -0.0137 0.0136 0.9998
vn -0.1478 -0.0796 0.9858
vn -0.0119 0.0095 0.9999
vn -0.1106 -0.1205 0.9865
vn -0.0090 0.0064 0.9999
vn -0.0627 -0.1480 0.9870
vn -0.0051 0.0041 1.0000
vn -0.0085 -0.1593 0.9872
vn -0.0009 0.0032 1.0000
vn 0.0464 -0.1533 0.9871
vn 0.0037 0.0037 1.0000
vn 0.0968 -0.1306 0.9867
vn 0.0079 0.0056 1.0000
vn 0.1377 -0.0934 0.9861
vn 0.0111 0.0084 0.9999
vn 0.1652 -0.0455 0.9852
vn 0.0133 0.0123 0.9998
vn 0.1765 0.0086 0.9843
vn 0.0142 0.0170 0.9998
vn 0.1705 0.0636 0.9833
vn 0.0138 0.0212 0.9997
vn 0.1478 0.1140 0.9824
vn 0.0120 0.0253 0.9996
vn 0.1106 0.1549 0.9817
vn 0.0090 0.0285 0.9996
vn -0.0075 0.4097 0.9122
vn -0.1303 0.3979 0.9081
vn -0.0693 0.4520 0.8893
vn -0.0692 0.4518 0.8894
vn -0.1352 0.4316 0.8919
vn -0.0000 0.4532 0.8914
vn -0.0692 0.4521 0.8893
vn 0.1191 0.4016 0.9080
vn 0.0692 0.4521 0.8893
vn 0.1352 0.4316 0.8919
vn 0.0692 0.4519 0.8894
vn 0.0692 0.4520 0.8893
vn 0.2253 0.3390 0.9134
vn 0.2006 0.4094 0.8900
vn 0.2005 0.4092 0.8901
vn 0.2573 0.3693 0.8930
vn 0.2006 0.4092 0.8901
vn 0.3230 0.2579 0.9106
vn 0.3122 0.3281 0.8915
vn 0.3539 0.2728 0.8946
vn 0.3126 0.3283 0.8914
vn 0.3122 0.3281 0.8916
vn 0.3722 0.1449 0.9168
vn 0.3937 0.2163 0.8934
vn 0.3937 0.2162 0.8935
vn 0.4160 0.1508 0.8968
vn 0.3935 0.2162 0.8935
vn 0.4036 0.0219 0.9147
vn 0.4363 0.0847 0.8958
vn 0.4374 0.0157 0.8991
vn 0.4364 0.0848 0.8958
vn 0.4364 0.0848 0.8957
vn 0.3769 -0.0984 0.9210
vn 0.4363 -0.0536 0.8982
vn 0.4362 -0.0534 0.8983
vn 0.4157 -0.1195 0.9016
vn 0.4364 -0.0535 0.8982
vn 0.3300 -0.2164 0.9188
vn 0.3936 -0.1850 0.9005
vn 0.3539 -0.2414 0.9036
vn 0.3935 -0.1850 0.9005
vn 0.3936 -0.1849 0.9005
vn 0.2376 -0.2980 0.9245
vn 0.3124 -0.2966 0.9025
vn 0.3124 -0.2965 0.9025
vn 0.2572 -0.3382 0.9053
vn 0.3126 -0.2969 0.9023
vn 0.1303 -0.3660 0.9214
vn 0.2007 -0.3781 0.9038
vn 0.1353 -0.4003 0.9064
vn 0.2006 -0.3780 0.9038
vn 0.2006 -0.3779 0.9038
vn 0.0076 -0.3777 0.9259
vn 0.0692 -0.4205 0.9046
vn 0.0690 -0.4206 0.9046
vn -0.0000 -0.4217 0.9067
vn 0.0691 -0.4207 0.9046
vn -0.1191 -0.3696 0.9215
vn -0.0691 -0.4207 0.9046
vn -0.1353 -0.4003 0.9063
vn -0.0692 -0.4207 0.9045
vn -0.0692 -0.4205 0.9046
vn -0.2253 -0.3069 0.9247
vn -0.2006 -0.3779 0.9038
vn -0.2571 -0.3381 0.9053
vn -0.2007 -0.3781 0.9038
vn -0.3230 -0.2260 0.9190
vn -0.3127 -0.2970 0.9023
vn -0.3539 -0.2414 0.9036
vn -0.3124 -0.2965 0.9025
vn -0.3124 -0.2967 0.9024
vn -0.3722 -0.1128 0.9213
vn -0.3936 -0.1850 0.9005
vn -0.3935 -0.1851 0.9005
vn -0.4161 -0.1196 0.9014
vn -0.3937 -0.1849 0.9005
vn -0.4036 0.0101 0.9149
vn -0.4364 -0.0536 0.8981
vn -0.4375 0.0157 0.8991
vn -0.4364 -0.0534 0.8982
vn -0.4364 -0.0535 0.8981
vn -0.3769 0.1305 0.9170
vn -0.4365 0.0848 0.8957
vn -0.4366 0.0848 0.8956
vn -0.4157 0.1508 0.8969
vn -0.4363 0.0848 0.8958
vn -0.3300 0.2484 0.9107
vn -0.3935 0.2162 0.8935
vn -0.3539 0.2729 0.8946
vn -0.3936 0.2164 0.8935
vn -0.3937 0.2164 0.8934
vn -0.2376 0.3301 0.9136
vn -0.3123 0.3281 0.8915
vn -0.3126 0.3283 0.8914
vn -0.2572 0.3693 0.8930
vn -0.3123 0.3282 0.8915
vn -0.2006 0.4092 0.8901
vn -0.2006 0.4093 0.8901
vn -0.2006 0.4094 0.8900
vn 0.0285 0.1511 0.9881
vn 0.0671 0.4023 0.9130
vn -0.0456 -0.4936 0.8685
vn -0.1217 -0.5582 0.8207
vn -0.0146 0.4068 0.9134
vn 0.0612 -0.4920 0.8684
vn -0.1289 0.6198 0.7741
vn 0.0907 -0.4112 0.9070
vn -0.1924 -0.8986 0.3943
vn -0.0966 -0.9120 0.3986
vn -0.1291 -0.9109 0.3920
vn -0.1928 -0.9003 0.3902
vn 0.0965 -0.9120 0.3987
vn 0.0645 -0.9177 0.3921
vn 0.1921 -0.8969 0.3984
vn 0.1927 -0.9003 0.3902
vn -0.0832 -0.8171 0.5704
vn -0.1801 -0.8385 0.5143
vn 0.0906 -0.8163 0.5704
vn 0.1654 -0.7673 0.6196
vn -0.0285 -0.1170 0.9927
vn -0.0673 -0.3717 0.9259
vn 0.0456 0.5236 0.8507
vn 0.1217 0.5865 0.8008
vn 0.0149 -0.3783 0.9256
vn -0.0611 0.5220 0.8508
vn 0.1302 -0.5985 0.7904
vn -0.0908 0.4426 0.8921
vn 0.1924 0.9118 0.3627
vn 0.0966 0.9255 0.3662
vn 0.1290 0.9240 0.3599
vn 0.1927 0.9134 0.3586
vn -0.0966 0.9255 0.3663
vn -0.0645 0.9308 0.3598
vn -0.1921 0.9102 0.3668
vn -0.1928 0.9134 0.3586
vn 0.0832 0.8365 0.5416
vn 0.1801 0.8559 0.4848
vn -0.0906 0.8358 0.5416
vn -0.1654 0.7885 0.5924
vn -0.1008 -0.0735 0.9922
vn -0.2803 -0.2560 0.9251
vn 0.3359 0.3997 0.8529
vn 0.4349 0.4057 0.8039
vn -0.2181 -0.3091 0.9257
vn 0.2486 0.4611 0.8518
vn -0.2539 -0.5561 0.7913
vn 0.1775 0.4144 0.8926
vn 0.6878 0.6258 0.3677
vn 0.6182 0.6932 0.3705
vn 0.6437 0.6730 0.3643
vn 0.6891 0.6269 0.3635
vn 0.4619 0.8069 0.3683
vn 0.4911 0.7922 0.3622
vn 0.3758 0.8505 0.3679
vn 0.3771 0.8535 0.3596
vn 0.5533 0.6297 0.5452
vn 0.6438 0.5883 0.4894
vn 0.4123 0.7312 0.5434
vn 0.3235 0.7371 0.5933
vn -0.1362 0.0030 0.9907
vn -0.3861 -0.0390 0.9216
vn 0.4979 0.1288 0.8576
vn 0.5820 0.0753 0.8097
vn -0.3652 -0.1179 0.9234
vn 0.4634 0.2298 0.8558
vn -0.5356 -0.2955 0.7911
vn 0.3780 0.2339 0.8958
vn 0.9205 0.1033 0.3768
vn 0.9037 0.1988 0.3791
vn 0.9126 0.1674 0.3731
vn 0.9221 0.1036 0.3727
vn 0.8441 0.3825 0.3758
vn 0.8592 0.3536 0.3699
vn 0.8001 0.4686 0.3745
vn 0.8030 0.4701 0.3663
vn 0.8122 0.1861 0.5529
vn 0.8615 0.0992 0.4979
vn 0.7577 0.3511 0.5501
vn 0.6888 0.4082 0.5991
vn -0.1166 0.0846 0.9896
vn -0.3430 0.1974 0.9183
vn 0.4697 -0.1855 0.8631
vn 0.5068 -0.2784 0.8158
vn -0.3732 0.1221 0.9197
vn 0.5012 -0.0835 0.8613
vn -0.6103 0.0782 0.7883
vn 0.4341 -0.0299 0.9004
vn 0.8016 -0.4561 0.3866
vn 0.8440 -0.3690 0.3893
vn 0.8328 -0.3997 0.3831
vn 0.8030 -0.4570 0.3825
vn 0.9038 -0.1853 0.3858
vn 0.8991 -0.2177 0.3799
vn 0.9188 -0.0899 0.3843
vn 0.9222 -0.0905 0.3761
vn 0.7607 -0.3249 0.5619
vn 0.7502 -0.4243 0.5071
vn 0.8137 -0.1594 0.5590
vn 0.7910 -0.0726 0.6074
vn -0.0551 0.1409 0.9885
vn -0.1716 0.3656 0.9148
vn 0.2621 -0.4233 0.8673
vn 0.2380 -0.5204 0.8201
vn -0.2401 0.3218 0.9159
vn 0.3475 -0.3592 0.8661
vn -0.4586 0.4266 0.7796
vn 0.3244 -0.2763 0.9047
vn 0.3765 -0.8388 0.3932
vn 0.4620 -0.7933 0.3965
vn 0.4349 -0.8115 0.3902
vn 0.3770 -0.8405 0.3891
vn 0.6184 -0.6798 0.3943
vn 0.5955 -0.7032 0.3883
vn 0.6866 -0.6114 0.3934
vn 0.6892 -0.6137 0.3852
vn 0.4188 -0.7081 0.5686
vn 0.3523 -0.7825 0.5134
vn 0.5589 -0.6053 0.5668
vn 0.5911 -0.5216 0.6153
vn 0.1028 0.1098 0.9886
vn 0.2834 0.2912 0.9137
vn -0.3359 -0.3697 0.8663
vn -0.4349 -0.3774 0.8176
vn 0.2195 0.3433 0.9132
vn -0.2486 -0.4311 0.8674
vn 0.2527 0.5817 0.7732
vn -0.1775 -0.3830 0.9065
vn -0.6878 -0.6126 0.3894
vn -0.6183 -0.6799 0.3942
vn -0.6438 -0.6598 0.3876
vn -0.6891 -0.6138 0.3852
vn -0.4620 -0.7934 0.3965
vn -0.4911 -0.7791 0.3897
vn -0.3758 -0.8372 0.3974
vn -0.3771 -0.8405 0.3891
vn -0.5534 -0.6103 0.5668
vn -0.6438 -0.5708 0.5096
vn -0.4123 -0.7118 0.5686
vn -0.3235 -0.7159 0.6187
vn 0.1364 0.0316 0.9902
vn 0.3917 0.0724 0.9172
vn -0.4979 -0.0988 0.8616
vn -0.5820 -0.0470 0.8118
vn 0.3724 0.1528 0.9154
vn -0.4634 -0.1998 0.8634
vn 0.5431 0.3272 0.7733
vn -0.3780 -0.2025 0.9034
vn -0.9205 -0.0901 0.3802
vn -0.9038 -0.1855 0.3858
vn -0.9126 -0.1542 0.3788
vn -0.9222 -0.0902 0.3761
vn -0.8440 -0.3691 0.3892
vn -0.8592 -0.3404 0.3820
vn -0.8001 -0.4552 0.3907
vn -0.8030 -0.4570 0.3824
vn -0.8122 -0.1667 0.5591
vn -0.8615 -0.0818 0.5011
vn -0.7577 -0.3317 0.5620
vn -0.6888 -0.3871 0.6129
vn 0.1209 -0.0525 0.9913
vn 0.3517 -0.1696 0.9206
vn -0.4697 0.2156 0.8561
vn -0.5068 0.3067 0.8056
vn 0.3827 -0.0925 0.9192
vn -0.5012 0.1135 0.8579
vn 0.6286 -0.0522 0.7760
vn -0.4341 0.0613 0.8988
vn -0.8016 0.4693 0.3705
vn -0.8439 0.3824 0.3762
vn -0.8328 0.4128 0.3689
vn -0.8031 0.4701 0.3662
vn -0.9038 0.1987 0.3790
vn -0.8991 0.2308 0.3720
vn -0.9188 0.1032 0.3809
vn -0.9222 0.1033 0.3727
vn -0.7608 0.3443 0.5502
vn -0.7502 0.4418 0.4920
vn -0.8137 0.1788 0.5531
vn -0.7910 0.0937 0.6046
vn 0.0564 -0.1094 0.9924
vn 0.1748 -0.3397 0.9242
vn -0.2621 0.4533 0.8519
vn -0.2380 0.5487 0.8014
vn 0.2453 -0.2960 0.9231
vn -0.3475 0.3892 0.8531
vn 0.4672 -0.4070 0.7849
vn -0.3244 0.3077 0.8945
vn -0.3765 0.8520 0.3638
vn -0.4620 0.8068 0.3683
vn -0.4349 0.8246 0.3617
vn -0.3774 0.8534 0.3595
vn -0.6185 0.6932 0.3700
vn -0.5956 0.7163 0.3636
vn -0.6866 0.6248 0.3718
vn -0.6890 0.6270 0.3635
vn -0.4188 0.7275 0.5435
vn -0.3523 0.7999 0.4857
vn -0.5589 0.6248 0.5453
vn -0.5911 0.5427 0.5967
vn 0.2443 0.8606 0.4468
vn 0.0617 0.8918 0.4482
vn 0.4167 0.7920 0.4462
vn 0.5718 0.6898 0.4440
vn 0.7012 0.5558 0.4465
vn 0.8006 0.3984 0.4477
vn 0.8648 0.2238 0.4495
vn 0.8912 0.0393 0.4519
vn 0.8799 -0.1469 0.4519
vn 0.8271 -0.3261 0.4578
vn 0.7394 -0.4906 0.4610
vn 0.6193 -0.6331 0.4643
vn 0.7394 -0.4907 0.4610
vn 0.4722 -0.7474 0.4675
vn 0.3046 -0.8283 0.4703
vn 0.1239 -0.8724 0.4728
vn 0.3045 -0.8283 0.4703
vn -0.0618 -0.8779 0.4748
vn -0.2445 -0.8446 0.4762
vn -0.4160 -0.7742 0.4770
vn -0.2446 -0.8446 0.4762
vn -0.5684 -0.6691 0.4788
vn -0.6967 -0.5363 0.4764
vn -0.7940 -0.3791 0.4752
vn -0.6968 -0.5362 0.4764
vn -0.8566 -0.2052 0.4733
vn -0.8819 -0.0225 0.4709
vn -0.8672 0.1615 0.4710
vn -0.8819 -0.0225 0.4710
vn -0.8179 0.3385 0.4652
vn -0.7316 0.5014 0.4619
vn -0.6133 0.6430 0.4587
vn -0.7315 0.5015 0.4619
vn -0.4682 0.7571 0.4556
vn -0.3024 0.8388 0.4527
vn -0.1232 0.8844 0.4502
vt 0.341800 0.488280
vt 0.339840 0.488280
vt 0.339840 0.486330
vt 0.337890 0.488280
vt 0.000000 0.000000
vt 1.000000 0.000000
vt 0.000000 1.000000
vt 1.000000 1.000000
vt 0.562500 0.605470
vt 0.562500 0.398440
vt 0.437500 0.605470
vt 0.437500 0.398440
vt 0.931640 0.949220
vt 0.876950 0.962890
vt 0.914060 0.832030
vt 0.875000 0.835940
vt 0.978520 0.916020
vt 0.953130 0.820310
vt 0.937500 0.988280
vt 0.876950 0.998050
vt 0.990230 0.949220
vt 0.953130 0.810550
vt 0.992190 0.923830
vt 0.914060 0.822270
vt 0.875000 0.826170
vt 0.818360 0.941410
vt 0.832030 0.826170
vt 0.769530 0.902340
vt 0.791020 0.808590
vt 0.814450 0.980470
vt 0.759770 0.933590
vt 0.791020 0.798830
vt 0.757810 0.906250
vt 0.832030 0.816410
vt 0.912110 0.564450
vt 0.916020 0.478520
vt 0.943360 0.476560
vt 0.939450 0.570310
vt 0.902340 0.390630
vt 0.929690 0.382810
vt 0.871090 0.308590
vt 0.896480 0.296880
vt 0.824220 0.236330
vt 0.845700 0.218750
vt 0.763670 0.173830
vt 0.779300 0.152340
vt 0.689450 0.125000
vt 0.703130 0.101560
vt 0.607420 0.093750
vt 0.615230 0.068360
vt 0.521480 0.080080
vt 0.523440 0.052730
vt 0.435550 0.085940
vt 0.431640 0.058590
vt 0.351560 0.107420
vt 0.339840 0.082030
vt 0.273440 0.148440
vt 0.257810 0.125000
vt 0.205080 0.203130
vt 0.185550 0.183590
vt 0.150390 0.271480
vt 0.126950 0.255860
vt 0.111330 0.349610
vt 0.083980 0.339840
vt 0.087890 0.435550
vt 0.060550 0.429690
vt 0.083980 0.521480
vt 0.054690 0.523440
vt 0.097660 0.609380
vt 0.070310 0.615230
vt 0.126950 0.691410
vt 0.103520 0.703130
vt 0.175780 0.763670
vt 0.154300 0.781250
vt 0.236330 0.826170
vt 0.218750 0.847660
vt 0.310550 0.873050
vt 0.296880 0.898440
vt 0.390630 0.906250
vt 0.384770 0.931640
vt 0.478520 0.917970
vt 0.476560 0.947270
vt 0.564450 0.914060
vt 0.568360 0.941410
vt 0.648440 0.890630
vt 0.658200 0.917970
vt 0.726560 0.851560
vt 0.742190 0.875000
vt 0.794920 0.796880
vt 0.814450 0.816410
vt 0.849610 0.728520
vt 0.873050 0.742190
vt 0.888670 0.650390
vt 0.916020 0.660160
vt 0.035160 0.625000
vt 0.025390 0.423830
vt 0.113280 0.437500
vt 0.123050 0.601560
vt 0.095700 0.236330
vt 0.171880 0.285160
vt 0.238280 0.093750
vt 0.287110 0.169920
vt 0.423830 0.021480
vt 0.437500 0.111330
vt 0.625000 0.033200
vt 0.601560 0.121090
vt 0.802730 0.125000
vt 0.746090 0.195310
vt 0.927730 0.281250
vt 0.847660 0.322270
vt 0.980470 0.474610
vt 0.890630 0.480470
vt 0.949220 0.673830
vt 0.865230 0.640630
vt 0.839840 0.841800
vt 0.777340 0.777340
vt 0.671880 0.951170
vt 0.640630 0.867190
vt 0.474610 0.982420
vt 0.480470 0.892580
vt 0.281250 0.929690
vt 0.322270 0.849610
vt 0.126950 0.804690
vt 0.195310 0.748050
vt 0.986330 0.003910
vt 0.984380 0.003910
vt 0.988280 0.003910
vt 0.986330 0.007810
vt 0.988280 0.007810
vt 0.984380 0.007810
vt 0.982420 0.007810
vt 0.982420 0.003910
vt 0.990230 0.007810
vt 0.990230 0.003910
vt 0.753910 0.500000
vt 0.753910 0.583980
vt 0.701170 0.583980
vt 0.701170 0.500000
vt 0.753910 0.667970
vt 0.701170 0.667970
vt 0.298830 0.583980
vt 0.298830 0.500000
vt 0.298830 0.667970
vt 0.246090 0.509770
vt 0.246090 0.667970
vt 0.884770 0.560550
vt 0.888670 0.478520
vt 0.970700 0.474610
vt 0.966800 0.574220
vt 0.876950 0.398440
vt 0.957030 0.376950
vt 0.921880 0.283200
vt 0.802730 0.253910
vt 0.867190 0.201170
vt 0.796880 0.130860
vt 0.677730 0.150390
vt 0.714840 0.076170
vt 0.623050 0.041020
vt 0.521480 0.109380
vt 0.525390 0.025390
vt 0.439450 0.113280
vt 0.425780 0.031250
vt 0.361330 0.134770
vt 0.330080 0.056640
vt 0.287110 0.171880
vt 0.242190 0.101560
vt 0.224610 0.222660
vt 0.166020 0.164060
vt 0.173830 0.287110
vt 0.103520 0.242190
vt 0.136720 0.359380
vt 0.058590 0.330080
vt 0.115230 0.439450
vt 0.033200 0.425780
vt 0.111330 0.521480
vt 0.027340 0.525390
vt 0.042970 0.623050
vt 0.152340 0.677730
vt 0.078130 0.714840
vt 0.197270 0.746090
vt 0.132810 0.798830
vt 0.253910 0.804690
vt 0.203130 0.869140
vt 0.285160 0.923830
vt 0.398440 0.878910
vt 0.376950 0.958980
vt 0.478520 0.890630
vt 0.474610 0.974610
vt 0.560550 0.886720
vt 0.574220 0.968750
vt 0.638670 0.865230
vt 0.667970 0.943360
vt 0.712890 0.828130
vt 0.755860 0.898440
vt 0.775390 0.777340
vt 0.833980 0.835940
vt 0.826170 0.712890
vt 0.896480 0.757810
vt 0.863280 0.640630
vt 0.941410 0.669920
vt 0.568360 0.718750
vt 0.500000 0.730470
vt 0.482420 0.611330
vt 0.548830 0.601560
vt 0.484380 0.595700
vt 0.542970 0.587890
vt 0.488280 0.572270
vt 0.531250 0.566410
vt 0.523440 0.550780
vt 0.490230 0.556640
vt 0.500000 0.501950
vt 0.429690 0.718750
vt 0.365230 0.685550
vt 0.421880 0.580080
vt 0.431640 0.570310
vt 0.449220 0.552730
vt 0.460940 0.541020
vt 0.314450 0.636720
vt 0.283200 0.572270
vt 0.390630 0.519530
vt 0.406250 0.517580
vt 0.429690 0.513670
vt 0.445310 0.511720
vt 0.271480 0.501950
vt 0.283200 0.431640
vt 0.400390 0.453130
vt 0.414060 0.458980
vt 0.435550 0.470700
vt 0.451170 0.478520
vt 0.314450 0.369140
vt 0.365230 0.318360
vt 0.449220 0.404300
vt 0.457030 0.417970
vt 0.466800 0.439450
vt 0.474610 0.453130
vt 0.429690 0.287110
vt 0.500000 0.275390
vt 0.515630 0.394530
vt 0.513670 0.408200
vt 0.509770 0.433590
vt 0.507810 0.449220
vt 0.570310 0.287110
vt 0.632810 0.318360
vt 0.576170 0.423830
vt 0.566410 0.435550
vt 0.548830 0.453130
vt 0.537110 0.464840
vt 0.683590 0.369140
vt 0.714840 0.431640
vt 0.607420 0.486330
vt 0.593750 0.488280
vt 0.568360 0.492190
vt 0.552730 0.494140
vt 0.726560 0.501950
vt 0.714840 0.572270
vt 0.597660 0.552730
vt 0.583980 0.544920
vt 0.562500 0.535160
vt 0.546880 0.527340
vt 0.683590 0.636720
vt 0.632810 0.687500
vt 0.417970 0.753910
vt 0.500000 0.765630
vt 0.500000 0.798830
vt 0.408200 0.783200
vt 0.449220 0.849610
vt 0.439450 0.884770
vt 0.378910 0.875000
vt 0.500000 0.818360
vt 0.472660 0.828130
vt 0.341800 0.050780
vt 0.445310 0.029300
vt 0.451170 0.076170
vt 0.357420 0.095700
vt 0.552730 0.029300
vt 0.546880 0.076170
vt 0.656250 0.050780
vt 0.642580 0.095700
vt 0.361330 0.111330
vt 0.453130 0.091800
vt 0.460940 0.171880
vt 0.386720 0.187500
vt 0.544920 0.091800
vt 0.537110 0.171880
vt 0.636720 0.111330
vt 0.613280 0.187500
vt 0.451170 0.085940
vt 0.359380 0.105470
vt 0.546880 0.085940
vt 0.638670 0.105470
vt 0.492190 0.011720
vt 0.492190 0.009770
s 1
g off
f 3/1/1 1/1/2 2/1/3
f 4/1/4 2/1/3 1/1/2
f 2/1/3 4/1/4 5/1/5
f 6/2/6 5/1/5 4/1/4
f 5/1/5 6/2/6 7/3/7
f 8/2/8 7/3/7 6/2/6
f 7/3/7 8/2/8 9/3/9
f 10/2/10 9/3/9 8/2/8
f 9/3/9 10/2/10 11/3/11
f 12/2/12 11/3/11 10/2/10
f 11/3/11 12/2/12 13/3/13
f 14/4/14 13/3/13 12/2/12
f 13/3/13 14/4/14 15/3/15
f 16/4/16 15/3/15 14/4/14
f 15/3/15 16/4/16 17/3/17
f 18/3/18 17/3/17 16/4/16
f 17/3/17 18/3/18 19/3/19
f 20/3/20 19/3/19 18/3/18
f 19/3/19 20/3/20 21/3/21
f 22/3/22 21/3/21 20/3/20
f 21/3/21 22/3/22 23/3/23
f 24/1/24 23/3/23 22/3/22
f 23/3/23 24/1/24 3/1/1
f 1/1/2 3/1/1 24/1/24
f 27/5/25 25/6/25 26/7/25
f 28/8/25 26/7/25 25/6/25
f 31/9/26 29/10/26 30/11/26
f 32/12/26 30/11/26 29/10/26
f 35/9/27 33/10/27 34/11/27
f 36/12/27 34/11/27 33/10/27
f 39/9/28 37/10/29 38/11/30
f 40/12/28 38/11/30 37/10/29
f 43/9/31 41/10/32 42/11/33
f 44/12/33 42/11/33 41/10/32
f 47/9/34 45/10/35 46/11/36
f 48/12/37 46/11/36 45/10/35
f 51/9/38 49/10/38 50/11/38
f 52/12/38 50/11/38 49/10/38
f 55/9/39 53/10/39 54/11/39
f 56/12/39 54/11/39 53/10/39
f 59/9/40 57/10/40 58/11/40
f 60/12/40 58/11/40 57/10/40
f 63/9/41 61/10/41 62/11/41
f 64/12/41 62/11/41 61/10/41
f 67/9/42 65/10/42 66/11/42
f 68/12/42 66/11/42 65/10/42
f 71/9/43 69/10/43 70/11/43
f 72/12/43 70/11/43 69/10/43
f 75/9/44 73/10/44 74/11/44
f 76/12/44 74/11/44 73/10/44
f 79/9/45 77/10/45 78/11/45
f 80/12/45 78/11/45 77/10/45
f 83/9/46 81/10/46 82/11/46
f 84/12/46 82/11/46 81/10/46
f 87/9/47 85/10/48 86/11/48
f 88/12/48 86/11/48 85/10/48
f 91/9/49 89/10/50 90/11/50
f 92/12/50 90/11/50 89/10/50
f 95/9/51 93/10/51 94/11/51
f 96/12/51 94/11/51 93/10/51
f 99/9/52 97/10/52 98/11/52
f 100/12/52 98/11/52 97/10/52
f 103/13/53 101/14/54 102/15/55
f 104/16/56 102/15/55 101/14/54
f 106/17/57 103/13/53 105/18/58
f 102/15/55 105/18/58 103/13/53
f 109/19/59 107/20/60 108/19/61
f 110/20/62 108/19/61 107/20/60
f 112/21/63 109/19/59 111/21/64
f 108/19/61 111/21/64 109/19/59
f 105/18/58 113/22/65 114/23/66
f 115/23/67 114/23/66 113/22/65
f 116/24/68 113/22/65 102/15/55
f 105/18/58 102/15/55 113/22/65
f 117/25/69 116/24/68 104/16/56
f 102/15/55 104/16/56 116/24/68
f 108/19/61 110/20/62 103/13/53
f 101/14/54 103/13/53 110/20/62
f 111/21/64 108/19/61 106/17/57
f 103/13/53 106/17/57 108/19/61
f 115/23/67 112/21/63 114/23/66
f 111/21/64 114/23/66 112/21/63
f 105/18/58 114/23/66 106/17/57
f 111/21/64 106/17/57 114/23/66
f 101/14/54 118/26/70 104/16/56
f 119/27/71 104/16/56 118/26/70
f 118/26/70 120/28/72 119/27/71
f 121/29/73 119/27/71 120/28/72
f 107/20/60 122/30/74 110/20/62
f 123/30/75 110/20/62 122/30/74
f 122/30/74 124/31/76 123/30/75
f 125/31/77 123/30/75 124/31/76
f 127/32/78 121/29/73 126/33/79
f 128/33/80 126/33/79 121/29/73
f 127/32/78 129/34/81 121/29/73
f 119/27/71 121/29/73 129/34/81
f 129/34/81 117/25/69 119/27/71
f 104/16/56 119/27/71 117/25/69
f 110/20/62 123/30/75 101/14/54
f 118/26/70 101/14/54 123/30/75
f 123/30/75 125/31/77 118/26/70
f 120/28/72 118/26/70 125/31/77
f 126/33/79 128/33/80 124/31/76
f 125/31/77 124/31/76 128/33/80
f 125/31/77 128/33/80 120/28/72
f 121/29/73 120/28/72 128/33/80
f 130/35/82 132/36/83 131/37/84
f 131/37/84 133/38/85 130/35/82
f 132/36/83 135/39/86 134/40/87
f 134/40/87 131/37/84 132/36/83
f 135/39/86 137/41/88 136/42/89
f 136/42/89 134/40/87 135/39/86
f 137/41/88 139/43/90 138/44/91
f 138/44/91 136/42/89 137/41/88
f 139/43/90 141/45/92 140/46/93
f 140/46/93 138/44/91 139/43/90
f 141/45/92 143/47/94 142/48/95
f 142/48/95 140/46/93 141/45/92
f 143/47/94 145/49/96 144/50/97
f 144/50/97 142/48/95 143/47/94
f 145/49/96 147/51/98 146/52/99
f 146/52/99 144/50/97 145/49/96
f 147/51/98 149/53/100 148/54/101
f 148/54/101 146/52/99 147/51/98
f 149/53/100 151/55/102 150/56/103
f 150/56/103 148/54/101 149/53/100
f 151/55/102 153/57/104 152/58/105
f 152/58/105 150/56/103 151/55/102
f 153/57/104 155/59/106 154/60/107
f 154/60/107 152/58/105 153/57/104
f 155/59/106 157/61/108 156/62/109
f 156/62/109 154/60/107 155/59/106
f 157/61/108 159/63/110 158/64/111
f 158/64/111 156/62/109 157/61/108
f 159/63/110 161/65/112 160/66/113
f 160/66/113 158/64/111 159/63/110
f 161/65/112 163/67/114 162/68/115
f 162/68/115 160/66/113 161/65/112
f 163/67/114 165/69/116 164/70/117
f 164/70/117 162/68/115 163/67/114
f 165/69/116 167/71/118 166/72/119
f 166/72/119 164/70/117 165/69/116
f 167/71/118 169/73/120 168/74/121
f 168/74/121 166/72/119 167/71/118
f 169/73/120 171/75/122 170/76/123
f 170/76/123 168/74/121 169/73/120
f 171/75/122 173/77/124 172/78/125
f 172/78/125 170/76/123 171/75/122
f 173/77/124 175/79/126 174/80/127
f 174/80/127 172/78/125 173/77/124
f 175/79/126 177/81/128 176/82/129
f 176/82/129 174/80/127 175/79/126
f 177/81/128 179/83/130 178/84/131
f 178/84/131 176/82/129 177/81/128
f 179/83/130 181/85/132 180/86/133
f 180/86/133 178/84/131 179/83/130
f 181/85/132 183/87/134 182/88/135
f 182/88/135 180/86/133 181/85/132
f 183/87/134 185/89/136 184/90/137
f 184/90/137 182/88/135 183/87/134
f 185/89/136 187/91/138 186/92/139
f 186/92/139 184/90/137 185/89/136
f 187/91/138 189/93/140 188/94/141
f 188/94/141 186/92/139 187/91/138
f 189/93/140 130/35/82 133/38/85
f 133/38/85 188/94/141 189/93/140
f 190/95/142 192/96/143 191/97/144
f 191/97/144 193/98/145 190/95/142
f 192/96/143 195/99/146 194/100/147
f 194/100/147 191/97/144 192/96/143
f 195/99/146 197/101/148 196/102/149
f 196/102/149 194/100/147 195/99/146
f 197/101/148 199/103/150 198/104/151
f 198/104/151 196/102/149 197/101/148
f 199/103/150 201/105/152 200/106/153
f 200/106/153 198/104/151 199/103/150
f 201/105/152 203/107/154 202/108/155
f 202/108/155 200/106/153 201/105/152
f 203/107/154 205/109/156 204/110/157
f 204/110/157 202/108/155 203/107/154
f 205/109/156 207/111/158 206/112/159
f 206/112/159 204/110/157 205/109/156
f 207/111/158 209/113/160 208/114/161
f 208/114/161 206/112/159 207/111/158
f 209/113/160 211/115/162 210/116/163
f 210/116/163 208/114/161 209/113/160
f 211/115/162 213/117/164 212/118/165
f 212/118/165 210/116/163 211/115/162
f 213/117/164 215/119/166 214/120/167
f 214/120/167 212/118/165 213/117/164
f 215/119/166 217/121/168 216/122/169
f 216/122/169 214/120/167 215/119/166
f 217/121/168 219/123/170 218/124/171
f 218/124/171 216/122/169 217/121/168
f 219/123/170 190/95/142 193/98/145
f 193/98/145 218/124/171 219/123/170
f 220/125/172 222/126/173 221/126/174
f 220/125/172 221/126/174 223/125/175
f 220/125/172 223/125/175 224/127/176
f 225/128/177 226/129/178 224/127/176
f 224/127/176 223/125/175 225/128/177
f 227/130/179 225/128/177 223/125/175
f 223/125/175 221/126/174 227/130/179
f 228/130/180 227/130/179 221/126/174
f 221/126/174 222/126/173 228/130/180
f 229/131/181 228/130/180 222/126/173
f 222/126/173 230/132/181 229/131/181
f 226/129/178 232/133/182 231/134/183
f 231/134/183 224/127/176 226/129/178
f 233/135/184 235/136/185 234/137/186
f 234/137/186 236/138/187 233/135/184
f 235/136/185 238/139/188 237/140/189
f 237/140/189 234/137/186 235/136/185
f 236/138/187 234/137/186 239/141/190
f 239/141/190 240/142/191 236/138/187
f 234/137/186 237/140/189 241/143/192
f 241/143/192 239/141/190 234/137/186
f 242/144/193 240/142/191 239/141/190
f 239/141/190 241/143/192 243/145/194
f 243/145/194 242/144/193 239/141/190
f 244/135/195 246/136/196 245/137/197
f 245/137/197 247/138/198 244/135/195
f 246/136/196 249/139/199 248/140/200
f 248/140/200 245/137/197 246/136/196
f 247/138/198 245/137/197 250/141/201
f 250/141/201 251/142/202 247/138/198
f 245/137/197 248/140/200 252/143/203
f 252/143/203 250/141/201 245/137/197
f 253/144/204 251/142/202 250/141/201
f 250/141/201 252/143/203 254/145/205
f 254/145/205 253/144/204 250/141/201
f 255/135/206 257/136/207 256/137/208
f 256/137/208 258/138/209 255/135/206
f 257/136/207 260/139/210 259/140/211
f 259/140/211 256/137/208 257/136/207
f 258/138/209 256/137/208 261/141/212
f 261/141/212 262/142/213 258/138/209
f 256/137/208 259/140/211 263/143/214
f 263/143/214 261/141/212 256/137/208
f 264/144/215 262/142/213 261/141/212
f 261/141/212 263/143/214 265/145/216
f 265/145/216 264/144/215 261/141/212
f 266/135/217 268/136/218 267/137/219
f 267/137/219 269/138/220 266/135/217
f 268/136/218 271/139/221 270/140/222
f 270/140/222 267/137/219 268/136/218
f 269/138/220 267/137/219 272/141/223
f 272/141/223 273/142/224 269/138/220
f 267/137/219 270/140/222 274/143/225
f 274/143/225 272/141/223 267/137/219
f 275/144/226 273/142/224 272/141/223
f 272/141/223 274/143/225 276/145/227
f 276/145/227 275/144/226 272/141/223
f 277/135/228 279/136/229 278/137/230
f 278/137/230 280/138/231 277/135/228
f 279/136/229 282/139/232 281/140/233
f 281/140/233 278/137/230 279/136/229
f 280/138/231 278/137/230 283/141/234
f 283/141/234 284/142/235 280/138/231
f 278/137/230 281/140/233 285/143/236
f 285/143/236 283/141/234 278/137/230
f 286/144/237 284/142/235 283/141/234
f 283/141/234 285/143/236 287/145/238
f 287/145/238 286/144/237 283/141/234
f 288/135/239 290/136/240 289/137/241
f 289/137/241 291/138/242 288/135/239
f 290/136/240 293/139/243 292/140/244
f 292/140/244 289/137/241 290/136/240
f 291/138/242 289/137/241 294/141/245
f 294/141/245 295/142/246 291/138/242
f 289/137/241 292/140/244 296/143/247
f 296/143/247 294/141/245 289/137/241
f 297/144/248 295/142/246 294/141/245
f 294/141/245 296/143/247 298/145/249
f 298/145/249 297/144/248 294/141/245
f 299/135/250 301/136/251 300/137/252
f 300/137/252 302/138/253 299/135/250
f 301/136/251 304/139/254 303/140/255
f 303/140/255 300/137/252 301/136/251
f 302/138/253 300/137/252 305/141/256
f 305/141/256 306/142/257 302/138/253
f 300/137/252 303/140/255 307/143/258
f 307/143/258 305/141/256 300/137/252
f 308/144/259 306/142/257 305/141/256
f 305/141/256 307/143/258 309/145/260
f 309/145/260 308/144/259 305/141/256
f 310/135/261 312/136/262 311/137/263
f 311/137/263 313/138/264 310/135/261
f 312/136/262 315/139/265 314/140/266
f 314/140/266 311/137/263 312/136/262
f 313/138/264 311/137/263 316/141/267
f 316/141/267 317/142/268 313/138/264
f 311/137/263 314/140/266 318/143/269
f 318/143/269 316/141/267 311/137/263
f 319/144/270 317/142/268 316/141/267
f 316/141/267 318/143/269 320/145/271
f 320/145/271 319/144/270 316/141/267
f 321/135/272 323/136/273 322/137/274
f 322/137/274 324/138/275 321/135/272
f 323/136/273 326/139/276 325/140/277
f 325/140/277 322/137/274 323/136/273
f 324/138/275 322/137/274 327/141/278
f 327/141/278 328/142/279 324/138/275
f 322/137/274 325/140/277 329/143/280
f 329/143/280 327/141/278 322/137/274
f 330/144/281 328/142/279 327/141/278
f 327/141/278 329/143/280 331/145/282
f 331/145/282 330/144/281 327/141/278
f 332/135/283 334/136/284 333/137/285
f 333/137/285 335/138/286 332/135/283
f 334/136/284 337/139/287 336/140/288
f 336/140/288 333/137/285 334/136/284
f 335/138/286 333/137/285 338/141/289
f 338/141/289 339/142/290 335/138/286
f 333/137/285 336/140/288 340/143/291
f 340/143/291 338/141/289 333/137/285
f 341/144/292 339/142/290 338/141/289
f 338/141/289 340/143/291 342/145/293
f 342/145/293 341/144/292 338/141/289
f 343/135/294 345/136/295 344/137/296
f 344/137/296 346/138/297 343/135/294
f 345/136/295 348/139/298 347/140/299
f 347/140/299 344/137/296 345/136/295
f 346/138/297 344/137/296 349/141/300
f 349/141/300 350/142/301 346/138/297
f 344/137/296 347/140/299 351/143/302
f 351/143/302 349/141/300 344/137/296
f 352/144/303 350/142/301 349/141/300
f 349/141/300 351/143/302 353/145/304
f 353/145/304 352/144/303 349/141/300
f 354/135/305 356/136/306 355/137/307
f 355/137/307 357/138/308 354/135/305
f 356/136/306 359/139/309 358/140/310
f 358/140/310 355/137/307 356/136/306
f 357/138/308 355/137/307 360/141/311
f 360/141/311 361/142/312 357/138/308
f 355/137/307 358/140/310 362/143/313
f 362/143/313 360/141/311 355/137/307
f 363/144/314 361/142/312 360/141/311
f 360/141/311 362/143/313 364/145/315
f 364/145/315 363/144/314 360/141/311
f 365/135/316 367/136/317 366/137/318
f 366/137/318 368/138/319 365/135/316
f 367/136/317 370/139/320 369/140/321
f 369/140/321 366/137/318 367/136/317
f 368/138/319 366/137/318 371/141/322
f 371/141/322 372/142/323 368/138/319
f 366/137/318 369/140/321 373/143/324
f 373/143/324 371/141/322 366/137/318
f 374/144/325 372/142/323 371/141/322
f 371/141/322 373/143/324 375/145/326
f 375/145/326 374/144/325 371/141/322
f 376/135/327 378/136/328 377/137/329
f 377/137/329 379/138/330 376/135/327
f 378/136/328 381/139/331 380/140/332
f 380/140/332 377/137/329 378/136/328
f 379/138/330 377/137/329 382/141/333
f 382/141/333 383/142/334 379/138/330
f 377/137/329 380/140/332 384/143/335
f 384/143/335 382/141/333 377/137/329
f 385/144/336 383/142/334 382/141/333
f 382/141/333 384/143/335 386/145/337
f 386/145/337 385/144/336 382/141/333
f 387/135/338 389/136/339 388/137/340
f 388/137/340 390/138/341 387/135/338
f 389/136/339 392/139/342 391/140/343
f 391/140/343 388/137/340 389/136/339
f 390/138/341 388/137/340 393/141/344
f 393/141/344 394/142/345 390/138/341
f 388/137/340 391/140/343 395/143/346
f 395/143/346 393/141/344 388/137/340
f 396/144/347 394/142/345 393/141/344
f 393/141/344 395/143/346 397/145/348
f 397/145/348 396/144/347 393/141/344
f 398/146/349 399/147/350 132/36/83
f 132/36/83 130/35/82 398/146/349
f 400/148/351 401/149/352 133/38/85
f 133/38/85 131/37/84 400/148/351
f 399/147/350 402/150/353 135/39/86
f 135/39/86 132/36/83 399/147/350
f 403/151/354 400/148/351 131/37/84
f 131/37/84 134/40/87 403/151/354
f 402/150/353 404/110/355 137/41/88
f 137/41/88 135/39/86 402/150/353
f 405/152/356 403/151/354 134/40/87
f 134/40/87 136/42/89 405/152/356
f 404/110/355 406/153/357 139/43/90
f 139/43/90 137/41/88 404/110/355
f 407/154/358 405/152/356 136/42/89
f 136/42/89 138/44/91 407/154/358
f 406/153/357 408/108/359 141/45/92
f 141/45/92 139/43/90 406/153/357
f 409/155/360 407/154/358 138/44/91
f 138/44/91 140/46/93 409/155/360
f 408/108/359 410/156/361 143/47/94
f 143/47/94 141/45/92 408/108/359
f 411/157/362 409/155/360 140/46/93
f 140/46/93 142/48/95 411/157/362
f 410/156/361 412/106/363 145/49/96
f 145/49/96 143/47/94 410/156/361
f 413/158/364 411/157/362 142/48/95
f 142/48/95 144/50/97 413/158/364
f 412/106/363 414/159/365 147/51/98
f 147/51/98 145/49/96 412/106/363
f 415/160/366 413/158/364 144/50/97
f 144/50/97 146/52/99 415/160/366
f 414/159/365 416/161/367 149/53/100
f 149/53/100 147/51/98 414/159/365
f 417/162/368 415/160/366 146/52/99
f 146/52/99 148/54/101 417/162/368
f 416/161/367 418/163/369 151/55/102
f 151/55/102 149/53/100 416/161/367
f 419/164/370 417/162/368 148/54/101
f 148/54/101 150/56/103 419/164/370
f 418/163/369 420/165/371 153/57/104
f 153/57/104 151/55/102 418/163/369
f 421/166/372 419/164/370 150/56/103
f 150/56/103 152/58/105 421/166/372
f 420/165/371 422/167/373 155/59/106
f 155/59/106 153/57/104 420/165/371
f 423/168/374 421/166/372 152/58/105
f 152/58/105 154/60/107 423/168/374
f 422/167/373 424/169/375 157/61/108
f 157/61/108 155/59/106 422/167/373
f 425/170/376 423/168/374 154/60/107
f 154/60/107 156/62/109 425/170/376
f 424/169/375 426/171/377 159/63/110
f 159/63/110 157/61/108 424/169/375
f 427/172/378 425/170/376 156/62/109
f 156/62/109 158/64/111 427/172/378
f 426/171/377 428/173/379 161/65/112
f 161/65/112 159/63/110 426/171/377
f 429/174/380 427/172/378 158/64/111
f 158/64/111 160/66/113 429/174/380
f 428/173/379 430/175/381 163/67/114
f 163/67/114 161/65/112 428/173/379
f 431/176/382 429/174/380 160/66/113
f 160/66/113 162/68/115 431/176/382
f 430/175/381 432/98/383 165/69/116
f 165/69/116 163/67/114 430/175/381
f 433/177/384 431/176/382 162/68/115
f 162/68/115 164/70/117 433/177/384
f 432/98/383 434/178/385 167/71/118
f 167/71/118 165/69/116 432/98/383
f 435/179/386 433/177/384 164/70/117
f 164/70/117 166/72/119 435/179/386
f 434/178/385 436/180/387 169/73/120
f 169/73/120 167/71/118 434/178/385
f 437/181/388 435/179/386 166/72/119
f 166/72/119 168/74/121 437/181/388
f 436/180/387 438/182/389 171/75/122
f 171/75/122 169/73/120 436/180/387
f 439/183/390 437/181/388 168/74/121
f 168/74/121 170/76/123 439/183/390
f 438/182/389 440/122/391 173/77/124
f 173/77/124 171/75/122 438/182/389
f 441/184/392 439/183/390 170/76/123
f 170/76/123 172/78/125 441/184/392
f 440/122/391 442/185/393 175/79/126
f 175/79/126 173/77/124 440/122/391
f 443/186/394 441/184/392 172/78/125
f 172/78/125 174/80/127 443/186/394
f 442/185/393 444/187/395 177/81/128
f 177/81/128 175/79/126 442/185/393
f 445/188/396 443/186/394 174/80/127
f 174/80/127 176/82/129 445/188/396
f 444/187/395 446/189/397 179/83/130
f 179/83/130 177/81/128 444/187/395
f 447/190/398 445/188/396 176/82/129
f 176/82/129 178/84/131 447/190/398
f 446/189/397 448/191/399 181/85/132
f 181/85/132 179/83/130 446/189/397
f 449/192/400 447/190/398 178/84/131
f 178/84/131 180/86/133 449/192/400
f 448/191/399 450/193/401 183/87/134
f 183/87/134 181/85/132 448/191/399
f 451/194/402 449/192/400 180/86/133
f 180/86/133 182/88/135 451/194/402
f 450/193/401 452/195/403 185/89/136
f 185/89/136 183/87/134 450/193/401
f 453/196/404 451/194/402 182/88/135
f 182/88/135 184/90/137 453/196/404
f 452/195/403 454/197/405 187/91/138
f 187/91/138 185/89/136 452/195/403
f 455/198/406 453/196/404 184/90/137
f 184/90/137 186/92/139 455/198/406
f 454/197/405 456/199/407 189/93/140
f 189/93/140 187/91/138 454/197/405
f 457/200/408 455/198/406 186/92/139
f 186/92/139 188/94/141 457/200/408
f 456/199/407 398/146/349 130/35/82
f 130/35/82 189/93/140 456/199/407
f 401/149/352 457/200/408 188/94/141
f 188/94/141 133/38/85 401/149/352
f 458/201/409 460/202/410 459/203/411
f 459/203/411 461/204/412 458/201/409
f 461/204/412 459/203/411 462/205/413
f 462/205/413 463/206/414 461/204/412
f 463/206/414 462/205/413 464/207/415
f 464/207/415 465/208/416 463/206/414
f 466/209/417 468/210/418 467/211/25
f 460/202/410 469/212/419 459/203/411
f 469/212/419 471/213/420 470/214/421
f 470/214/421 459/203/411 469/212/419
f 459/203/411 470/214/421 472/215/422
f 472/215/422 462/205/413 459/203/411
f 462/205/413 472/215/422 473/216/423
f 473/216/423 464/207/415 462/205/413
f 468/210/418 474/217/424 467/211/25
f 471/213/420 475/218/425 470/214/421
f 475/218/425 477/219/426 476/220/427
f 476/220/427 470/214/421 475/218/425
f 470/214/421 476/220/427 478/221/428
f 478/221/428 472/215/422 470/214/421
f 472/215/422 478/221/428 479/222/429
f 479/222/429 473/216/423 472/215/422
f 474/217/424 480/223/430 467/211/25
f 477/219/426 481/224/431 476/220/427
f 481/224/431 483/225/432 482/226/433
f 482/226/433 476/220/427 481/224/431
f 476/220/427 482/226/433 484/227/434
f 484/227/434 478/221/428 476/220/427
f 478/221/428 484/227/434 485/228/435
f 485/228/435 479/222/429 478/221/428
f 480/223/430 486/229/436 467/211/25
f 483/225/432 487/230/437 482/226/433
f 487/230/437 489/231/438 488/232/439
f 488/232/439 482/226/433 487/230/437
f 482/226/433 488/232/439 490/233/440
f 490/233/440 484/227/434 482/226/433
f 484/227/434 490/233/440 491/234/441
f 491/234/441 485/228/435 484/227/434
f 486/229/436 492/235/442 467/211/25
f 489/231/438 493/236/443 488/232/439
f 493/236/443 495/237/444 494/238/445
f 494/238/445 488/232/439 493/236/443
f 488/232/439 494/238/445 496/239/446
f 496/239/446 490/233/440 488/232/439
f 490/233/440 496/239/446 497/240/447
f 497/240/447 491/234/441 490/233/440
f 492/235/442 498/241/448 467/211/25
f 495/237/444 499/242/449 494/238/445
f 499/242/449 501/243/450 500/244/451
f 500/244/451 494/238/445 499/242/449
f 494/238/445 500/244/451 502/245/452
f 502/245/452 496/239/446 494/238/445
f 496/239/446 502/245/452 503/246/453
f 503/246/453 497/240/447 496/239/446
f 498/241/448 504/247/454 467/211/25
f 501/243/450 505/248/455 500/244/451
f 505/248/455 507/249/456 506/250/457
f 506/250/457 500/244/451 505/248/455
f 500/244/451 506/250/457 508/251/458
f 508/251/458 502/245/452 500/244/451
f 502/245/452 508/251/458 509/252/459
f 509/252/459 503/246/453 502/245/452
f 504/247/454 510/253/460 467/211/25
f 507/249/456 511/254/461 506/250/457
f 511/254/461 513/255/462 512/256/463
f 512/256/463 506/250/457 511/254/461
f 506/250/457 512/256/463 514/257/464
f 514/257/464 508/251/458 506/250/457
f 508/251/458 514/257/464 515/258/465
f 515/258/465 509/252/459 508/251/458
f 510/253/460 516/259/466 467/211/25
f 513/255/462 517/260/467 512/256/463
f 517/260/467 518/261/468 461/204/412
f 461/204/412 512/256/463 517/260/467
f 512/256/463 461/204/412 463/206/414
f 463/206/414 514/257/464 512/256/463
f 514/257/464 463/206/414 465/208/416
f 465/208/416 515/258/465 514/257/464
f 516/259/466 466/209/417 467/211/25
f 518/261/468 458/201/409 461/204/412
f 465/208/416 464/207/415 468/210/418
f 468/210/418 466/209/417 465/208/416
f 464/207/415 473/216/423 474/217/424
f 474/217/424 468/210/418 464/207/415
f 473/216/423 479/222/429 480/223/430
f 480/223/430 474/217/424 473/216/423
f 479/222/429 485/228/435 486/229/436
f 486/229/436 480/223/430 479/222/429
f 485/228/435 491/234/441 492/235/442
f 492/235/442 486/229/436 485/228/435
f 491/234/441 497/240/447 498/241/448
f 498/241/448 492/235/442 491/234/441
f 497/240/447 503/246/453 504/247/454
f 504/247/454 498/241/448 497/240/447
f 503/246/453 509/252/459 510/253/460
f 510/253/460 504/247/454 503/246/453
f 509/252/459 515/258/465 516/259/466
f 516/259/466 510/253/460 509/252/459
f 515/258/465 465/208/416 466/209/417
f 466/209/417 516/259/466 515/258/465
f 519/262/469 520/263/470 460/202/410
f 460/202/410 521/212/471 519/262/469
f 520/263/470 522/262/472 469/212/419
f 469/212/419 460/202/410 520/263/470
f 522/262/472 524/263/473 523/202/474
f 523/202/474 469/212/419 522/262/472
f 524/263/473 526/262/475 525/212/476
f 525/212/476 523/202/474 524/263/473
f 526/262/475 528/263/477 527/202/478
f 527/202/478 525/212/476 526/262/475
f 528/263/477 530/262/479 529/212/480
f 529/212/480 527/202/478 528/263/477
f 530/262/479 532/263/481 531/202/482
f 531/202/482 529/212/480 530/262/479
f 532/263/481 534/262/483 533/212/484
f 533/212/484 531/202/482 532/263/481
f 534/262/483 536/263/485 535/202/486
f 535/202/486 533/212/484 534/262/483
f 536/263/485 538/262/487 537/212/488
f 537/212/488 535/202/486 536/263/485
f 538/262/487 540/263/489 539/202/490
f 539/202/490 537/212/488 538/262/487
f 540/263/489 542/262/491 541/212/492
f 541/212/492 539/202/490 540/263/489
f 542/262/491 544/263/493 543/202/494
f 543/202/494 541/212/492 542/262/491
f 544/263/493 546/262/495 545/212/496
f 545/212/496 543/202/494 544/263/493
f 546/262/495 548/263/497 547/202/498
f 547/202/498 545/212/496 546/262/495
f 548/263/497 550/262/499 549/212/500
f 549/212/500 547/202/498 548/263/497
f 550/262/499 552/263/501 551/202/502
f 551/202/502 549/212/500 550/262/499
f 552/263/501 554/262/503 553/212/504
f 553/212/504 551/202/502 552/263/501
f 554/262/503 556/263/505 555/202/506
f 555/202/506 553/212/504 554/262/503
f 556/263/505 519/262/469 521/212/471
f 521/212/471 555/202/506 556/263/505
f 557/264/507 558/265/508 522/262/472
f 522/262/472 520/263/470 557/264/507
f 559/266/509 561/267/510 560/268/511
f 559/266/509 560/268/511 558/265/508
f 557/264/507 563/269/512 562/270/513
f 558/265/508 557/264/507 562/270/513
f 559/266/509 558/265/508 562/270/513
f 564/265/514 557/264/507 520/263/470
f 520/263/470 519/262/469 564/265/514
f 565/270/515 563/269/512 557/264/507
f 565/270/515 557/264/507 564/265/514
f 566/268/516 568/267/517 567/266/518
f 564/265/514 566/268/516 567/266/518
f 565/270/515 564/265/514 567/266/518
f 569/264/519 564/265/514 519/262/469
f 519/262/469 556/263/505 569/264/519
f 570/266/520 571/267/521 566/268/516
f 570/266/520 566/268/516 564/265/514
f 569/264/519 573/269/522 572/270/523
f 564/265/514 569/264/519 572/270/523
f 570/266/520 564/265/514 572/270/523
f 574/265/524 569/264/519 556/263/505
f 556/263/505 554/262/503 574/265/524
f 575/270/525 573/269/522 569/264/519
f 575/270/525 569/264/519 574/265/524
f 576/268/526 578/267/527 577/266/528
f 574/265/524 576/268/526 577/266/528
f 575/270/525 574/265/524 577/266/528
f 579/264/529 574/265/524 554/262/503
f 554/262/503 552/263/501 579/264/529
f 580/266/530 581/267/531 576/268/526
f 580/266/530 576/268/526 574/265/524
f 579/264/529 583/269/532 582/270/533
f 574/265/524 579/264/529 582/270/533
f 580/266/530 574/265/524 582/270/533
f 584/265/534 579/264/529 552/263/501
f 552/263/501 550/262/499 584/265/534
f 585/270/535 583/269/532 579/264/529
f 585/270/535 579/264/529 584/265/534
f 586/268/536 588/267/537 587/266/538
f 584/265/534 586/268/536 587/266/538
f 585/270/535 584/265/534 587/266/538
f 589/264/539 584/265/534 550/262/499
f 550/262/499 548/263/497 589/264/539
f 590/266/540 591/267/541 586/268/536
f 590/266/540 586/268/536 584/265/534
f 589/264/539 593/269/542 592/270/543
f 584/265/534 589/264/539 592/270/543
f 590/266/540 584/265/534 592/270/543
f 594/265/544 589/264/539 548/263/497
f 548/263/497 546/262/495 594/265/544
f 595/270/545 593/269/542 589/264/539
f 595/270/545 589/264/539 594/265/544
f 596/268/546 598/267/547 597/266/548
f 594/265/544 596/268/546 597/266/548
f 595/270/545 594/265/544 597/266/548
f 599/264/549 594/265/544 546/262/495
f 546/262/495 544/263/493 599/264/549
f 600/266/550 601/267/551 596/268/546
f 600/266/550 596/268/546 594/265/544
f 599/264/549 603/269/552 602/270/553
f 594/265/544 599/264/549 602/270/553
f 600/266/550 594/265/544 602/270/553
f 604/265/554 599/264/549 544/263/493
f 544/263/493 542/262/491 604/265/554
f 605/270/555 603/269/552 599/264/549
f 605/270/555 599/264/549 604/265/554
f 606/268/556 608/267/557 607/266/558
f 604/265/554 606/268/556 607/266/558
f 605/270/555 604/265/554 607/266/558
f 609/264/559 604/265/554 542/262/491
f 542/262/491 540/263/489 609/264/559
f 610/266/560 611/267/561 606/268/556
f 610/266/560 606/268/556 604/265/554
f 609/264/559 613/269/562 612/270/563
f 604/265/554 609/264/559 612/270/563
f 610/266/560 604/265/554 612/270/563
f 614/265/564 609/264/559 540/263/489
f 540/263/489 538/262/487 614/265/564
f 615/270/565 613/269/562 609/264/559
f 615/270/565 609/264/559 614/265/564
f 616/268/566 618/267/567 617/266/568
f 614/265/564 616/268/566 617/266/568
f 615/270/565 614/265/564 617/266/568
f 619/264/569 614/265/564 538/262/487
f 538/262/487 536/263/485 619/264/569
f 620/266/570 621/267/570 616/268/566
f 620/266/570 616/268/566 614/265/564
f 619/264/569 623/269/571 622/270/572
f 614/265/564 619/264/569 622/270/572
f 620/266/570 614/265/564 622/270/572
f 624/265/573 619/264/569 536/263/485
f 536/263/485 534/262/483 624/265/573
f 625/270/574 623/269/571 619/264/569
f 625/270/574 619/264/569 624/265/573
f 626/268/575 628/267/576 627/266/577
f 624/265/573 626/268/575 627/266/577
f 625/270/574 624/265/573 627/266/577
f 629/264/578 624/265/573 534/262/483
f 534/262/483 532/263/481 629/264/578
f 630/266/579 631/267/580 626/268/575
f 630/266/579 626/268/575 624/265/573
f 629/264/578 633/269/581 632/270/582
f 624/265/573 629/264/578 632/270/582
f 630/266/579 624/265/573 632/270/582
f 634/265/583 629/264/578 532/263/481
f 532/263/481 530/262/479 634/265/583
f 635/270/584 633/269/581 629/264/578
f 635/270/584 629/264/578 634/265/583
f 636/268/585 638/267/586 637/266/587
f 634/265/583 636/268/585 637/266/587
f 635/270/584 634/265/583 637/266/587
f 639/264/588 634/265/583 530/262/479
f 530/262/479 528/263/477 639/264/588
f 640/266/589 641/267/590 636/268/585
f 640/266/589 636/268/585 634/265/583
f 639/264/588 643/269/591 642/270/592
f 634/265/583 639/264/588 642/270/592
f 640/266/589 634/265/583 642/270/592
f 644/265/593 639/264/588 528/263/477
f 528/263/477 526/262/475 644/265/593
f 645/270/594 643/269/591 639/264/588
f 645/270/594 639/264/588 644/265/593
f 646/268/595 648/267/596 647/266/597
f 644/265/593 646/268/595 647/266/597
f 645/270/594 644/265/593 647/266/597
f 649/264/598 644/265/593 526/262/475
f 526/262/475 524/263/473 649/264/598
f 650/266/599 651/267/600 646/268/595
f 650/266/599 646/268/595 644/265/593
f 649/264/598 653/269/601 652/270/602
f 644/265/593 649/264/598 652/270/602
f 650/266/599 644/265/593 652/270/602
f 558/265/508 649/264/598 524/263/473
f 524/263/473 522/262/472 558/265/508
f 654/270/603 653/269/601 649/264/598
f 654/270/603 649/264/598 558/265/508
f 560/268/511 656/267/604 655/266/605
f 558/265/508 560/268/511 655/266/605
f 654/270/603 558/265/508 655/266/605
f 657/271/606 659/272/607 658/273/608
f 658/273/608 660/274/609 657/271/606
f 659/272/607 662/275/610 661/276/611
f 661/276/611 658/273/608 659/272/607
f 662/275/610 664/277/612 663/278/613
f 663/278/613 661/276/611 662/275/610
f 665/279/614 667/280/615 666/281/616
f 666/281/616 668/282/617 665/279/614
f 667/280/615 670/283/618 669/284/619
f 669/284/619 666/281/616 667/280/615
f 670/283/618 672/285/620 671/286/621
f 671/286/621 669/284/619 670/283/618
f 660/274/609 658/273/608 673/287/622
f 673/287/622 674/288/623 660/274/609
f 658/273/608 661/276/611 675/289/624
f 675/289/624 673/287/622 658/273/608
f 661/276/611 663/278/613 676/290/625
f 676/290/625 675/289/624 661/276/611
f 674/288/623 673/287/622 667/280/615
f 667/280/615 665/279/614 674/288/623
f 673/287/622 675/289/624 670/283/618
f 670/283/618 667/280/615 673/287/622
f 675/289/624 676/290/625 672/285/620
f 672/285/620 670/283/618 675/289/624
f 677/271/626 679/272/627 678/273/628
f 678/273/628 680/274/629 677/271/626
f 679/272/627 682/275/630 681/276/631
f 681/276/631 678/273/628 679/272/627
f 682/275/630 684/277/632 683/278/633
f 683/278/633 681/276/631 682/275/630
f 685/279/634 687/280/635 686/281/636
f 686/281/636 688/282/637 685/279/634
f 687/280/635 690/283/638 689/284/639
f 689/284/639 686/281/636 687/280/635
f 690/283/638 692/285/640 691/286/641
f 691/286/641 689/284/639 690/283/638
f 680/274/629 678/273/628 693/287/642
f 693/287/642 694/288/643 680/274/629
f 678/273/628 681/276/631 695/289/644
f 695/289/644 693/287/642 678/273/628
f 681/276/631 683/278/633 696/290/645
f 696/290/645 695/289/644 681/276/631
f 694/288/643 693/287/642 687/280/635
f 687/280/635 685/279/634 694/288/643
f 693/287/642 695/289/644 690/283/638
f 690/283/638 687/280/635 693/287/642
f 695/289/644 696/290/645 692/285/640
f 692/285/640 690/283/638 695/289/644
f 697/271/646 699/272/647 698/273/648
f 698/273/648 700/274/649 697/271/646
f 699/272/647 702/275/650 701/276/651
f 701/276/651 698/273/648 699/272/647
f 702/275/650 704/277/652 703/278/653
f 703/278/653 701/276/651 702/275/650
f 705/279/654 707/280/655 706/281/656
f 706/281/656 708/282/657 705/279/654
f 707/280/655 710/283/658 709/284/659
f 709/284/659 706/281/656 707/280/655
f 710/283/658 712/285/660 711/286/661
f 711/286/661 709/284/659 710/283/658
f 700/274/649 698/273/648 713/287/662
f 713/287/662 714/288/663 700/274/649
f 698/273/648 701/276/651 715/289/664
f 715/289/664 713/287/662 698/273/648
f 701/276/651 703/278/653 716/290/665
f 716/290/665 715/289/664 701/276/651
f 714/288/663 713/287/662 707/280/655
f 707/280/655 705/279/654 714/288/663
f 713/287/662 715/289/664 710/283/658
f 710/283/658 707/280/655 713/287/662
f 715/289/664 716/290/665 712/285/660
f 712/285/660 710/283/658 715/289/664
f 717/271/666 719/272/667 718/273/668
f 718/273/668 720/274/669 717/271/666
f 719/272/667 722/275/670 721/276/671
f 721/276/671 718/273/668 719/272/667
f 722/275/670 724/277/672 723/278/673
f 723/278/673 721/276/671 722/275/670
f 725/279/674 727/280/675 726/281/676
f 726/281/676 728/282/677 725/279/674
f 727/280/675 730/283/678 729/284/679
f 729/284/679 726/281/676 727/280/675
f 730/283/678 732/285/680 731/286/681
f 731/286/681 729/284/679 730/283/678
f 720/274/669 718/273/668 733/287/682
f 733/287/682 734/288/683 720/274/669
f 718/273/668 721/276/671 735/289/684
f 735/289/684 733/287/682 718/273/668
f 721/276/671 723/278/673 736/290/685
f 736/290/685 735/289/684 721/276/671
f 734/288/683 733/287/682 727/280/675
f 727/280/675 725/279/674 734/288/683
f 733/287/682 735/289/684 730/283/678
f 730/283/678 727/280/675 733/287/682
f 735/289/684 736/290/685 732/285/680
f 732/285/680 730/283/678 735/289/684
f 737/271/686 739/272/687 738/273/688
f 738/273/688 740/274/689 737/271/686
f 739/272/687 742/275/690 741/276/691
f 741/276/691 738/273/688 739/272/687
f 742/275/690 744/277/692 743/278/693
f 743/278/693 741/276/691 742/275/690
f 745/279/694 747/280/695 746/281/696
f 746/281/696 748/282/697 745/279/694
f 747/280/695 750/283/698 749/284/699
f 749/284/699 746/281/696 747/280/695
f 750/283/698 752/285/700 751/286/701
f 751/286/701 749/284/699 750/283/698
f 740/274/689 738/273/688 753/287/702
f 753/287/702 754/288/703 740/274/689
f 738/273/688 741/276/691 755/289/704
f 755/289/704 753/287/702 738/273/688
f 741/276/691 743/278/693 756/290/705
f 756/290/705 755/289/704 741/276/691
f 754/288/703 753/287/702 747/280/695
f 747/280/695 745/279/694 754/288/703
f 753/287/702 755/289/704 750/283/698
f 750/283/698 747/280/695 753/287/702
f 755/289/704 756/290/705 752/285/700
f 752/285/700 750/283/698 755/289/704
f 757/271/706 759/272/707 758/273/708
f 758/273/708 760/274/709 757/271/706
f 759/272/707 762/275/710 761/276/711
f 761/276/711 758/273/708 759/272/707
f 762/275/710 764/277/712 763/278/713
f 763/278/713 761/276/711 762/275/710
f 765/279/714 767/280/715 766/281/716
f 766/281/716 768/282/717 765/279/714
f 767/280/715 770/283/718 769/284/719
f 769/284/719 766/281/716 767/280/715
f 770/283/718 772/285/720 771/286/721
f 771/286/721 769/284/719 770/283/718
f 760/274/709 758/273/708 773/287/722
f 773/287/722 774/288/723 760/274/709
f 758/273/708 761/276/711 775/289/724
f 775/289/724 773/287/722 758/273/708
f 761/276/711 763/278/713 776/290/725
f 776/290/725 775/289/724 761/276/711
f 774/288/723 773/287/722 767/280/715
f 767/280/715 765/279/714 774/288/723
f 773/287/722 775/289/724 770/283/718
f 770/283/718 767/280/715 773/287/722
f 775/289/724 776/290/725 772/285/720
f 772/285/720 770/283/718 775/289/724
f 777/271/726 779/272/727 778/273/728
f 778/273/728 780/274/729 777/271/726
f 779/272/727 782/275/730 781/276/731
f 781/276/731 778/273/728 779/272/727
f 782/275/730 784/277/732 783/278/733
f 783/278/733 781/276/731 782/275/730
f 785/279/734 787/280/735 786/281/736
f 786/281/736 788/282/737 785/279/734
f 787/280/735 790/283/738 789/284/739
f 789/284/739 786/281/736 787/280/735
f 790/283/738 792/285/740 791/286/741
f 791/286/741 789/284/739 790/283/738
f 780/274/729 778/273/728 793/287/742
f 793/287/742 794/288/743 780/274/729
f 778/273/728 781/276/731 795/289/744
f 795/289/744 793/287/742 778/273/728
f 781/276/731 783/278/733 796/290/745
f 796/290/745 795/289/744 781/276/731
f 794/288/743 793/287/742 787/280/735
f 787/280/735 785/279/734 794/288/743
f 793/287/742 795/289/744 790/283/738
f 790/283/738 787/280/735 793/287/742
f 795/289/744 796/290/745 792/285/740
f 792/285/740 790/283/738 795/289/744
f 797/271/746 799/272/747 798/273/748
f 798/273/748 800/274/749 797/271/746
f 799/272/747 802/275/750 801/276/751
f 801/276/751 798/273/748 799/272/747
f 802/275/750 804/277/752 803/278/753
f 803/278/753 801/276/751 802/275/750
f 805/279/754 807/280/755 806/281/756
f 806/281/756 808/282/757 805/279/754
f 807/280/755 810/283/758 809/284/759
f 809/284/759 806/281/756 807/280/755
f 810/283/758 812/285/760 811/286/761
f 811/286/761 809/284/759 810/283/758
f 800/274/749 798/273/748 813/287/762
f 813/287/762 814/288/763 800/274/749
f 798/273/748 801/276/751 815/289/764
f 815/289/764 813/287/762 798/273/748
f 801/276/751 803/278/753 816/290/765
f 816/290/765 815/289/764 801/276/751
f 814/288/763 813/287/762 807/280/755
f 807/280/755 805/279/754 814/288/763
f 813/287/762 815/289/764 810/283/758
f 810/283/758 807/280/755 813/287/762
f 815/289/764 816/290/765 812/285/760
f 812/285/760 810/283/758 815/289/764
f 817/271/766 819/272/767 818/273/768
f 818/273/768 820/274/769 817/271/766
f 819/272/767 822/275/770 821/276/771
f 821/276/771 818/273/768 819/272/767
f 822/275/770 824/277/772 823/278/773
f 823/278/773 821/276/771 822/275/770
f 825/279/774 827/280/775 826/281/776
f 826/281/776 828/282/777 825/279/774
f 827/280/775 830/283/778 829/284/779
f 829/284/779 826/281/776 827/280/775
f 830/283/778 832/285/780 831/286/781
f 831/286/781 829/284/779 830/283/778
f 820/274/769 818/273/768 833/287/782
f 833/287/782 834/288/783 820/274/769
f 818/273/768 821/276/771 835/289/784
f 835/289/784 833/287/782 818/273/768
f 821/276/771 823/278/773 836/290/785
f 836/290/785 835/289/784 821/276/771
f 834/288/783 833/287/782 827/280/775
f 827/280/775 825/279/774 834/288/783
f 833/287/782 835/289/784 830/283/778
f 830/283/778 827/280/775 833/287/782
f 835/289/784 836/290/785 832/285/780
f 832/285/780 830/283/778 835/289/784
f 837/271/786 839/272/787 838/273/788
f 838/273/788 840/274/789 837/271/786
f 839/272/787 842/275/790 841/276/791
f 841/276/791 838/273/788 839/272/787
f 842/275/790 844/277/792 843/278/793
f 843/278/793 841/276/791 842/275/790
f 845/279/794 847/280/795 846/281/796
f 846/281/796 848/282/797 845/279/794
f 847/280/795 850/283/798 849/284/799
f 849/284/799 846/281/796 847/280/795
f 850/283/798 852/285/800 851/286/801
f 851/286/801 849/284/799 850/283/798
f 840/274/789 838/273/788 853/287/802
f 853/287/802 854/288/803 840/274/789
f 838/273/788 841/276/791 855/289/804
f 855/289/804 853/287/802 838/273/788
f 841/276/791 843/278/793 856/290/805
f 856/290/805 855/289/804 841/276/791
f 854/288/803 853/287/802 847/280/795
f 847/280/795 845/279/794 854/288/803
f 853/287/802 855/289/804 850/283/798
f 850/283/798 847/280/795 853/287/802
f 855/289/804 856/290/805 852/285/800
f 852/285/800 850/283/798 855/289/804
f 857/291/806 858/291/807 659/272/607
f 659/272/607 657/271/606 857/291/806
f 859/291/808 857/291/806 784/277/732
f 784/277/732 782/275/730 859/291/808
f 860/291/809 859/291/808 782/275/730
f 782/275/730 779/272/727 860/291/809
f 861/291/810 860/291/809 779/272/727
f 779/272/727 777/271/726 861/291/810
f 862/291/811 861/291/810 804/277/752
f 804/277/752 802/275/750 862/291/811
f 863/291/812 862/291/811 802/275/750
f 802/275/750 799/272/747 863/291/812
f 864/291/813 863/291/812 799/272/747
f 799/272/747 797/271/746 864/291/813
f 865/291/814 864/291/813 824/277/772
f 824/277/772 822/275/770 865/291/814
f 866/291/815 865/291/814 822/275/770
f 822/275/770 819/272/767 866/291/815
f 867/291/816 866/291/815 819/272/767
f 819/272/767 817/271/766 867/291/816
f 868/291/817 867/291/818 844/277/792
f 844/277/792 842/275/790 868/291/817
f 869/292/819 868/291/817 842/275/790
f 842/275/790 839/272/787 869/292/819
f 870/291/820 869/292/819 839/272/787
f 839/272/787 837/271/786 870/291/820
f 871/291/821 870/291/822 684/277/632
f 684/277/632 682/275/630 871/291/821
f 872/291/823 871/291/821 682/275/630
f 682/275/630 679/272/627 872/291/823
f 873/291/824 872/291/823 679/272/627
f 679/272/627 677/271/626 873/291/824
f 874/291/825 873/291/826 704/277/652
f 704/277/652 702/275/650 874/291/825
f 875/291/827 874/291/825 702/275/650
f 702/275/650 699/272/647 875/291/827
f 876/291/828 875/291/827 699/272/647
f 699/272/647 697/271/646 876/291/828
f 877/291/829 876/291/830 724/277/672
f 724/277/672 722/275/670 877/291/829
f 878/291/831 877/291/829 722/275/670
f 722/275/670 719/272/667 878/291/831
f 879/291/832 878/291/831 719/272/667
f 719/272/667 717/271/666 879/291/832
f 880/291/833 879/291/834 744/277/692
f 744/277/692 742/275/690 880/291/833
f 881/291/835 880/291/833 742/275/690
f 742/275/690 739/272/687 881/291/835
f 882/291/836 881/291/835 739/272/687
f 739/272/687 737/271/686 882/291/836
f 883/291/837 882/291/838 764/277/712
f 764/277/712 762/275/710 883/291/837
f 884/291/839 883/291/837 762/275/710
f 762/275/710 759/272/707 884/291/839
f 885/291/840 884/291/839 759/272/707
f 759/272/707 757/271/706 885/291/840
f 886/291/841 885/291/840 664/277/612
f 664/277/612 662/275/610 886/291/841
f 858/291/807 886/291/841 662/275/610
f 662/275/610 659/272/607 858/291/807
