# Blender 5.0.1
# www.blender.org
o LlantaTD
v -0.789775 0.021317 -0.302609
v -0.627614 0.388917 0.004752
v -0.724654 0.026757 0.011072
v -0.684014 0.416037 -0.309488
v -0.362494 0.653957 0.000192
v -0.395055 0.704917 -0.314528
v -0.000255 0.750997 -0.001568
v -0.000255 0.810677 -0.316369
v 0.361905 0.653957 0.000192
v 0.394465 0.704917 -0.314528
v 0.627027 0.388917 0.004752
v 0.683425 0.416037 -0.309488
v 0.724065 0.026757 0.011072
v 0.789266 0.021317 -0.302608
v 0.627027 -0.335323 0.017392
v 0.683425 -0.373403 -0.295729
v 0.361905 -0.600443 0.022031
v 0.394465 -0.662363 -0.290688
v -0.000255 -0.697483 0.023712
v -0.000255 -0.768123 -0.288848
v -0.362494 -0.600443 0.022031
v -0.395055 -0.662363 -0.290689
v -0.627614 -0.335323 0.017392
v -0.684014 -0.373403 -0.295729
v -1.330894 1.365877 -0.301649
v 1.343905 -1.309963 -0.254929
v -1.331534 -1.309243 -0.254929
v 1.344626 1.365157 -0.301649
v 1.021667 0.881957 -0.308609
v 1.252465 0.479477 -0.457169
v 1.252465 0.482197 -0.301649
v 1.021667 0.879237 -0.464128
v 0.667985 1.178597 -0.313808
v 1.021667 0.879237 -0.464128
v 1.021667 0.881957 -0.308609
v 0.667985 1.175877 -0.469328
v 0.234225 1.336437 -0.316608
v 0.667985 1.175877 -0.469328
v 0.667985 1.178597 -0.313808
v 0.234225 1.333717 -0.472048
v -0.227374 1.336437 -0.316608
v 0.234225 1.333717 -0.472048
v 0.234225 1.336437 -0.316608
v -0.227374 1.333717 -0.472048
v -0.661134 1.178597 -0.313808
v -0.227374 1.333717 -0.472048
v -0.227374 1.336437 -0.316608
v -0.661134 1.175877 -0.469328
v -1.014735 0.881957 -0.308609
v -0.661134 1.175877 -0.469328
v -0.661134 1.178597 -0.313808
v -1.014735 0.879237 -0.464129
v -1.245534 0.482197 -0.301649
v -1.014735 0.879237 -0.464129
v -1.014735 0.881957 -0.308609
v -1.245534 0.479477 -0.457169
v -1.325694 0.027717 -0.293728
v -1.245534 0.479477 -0.457169
v -1.245534 0.482197 -0.301649
v -1.325694 0.024997 -0.449248
v 1.252465 0.482197 -0.301649
v 1.332625 0.024997 -0.449248
v 1.332625 0.027717 -0.293728
v 1.252465 0.479477 -0.457169
v -1.245534 -0.426843 -0.285809
v -1.325694 0.024997 -0.449248
v -1.325694 0.027717 -0.293728
v -1.245534 -0.429564 -0.441329
v -1.014735 -0.826523 -0.278849
v -1.245534 -0.429564 -0.441329
v -1.245534 -0.426843 -0.285809
v -1.014735 -0.829243 -0.434289
v 1.021667 -0.826523 -0.278849
v 0.667985 -1.125963 -0.429169
v 0.667985 -1.123243 -0.273649
v 1.021667 -0.829243 -0.434288
v -0.227374 -1.281083 -0.270849
v -0.661134 -1.125963 -0.429169
v -0.661134 -1.123243 -0.273649
v -0.227374 -1.283803 -0.426369
v 0.234225 -1.281083 -0.270849
v -0.227374 -1.283803 -0.426369
v -0.227374 -1.281083 -0.270849
v 0.234225 -1.283803 -0.426369
v 0.667985 -1.123243 -0.273649
v 0.234225 -1.283803 -0.426369
v 0.234225 -1.281083 -0.270849
v 0.667985 -1.125963 -0.429169
v -0.661134 -1.123243 -0.273649
v -1.014735 -0.829243 -0.434289
v -1.014735 -0.826523 -0.278849
v -0.661134 -1.125963 -0.429169
v 1.252465 -0.426843 -0.285809
v 1.021667 -0.829243 -0.434288
v 1.021667 -0.826523 -0.278849
v 1.252465 -0.429564 -0.441328
v 1.332625 0.027717 -0.293728
v 1.252465 -0.429564 -0.441328
v 1.252465 -0.426843 -0.285809
v 1.332625 0.024997 -0.449248
v -1.297133 0.505797 -0.121249
v -0.976655 0.083797 -0.195088
v -1.366174 0.109317 -0.114368
v -0.914495 0.362597 -0.199968
v -0.967534 -0.221483 -0.189808
v -1.309615 -0.270203 -0.107729
v -1.417214 0.544117 -0.475009
v -1.493854 0.120197 -0.201088
v -1.493854 0.115557 -0.467568
v -1.417214 0.548757 -0.208609
v -1.430734 -0.300043 -0.193809
v -1.430734 -0.304763 -0.460208
v -0.937375 -0.237403 -0.461409
v -1.357055 -0.346363 -0.198449
v -1.357055 -0.351003 -0.459408
v -0.945134 0.067317 -0.466689
v -0.884574 0.346837 -0.471569
v -1.091054 0.851637 -0.127328
v -0.779935 0.614677 -0.204369
v -0.800895 1.102597 -0.131729
v -0.574014 0.840277 -0.208289
v -1.196013 0.919157 -0.481568
v -1.196013 0.923797 -0.215169
v -0.874175 1.196917 -0.486448
v -0.874255 1.201477 -0.219968
v -0.788255 1.183957 -0.486208
v -0.543855 0.824357 -0.479888
v -0.788255 1.188517 -0.225248
v -0.748414 0.598277 -0.475968
v 1.894225 0.042997 0.832992
v 2.102626 -0.407323 0.865152
v 1.852706 -0.354603 0.839952
v 2.149665 0.043557 0.857311
v 1.963506 -0.835563 0.872592
v 1.730065 -0.732043 0.846511
v 1.738385 -1.225483 0.879471
v 1.531587 -1.075803 0.852511
v 1.437026 -1.560123 0.885312
v 1.266067 -1.370683 0.857632
v 1.072705 -1.824843 0.889872
v 0.944945 -1.604043 0.861712
v 0.661345 -2.007963 0.893072
v 0.582305 -1.765403 0.864511
v 0.220866 -2.101643 0.894752
v 0.194066 -1.847963 0.865952
v -0.229455 -2.101643 0.894752
v -0.202895 -1.847963 0.865952
v -0.670014 -2.008043 0.893072
v -0.591134 -1.765483 0.864511
v -1.081935 -1.824683 0.889872
v -0.954814 -1.603483 0.861711
v -1.445775 -1.560363 0.885312
v -1.274894 -1.370843 0.857632
v -1.747134 -1.225723 0.879471
v -1.540574 -1.075883 0.852511
v -1.972335 -0.835803 0.872672
v -1.739055 -0.732203 0.846511
v -2.111535 -0.407563 0.865151
v -1.861693 -0.354763 0.839951
v -2.158574 0.043317 0.857311
v -1.903214 0.042837 0.832992
v -2.111535 0.488037 0.849552
v -1.861693 0.434677 0.826111
v -1.972415 0.916277 0.842031
v -1.739055 0.812117 0.819551
v -1.747294 1.306277 0.835231
v -1.540654 1.155877 0.813551
v -1.445933 1.640917 0.829391
v -1.275054 1.450757 0.808432
v -1.081695 1.905557 0.824751
v -0.953935 1.684037 0.804351
v -0.670255 2.088757 0.821551
v -0.591294 1.845477 0.801551
v -0.229774 2.182357 0.819952
v -0.203054 1.928037 0.800111
v 0.220546 2.182437 0.819952
v 0.193906 1.928037 0.800111
v 0.661105 2.088837 0.821551
v 0.582147 1.845557 0.801551
v 1.071986 1.906037 0.824751
v 0.943746 1.684757 0.804351
v 1.436866 1.641077 0.829392
v 1.265906 1.450917 0.808432
v 1.738225 1.306437 0.835231
v 1.531507 1.155957 0.813551
v 1.963426 0.916517 0.842032
v 1.729985 0.812277 0.819552
v 2.102546 0.488277 0.849552
v 1.852706 0.434837 0.826111
v 2.414065 0.262837 -0.969569
v 1.641505 -0.524123 -0.895568
v 2.308465 -0.742763 -0.951969
v 1.716786 0.191877 -0.908129
v 1.281426 -1.147723 -0.884688
v 1.802945 -1.618363 -0.936688
v 0.698865 -1.570923 -0.877328
v 0.984946 -2.212763 -0.926369
v -0.005534 -1.720603 -0.874689
v -0.004254 -2.423003 -0.922688
v -0.709855 -1.570923 -0.877328
v -0.993295 -2.212923 -0.926369
v -1.292495 -1.147723 -0.884688
v -1.811534 -1.618683 -0.936688
v -1.652493 -0.524123 -0.895568
v -2.317214 -0.743083 -0.951969
v -1.727775 0.191877 -0.908129
v -2.422975 0.262437 -0.969569
v -1.505294 0.876677 -0.920049
v -2.110574 1.224037 -0.986369
v -1.023374 1.411717 -0.929409
v -1.433934 1.975477 -0.999409
v -0.365535 1.704597 -0.934528
v -0.510175 2.386757 -1.006608
v 0.354547 1.704597 -0.934528
v 0.501025 2.386837 -1.006608
v 1.012385 1.411717 -0.929408
v 1.424945 1.975637 -0.999409
v 1.494226 0.876677 -0.920049
v 2.101506 1.224357 -0.986369
v -0.022414 -1.052603 0.304272
v -0.078815 -1.117643 0.346511
v -0.078815 -1.067963 0.314271
v -0.022414 -1.133003 0.356512
v 0.012465 -1.092843 0.330351
v -0.022414 -1.248043 0.179391
v 0.012465 -1.207883 0.153232
v -0.078815 -1.232683 0.169392
v -0.078815 -1.183003 0.137072
v -0.022414 -1.167643 0.127151
v -0.022414 -1.052603 0.304272
v -0.022414 -1.052603 0.304272
v -0.022414 -1.167643 0.127151
v -0.749215 2.329717 0.711471
v -0.273614 2.595237 0.574592
v -0.256494 2.434437 0.709712
v -0.799855 2.483317 0.576591
v 0.264386 2.595317 0.574592
v 0.247266 2.434517 0.709712
v -0.273614 2.570517 -0.841088
v -0.799855 2.458597 -0.839169
v 0.264386 2.570677 -0.841088
v -0.510175 2.386757 -1.006608
v 0.501025 2.386837 -1.006608
v 0.247266 2.434517 0.709712
v 0.790626 2.483557 0.576592
v 0.739985 2.329797 0.711472
v 0.264386 2.595317 0.574592
v 1.282146 2.264917 0.580432
v 1.200225 2.124997 0.715072
v 0.790626 2.458917 -0.839168
v 0.264386 2.570677 -0.841088
v 1.282146 2.240197 -0.835329
v 0.501025 2.386837 -1.006608
v 1.424945 1.975637 -0.999409
v -1.616895 1.828677 0.720272
v -1.291375 2.264437 0.580431
v -1.209374 2.124757 0.715072
v -1.726575 1.948197 0.585951
v -0.799855 2.483317 0.576591
v -0.749215 2.329717 0.711471
v -1.291375 2.239717 -0.835329
v -1.726575 1.923477 -0.829809
v -0.799855 2.458597 -0.839169
v -1.433934 1.975477 -0.999409
v -0.510175 2.386757 -1.006608
v 1.944865 1.454677 0.726751
v 2.346625 1.083237 0.600991
v 2.196786 1.018517 0.734352
v 2.077506 1.549077 0.592911
v 2.512946 0.571717 0.609952
v 2.352466 0.539557 0.742752
v 2.346625 1.058517 -0.814768
v 2.077506 1.524357 -0.822848
v 2.512946 0.546997 -0.805808
v 2.101506 1.224357 -0.986369
v 2.414065 0.262837 -0.969569
v 2.352466 0.539557 0.742752
v 2.569266 0.036757 0.619311
v 2.405187 0.041797 0.751472
v 2.512946 0.571717 0.609952
v 2.513026 -0.498283 0.628592
v 2.352546 -0.462283 0.760272
v 2.569266 0.012037 -0.796449
v 2.512946 0.546997 -0.805808
v 2.513026 -0.523003 -0.787088
v 2.414065 0.262837 -0.969569
v 2.308465 -0.742763 -0.951969
v 1.200225 2.124997 0.715072
v 1.717425 1.948757 0.585951
v 1.607745 1.828997 0.720272
v 1.282146 2.264917 0.580432
v 2.077506 1.549077 0.592911
v 1.944865 1.454677 0.726751
v 1.717425 1.924037 -0.829809
v 1.282146 2.240197 -0.835329
v 2.077506 1.524357 -0.822848
v 1.424945 1.975637 -0.999409
v 2.101506 1.224357 -0.986369
v -2.414014 0.041397 0.751471
v -2.521535 0.570837 0.609951
v -2.361375 0.539157 0.742751
v -2.577695 0.035957 0.619311
v -2.355374 1.082517 0.601071
v -2.205773 1.018197 0.734431
v -2.521535 0.546117 -0.805809
v -2.577695 0.011237 -0.796449
v -2.355374 1.057797 -0.814689
v -2.422975 0.262437 -0.969569
v -2.110574 1.224037 -0.986369
v -2.205773 1.018197 0.734431
v -2.086493 1.548357 0.592911
v -1.953935 1.454357 0.726751
v -2.355374 1.082517 0.601071
v -1.726575 1.948197 0.585951
v -1.616895 1.828677 0.720272
v -2.086493 1.523637 -0.822848
v -2.355374 1.057797 -0.814689
v -1.726575 1.923477 -0.829809
v -2.110574 1.224037 -0.986369
v -1.433934 1.975477 -0.999409
v 1.200545 -2.047883 0.787952
v 0.791427 -2.410763 0.662032
v 0.740386 -2.252843 0.791472
v 1.282866 -2.191883 0.658192
v 0.265185 -2.522683 0.663951
v 0.247666 -2.357563 0.793312
v 0.791427 -2.435403 -0.753728
v 1.282866 -2.216603 -0.757568
v 0.265185 -2.547403 -0.751809
v 0.984946 -2.212763 -0.926369
v -0.004254 -2.423003 -0.922688
v 0.247666 -2.357563 0.793312
v -0.272815 -2.522763 0.663951
v -0.256095 -2.357643 0.793312
v 0.265185 -2.522683 0.663951
v -0.799054 -2.411003 0.662032
v -0.748815 -2.252923 0.791471
v -0.272815 -2.547483 -0.751809
v 0.265185 -2.547403 -0.751809
v -0.799054 -2.435723 -0.753728
v -0.004254 -2.423003 -0.922688
v -0.993295 -2.212923 -0.926369
v 1.945106 -1.377483 0.776192
v 1.718066 -1.875563 0.652671
v 1.608066 -1.751803 0.782752
v 2.077985 -1.475803 0.645712
v 1.282866 -2.191883 0.658192
v 1.200545 -2.047883 0.787952
v 1.718066 -1.900283 -0.763089
v 2.077985 -1.500523 -0.770048
v 1.282866 -2.216603 -0.757568
v 1.802945 -1.618363 -0.936688
v 0.984946 -2.212763 -0.926369
v -1.616574 -1.752123 0.782752
v -2.086015 -1.476443 0.645711
v -1.953694 -1.377883 0.776192
v -1.725934 -1.876203 0.652671
v -2.355054 -1.010683 0.637551
v -2.205615 -0.941643 0.768591
v -2.086015 -1.501163 -0.770049
v -1.725934 -1.900843 -0.763089
v -2.355054 -1.035323 -0.778209
v -1.811534 -1.618683 -0.936688
v -2.317214 -0.743083 -0.951969
v -2.205615 -0.941643 0.768591
v -2.521375 -0.499084 0.628672
v -2.361295 -0.462683 0.760271
v -2.355054 -1.010683 0.637551
v -2.577695 0.035957 0.619311
v -2.414014 0.041397 0.751471
v -2.521375 -0.523803 -0.787089
v -2.355054 -1.035323 -0.778209
v -2.577695 0.011237 -0.796449
v -2.317214 -0.743083 -0.951969
v -2.422975 0.262437 -0.969569
v -0.748815 -2.252923 0.791471
v -1.290574 -2.192283 0.658192
v -1.209054 -2.048123 0.787951
v -0.799054 -2.411003 0.662032
v -1.725934 -1.876203 0.652671
v -1.616574 -1.752123 0.782752
v -1.290574 -2.217003 -0.757568
v -0.799054 -2.435723 -0.753728
v -1.725934 -1.900843 -0.763089
v -0.993295 -2.212923 -0.926369
v -1.811534 -1.618683 -0.936688
v 2.352546 -0.462283 0.760272
v 2.346946 -1.009883 0.637551
v 2.196946 -0.941323 0.768592
v 2.513026 -0.498283 0.628592
v 2.077985 -1.475803 0.645712
v 1.945106 -1.377483 0.776192
v 2.346946 -1.034603 -0.778209
v 2.513026 -0.523003 -0.787088
v 2.077985 -1.500523 -0.770048
v 2.308465 -0.742763 -0.951969
v 1.802945 -1.618363 -0.936688
v 1.638705 0.041317 0.744351
v 1.602786 -0.303003 0.750432
v 2.352546 -0.462283 0.760272
v 2.405187 0.041797 0.751472
v 1.496625 -0.629723 0.756112
v 2.196946 -0.941323 0.768592
v 1.324866 -0.927163 0.761312
v 1.945106 -1.377483 0.776192
v 1.095025 -1.182443 0.765711
v 1.608066 -1.751803 0.782752
v 0.817105 -1.384283 0.769311
v 1.200545 -2.047883 0.787952
v 0.503266 -1.524043 0.771711
v 0.740386 -2.252843 0.791472
v 0.167266 -1.595403 0.772992
v 0.247666 -2.357563 0.793312
v -0.176333 -1.595403 0.772992
v -0.256095 -2.357643 0.793312
v -0.512334 -1.524043 0.771711
v -0.748815 -2.252923 0.791471
v -0.827695 -1.383403 0.769231
v -1.209054 -2.048123 0.787951
v -1.104095 -1.182443 0.765711
v -1.616574 -1.752123 0.782752
v -1.333934 -0.927163 0.761311
v -1.953694 -1.377883 0.776192
v -1.505694 -0.629723 0.756112
v -2.205615 -0.941643 0.768591
v -1.611854 -0.303003 0.750431
v -2.361295 -0.462683 0.760271
v -1.647775 0.041317 0.744351
v -2.414014 0.041397 0.751471
v -1.611854 0.380197 0.738512
v -2.361375 0.539157 0.742751
v -1.505694 0.706837 0.732751
v -2.205773 1.018197 0.734431
v -1.333934 1.004277 0.727551
v -1.953935 1.454357 0.726751
v -1.104095 1.259557 0.723152
v -1.616895 1.828677 0.720272
v -0.826175 1.461477 0.719632
v -1.209374 2.124757 0.715072
v -0.512334 1.601157 0.717152
v -0.749215 2.329717 0.711471
v -0.176333 1.672597 0.715951
v -0.256494 2.434437 0.709712
v 0.167266 1.672597 0.715951
v 0.247266 2.434517 0.709712
v 0.503266 1.601157 0.717152
v 0.739985 2.329797 0.711472
v 0.815505 1.462357 0.719552
v 1.200225 2.124997 0.715072
v 1.095025 1.259557 0.723152
v 1.607745 1.828997 0.720272
v 1.324866 1.004277 0.727552
v 1.944865 1.454677 0.726751
v 1.496625 0.706837 0.732751
v 2.196786 1.018517 0.734352
v 1.602786 0.380197 0.738512
v 2.352466 0.539557 0.742752
v 0.223105 0.728757 0.197711
v -0.058894 0.372277 0.103392
v -0.004254 0.764757 0.197072
v 0.154305 0.338517 0.104032
v -0.050334 0.318997 0.149712
v 0.129426 0.290517 0.150191
v -0.033534 0.220597 0.586751
v 0.080707 0.202517 0.587071
v 0.070065 0.182037 0.608992
v -0.004254 0.036677 0.641871
v -0.029855 0.197797 0.608751
v -0.231614 0.728757 0.197711
v -0.251134 0.274277 0.105152
v -0.436654 0.624277 0.199552
v -0.212415 0.236357 0.151152
v -0.136575 0.168117 0.587711
v -0.120015 0.151877 0.609551
v -0.599454 0.461557 0.202432
v -0.349133 0.082037 0.108511
v -0.703935 0.256437 0.205952
v -0.295054 0.074277 0.154031
v -0.189134 0.065077 0.589471
v -0.165935 0.061797 0.611152
v -0.739934 0.029157 0.209951
v -0.315373 -0.131083 0.112192
v -0.703935 -0.198203 0.213871
v -0.266574 -0.105483 0.157152
v -0.170974 -0.049163 0.591472
v -0.150094 -0.038123 0.612832
v -0.599454 -0.403243 0.217472
v -0.162734 -0.283723 0.114912
v -0.436654 -0.565963 0.220352
v -0.137935 -0.234123 0.159391
v -0.089213 -0.130923 0.592911
v -0.078574 -0.109643 0.614111
v -0.231614 -0.670443 0.222191
v 0.050385 -0.317483 0.115471
v -0.004254 -0.706443 0.222752
v 0.041825 -0.262603 0.159872
v 0.025025 -0.149083 0.593232
v 0.021346 -0.125484 0.614431
v 0.223105 -0.670443 0.222191
v 0.242705 -0.219483 0.113791
v 0.428226 -0.565963 0.220352
v 0.203986 -0.179963 0.158432
v 0.128146 -0.096523 0.592271
v 0.111506 -0.079563 0.613631
v 0.591025 -0.403243 0.217472
v 0.340705 -0.027243 0.110432
v 0.695506 -0.198203 0.213872
v 0.286626 -0.017883 0.155632
v 0.180625 0.006517 0.590511
v 0.157426 0.010597 0.612031
v 0.731505 0.029157 0.209951
v 0.306945 0.185877 0.106671
v 0.695506 0.256437 0.205952
v 0.258145 0.161877 0.152432
v 0.162545 0.120757 0.588511
v 0.141665 0.110437 0.610271
v 0.591025 0.461557 0.202432
v 0.428226 0.624277 0.199552
v 0.259665 0.841317 0.194111
v -0.004254 0.883077 0.193312
v 0.223105 0.728757 0.197711
v -0.268174 0.841317 0.194111
v -0.436654 0.624277 0.199552
v -0.506255 0.720037 0.196191
v -0.599454 0.461557 0.202432
v -0.695214 0.531077 0.199471
v -0.703935 0.256437 0.205952
v -0.816575 0.292997 0.203631
v -0.739934 0.029157 0.209951
v -0.858335 0.029157 0.208271
v -0.703935 -0.198203 0.213871
v -0.816575 -0.234763 0.212831
v -0.599454 -0.403243 0.217472
v -0.695214 -0.472843 0.216991
v -0.436654 -0.565963 0.220352
v -0.506255 -0.661723 0.220352
v -0.231614 -0.670443 0.222191
v -0.268174 -0.783083 0.222432
v -0.004254 -0.706443 0.222752
v -0.004254 -0.824843 0.223152
v 0.223105 -0.670443 0.222191
v 0.259665 -0.783083 0.222432
v 0.428226 -0.565963 0.220352
v 0.497827 -0.661723 0.220352
v 0.591025 -0.403243 0.217472
v 0.686786 -0.472843 0.216991
v 0.695506 -0.198203 0.213872
v 0.808066 -0.234763 0.212832
v 0.731505 0.029157 0.209951
v 0.849906 0.029157 0.208272
v 0.695506 0.256437 0.205952
v 0.808066 0.292997 0.203631
v 0.591025 0.461557 0.202432
v 0.686786 0.531077 0.199472
v 0.428226 0.624277 0.199552
v 0.497827 0.720037 0.196191
v -0.004254 0.986277 0.154751
v -0.300254 0.939397 0.155551
v -0.165935 1.148677 0.059631
v -0.396495 1.232837 -0.001089
v -0.200015 1.263957 -0.001568
v -0.088735 1.077877 0.101632
v -0.004254 1.048117 0.123312
v 0.291825 0.939397 0.155551
v 0.080306 1.077877 0.101632
v 0.387986 1.232837 -0.001089
v 0.157426 1.148677 0.059631
v 0.191586 1.263957 -0.001568
v 0.558866 0.803397 0.157871
v 0.524467 1.029397 0.061711
v 0.565187 1.142517 0.000512
v 0.544785 0.926917 0.104271
v 0.595506 0.853317 0.126671
v 0.770785 0.591477 0.161632
v 0.681586 0.827637 0.105951
v 1.022626 0.771797 0.006991
v 0.785985 0.839397 0.065072
v 0.881986 0.912437 0.004511
v 0.906865 0.324437 0.166272
v 1.012866 0.527237 0.070511
v 1.112947 0.594597 0.010111
v 0.968705 0.432517 0.112912
v 0.966146 0.343237 0.135632
v 0.953746 0.028517 0.171472
v 1.020946 0.271797 0.115712
v 1.265025 0.025877 0.020032
v 1.112786 0.219797 0.075872
v 1.233905 0.222277 0.016592
v 0.906865 -0.267483 0.176591
v 1.112786 -0.166043 0.082592
v 1.233905 -0.170603 0.023471
v 1.020946 -0.216603 0.124191
v 0.966146 -0.287323 0.146592
v 0.770785 -0.534523 0.181232
v 0.968705 -0.377323 0.126991
v 1.022626 -0.720123 0.032991
v 1.012866 -0.473483 0.087952
v 1.112947 -0.542923 0.029952
v 0.558866 -0.746443 0.184991
v 0.785985 -0.785643 0.093391
v 0.881986 -0.860763 0.035471
v 0.681586 -0.772443 0.133872
v 0.595506 -0.797403 0.155471
v 0.291825 -0.882443 0.187312
v 0.544785 -0.871803 0.135632
v 0.387986 -1.181163 0.041071
v 0.524467 -0.975643 0.096752
v 0.565187 -1.090843 0.039472
v -0.004254 -0.929323 0.188191
v 0.157426 -1.094923 0.098832
v 0.191586 -1.212283 0.041632
v 0.080306 -1.022683 0.138271
v -0.004254 -0.992203 0.158912
v -0.300254 -0.882443 0.187312
v -0.088735 -1.022683 0.138271
v -0.396495 -1.181163 0.041071
v -0.165935 -1.094923 0.098832
v -0.200015 -1.212283 0.041632
v -0.567294 -0.746443 0.184991
v -0.532895 -0.975643 0.096752
v -0.573695 -1.090843 0.039472
v -0.553294 -0.871803 0.135632
v -0.603934 -0.797403 0.155471
v -0.779214 -0.534523 0.181231
v -0.690015 -0.772443 0.133872
v -1.031135 -0.720123 0.032991
v -0.794494 -0.785643 0.093391
v -0.890494 -0.860763 0.035471
v -0.915294 -0.267483 0.176591
v -1.021295 -0.473483 0.087952
v -1.121375 -0.542923 0.029952
v -0.977134 -0.377323 0.126991
v -0.974654 -0.287323 0.146592
v -0.962174 0.028517 0.171472
v -1.029374 -0.216603 0.124191
v -1.273534 0.025877 0.020031
v -1.121215 -0.166043 0.082591
v -1.242414 -0.170603 0.023471
v -0.915294 0.324437 0.166272
v -1.121215 0.219797 0.075871
v -1.242414 0.222277 0.016591
v -1.029374 0.271797 0.115712
v -0.974654 0.343237 0.135632
v -0.779214 0.591477 0.161632
v -0.977134 0.432517 0.112912
v -1.031135 0.771797 0.006991
v -1.021295 0.527237 0.070511
v -1.121375 0.594597 0.010111
v -0.567294 0.803397 0.157871
v -0.794494 0.839397 0.065072
v -0.890494 0.912437 0.004511
v -0.690015 0.827637 0.105951
v -0.603934 0.853317 0.126671
v -0.553294 0.926917 0.104271
v -0.532895 1.029397 0.061711
v -0.573695 1.142517 0.000512
v 0.499745 1.589717 0.741151
v 0.151425 1.518597 0.701312
v 0.166226 1.660597 0.739952
v 0.455825 1.453877 0.702432
v -0.159854 1.518597 0.701312
v -0.174735 1.660597 0.739952
v -0.464334 1.453877 0.702432
v -0.508174 1.589717 0.741151
v 0.439506 1.402197 0.625792
v 0.119105 1.199397 -0.000449
v 0.145825 1.464597 0.624671
v 0.360465 1.148117 0.000432
v -0.127614 1.199397 -0.000449
v -0.154334 1.464597 0.624671
v -0.368894 1.148117 0.000432
v -0.447934 1.402197 0.625792
v 0.147746 1.482917 0.666272
v 0.444945 1.419717 0.667391
v -0.156175 1.482917 0.666272
v -0.453374 1.419717 0.667391
v -0.508174 -1.511883 0.795311
v -0.159854 -1.442283 0.752992
v -0.174735 -1.582763 0.796512
v -0.464334 -1.377563 0.751872
v 0.151425 -1.442283 0.752992
v 0.166226 -1.582763 0.796512
v 0.455825 -1.377563 0.751872
v 0.499745 -1.511883 0.795311
v -0.447934 -1.328523 0.673391
v -0.127614 -1.147723 0.040512
v -0.154334 -1.390923 0.674511
v -0.368894 -1.096443 0.039631
v 0.119105 -1.147723 0.040512
v 0.145825 -1.390923 0.674511
v 0.360465 -1.096443 0.039631
v 0.439506 -1.328523 0.673391
v -0.156175 -1.407803 0.716671
v -0.453374 -1.344603 0.715631
v 0.147746 -1.407803 0.716671
v 0.444945 -1.344603 0.715631
v -1.323615 -0.919563 0.784991
v -1.000415 -1.068043 0.746431
v -1.095454 -1.172843 0.789391
v -1.208734 -0.836763 0.742432
v -0.748654 -1.251003 0.749631
v -0.819694 -1.373243 0.792911
v -0.464334 -1.377563 0.751872
v -0.508174 -1.511883 0.795311
v -1.165854 -0.807003 0.664351
v -0.793935 -0.851083 0.035312
v -0.965055 -1.030043 0.668191
v -0.959054 -0.667723 0.032112
v -0.594335 -0.996123 0.037871
v -0.722175 -1.206523 0.671311
v -0.368894 -1.096443 0.039631
v -0.447934 -1.328523 0.673391
v -0.976815 -1.042443 0.710351
v -1.180175 -0.816683 0.706431
v -0.730975 -1.221083 0.713471
v -0.453374 -1.344603 0.715631
v -1.635055 0.038917 0.768271
v -1.460494 -0.271323 0.732511
v -1.599454 -0.300123 0.774191
v -1.493054 0.038197 0.727151
v -1.364335 -0.567243 0.737711
v -1.494094 -0.624363 0.779791
v -1.208734 -0.836763 0.742432
v -1.323615 -0.919563 0.784991
v -1.440095 0.036837 0.649551
v -1.158654 -0.219483 0.024271
v -1.408734 -0.261643 0.654831
v -1.184415 0.025877 0.020031
v -1.082414 -0.454123 0.028351
v -1.315934 -0.547083 0.659791
v -0.959054 -0.667723 0.032112
v -1.165854 -0.807003 0.664351
v -1.426015 -0.264603 0.696752
v -1.457774 0.037557 0.691472
v -1.332095 -0.553563 0.701791
v -1.180175 -0.816683 0.706431
v -1.323615 0.997317 0.751471
v -1.364335 0.643637 0.716591
v -1.494094 0.702117 0.756671
v -1.208734 0.913157 0.711872
v -1.460494 0.347637 0.721712
v -1.599454 0.377957 0.762351
v -1.493054 0.038197 0.727151
v -1.635055 0.038917 0.768271
v -1.165854 0.880677 0.634831
v -1.082414 0.505797 0.011631
v -1.315934 0.620757 0.639391
v -0.959054 0.719477 0.007872
v -1.158654 0.271157 0.015711
v -1.408734 0.335317 0.644351
v -1.184415 0.025877 0.020031
v -1.440095 0.036837 0.649551
v -1.332095 0.628677 0.681151
v -1.180175 0.891797 0.676591
v -1.426015 0.339717 0.686191
v -1.457774 0.037557 0.691472
v -0.508174 1.589717 0.741151
v -0.748654 1.327317 0.704591
v -0.819694 1.451077 0.743551
v -0.464334 1.453877 0.702432
v -1.000415 1.144437 0.707791
v -1.095454 1.250677 0.747071
v -1.208734 0.913157 0.711872
v -1.323615 0.997317 0.751471
v -0.447934 1.402197 0.625792
v -0.594335 1.047797 0.002192
v -0.722175 1.280117 0.627871
v -0.368894 1.148117 0.000432
v -0.793935 0.902757 0.004672
v -0.965055 1.103717 0.630991
v -0.959054 0.719477 0.007872
v -1.165854 0.880677 0.634831
v -0.730975 1.296197 0.669551
v -0.453374 1.419717 0.667391
v -0.976815 1.117557 0.672592
v -1.180175 0.891797 0.676591
v 1.315187 0.997317 0.751472
v 0.991986 1.144437 0.707791
v 1.087026 1.250677 0.747071
v 1.200225 0.913157 0.711872
v 0.740146 1.327317 0.704591
v 0.811185 1.451077 0.743551
v 0.455825 1.453877 0.702432
v 0.499745 1.589717 0.741151
v 1.157426 0.880677 0.634831
v 0.785506 0.902757 0.004672
v 0.956546 1.103717 0.630992
v 0.950545 0.719477 0.007872
v 0.585906 1.047797 0.002192
v 0.713666 1.280117 0.627872
v 0.360465 1.148117 0.000432
v 0.439506 1.402197 0.625792
v 0.968387 1.117557 0.672592
v 1.171746 0.891797 0.676591
v 0.722547 1.296197 0.669551
v 0.444945 1.419717 0.667391
v 1.626626 0.038917 0.768272
v 1.452065 0.347717 0.721712
v 1.591025 0.377957 0.762352
v 1.484546 0.038197 0.727151
v 1.355826 0.643637 0.716591
v 1.485665 0.702117 0.756671
v 1.200225 0.913157 0.711872
v 1.315187 0.997317 0.751472
v 1.431666 0.036837 0.649551
v 1.150146 0.271157 0.015711
v 1.400226 0.335317 0.644352
v 1.175986 0.025877 0.020032
v 1.073905 0.505797 0.011632
v 1.307506 0.620757 0.639391
v 0.950545 0.719477 0.007872
v 1.157426 0.880677 0.634831
v 1.417586 0.339717 0.686192
v 1.449346 0.037557 0.691472
v 1.323667 0.628677 0.681151
v 1.171746 0.891797 0.676591
v 1.315187 -0.919563 0.784991
v 1.355826 -0.567243 0.737711
v 1.485665 -0.624363 0.779791
v 1.200225 -0.836763 0.742432
v 1.452065 -0.271323 0.732512
v 1.591025 -0.300123 0.774191
v 1.484546 0.038197 0.727151
v 1.626626 0.038917 0.768272
v 1.157426 -0.807003 0.664352
v 1.073905 -0.454123 0.028351
v 1.307506 -0.547083 0.659792
v 0.950545 -0.667723 0.032112
v 1.150146 -0.219483 0.024272
v 1.400226 -0.261643 0.654831
v 1.175986 0.025877 0.020032
v 1.431666 0.036837 0.649551
v 1.323667 -0.553563 0.701791
v 1.171746 -0.816683 0.706431
v 1.417586 -0.264603 0.696752
v 1.449346 0.037557 0.691472
v 0.499745 -1.511883 0.795311
v 0.740146 -1.251003 0.749631
v 0.811185 -1.373243 0.792912
v 0.455825 -1.377563 0.751872
v 0.991986 -1.068043 0.746431
v 1.087026 -1.172843 0.789392
v 1.200225 -0.836763 0.742432
v 1.315187 -0.919563 0.784991
v 0.439506 -1.328523 0.673391
v 0.585906 -0.996123 0.037871
v 0.713666 -1.206523 0.671311
v 0.360465 -1.096443 0.039631
v 0.785506 -0.851083 0.035312
v 0.956546 -1.030043 0.668191
v 0.950545 -0.667723 0.032112
v 1.157426 -0.807003 0.664352
v 0.722547 -1.221083 0.713471
v 0.444945 -1.344603 0.715631
v 0.968387 -1.042443 0.710352
v 1.171746 -0.816683 0.706431
v 0.503266 1.601157 0.717152
v 0.167266 1.672597 0.715951
v 0.815505 1.462357 0.719552
v 1.095025 1.259557 0.723152
v 1.324866 1.004277 0.727552
v 1.496625 0.706837 0.732751
v 1.602786 0.380197 0.738512
v 1.638705 0.041317 0.744351
v 1.602786 -0.303003 0.750432
v 1.496625 -0.629723 0.756112
v 1.324866 -0.927163 0.761312
v 1.095025 -1.182443 0.765711
v 0.817105 -1.384283 0.769311
v 0.503266 -1.524043 0.771711
v 0.167266 -1.595403 0.772992
v -0.176333 -1.595403 0.772992
v -0.512334 -1.524043 0.771711
v -0.827695 -1.383403 0.769231
v -1.104095 -1.182443 0.765711
v -1.333934 -0.927163 0.761311
v -1.505694 -0.629723 0.756112
v -1.611854 -0.303003 0.750431
v -1.647775 0.041317 0.744351
v -1.611854 0.380197 0.738512
v -1.505694 0.706837 0.732751
v -1.333934 1.004277 0.727551
v -1.104095 1.259557 0.723152
v -0.826175 1.461477 0.719632
v -0.512334 1.601157 0.717152
v -0.176333 1.672597 0.715951
vn -0.9754 0.0906 0.2010
vn -0.9754 -0.0836 0.2040
vn -0.8883 0.4157 0.1953
vn -0.8012 0.5666 0.1927
vn -0.5631 0.8046 0.1885
vn -0.4123 0.8917 0.1870
vn -0.0871 0.9788 0.1855
vn 0.0871 0.9788 0.1855
vn 0.4123 0.8917 0.1870
vn 0.5631 0.8046 0.1885
vn 0.8012 0.5666 0.1927
vn 0.8883 0.4157 0.1953
vn 0.9754 0.0906 0.2010
vn 0.9754 -0.0835 0.2040
vn 0.8883 -0.4087 0.2097
vn 0.8012 -0.5595 0.2123
vn 0.5631 -0.7975 0.2165
vn 0.4123 -0.8846 0.2180
vn 0.0871 -0.9717 0.2195
vn -0.0871 -0.9717 0.2195
vn -0.4123 -0.8846 0.2180
vn -0.5631 -0.7975 0.2165
vn -0.8012 -0.5595 0.2123
vn -0.8883 -0.4087 0.2097
vn -0.0000 0.0175 0.9998
vn 0.8661 0.4999 -0.0087
vn 0.6427 0.7660 -0.0134
vn 0.3420 0.9396 -0.0164
vn -0.0000 0.9998 -0.0175
vn -0.3420 0.9396 -0.0164
vn -0.6428 0.7660 -0.0134
vn -0.6428 0.7659 -0.0134
vn -0.8661 0.4999 -0.0087
vn -0.9848 0.1736 -0.0030
vn 0.9848 0.1736 -0.0030
vn -0.9848 -0.1736 0.0030
vn -0.8660 -0.4999 0.0087
vn 0.6428 -0.7659 0.0134
vn -0.3420 -0.9396 0.0164
vn -0.0000 -0.9998 0.0175
vn 0.3420 -0.9396 0.0164
vn -0.6429 -0.7659 0.0134
vn 0.8660 -0.4999 0.0087
vn 0.9848 -0.1736 0.0030
vn -0.1743 0.1062 0.9790
vn -0.1893 0.0383 0.9812
vn 0.7337 -0.0362 0.6785
vn 0.6944 -0.2228 0.6842
vn -0.2356 -0.3543 0.9050
vn 0.5297 -0.4421 0.7238
vn -0.9568 0.2907 -0.0051
vn -0.9992 -0.0408 0.0007
vn -0.8825 0.0335 0.4690
vn -0.8213 0.3278 0.4669
vn -0.7441 -0.6680 0.0118
vn -0.8188 -0.4392 0.3696
vn 0.8043 -0.5852 0.1035
vn -0.1144 -0.9578 0.2636
vn -0.1475 -0.9889 0.0176
vn 0.9839 -0.1324 0.1201
vn 0.9145 -0.3848 0.1252
vn -0.1344 0.1615 0.9777
vn 0.6107 -0.4033 0.6815
vn 0.1864 0.3166 0.9301
vn 0.9134 0.0181 0.4066
vn -0.8015 0.5979 -0.0104
vn -0.6680 0.5845 0.4606
vn -0.2775 0.9606 -0.0167
vn -0.2623 0.7989 0.5412
vn 0.9914 -0.0653 0.1138
vn 0.6607 0.7505 0.0118
vn 0.4624 0.8458 0.2662
vn 0.7864 -0.6048 0.1261
vn -0.2127 0.0128 0.9770
vn -0.2089 0.0571 0.9763
vn 0.1433 -0.0220 0.9894
vn 0.1483 0.0088 0.9889
vn -0.1960 0.0998 0.9755
vn 0.1320 -0.0509 0.9899
vn -0.1744 0.1387 0.9749
vn 0.1149 -0.0769 0.9904
vn -0.1453 0.1723 0.9743
vn 0.0929 -0.0987 0.9908
vn -0.1099 0.1991 0.9738
vn 0.0667 -0.1154 0.9911
vn -0.0696 0.2180 0.9735
vn 0.0376 -0.1264 0.9913
vn -0.0263 0.2281 0.9733
vn 0.0070 -0.1311 0.9913
vn 0.0181 0.2289 0.9733
vn -0.0241 -0.1293 0.9913
vn 0.0618 0.2205 0.9734
vn -0.0540 -0.1211 0.9912
vn 0.1028 0.2032 0.9737
vn -0.0816 -0.1068 0.9909
vn 0.1393 0.1778 0.9742
vn -0.1056 -0.0872 0.9906
vn 0.1697 0.1454 0.9747
vn -0.1251 -0.0630 0.9901
vn 0.1926 0.1073 0.9754
vn -0.1390 -0.0352 0.9897
vn 0.2072 0.0652 0.9761
vn -0.1469 -0.0051 0.9891
vn 0.2127 0.0210 0.9769
vn -0.1483 0.0260 0.9886
vn 0.2090 -0.0232 0.9776
vn -0.1433 0.0565 0.9881
vn 0.1961 -0.0657 0.9784
vn -0.1320 0.0855 0.9876
vn 0.1745 -0.1047 0.9791
vn -0.1150 0.1114 0.9871
vn 0.1454 -0.1383 0.9797
vn -0.0929 0.1333 0.9867
vn 0.1099 -0.1651 0.9801
vn -0.0667 0.1500 0.9864
vn 0.0697 -0.1840 0.9804
vn -0.0377 0.1610 0.9862
vn 0.0264 -0.1941 0.9806
vn -0.0069 0.1657 0.9862
vn -0.0182 -0.1949 0.9806
vn 0.0241 0.1639 0.9862
vn -0.0618 -0.1865 0.9805
vn 0.0540 0.1557 0.9863
vn -0.1027 -0.1693 0.9802
vn 0.0816 0.1414 0.9866
vn -0.1393 -0.1438 0.9798
vn 0.1057 0.1218 0.9869
vn -0.1697 -0.1113 0.9792
vn 0.1251 0.0975 0.9873
vn -0.1927 -0.0732 0.9785
vn 0.1390 0.0697 0.9878
vn -0.2072 -0.0313 0.9778
vn 0.1469 0.0398 0.9884
vn -0.0857 -0.0203 -0.9961
vn -0.0794 0.0148 -0.9967
vn -0.0832 0.0033 -0.9965
vn -0.0845 -0.0324 -0.9959
vn -0.0595 0.0443 -0.9972
vn -0.0676 0.0353 -0.9971
vn -0.0292 0.0631 -0.9976
vn -0.0403 0.0582 -0.9975
vn 0.0061 0.0681 -0.9977
vn -0.0060 0.0681 -0.9977
vn 0.0403 0.0583 -0.9975
vn 0.0293 0.0632 -0.9976
vn 0.0677 0.0354 -0.9971
vn 0.0596 0.0444 -0.9972
vn 0.0835 0.0033 -0.9965
vn 0.0797 0.0149 -0.9967
vn 0.0847 -0.0324 -0.9959
vn 0.0860 -0.0203 -0.9961
vn 0.0713 -0.0656 -0.9953
vn 0.0774 -0.0551 -0.9955
vn 0.0456 -0.0904 -0.9949
vn 0.0554 -0.0833 -0.9950
vn 0.0119 -0.1026 -0.9946
vn 0.0238 -0.1001 -0.9947
vn -0.0238 -0.1000 -0.9947
vn -0.0119 -0.1026 -0.9947
vn -0.0553 -0.0832 -0.9950
vn -0.0455 -0.0903 -0.9949
vn -0.0772 -0.0550 -0.9955
vn -0.0712 -0.0655 -0.9953
vn 0.0003 0.5447 0.8387
vn -0.6015 0.7955 -0.0733
vn -0.7217 0.0911 0.6862
vn 0.0598 -0.3122 0.9481
vn 0.9022 0.0193 0.4308
vn 0.5242 -0.7144 0.4636
vn 0.9719 0.1975 -0.1280
vn -0.6480 -0.6387 0.4150
vn -0.9246 0.3196 -0.2072
vn -0.3088 0.7977 -0.5180
vn -0.3091 0.7976 -0.5180
vn 0.8090 0.4929 -0.3201
vn 0.8090 0.4930 -0.3202
vn -0.1310 0.6295 0.7659
vn -0.0438 0.6397 0.7674
vn -0.0872 0.9049 0.4165
vn -0.1995 0.9428 0.2669
vn -0.0001 0.6430 0.7659
vn -0.0001 0.8337 0.5522
vn -0.1052 0.9150 -0.3894
vn -0.1972 0.9216 -0.3344
vn -0.0002 0.9600 -0.2799
vn -0.0835 0.7241 -0.6846
vn -0.0001 0.6691 -0.7432
vn 0.1308 0.6295 0.7659
vn 0.2146 0.6032 0.7682
vn 0.2853 0.8628 0.4173
vn 0.1992 0.9429 0.2670
vn 0.2558 0.5884 0.7671
vn 0.3350 0.7624 0.5536
vn 0.2787 0.8781 -0.3889
vn 0.1970 0.9215 -0.3346
vn 0.3923 0.8767 -0.2786
vn 0.2230 0.6943 -0.6843
vn 0.2773 0.6100 -0.7423
vn -0.3702 0.5230 0.7677
vn -0.2948 0.5679 0.7685
vn -0.4448 0.7919 0.4183
vn -0.5638 0.7806 0.2697
vn -0.2562 0.5887 0.7666
vn -0.3353 0.7625 0.5533
vn -0.4710 0.7926 -0.3871
vn -0.5574 0.7612 -0.3315
vn -0.3926 0.8766 -0.2784
vn -0.3758 0.6267 -0.6827
vn -0.2775 0.6103 -0.7420
vn 0.5450 0.3282 0.7716
vn 0.5818 0.2486 0.7744
vn 0.8266 0.3678 0.4260
vn 0.8304 0.4845 0.2751
vn 0.5985 0.2081 0.7736
vn 0.7835 0.2646 0.5623
vn 0.8440 0.3783 -0.3802
vn 0.8208 0.4685 -0.3267
vn 0.9175 0.2936 -0.2684
vn 0.6739 0.2950 -0.6773
vn 0.6485 0.1980 -0.7350
vn 0.6262 0.0796 0.7756
vn 0.6273 -0.0080 0.7787
vn 0.9017 0.0006 0.4324
vn 0.9537 0.1053 0.2816
vn 0.6261 -0.0518 0.7780
vn 0.8193 -0.0760 0.5684
vn 0.9276 0.0018 -0.3735
vn 0.9427 0.0936 -0.3201
vn 0.9595 -0.1054 -0.2613
vn 0.7405 -0.0056 -0.6720
vn 0.6785 -0.0841 -0.7298
vn 0.3699 0.5226 0.7681
vn 0.4359 0.4649 0.7706
vn 0.6086 0.6728 0.4207
vn 0.5636 0.7808 0.2699
vn 0.4676 0.4348 0.7696
vn 0.6122 0.5611 0.5571
vn 0.6145 0.6883 -0.3856
vn 0.5571 0.7613 -0.3318
vn 0.7168 0.6410 -0.2744
vn 0.4909 0.5425 -0.6817
vn 0.5067 0.4436 -0.7393
vn -0.6273 0.0796 0.7747
vn -0.6097 0.1657 0.7751
vn -0.8808 0.2019 0.4282
vn -0.9539 0.1050 0.2810
vn -0.5995 0.2081 0.7729
vn -0.7840 0.2645 0.5617
vn -0.9093 0.1782 -0.3761
vn -0.9430 0.0933 -0.3195
vn -0.9176 0.2934 -0.2681
vn -0.7264 0.1363 -0.6737
vn -0.6494 0.1982 -0.7341
vn -0.5458 0.3286 0.7708
vn -0.4950 0.4002 0.7712
vn -0.7255 0.5432 0.4225
vn -0.8307 0.4843 0.2747
vn -0.4682 0.4351 0.7690
vn -0.6126 0.5611 0.5566
vn -0.7554 0.5320 -0.3824
vn -0.8212 0.4683 -0.3261
vn -0.7171 0.6408 -0.2742
vn -0.6031 0.4188 -0.6788
vn -0.5072 0.4437 -0.7389
vn 0.2564 -0.5620 0.7864
vn 0.1732 -0.5903 0.7884
vn 0.2720 -0.8522 0.4469
vn 0.3902 -0.8710 0.2984
vn 0.1310 -0.6027 0.7871
vn 0.1716 -0.7963 0.5801
vn 0.2946 -0.8862 -0.3575
vn 0.3858 -0.8716 -0.3026
vn 0.2008 -0.9482 -0.2464
vn 0.2349 -0.7148 -0.6587
vn 0.1421 -0.6803 -0.7190
vn 0.0001 -0.6167 0.7872
vn -0.0875 -0.6088 0.7885
vn -0.1013 -0.8886 0.4474
vn 0.0001 -0.9540 0.2998
vn -0.1311 -0.6028 0.7871
vn -0.1712 -0.7964 0.5800
vn -0.0887 -0.9300 -0.3567
vn 0.0001 -0.9536 -0.3012
vn -0.2005 -0.9482 -0.2463
vn -0.0714 -0.7496 -0.6581
vn -0.1419 -0.6806 -0.7187
vn 0.4681 -0.4078 0.7840
vn 0.4037 -0.4675 0.7864
vn 0.5982 -0.6672 0.4438
vn 0.7128 -0.6366 0.2944
vn 0.3704 -0.4960 0.7854
vn 0.4845 -0.6567 0.5779
vn 0.6270 -0.6903 -0.3611
vn 0.7047 -0.6397 -0.3070
vn 0.5672 -0.7849 -0.2492
vn 0.5004 -0.5582 -0.6619
vn 0.4013 -0.5648 -0.7211
vn -0.4685 -0.4083 0.7834
vn -0.5212 -0.3380 0.7837
vn -0.7339 -0.5169 0.4408
vn -0.7127 -0.6368 0.2942
vn -0.5460 -0.3017 0.7816
vn -0.7139 -0.4024 0.5731
vn -0.7458 -0.5585 -0.3631
vn -0.7045 -0.6401 -0.3065
vn -0.8355 -0.4871 -0.2543
vn -0.5963 -0.4525 -0.6631
vn -0.5914 -0.3542 -0.7244
vn -0.5996 -0.1814 0.7794
vn -0.6188 -0.0954 0.7797
vn -0.8837 -0.1731 0.4348
vn -0.9121 -0.2915 0.2881
vn -0.6263 -0.0519 0.7778
vn -0.8197 -0.0761 0.5677
vn -0.9059 -0.2075 -0.3693
vn -0.9018 -0.2986 -0.3125
vn -0.9596 -0.1055 -0.2610
vn -0.7240 -0.1719 -0.6681
vn -0.6792 -0.0842 -0.7291
vn -0.2564 -0.5624 0.7862
vn -0.3332 -0.5195 0.7869
vn -0.4571 -0.7700 0.4452
vn -0.3900 -0.8712 0.2983
vn -0.3705 -0.4968 0.7848
vn -0.4845 -0.6571 0.5775
vn -0.4568 -0.8141 -0.3587
vn -0.3855 -0.8717 -0.3024
vn -0.5670 -0.7851 -0.2491
vn -0.3654 -0.6569 -0.6595
vn -0.4014 -0.5652 -0.7207
vn 0.5988 -0.1809 0.7802
vn 0.5643 -0.2616 0.7830
vn 0.8209 -0.3656 0.4386
vn 0.9122 -0.2912 0.2885
vn 0.5457 -0.3012 0.7820
vn 0.7137 -0.4019 0.5736
vn 0.8509 -0.3762 -0.3668
vn 0.9017 -0.2983 -0.3131
vn 0.8356 -0.4868 -0.2546
vn 0.6792 -0.3073 -0.6665
vn 0.5909 -0.3538 -0.7251
vn -0.3277 0.0277 0.9444
vn -0.3181 0.0957 0.9432
vn 0.3772 -0.0501 0.9248
vn 0.3827 0.0298 0.9234
vn -0.2946 0.1602 0.9421
vn 0.3551 -0.1272 0.9261
vn -0.2583 0.2183 0.9411
vn 0.3175 -0.1979 0.9274
vn -0.2107 0.2676 0.9402
vn 0.2661 -0.2592 0.9284
vn -0.1538 0.3059 0.9396
vn 0.2030 -0.3085 0.9293
vn -0.0903 0.3315 0.9391
vn 0.1310 -0.3436 0.9299
vn -0.0229 0.3434 0.9389
vn 0.0534 -0.3630 0.9303
vn 0.0456 0.3410 0.9389
vn -0.0267 -0.3658 0.9303
vn 0.1122 0.3244 0.9392
vn -0.1055 -0.3520 0.9301
vn 0.1739 0.2944 0.9397
vn -0.1798 -0.3220 0.9295
vn 0.2278 0.2522 0.9405
vn -0.2462 -0.2773 0.9287
vn 0.2718 0.1998 0.9414
vn -0.3018 -0.2197 0.9277
vn 0.3040 0.1393 0.9424
vn -0.3442 -0.1518 0.9265
vn 0.3230 0.0732 0.9436
vn -0.3717 -0.0765 0.9252
vn 0.3277 0.0047 0.9448
vn -0.3829 0.0029 0.9238
vn 0.3182 -0.0630 0.9459
vn -0.3773 0.0827 0.9224
vn 0.2948 -0.1273 0.9471
vn -0.3553 0.1596 0.9210
vn 0.2584 -0.1854 0.9481
vn -0.3177 0.2303 0.9198
vn 0.2108 -0.2348 0.9489
vn -0.2662 0.2917 0.9187
vn 0.1540 -0.2731 0.9496
vn -0.2031 0.3410 0.9179
vn 0.0904 -0.2988 0.9500
vn -0.1311 0.3761 0.9173
vn 0.0229 -0.3107 0.9502
vn -0.0534 0.3955 0.9169
vn -0.0456 -0.3083 0.9502
vn 0.0267 0.3983 0.9169
vn -0.1121 -0.2917 0.9499
vn 0.1056 0.3844 0.9171
vn -0.1736 -0.2617 0.9494
vn 0.1798 0.3544 0.9176
vn -0.2278 -0.2194 0.9487
vn 0.2462 0.3096 0.9185
vn -0.2719 -0.1668 0.9478
vn 0.3018 0.2520 0.9195
vn -0.3040 -0.1063 0.9467
vn 0.3443 0.1841 0.9207
vn -0.3229 -0.0406 0.9456
vn 0.3716 0.1089 0.9220
vn -0.0647 -0.2222 0.9729
vn 0.0008 -0.0744 0.9972
vn -0.0674 0.1554 0.9856
vn 0.0267 0.1686 0.9853
vn -0.1497 0.8407 0.5204
vn 0.3677 0.7699 0.5216
vn -0.1190 0.8592 0.4976
vn 0.4036 0.7668 0.4992
vn 0.2647 0.4350 0.8607
vn -0.0327 0.5104 0.8593
vn -0.0001 0.0175 0.9998
vn 0.0426 -0.0924 0.9948
vn 0.1471 -0.1842 0.9718
vn -0.1357 0.0894 0.9867
vn -0.6098 0.5940 0.5247
vn -0.5961 0.6269 0.5016
vn -0.3175 0.3966 0.8613
vn 0.2074 -0.1186 0.9710
vn 0.2372 -0.0593 0.9696
vn -0.1522 -0.0042 0.9883
vn -0.8371 0.1239 0.5329
vn -0.8456 0.1585 0.5098
vn -0.4812 0.1371 0.8658
vn 0.2474 0.0292 0.9685
vn 0.2367 0.0947 0.9670
vn -0.1106 -0.0895 0.9898
vn -0.7445 -0.3899 0.5419
vn -0.7720 -0.3670 0.5190
vn -0.4610 -0.1689 0.8712
vn 0.1929 0.1723 0.9660
vn 0.1458 0.2189 0.9648
vn -0.0267 -0.1341 0.9906
vn -0.3676 -0.7512 0.5482
vn -0.4036 -0.7489 0.5256
vn -0.2647 -0.4047 0.8753
vn 0.0648 0.2560 0.9645
vn -0.0008 0.2660 0.9640
vn 0.0674 -0.1209 0.9904
vn 0.1497 -0.8220 0.5494
vn 0.1190 -0.8413 0.5273
vn 0.0326 -0.4801 0.8766
vn -0.0882 0.2484 0.9646
vn -0.1471 0.2180 0.9648
vn 0.1357 -0.0549 0.9892
vn 0.6098 -0.5753 0.5451
vn 0.5961 -0.6090 0.5232
vn 0.3175 -0.3663 0.8746
vn -0.2074 0.1523 0.9663
vn -0.2372 0.0931 0.9670
vn 0.1522 0.0387 0.9876
vn 0.8371 -0.1052 0.5369
vn 0.8455 -0.1407 0.5150
vn 0.4811 -0.1069 0.8701
vn -0.2474 0.0046 0.9689
vn -0.2367 -0.0609 0.9697
vn 0.1106 0.1240 0.9861
vn 0.7445 0.4086 0.5280
vn 0.7720 0.3848 0.5058
vn 0.4610 0.1992 0.8648
vn -0.1929 -0.1385 0.9714
vn -0.1458 -0.1852 0.9718
vn 0.0627 0.1824 0.9812
vn 0.0086 0.1936 0.9810
vn 0.0050 0.0307 0.9995
vn -0.0464 0.1876 0.9811
vn -0.0968 0.1649 0.9815
vn -0.0079 0.0293 0.9995
vn -0.1377 0.1278 0.9822
vn -0.0111 0.0264 0.9996
vn -0.1652 0.0798 0.9830
vn -0.0134 0.0225 0.9997
vn -0.1765 0.0257 0.9840
vn -0.0143 0.0182 0.9997
vn -0.1705 -0.0292 0.9849
vn -0.0138 0.0137 0.9998
vn -0.1478 -0.0796 0.9858
vn -0.0118 0.0094 0.9999
vn -0.1106 -0.1206 0.9865
vn -0.0090 0.0063 0.9999
vn -0.0627 -0.1480 0.9870
vn -0.0051 0.0041 1.0000
vn -0.0085 -0.1593 0.9872
vn -0.0007 0.0032 1.0000
vn 0.0464 -0.1533 0.9871
vn 0.0038 0.0037 1.0000
vn 0.0968 -0.1306 0.9867
vn 0.0079 0.0056 1.0000
vn 0.1377 -0.0935 0.9861
vn 0.0111 0.0085 0.9999
vn 0.1652 -0.0455 0.9852
vn 0.0133 0.0122 0.9998
vn 0.1765 0.0086 0.9843
vn 0.0142 0.0168 0.9998
vn 0.1705 0.0636 0.9833
vn 0.0137 0.0212 0.9997
vn 0.1478 0.1140 0.9824
vn 0.0120 0.0253 0.9996
vn 0.1106 0.1549 0.9817
vn 0.0091 0.0285 0.9996
vn -0.0076 0.4098 0.9122
vn -0.1303 0.3979 0.9081
vn -0.0693 0.4519 0.8894
vn -0.0694 0.4517 0.8895
vn -0.1353 0.4316 0.8919
vn -0.0000 0.4532 0.8914
vn -0.0692 0.4520 0.8893
vn 0.1191 0.4016 0.9080
vn 0.0692 0.4520 0.8893
vn 0.1353 0.4316 0.8918
vn 0.0692 0.4519 0.8894
vn 0.0693 0.4520 0.8893
vn 0.2253 0.3390 0.9134
vn 0.2006 0.4094 0.8900
vn 0.2006 0.4093 0.8901
vn 0.2571 0.3694 0.8930
vn 0.2006 0.4092 0.8901
vn 0.3230 0.2579 0.9106
vn 0.3123 0.3281 0.8915
vn 0.3539 0.2729 0.8946
vn 0.3126 0.3283 0.8914
vn 0.3124 0.3281 0.8915
vn 0.3722 0.1449 0.9168
vn 0.3937 0.2164 0.8934
vn 0.3936 0.2164 0.8935
vn 0.4157 0.1508 0.8969
vn 0.3935 0.2162 0.8935
vn 0.4036 0.0219 0.9147
vn 0.4363 0.0848 0.8958
vn 0.4375 0.0157 0.8991
vn 0.4366 0.0849 0.8956
vn 0.4365 0.0848 0.8957
vn 0.3769 -0.0984 0.9210
vn 0.4364 -0.0535 0.8982
vn 0.4364 -0.0534 0.8982
vn 0.4161 -0.1196 0.9014
vn 0.4364 -0.0536 0.8981
vn 0.3300 -0.2165 0.9188
vn 0.3937 -0.1849 0.9005
vn 0.3539 -0.2414 0.9036
vn 0.3937 -0.1849 0.9004
vn 0.3936 -0.1850 0.9005
vn 0.2376 -0.2980 0.9245
vn 0.3124 -0.2967 0.9024
vn 0.3124 -0.2965 0.9025
vn 0.2572 -0.3382 0.9053
vn 0.3127 -0.2970 0.9023
vn 0.1303 -0.3660 0.9215
vn 0.2007 -0.3781 0.9038
vn 0.1353 -0.4003 0.9063
vn 0.2006 -0.3779 0.9038
vn 0.0076 -0.3777 0.9259
vn 0.0692 -0.4205 0.9046
vn 0.0692 -0.4207 0.9045
vn -0.0000 -0.4217 0.9067
vn 0.0691 -0.4207 0.9046
vn -0.1191 -0.3696 0.9215
vn -0.0691 -0.4207 0.9046
vn -0.1348 -0.4004 0.9064
vn -0.0692 -0.4208 0.9045
vn -0.0692 -0.4205 0.9046
vn -0.2253 -0.3069 0.9247
vn -0.2006 -0.3779 0.9038
vn -0.2009 -0.3782 0.9037
vn -0.2573 -0.3383 0.9052
vn -0.2007 -0.3781 0.9038
vn -0.3230 -0.2260 0.9190
vn -0.3126 -0.2969 0.9023
vn -0.3539 -0.2414 0.9036
vn -0.3124 -0.2965 0.9025
vn -0.3124 -0.2966 0.9025
vn -0.3722 -0.1128 0.9213
vn -0.3936 -0.1849 0.9005
vn -0.3935 -0.1850 0.9005
vn -0.4160 -0.1195 0.9015
vn -0.3936 -0.1850 0.9005
vn -0.4036 0.0101 0.9149
vn -0.4364 -0.0535 0.8982
vn -0.4374 0.0157 0.8991
vn -0.4362 -0.0534 0.8983
vn -0.4363 -0.0535 0.8982
vn -0.3769 0.1305 0.9170
vn -0.4364 0.0848 0.8957
vn -0.4364 0.0848 0.8958
vn -0.4160 0.1508 0.8968
vn -0.4363 0.0847 0.8958
vn -0.3299 0.2484 0.9107
vn -0.3935 0.2162 0.8935
vn -0.3539 0.2728 0.8946
vn -0.3937 0.2162 0.8935
vn -0.3937 0.2163 0.8934
vn -0.2376 0.3301 0.9136
vn -0.3123 0.3281 0.8915
vn -0.3126 0.3283 0.8914
vn -0.2572 0.3694 0.8930
vn -0.3122 0.3281 0.8916
vn -0.2006 0.4092 0.8901
vn -0.2005 0.4092 0.8901
vn -0.2006 0.4094 0.8900
vn 0.0285 0.1511 0.9881
vn 0.0671 0.4023 0.9130
vn -0.0456 -0.4936 0.8685
vn -0.1217 -0.5582 0.8207
vn -0.0147 0.4069 0.9134
vn 0.0612 -0.4920 0.8684
vn -0.1289 0.6198 0.7741
vn 0.0907 -0.4112 0.9070
vn -0.1924 -0.8986 0.3943
vn -0.0966 -0.9120 0.3987
vn -0.1290 -0.9109 0.3920
vn -0.1927 -0.9004 0.3902
vn 0.0966 -0.9120 0.3986
vn 0.0645 -0.9177 0.3921
vn 0.1921 -0.8969 0.3984
vn 0.1928 -0.9003 0.3902
vn -0.0832 -0.8171 0.5705
vn -0.1801 -0.8385 0.5143
vn 0.0906 -0.8163 0.5704
vn 0.1654 -0.7673 0.6196
vn -0.0285 -0.1170 0.9927
vn -0.0673 -0.3717 0.9259
vn 0.0456 0.5236 0.8507
vn 0.1217 0.5865 0.8007
vn 0.0149 -0.3782 0.9256
vn -0.0612 0.5220 0.8507
vn 0.1302 -0.5986 0.7904
vn -0.0908 0.4426 0.8921
vn 0.1924 0.9118 0.3627
vn 0.0965 0.9254 0.3665
vn 0.1291 0.9240 0.3599
vn 0.1928 0.9134 0.3585
vn -0.0967 0.9255 0.3663
vn -0.0646 0.9308 0.3598
vn -0.1921 0.9103 0.3668
vn -0.1927 0.9134 0.3585
vn 0.0832 0.8365 0.5416
vn 0.1801 0.8559 0.4848
vn -0.0906 0.8357 0.5416
vn -0.1654 0.7885 0.5924
vn -0.1008 -0.0735 0.9922
vn -0.2803 -0.2560 0.9252
vn 0.3359 0.3997 0.8529
vn 0.4349 0.4057 0.8039
vn -0.2181 -0.3091 0.9257
vn 0.2486 0.4611 0.8518
vn -0.2539 -0.5561 0.7914
vn 0.1775 0.4144 0.8926
vn 0.6878 0.6258 0.3677
vn 0.6181 0.6933 0.3705
vn 0.6437 0.6730 0.3643
vn 0.6891 0.6269 0.3635
vn 0.4618 0.8068 0.3685
vn 0.4911 0.7922 0.3622
vn 0.3758 0.8505 0.3679
vn 0.3770 0.8536 0.3596
vn 0.5533 0.6297 0.5452
vn 0.6437 0.5883 0.4894
vn 0.4123 0.7312 0.5434
vn 0.3235 0.7371 0.5933
vn -0.1362 0.0030 0.9907
vn -0.3861 -0.0390 0.9216
vn 0.4979 0.1288 0.8576
vn 0.5820 0.0753 0.8097
vn -0.3653 -0.1179 0.9234
vn 0.4634 0.2298 0.8558
vn -0.5356 -0.2955 0.7911
vn 0.3780 0.2339 0.8958
vn 0.9205 0.1033 0.3768
vn 0.9037 0.1988 0.3793
vn 0.9126 0.1673 0.3731
vn 0.9222 0.1033 0.3727
vn 0.8441 0.3825 0.3758
vn 0.8592 0.3535 0.3699
vn 0.8001 0.4686 0.3745
vn 0.8030 0.4702 0.3662
vn 0.8122 0.1861 0.5529
vn 0.8615 0.0992 0.4979
vn 0.7577 0.3511 0.5501
vn 0.6888 0.4082 0.5991
vn -0.1165 0.0846 0.9896
vn -0.3430 0.1974 0.9184
vn 0.4697 -0.1855 0.8631
vn 0.5068 -0.2784 0.8158
vn -0.3732 0.1221 0.9197
vn 0.5011 -0.0835 0.8613
vn -0.6103 0.0782 0.7883
vn 0.4341 -0.0299 0.9004
vn 0.8016 -0.4561 0.3866
vn 0.8440 -0.3691 0.3892
vn 0.8328 -0.3997 0.3831
vn 0.8031 -0.4569 0.3824
vn 0.9039 -0.1852 0.3856
vn 0.8991 -0.2177 0.3799
vn 0.9188 -0.0899 0.3843
vn 0.9222 -0.0906 0.3761
vn 0.7607 -0.3249 0.5619
vn 0.7502 -0.4243 0.5071
vn 0.8137 -0.1594 0.5590
vn 0.7910 -0.0726 0.6075
vn -0.0550 0.1409 0.9885
vn -0.1716 0.3656 0.9148
vn 0.2621 -0.4233 0.8672
vn 0.2380 -0.5204 0.8201
vn -0.2401 0.3218 0.9159
vn 0.3475 -0.3592 0.8661
vn -0.4586 0.4265 0.7796
vn 0.3244 -0.2763 0.9047
vn 0.3765 -0.8388 0.3932
vn 0.4619 -0.7934 0.3965
vn 0.4349 -0.8115 0.3902
vn 0.3770 -0.8405 0.3891
vn 0.6183 -0.6799 0.3942
vn 0.5955 -0.7032 0.3883
vn 0.6866 -0.6114 0.3934
vn 0.6890 -0.6139 0.3852
vn 0.4188 -0.7081 0.5686
vn 0.3523 -0.7825 0.5134
vn 0.5589 -0.6053 0.5668
vn 0.5911 -0.5216 0.6153
vn 0.1028 0.1098 0.9886
vn 0.2834 0.2913 0.9137
vn -0.3359 -0.3697 0.8663
vn -0.4349 -0.3774 0.8176
vn 0.2195 0.3433 0.9132
vn -0.2486 -0.4311 0.8674
vn 0.2527 0.5817 0.7732
vn -0.1775 -0.3830 0.9065
vn -0.6878 -0.6126 0.3894
vn -0.6181 -0.6798 0.3947
vn -0.6437 -0.6598 0.3876
vn -0.6891 -0.6138 0.3852
vn -0.4619 -0.7932 0.3968
vn -0.4911 -0.7791 0.3897
vn -0.3758 -0.8372 0.3974
vn -0.3771 -0.8405 0.3891
vn -0.5534 -0.6103 0.5668
vn -0.6438 -0.5708 0.5097
vn -0.4123 -0.7118 0.5686
vn -0.3235 -0.7159 0.6187
vn 0.1364 0.0316 0.9901
vn 0.3917 0.0725 0.9172
vn -0.4979 -0.0988 0.8616
vn -0.5820 -0.0470 0.8118
vn 0.3724 0.1527 0.9154
vn -0.4633 -0.1998 0.8634
vn 0.5432 0.3272 0.7733
vn -0.3780 -0.2025 0.9034
vn -0.9205 -0.0901 0.3802
vn -0.9037 -0.1854 0.3859
vn -0.9126 -0.1542 0.3788
vn -0.9222 -0.0902 0.3760
vn -0.8440 -0.3691 0.3890
vn -0.8592 -0.3404 0.3820
vn -0.8001 -0.4552 0.3907
vn -0.8031 -0.4569 0.3825
vn -0.8122 -0.1667 0.5591
vn -0.8615 -0.0818 0.5011
vn -0.7577 -0.3317 0.5620
vn -0.6888 -0.3871 0.6129
vn 0.1209 -0.0525 0.9913
vn 0.3517 -0.1696 0.9206
vn -0.4697 0.2156 0.8561
vn -0.5068 0.3067 0.8056
vn 0.3827 -0.0925 0.9192
vn -0.5011 0.1135 0.8579
vn 0.6286 -0.0522 0.7760
vn -0.4341 0.0613 0.8988
vn -0.8016 0.4693 0.3705
vn -0.8440 0.3823 0.3763
vn -0.8328 0.4128 0.3689
vn -0.8030 0.4702 0.3663
vn -0.9038 0.1987 0.3790
vn -0.8991 0.2308 0.3720
vn -0.9189 0.1032 0.3808
vn -0.9222 0.1036 0.3727
vn -0.7608 0.3443 0.5502
vn -0.7502 0.4418 0.4920
vn -0.8137 0.1788 0.5531
vn -0.7910 0.0937 0.6046
vn 0.0564 -0.1094 0.9924
vn 0.1748 -0.3397 0.9242
vn -0.2621 0.4533 0.8519
vn -0.2380 0.5487 0.8014
vn 0.2454 -0.2960 0.9231
vn -0.3475 0.3892 0.8531
vn 0.4672 -0.4070 0.7849
vn -0.3244 0.3077 0.8945
vn -0.3765 0.8520 0.3638
vn -0.4619 0.8067 0.3686
vn -0.4349 0.8246 0.3617
vn -0.3774 0.8533 0.3596
vn -0.6183 0.6932 0.3705
vn -0.5956 0.7163 0.3636
vn -0.6866 0.6248 0.3718
vn -0.6892 0.6268 0.3635
vn -0.4188 0.7275 0.5435
vn -0.3523 0.8000 0.4857
vn -0.5589 0.6248 0.5453
vn -0.5911 0.5427 0.5967
vn 0.2443 0.8606 0.4468
vn 0.0618 0.8918 0.4482
vn 0.4167 0.7920 0.4462
vn 0.5718 0.6898 0.4440
vn 0.7012 0.5558 0.4465
vn 0.8005 0.3984 0.4477
vn 0.7013 0.5558 0.4465
vn 0.8648 0.2238 0.4496
vn 0.8912 0.0393 0.4519
vn 0.8799 -0.1468 0.4519
vn 0.8271 -0.3261 0.4578
vn 0.7394 -0.4906 0.4610
vn 0.6193 -0.6331 0.4643
vn 0.7394 -0.4907 0.4610
vn 0.4722 -0.7474 0.4675
vn 0.3046 -0.8283 0.4703
vn 0.1239 -0.8724 0.4728
vn 0.3045 -0.8283 0.4703
vn -0.0618 -0.8779 0.4748
vn -0.2445 -0.8446 0.4762
vn -0.4160 -0.7742 0.4770
vn -0.2446 -0.8446 0.4762
vn -0.5684 -0.6690 0.4789
vn -0.6967 -0.5363 0.4764
vn -0.7940 -0.3791 0.4752
vn -0.6968 -0.5362 0.4764
vn -0.8566 -0.2052 0.4733
vn -0.8819 -0.0225 0.4709
vn -0.8673 0.1614 0.4710
vn -0.8819 -0.0224 0.4710
vn -0.8179 0.3385 0.4652
vn -0.7316 0.5014 0.4619
vn -0.6133 0.6430 0.4587
vn -0.7315 0.5015 0.4619
vn -0.4682 0.7571 0.4556
vn -0.3024 0.8388 0.4527
vn -0.1232 0.8844 0.4502
vt 0.341800 0.488280
vt 0.339840 0.488280
vt 0.339840 0.486330
vt 0.337890 0.488280
vt 1.000000 0.000000
vt 0.000000 0.000000
vt 0.000000 1.000000
vt 1.000000 1.000000
vt 0.562500 0.398440
vt 0.562500 0.605470
vt 0.437500 0.605470
vt 0.437500 0.398440
vt 0.876950 0.962890
vt 0.931640 0.949220
vt 0.914060 0.832030
vt 0.875000 0.835940
vt 0.978520 0.916020
vt 0.953130 0.820310
vt 0.876950 0.998050
vt 0.937500 0.988280
vt 0.990230 0.949220
vt 0.953130 0.810550
vt 0.992190 0.923830
vt 0.914060 0.822270
vt 0.875000 0.826170
vt 0.818360 0.941410
vt 0.832030 0.826170
vt 0.769530 0.902340
vt 0.791020 0.808590
vt 0.814450 0.980470
vt 0.759770 0.933590
vt 0.791020 0.798830
vt 0.757810 0.906250
vt 0.832030 0.816410
vt 0.912110 0.564450
vt 0.916020 0.478520
vt 0.943360 0.476560
vt 0.939450 0.570310
vt 0.902340 0.390630
vt 0.929690 0.382810
vt 0.871090 0.308590
vt 0.896480 0.296880
vt 0.824220 0.236330
vt 0.845700 0.218750
vt 0.763670 0.173830
vt 0.779300 0.152340
vt 0.689450 0.125000
vt 0.703130 0.101560
vt 0.607420 0.093750
vt 0.615230 0.068360
vt 0.521480 0.080080
vt 0.523440 0.052730
vt 0.435550 0.085940
vt 0.431640 0.058590
vt 0.351560 0.107420
vt 0.339840 0.082030
vt 0.273440 0.148440
vt 0.257810 0.125000
vt 0.205080 0.203130
vt 0.185550 0.183590
vt 0.150390 0.271480
vt 0.126950 0.255860
vt 0.111330 0.349610
vt 0.083980 0.339840
vt 0.087890 0.435550
vt 0.060550 0.429690
vt 0.083980 0.521480
vt 0.054690 0.523440
vt 0.097660 0.609380
vt 0.070310 0.615230
vt 0.126950 0.691410
vt 0.103520 0.703130
vt 0.175780 0.763670
vt 0.154300 0.781250
vt 0.236330 0.826170
vt 0.218750 0.847660
vt 0.310550 0.873050
vt 0.296880 0.898440
vt 0.390630 0.906250
vt 0.384770 0.931640
vt 0.478520 0.917970
vt 0.476560 0.947270
vt 0.564450 0.914060
vt 0.568360 0.941410
vt 0.648440 0.890630
vt 0.658200 0.917970
vt 0.726560 0.851560
vt 0.742190 0.875000
vt 0.794920 0.796880
vt 0.814450 0.816410
vt 0.849610 0.728520
vt 0.873050 0.742190
vt 0.888670 0.650390
vt 0.916020 0.660160
vt 0.035160 0.625000
vt 0.025390 0.423830
vt 0.113280 0.437500
vt 0.123050 0.601560
vt 0.095700 0.236330
vt 0.171880 0.285160
vt 0.238280 0.093750
vt 0.287110 0.169920
vt 0.423830 0.021480
vt 0.437500 0.111330
vt 0.625000 0.033200
vt 0.601560 0.121090
vt 0.802730 0.125000
vt 0.746090 0.195310
vt 0.927730 0.281250
vt 0.847660 0.322270
vt 0.980470 0.474610
vt 0.890630 0.480470
vt 0.949220 0.673830
vt 0.865230 0.640630
vt 0.839840 0.841800
vt 0.777340 0.777340
vt 0.671880 0.951170
vt 0.640630 0.867190
vt 0.474610 0.982420
vt 0.480470 0.892580
vt 0.281250 0.929690
vt 0.322270 0.849610
vt 0.126950 0.804690
vt 0.195310 0.748050
vt 0.986330 0.003910
vt 0.984380 0.003910
vt 0.988280 0.003910
vt 0.986330 0.007810
vt 0.988280 0.007810
vt 0.984380 0.007810
vt 0.982420 0.007810
vt 0.982420 0.003910
vt 0.990230 0.007810
vt 0.990230 0.003910
vt 0.753910 0.500000
vt 0.753910 0.583980
vt 0.701170 0.583980
vt 0.701170 0.500000
vt 0.753910 0.667970
vt 0.701170 0.667970
vt 0.298830 0.583980
vt 0.298830 0.500000
vt 0.298830 0.667970
vt 0.246090 0.509770
vt 0.246090 0.667970
vt 0.884770 0.560550
vt 0.888670 0.478520
vt 0.970700 0.474610
vt 0.966800 0.574220
vt 0.876950 0.398440
vt 0.957030 0.376950
vt 0.921880 0.283200
vt 0.802730 0.253910
vt 0.867190 0.201170
vt 0.796880 0.130860
vt 0.677730 0.150390
vt 0.714840 0.076170
vt 0.623050 0.041020
vt 0.521480 0.109380
vt 0.525390 0.025390
vt 0.439450 0.113280
vt 0.425780 0.031250
vt 0.361330 0.134770
vt 0.330080 0.056640
vt 0.287110 0.171880
vt 0.242190 0.101560
vt 0.224610 0.222660
vt 0.166020 0.164060
vt 0.173830 0.287110
vt 0.103520 0.242190
vt 0.136720 0.359380
vt 0.058590 0.330080
vt 0.115230 0.439450
vt 0.033200 0.425780
vt 0.111330 0.521480
vt 0.027340 0.525390
vt 0.042970 0.623050
vt 0.152340 0.677730
vt 0.078130 0.714840
vt 0.197270 0.746090
vt 0.132810 0.798830
vt 0.253910 0.804690
vt 0.203130 0.869140
vt 0.285160 0.923830
vt 0.398440 0.878910
vt 0.376950 0.958980
vt 0.478520 0.890630
vt 0.474610 0.974610
vt 0.560550 0.886720
vt 0.574220 0.968750
vt 0.638670 0.865230
vt 0.667970 0.943360
vt 0.712890 0.828130
vt 0.755860 0.898440
vt 0.775390 0.777340
vt 0.833980 0.835940
vt 0.826170 0.712890
vt 0.896480 0.757810
vt 0.863280 0.640630
vt 0.941410 0.669920
vt 0.568360 0.718750
vt 0.500000 0.730470
vt 0.482420 0.611330
vt 0.548830 0.601560
vt 0.484380 0.595700
vt 0.542970 0.587890
vt 0.488280 0.572270
vt 0.531250 0.566410
vt 0.523440 0.550780
vt 0.490230 0.556640
vt 0.500000 0.501950
vt 0.429690 0.718750
vt 0.365230 0.685550
vt 0.421880 0.580080
vt 0.431640 0.570310
vt 0.449220 0.552730
vt 0.460940 0.541020
vt 0.314450 0.636720
vt 0.283200 0.572270
vt 0.390630 0.519530
vt 0.406250 0.517580
vt 0.429690 0.513670
vt 0.445310 0.511720
vt 0.271480 0.501950
vt 0.283200 0.431640
vt 0.400390 0.453130
vt 0.414060 0.458980
vt 0.435550 0.470700
vt 0.451170 0.478520
vt 0.314450 0.369140
vt 0.365230 0.318360
vt 0.449220 0.404300
vt 0.457030 0.417970
vt 0.466800 0.439450
vt 0.474610 0.453130
vt 0.429690 0.287110
vt 0.500000 0.275390
vt 0.515630 0.394530
vt 0.513670 0.408200
vt 0.509770 0.433590
vt 0.507810 0.449220
vt 0.570310 0.287110
vt 0.632810 0.318360
vt 0.576170 0.423830
vt 0.566410 0.435550
vt 0.548830 0.453130
vt 0.537110 0.464840
vt 0.683590 0.369140
vt 0.714840 0.431640
vt 0.607420 0.486330
vt 0.593750 0.488280
vt 0.568360 0.492190
vt 0.552730 0.494140
vt 0.726560 0.501950
vt 0.714840 0.572270
vt 0.597660 0.552730
vt 0.583980 0.544920
vt 0.562500 0.535160
vt 0.546880 0.527340
vt 0.683590 0.636720
vt 0.632810 0.687500
vt 0.417970 0.753910
vt 0.500000 0.765630
vt 0.500000 0.798830
vt 0.408200 0.783200
vt 0.449220 0.849610
vt 0.439450 0.884770
vt 0.378910 0.875000
vt 0.500000 0.818360
vt 0.472660 0.828130
vt 0.341800 0.050780
vt 0.445310 0.029300
vt 0.451170 0.076170
vt 0.357420 0.095700
vt 0.552730 0.029300
vt 0.546880 0.076170
vt 0.656250 0.050780
vt 0.642580 0.095700
vt 0.361330 0.111330
vt 0.453130 0.091800
vt 0.460940 0.171880
vt 0.386720 0.187500
vt 0.544920 0.091800
vt 0.537110 0.171880
vt 0.636720 0.111330
vt 0.613280 0.187500
vt 0.451170 0.085940
vt 0.359380 0.105470
vt 0.546880 0.085940
vt 0.638670 0.105470
vt 0.492190 0.011720
vt 0.492190 0.009770
s 1
g off
f 1/1/1 3/1/2 2/1/3
f 2/1/3 4/1/4 1/1/1
f 4/1/4 2/1/3 5/1/5
f 5/1/5 6/2/6 4/1/4
f 6/2/6 5/1/5 7/3/7
f 7/3/7 8/2/8 6/2/6
f 8/2/8 7/3/7 9/3/9
f 9/3/9 10/2/10 8/2/8
f 10/2/10 9/3/9 11/3/11
f 11/3/11 12/2/12 10/2/10
f 12/2/12 11/3/11 13/3/13
f 13/3/13 14/4/14 12/2/12
f 14/4/14 13/3/13 15/3/15
f 15/3/15 16/4/16 14/4/14
f 16/4/16 15/3/15 17/3/17
f 17/3/17 18/3/18 16/4/16
f 18/3/18 17/3/17 19/3/19
f 19/3/19 20/3/20 18/3/18
f 20/3/20 19/3/19 21/3/21
f 21/3/21 22/3/22 20/3/20
f 22/3/22 21/3/21 23/3/23
f 23/3/23 24/1/24 22/3/22
f 24/1/24 23/3/23 3/1/2
f 3/1/2 1/1/1 24/1/24
f 25/5/25 27/6/25 26/7/25
f 26/7/25 28/8/25 25/5/25
f 29/9/26 31/10/26 30/11/26
f 30/11/26 32/12/26 29/9/26
f 33/9/27 35/10/27 34/11/27
f 34/11/27 36/12/27 33/9/27
f 37/9/28 39/10/28 38/11/28
f 38/11/28 40/12/28 37/9/28
f 41/9/29 43/10/29 42/11/29
f 42/11/29 44/12/29 41/9/29
f 45/9/30 47/10/30 46/11/30
f 46/11/30 48/12/30 45/9/30
f 49/9/31 51/10/31 50/11/31
f 50/11/31 52/12/32 49/9/31
f 53/9/33 55/10/33 54/11/33
f 54/11/33 56/12/33 53/9/33
f 57/9/34 59/10/34 58/11/34
f 58/11/34 60/12/34 57/9/34
f 61/9/35 63/10/35 62/11/35
f 62/11/35 64/12/35 61/9/35
f 65/9/36 67/10/36 66/11/36
f 66/11/36 68/12/36 65/9/36
f 69/9/37 71/10/37 70/11/37
f 70/11/37 72/12/37 69/9/37
f 73/9/38 75/10/38 74/11/38
f 74/11/38 76/12/38 73/9/38
f 77/9/39 79/10/39 78/11/39
f 78/11/39 80/12/39 77/9/39
f 81/9/40 83/10/40 82/11/40
f 82/11/40 84/12/40 81/9/40
f 85/9/41 87/10/41 86/11/41
f 86/11/41 88/12/41 85/9/41
f 89/9/42 91/10/42 90/11/42
f 90/11/42 92/12/42 89/9/42
f 93/9/43 95/10/43 94/11/43
f 94/11/43 96/12/43 93/9/43
f 97/9/44 99/10/44 98/11/44
f 98/11/44 100/12/44 97/9/44
f 101/13/45 103/14/46 102/15/47
f 102/15/47 104/16/48 101/13/45
f 103/14/46 106/17/49 105/18/50
f 105/18/50 102/15/47 103/14/46
f 107/19/51 109/20/52 108/20/53
f 108/20/53 110/19/54 107/19/51
f 109/20/52 112/21/55 111/21/56
f 111/21/56 108/20/53 109/20/52
f 113/22/57 105/18/50 114/23/58
f 114/23/58 115/23/59 113/22/57
f 113/22/57 116/24/60 102/15/47
f 102/15/47 105/18/50 113/22/57
f 116/24/60 117/25/61 104/16/48
f 104/16/48 102/15/47 116/24/60
f 110/19/54 108/20/53 103/14/46
f 103/14/46 101/13/45 110/19/54
f 108/20/53 111/21/56 106/17/49
f 106/17/49 103/14/46 108/20/53
f 112/21/55 115/23/59 114/23/58
f 114/23/58 111/21/56 112/21/55
f 114/23/58 105/18/50 106/17/49
f 106/17/49 111/21/56 114/23/58
f 118/26/62 101/13/45 104/16/48
f 104/16/48 119/27/63 118/26/62
f 120/28/64 118/26/62 119/27/63
f 119/27/63 121/29/65 120/28/64
f 122/30/66 107/19/51 110/19/54
f 110/19/54 123/30/67 122/30/66
f 124/31/68 122/30/66 123/30/67
f 123/30/67 125/31/69 124/31/68
f 121/29/65 127/32/70 126/33/71
f 126/33/71 128/33/72 121/29/65
f 129/34/73 127/32/70 121/29/65
f 121/29/65 119/27/63 129/34/73
f 117/25/61 129/34/73 119/27/63
f 119/27/63 104/16/48 117/25/61
f 123/30/67 110/19/54 101/13/45
f 101/13/45 118/26/62 123/30/67
f 125/31/69 123/30/67 118/26/62
f 118/26/62 120/28/64 125/31/69
f 128/33/72 126/33/71 124/31/68
f 124/31/68 125/31/69 128/33/72
f 128/33/72 125/31/69 120/28/64
f 120/28/64 121/29/65 128/33/72
f 130/35/74 132/36/75 131/37/76
f 131/37/76 133/38/77 130/35/74
f 132/36/75 135/39/78 134/40/79
f 134/40/79 131/37/76 132/36/75
f 135/39/78 137/41/80 136/42/81
f 136/42/81 134/40/79 135/39/78
f 137/41/80 139/43/82 138/44/83
f 138/44/83 136/42/81 137/41/80
f 139/43/82 141/45/84 140/46/85
f 140/46/85 138/44/83 139/43/82
f 141/45/84 143/47/86 142/48/87
f 142/48/87 140/46/85 141/45/84
f 143/47/86 145/49/88 144/50/89
f 144/50/89 142/48/87 143/47/86
f 145/49/88 147/51/90 146/52/91
f 146/52/91 144/50/89 145/49/88
f 147/51/90 149/53/92 148/54/93
f 148/54/93 146/52/91 147/51/90
f 149/53/92 151/55/94 150/56/95
f 150/56/95 148/54/93 149/53/92
f 151/55/94 153/57/96 152/58/97
f 152/58/97 150/56/95 151/55/94
f 153/57/96 155/59/98 154/60/99
f 154/60/99 152/58/97 153/57/96
f 155/59/98 157/61/100 156/62/101
f 156/62/101 154/60/99 155/59/98
f 157/61/100 159/63/102 158/64/103
f 158/64/103 156/62/101 157/61/100
f 159/63/102 161/65/104 160/66/105
f 160/66/105 158/64/103 159/63/102
f 161/65/104 163/67/106 162/68/107
f 162/68/107 160/66/105 161/65/104
f 163/67/106 165/69/108 164/70/109
f 164/70/109 162/68/107 163/67/106
f 165/69/108 167/71/110 166/72/111
f 166/72/111 164/70/109 165/69/108
f 167/71/110 169/73/112 168/74/113
f 168/74/113 166/72/111 167/71/110
f 169/73/112 171/75/114 170/76/115
f 170/76/115 168/74/113 169/73/112
f 171/75/114 173/77/116 172/78/117
f 172/78/117 170/76/115 171/75/114
f 173/77/116 175/79/118 174/80/119
f 174/80/119 172/78/117 173/77/116
f 175/79/118 177/81/120 176/82/121
f 176/82/121 174/80/119 175/79/118
f 177/81/120 179/83/122 178/84/123
f 178/84/123 176/82/121 177/81/120
f 179/83/122 181/85/124 180/86/125
f 180/86/125 178/84/123 179/83/122
f 181/85/124 183/87/126 182/88/127
f 182/88/127 180/86/125 181/85/124
f 183/87/126 185/89/128 184/90/129
f 184/90/129 182/88/127 183/87/126
f 185/89/128 187/91/130 186/92/131
f 186/92/131 184/90/129 185/89/128
f 187/91/130 189/93/132 188/94/133
f 188/94/133 186/92/131 187/91/130
f 189/93/132 130/35/74 133/38/77
f 133/38/77 188/94/133 189/93/132
f 190/95/134 192/96/135 191/97/136
f 191/97/136 193/98/137 190/95/134
f 192/96/135 195/99/138 194/100/139
f 194/100/139 191/97/136 192/96/135
f 195/99/138 197/101/140 196/102/141
f 196/102/141 194/100/139 195/99/138
f 197/101/140 199/103/142 198/104/143
f 198/104/143 196/102/141 197/101/140
f 199/103/142 201/105/144 200/106/145
f 200/106/145 198/104/143 199/103/142
f 201/105/144 203/107/146 202/108/147
f 202/108/147 200/106/145 201/105/144
f 203/107/146 205/109/148 204/110/149
f 204/110/149 202/108/147 203/107/146
f 205/109/148 207/111/150 206/112/151
f 206/112/151 204/110/149 205/109/148
f 207/111/150 209/113/152 208/114/153
f 208/114/153 206/112/151 207/111/150
f 209/113/152 211/115/154 210/116/155
f 210/116/155 208/114/153 209/113/152
f 211/115/154 213/117/156 212/118/157
f 212/118/157 210/116/155 211/115/154
f 213/117/156 215/119/158 214/120/159
f 214/120/159 212/118/157 213/117/156
f 215/119/158 217/121/160 216/122/161
f 216/122/161 214/120/159 215/119/158
f 217/121/160 219/123/162 218/124/163
f 218/124/163 216/122/161 217/121/160
f 219/123/162 190/95/134 193/98/137
f 193/98/137 218/124/163 219/123/162
f 220/125/164 222/126/165 221/126/166
f 220/125/164 221/126/166 223/125/167
f 220/125/164 223/125/167 224/127/168
f 225/128/169 226/129/170 224/127/168
f 224/127/168 223/125/167 225/128/169
f 227/130/171 225/128/169 223/125/167
f 223/125/167 221/126/166 227/130/171
f 228/130/172 227/130/171 221/126/166
f 221/126/166 222/126/165 228/130/172
f 229/131/173 228/130/172 222/126/165
f 222/126/165 230/132/174 229/131/173
f 226/129/170 232/133/175 231/134/176
f 231/134/176 224/127/168 226/129/170
f 233/135/177 235/136/178 234/137/179
f 234/137/179 236/138/180 233/135/177
f 235/136/178 238/139/181 237/140/182
f 237/140/182 234/137/179 235/136/178
f 236/138/180 234/137/179 239/141/183
f 239/141/183 240/142/184 236/138/180
f 234/137/179 237/140/182 241/143/185
f 241/143/185 239/141/183 234/137/179
f 242/144/186 240/142/184 239/141/183
f 239/141/183 241/143/185 243/145/187
f 243/145/187 242/144/186 239/141/183
f 244/135/188 246/136/189 245/137/190
f 245/137/190 247/138/191 244/135/188
f 246/136/189 249/139/192 248/140/193
f 248/140/193 245/137/190 246/136/189
f 247/138/191 245/137/190 250/141/194
f 250/141/194 251/142/195 247/138/191
f 245/137/190 248/140/193 252/143/196
f 252/143/196 250/141/194 245/137/190
f 253/144/197 251/142/195 250/141/194
f 250/141/194 252/143/196 254/145/198
f 254/145/198 253/144/197 250/141/194
f 255/135/199 257/136/200 256/137/201
f 256/137/201 258/138/202 255/135/199
f 257/136/200 260/139/203 259/140/204
f 259/140/204 256/137/201 257/136/200
f 258/138/202 256/137/201 261/141/205
f 261/141/205 262/142/206 258/138/202
f 256/137/201 259/140/204 263/143/207
f 263/143/207 261/141/205 256/137/201
f 264/144/208 262/142/206 261/141/205
f 261/141/205 263/143/207 265/145/209
f 265/145/209 264/144/208 261/141/205
f 266/135/210 268/136/211 267/137/212
f 267/137/212 269/138/213 266/135/210
f 268/136/211 271/139/214 270/140/215
f 270/140/215 267/137/212 268/136/211
f 269/138/213 267/137/212 272/141/216
f 272/141/216 273/142/217 269/138/213
f 267/137/212 270/140/215 274/143/218
f 274/143/218 272/141/216 267/137/212
f 275/144/219 273/142/217 272/141/216
f 272/141/216 274/143/218 276/145/220
f 276/145/220 275/144/219 272/141/216
f 277/135/221 279/136/222 278/137/223
f 278/137/223 280/138/224 277/135/221
f 279/136/222 282/139/225 281/140/226
f 281/140/226 278/137/223 279/136/222
f 280/138/224 278/137/223 283/141/227
f 283/141/227 284/142/228 280/138/224
f 278/137/223 281/140/226 285/143/229
f 285/143/229 283/141/227 278/137/223
f 286/144/230 284/142/228 283/141/227
f 283/141/227 285/143/229 287/145/231
f 287/145/231 286/144/230 283/141/227
f 288/135/232 290/136/233 289/137/234
f 289/137/234 291/138/235 288/135/232
f 290/136/233 293/139/236 292/140/237
f 292/140/237 289/137/234 290/136/233
f 291/138/235 289/137/234 294/141/238
f 294/141/238 295/142/239 291/138/235
f 289/137/234 292/140/237 296/143/240
f 296/143/240 294/141/238 289/137/234
f 297/144/241 295/142/239 294/141/238
f 294/141/238 296/143/240 298/145/242
f 298/145/242 297/144/241 294/141/238
f 299/135/243 301/136/244 300/137/245
f 300/137/245 302/138/246 299/135/243
f 301/136/244 304/139/247 303/140/248
f 303/140/248 300/137/245 301/136/244
f 302/138/246 300/137/245 305/141/249
f 305/141/249 306/142/250 302/138/246
f 300/137/245 303/140/248 307/143/251
f 307/143/251 305/141/249 300/137/245
f 308/144/252 306/142/250 305/141/249
f 305/141/249 307/143/251 309/145/253
f 309/145/253 308/144/252 305/141/249
f 310/135/254 312/136/255 311/137/256
f 311/137/256 313/138/257 310/135/254
f 312/136/255 315/139/258 314/140/259
f 314/140/259 311/137/256 312/136/255
f 313/138/257 311/137/256 316/141/260
f 316/141/260 317/142/261 313/138/257
f 311/137/256 314/140/259 318/143/262
f 318/143/262 316/141/260 311/137/256
f 319/144/263 317/142/261 316/141/260
f 316/141/260 318/143/262 320/145/264
f 320/145/264 319/144/263 316/141/260
f 321/135/265 323/136/266 322/137/267
f 322/137/267 324/138/268 321/135/265
f 323/136/266 326/139/269 325/140/270
f 325/140/270 322/137/267 323/136/266
f 324/138/268 322/137/267 327/141/271
f 327/141/271 328/142/272 324/138/268
f 322/137/267 325/140/270 329/143/273
f 329/143/273 327/141/271 322/137/267
f 330/144/274 328/142/272 327/141/271
f 327/141/271 329/143/273 331/145/275
f 331/145/275 330/144/274 327/141/271
f 332/135/276 334/136/277 333/137/278
f 333/137/278 335/138/279 332/135/276
f 334/136/277 337/139/280 336/140/281
f 336/140/281 333/137/278 334/136/277
f 335/138/279 333/137/278 338/141/282
f 338/141/282 339/142/283 335/138/279
f 333/137/278 336/140/281 340/143/284
f 340/143/284 338/141/282 333/137/278
f 341/144/285 339/142/283 338/141/282
f 338/141/282 340/143/284 342/145/286
f 342/145/286 341/144/285 338/141/282
f 343/135/287 345/136/288 344/137/289
f 344/137/289 346/138/290 343/135/287
f 345/136/288 348/139/291 347/140/292
f 347/140/292 344/137/289 345/136/288
f 346/138/290 344/137/289 349/141/293
f 349/141/293 350/142/294 346/138/290
f 344/137/289 347/140/292 351/143/295
f 351/143/295 349/141/293 344/137/289
f 352/144/296 350/142/294 349/141/293
f 349/141/293 351/143/295 353/145/297
f 353/145/297 352/144/296 349/141/293
f 354/135/298 356/136/299 355/137/300
f 355/137/300 357/138/301 354/135/298
f 356/136/299 359/139/302 358/140/303
f 358/140/303 355/137/300 356/136/299
f 357/138/301 355/137/300 360/141/304
f 360/141/304 361/142/305 357/138/301
f 355/137/300 358/140/303 362/143/306
f 362/143/306 360/141/304 355/137/300
f 363/144/307 361/142/305 360/141/304
f 360/141/304 362/143/306 364/145/308
f 364/145/308 363/144/307 360/141/304
f 365/135/309 367/136/310 366/137/311
f 366/137/311 368/138/312 365/135/309
f 367/136/310 370/139/313 369/140/314
f 369/140/314 366/137/311 367/136/310
f 368/138/312 366/137/311 371/141/315
f 371/141/315 372/142/316 368/138/312
f 366/137/311 369/140/314 373/143/317
f 373/143/317 371/141/315 366/137/311
f 374/144/318 372/142/316 371/141/315
f 371/141/315 373/143/317 375/145/319
f 375/145/319 374/144/318 371/141/315
f 376/135/320 378/136/321 377/137/322
f 377/137/322 379/138/323 376/135/320
f 378/136/321 381/139/324 380/140/325
f 380/140/325 377/137/322 378/136/321
f 379/138/323 377/137/322 382/141/326
f 382/141/326 383/142/327 379/138/323
f 377/137/322 380/140/325 384/143/328
f 384/143/328 382/141/326 377/137/322
f 385/144/329 383/142/327 382/141/326
f 382/141/326 384/143/328 386/145/330
f 386/145/330 385/144/329 382/141/326
f 387/135/331 389/136/332 388/137/333
f 388/137/333 390/138/334 387/135/331
f 389/136/332 392/139/335 391/140/336
f 391/140/336 388/137/333 389/136/332
f 390/138/334 388/137/333 393/141/337
f 393/141/337 394/142/338 390/138/334
f 388/137/333 391/140/336 395/143/339
f 395/143/339 393/141/337 388/137/333
f 396/144/340 394/142/338 393/141/337
f 393/141/337 395/143/339 397/145/341
f 397/145/341 396/144/340 393/141/337
f 398/146/342 399/147/343 132/36/75
f 132/36/75 130/35/74 398/146/342
f 400/148/344 401/149/345 133/38/77
f 133/38/77 131/37/76 400/148/344
f 399/147/343 402/150/346 135/39/78
f 135/39/78 132/36/75 399/147/343
f 403/151/347 400/148/344 131/37/76
f 131/37/76 134/40/79 403/151/347
f 402/150/346 404/110/348 137/41/80
f 137/41/80 135/39/78 402/150/346
f 405/152/349 403/151/347 134/40/79
f 134/40/79 136/42/81 405/152/349
f 404/110/348 406/153/350 139/43/82
f 139/43/82 137/41/80 404/110/348
f 407/154/351 405/152/349 136/42/81
f 136/42/81 138/44/83 407/154/351
f 406/153/350 408/108/352 141/45/84
f 141/45/84 139/43/82 406/153/350
f 409/155/353 407/154/351 138/44/83
f 138/44/83 140/46/85 409/155/353
f 408/108/352 410/156/354 143/47/86
f 143/47/86 141/45/84 408/108/352
f 411/157/355 409/155/353 140/46/85
f 140/46/85 142/48/87 411/157/355
f 410/156/354 412/106/356 145/49/88
f 145/49/88 143/47/86 410/156/354
f 413/158/357 411/157/355 142/48/87
f 142/48/87 144/50/89 413/158/357
f 412/106/356 414/159/358 147/51/90
f 147/51/90 145/49/88 412/106/356
f 415/160/359 413/158/357 144/50/89
f 144/50/89 146/52/91 415/160/359
f 414/159/358 416/161/360 149/53/92
f 149/53/92 147/51/90 414/159/358
f 417/162/361 415/160/359 146/52/91
f 146/52/91 148/54/93 417/162/361
f 416/161/360 418/163/362 151/55/94
f 151/55/94 149/53/92 416/161/360
f 419/164/363 417/162/361 148/54/93
f 148/54/93 150/56/95 419/164/363
f 418/163/362 420/165/364 153/57/96
f 153/57/96 151/55/94 418/163/362
f 421/166/365 419/164/363 150/56/95
f 150/56/95 152/58/97 421/166/365
f 420/165/364 422/167/366 155/59/98
f 155/59/98 153/57/96 420/165/364
f 423/168/367 421/166/365 152/58/97
f 152/58/97 154/60/99 423/168/367
f 422/167/366 424/169/368 157/61/100
f 157/61/100 155/59/98 422/167/366
f 425/170/369 423/168/367 154/60/99
f 154/60/99 156/62/101 425/170/369
f 424/169/368 426/171/370 159/63/102
f 159/63/102 157/61/100 424/169/368
f 427/172/371 425/170/369 156/62/101
f 156/62/101 158/64/103 427/172/371
f 426/171/370 428/173/372 161/65/104
f 161/65/104 159/63/102 426/171/370
f 429/174/373 427/172/371 158/64/103
f 158/64/103 160/66/105 429/174/373
f 428/173/372 430/175/374 163/67/106
f 163/67/106 161/65/104 428/173/372
f 431/176/375 429/174/373 160/66/105
f 160/66/105 162/68/107 431/176/375
f 430/175/374 432/98/376 165/69/108
f 165/69/108 163/67/106 430/175/374
f 433/177/377 431/176/375 162/68/107
f 162/68/107 164/70/109 433/177/377
f 432/98/376 434/178/378 167/71/110
f 167/71/110 165/69/108 432/98/376
f 435/179/379 433/177/377 164/70/109
f 164/70/109 166/72/111 435/179/379
f 434/178/378 436/180/380 169/73/112
f 169/73/112 167/71/110 434/178/378
f 437/181/381 435/179/379 166/72/111
f 166/72/111 168/74/113 437/181/381
f 436/180/380 438/182/382 171/75/114
f 171/75/114 169/73/112 436/180/380
f 439/183/383 437/181/381 168/74/113
f 168/74/113 170/76/115 439/183/383
f 438/182/382 440/122/384 173/77/116
f 173/77/116 171/75/114 438/182/382
f 441/184/385 439/183/383 170/76/115
f 170/76/115 172/78/117 441/184/385
f 440/122/384 442/185/386 175/79/118
f 175/79/118 173/77/116 440/122/384
f 443/186/387 441/184/385 172/78/117
f 172/78/117 174/80/119 443/186/387
f 442/185/386 444/187/388 177/81/120
f 177/81/120 175/79/118 442/185/386
f 445/188/389 443/186/387 174/80/119
f 174/80/119 176/82/121 445/188/389
f 444/187/388 446/189/390 179/83/122
f 179/83/122 177/81/120 444/187/388
f 447/190/391 445/188/389 176/82/121
f 176/82/121 178/84/123 447/190/391
f 446/189/390 448/191/392 181/85/124
f 181/85/124 179/83/122 446/189/390
f 449/192/393 447/190/391 178/84/123
f 178/84/123 180/86/125 449/192/393
f 448/191/392 450/193/394 183/87/126
f 183/87/126 181/85/124 448/191/392
f 451/194/395 449/192/393 180/86/125
f 180/86/125 182/88/127 451/194/395
f 450/193/394 452/195/396 185/89/128
f 185/89/128 183/87/126 450/193/394
f 453/196/397 451/194/395 182/88/127
f 182/88/127 184/90/129 453/196/397
f 452/195/396 454/197/398 187/91/130
f 187/91/130 185/89/128 452/195/396
f 455/198/399 453/196/397 184/90/129
f 184/90/129 186/92/131 455/198/399
f 454/197/398 456/199/400 189/93/132
f 189/93/132 187/91/130 454/197/398
f 457/200/401 455/198/399 186/92/131
f 186/92/131 188/94/133 457/200/401
f 456/199/400 398/146/342 130/35/74
f 130/35/74 189/93/132 456/199/400
f 401/149/345 457/200/401 188/94/133
f 188/94/133 133/38/77 401/149/345
f 458/201/402 460/202/403 459/203/404
f 459/203/404 461/204/405 458/201/402
f 461/204/405 459/203/404 462/205/406
f 462/205/406 463/206/407 461/204/405
f 463/206/407 462/205/406 464/207/408
f 464/207/408 465/208/409 463/206/407
f 466/209/410 468/210/411 467/211/412
f 460/202/403 469/212/413 459/203/404
f 469/212/413 471/213/414 470/214/415
f 470/214/415 459/203/404 469/212/413
f 459/203/404 470/214/415 472/215/416
f 472/215/416 462/205/406 459/203/404
f 462/205/406 472/215/416 473/216/417
f 473/216/417 464/207/408 462/205/406
f 468/210/411 474/217/418 467/211/412
f 471/213/414 475/218/419 470/214/415
f 475/218/419 477/219/420 476/220/421
f 476/220/421 470/214/415 475/218/419
f 470/214/415 476/220/421 478/221/422
f 478/221/422 472/215/416 470/214/415
f 472/215/416 478/221/422 479/222/423
f 479/222/423 473/216/417 472/215/416
f 474/217/418 480/223/424 467/211/412
f 477/219/420 481/224/425 476/220/421
f 481/224/425 483/225/426 482/226/427
f 482/226/427 476/220/421 481/224/425
f 476/220/421 482/226/427 484/227/428
f 484/227/428 478/221/422 476/220/421
f 478/221/422 484/227/428 485/228/429
f 485/228/429 479/222/423 478/221/422
f 480/223/424 486/229/430 467/211/412
f 483/225/426 487/230/431 482/226/427
f 487/230/431 489/231/432 488/232/433
f 488/232/433 482/226/427 487/230/431
f 482/226/427 488/232/433 490/233/434
f 490/233/434 484/227/428 482/226/427
f 484/227/428 490/233/434 491/234/435
f 491/234/435 485/228/429 484/227/428
f 486/229/430 492/235/436 467/211/412
f 489/231/432 493/236/437 488/232/433
f 493/236/437 495/237/438 494/238/439
f 494/238/439 488/232/433 493/236/437
f 488/232/433 494/238/439 496/239/440
f 496/239/440 490/233/434 488/232/433
f 490/233/434 496/239/440 497/240/441
f 497/240/441 491/234/435 490/233/434
f 492/235/436 498/241/442 467/211/412
f 495/237/438 499/242/443 494/238/439
f 499/242/443 501/243/444 500/244/445
f 500/244/445 494/238/439 499/242/443
f 494/238/439 500/244/445 502/245/446
f 502/245/446 496/239/440 494/238/439
f 496/239/440 502/245/446 503/246/447
f 503/246/447 497/240/441 496/239/440
f 498/241/442 504/247/448 467/211/412
f 501/243/444 505/248/449 500/244/445
f 505/248/449 507/249/450 506/250/451
f 506/250/451 500/244/445 505/248/449
f 500/244/445 506/250/451 508/251/452
f 508/251/452 502/245/446 500/244/445
f 502/245/446 508/251/452 509/252/453
f 509/252/453 503/246/447 502/245/446
f 504/247/448 510/253/454 467/211/412
f 507/249/450 511/254/455 506/250/451
f 511/254/455 513/255/456 512/256/457
f 512/256/457 506/250/451 511/254/455
f 506/250/451 512/256/457 514/257/458
f 514/257/458 508/251/452 506/250/451
f 508/251/452 514/257/458 515/258/459
f 515/258/459 509/252/453 508/251/452
f 510/253/454 516/259/460 467/211/412
f 513/255/456 517/260/461 512/256/457
f 517/260/461 518/261/462 461/204/405
f 461/204/405 512/256/457 517/260/461
f 512/256/457 461/204/405 463/206/407
f 463/206/407 514/257/458 512/256/457
f 514/257/458 463/206/407 465/208/409
f 465/208/409 515/258/459 514/257/458
f 516/259/460 466/209/410 467/211/412
f 518/261/462 458/201/402 461/204/405
f 465/208/409 464/207/408 468/210/411
f 468/210/411 466/209/410 465/208/409
f 464/207/408 473/216/417 474/217/418
f 474/217/418 468/210/411 464/207/408
f 473/216/417 479/222/423 480/223/424
f 480/223/424 474/217/418 473/216/417
f 479/222/423 485/228/429 486/229/430
f 486/229/430 480/223/424 479/222/423
f 485/228/429 491/234/435 492/235/436
f 492/235/436 486/229/430 485/228/429
f 491/234/435 497/240/441 498/241/442
f 498/241/442 492/235/436 491/234/435
f 497/240/441 503/246/447 504/247/448
f 504/247/448 498/241/442 497/240/441
f 503/246/447 509/252/453 510/253/454
f 510/253/454 504/247/448 503/246/447
f 509/252/453 515/258/459 516/259/460
f 516/259/460 510/253/454 509/252/453
f 515/258/459 465/208/409 466/209/410
f 466/209/410 516/259/460 515/258/459
f 519/262/463 520/263/464 460/202/403
f 460/202/403 521/212/465 519/262/463
f 520/263/464 522/262/466 469/212/413
f 469/212/413 460/202/403 520/263/464
f 522/262/466 524/263/467 523/202/468
f 523/202/468 469/212/413 522/262/466
f 524/263/467 526/262/469 525/212/470
f 525/212/470 523/202/468 524/263/467
f 526/262/469 528/263/471 527/202/472
f 527/202/472 525/212/470 526/262/469
f 528/263/471 530/262/473 529/212/474
f 529/212/474 527/202/472 528/263/471
f 530/262/473 532/263/475 531/202/476
f 531/202/476 529/212/474 530/262/473
f 532/263/475 534/262/477 533/212/478
f 533/212/478 531/202/476 532/263/475
f 534/262/477 536/263/479 535/202/480
f 535/202/480 533/212/478 534/262/477
f 536/263/479 538/262/481 537/212/482
f 537/212/482 535/202/480 536/263/479
f 538/262/481 540/263/483 539/202/484
f 539/202/484 537/212/482 538/262/481
f 540/263/483 542/262/485 541/212/486
f 541/212/486 539/202/484 540/263/483
f 542/262/485 544/263/487 543/202/488
f 543/202/488 541/212/486 542/262/485
f 544/263/487 546/262/489 545/212/490
f 545/212/490 543/202/488 544/263/487
f 546/262/489 548/263/491 547/202/492
f 547/202/492 545/212/490 546/262/489
f 548/263/491 550/262/493 549/212/494
f 549/212/494 547/202/492 548/263/491
f 550/262/493 552/263/495 551/202/496
f 551/202/496 549/212/494 550/262/493
f 552/263/495 554/262/497 553/212/498
f 553/212/498 551/202/496 552/263/495
f 554/262/497 556/263/499 555/202/500
f 555/202/500 553/212/498 554/262/497
f 556/263/499 519/262/463 521/212/465
f 521/212/465 555/202/500 556/263/499
f 557/264/501 558/265/502 522/262/466
f 522/262/466 520/263/464 557/264/501
f 559/266/503 561/267/504 560/268/505
f 559/266/503 560/268/505 558/265/502
f 557/264/501 563/269/506 562/270/507
f 558/265/502 557/264/501 562/270/507
f 559/266/503 558/265/502 562/270/507
f 564/265/508 557/264/501 520/263/464
f 520/263/464 519/262/463 564/265/508
f 565/270/509 563/269/506 557/264/501
f 565/270/509 557/264/501 564/265/508
f 566/268/510 568/267/511 567/266/512
f 564/265/508 566/268/510 567/266/512
f 565/270/509 564/265/508 567/266/512
f 569/264/513 564/265/508 519/262/463
f 519/262/463 556/263/499 569/264/513
f 570/266/514 571/267/515 566/268/510
f 570/266/514 566/268/510 564/265/508
f 569/264/513 573/269/516 572/270/517
f 564/265/508 569/264/513 572/270/517
f 570/266/514 564/265/508 572/270/517
f 574/265/518 569/264/513 556/263/499
f 556/263/499 554/262/497 574/265/518
f 575/270/519 573/269/516 569/264/513
f 575/270/519 569/264/513 574/265/518
f 576/268/520 578/267/521 577/266/522
f 574/265/518 576/268/520 577/266/522
f 575/270/519 574/265/518 577/266/522
f 579/264/523 574/265/518 554/262/497
f 554/262/497 552/263/495 579/264/523
f 580/266/524 581/267/525 576/268/520
f 580/266/524 576/268/520 574/265/518
f 579/264/523 583/269/526 582/270/527
f 574/265/518 579/264/523 582/270/527
f 580/266/524 574/265/518 582/270/527
f 584/265/528 579/264/523 552/263/495
f 552/263/495 550/262/493 584/265/528
f 585/270/529 583/269/526 579/264/523
f 585/270/529 579/264/523 584/265/528
f 586/268/530 588/267/531 587/266/532
f 584/265/528 586/268/530 587/266/532
f 585/270/529 584/265/528 587/266/532
f 589/264/533 584/265/528 550/262/493
f 550/262/493 548/263/491 589/264/533
f 590/266/534 591/267/535 586/268/530
f 590/266/534 586/268/530 584/265/528
f 589/264/533 593/269/536 592/270/537
f 584/265/528 589/264/533 592/270/537
f 590/266/534 584/265/528 592/270/537
f 594/265/538 589/264/533 548/263/491
f 548/263/491 546/262/489 594/265/538
f 595/270/539 593/269/536 589/264/533
f 595/270/539 589/264/533 594/265/538
f 596/268/540 598/267/541 597/266/542
f 594/265/538 596/268/540 597/266/542
f 595/270/539 594/265/538 597/266/542
f 599/264/543 594/265/538 546/262/489
f 546/262/489 544/263/487 599/264/543
f 600/266/544 601/267/545 596/268/540
f 600/266/544 596/268/540 594/265/538
f 599/264/543 603/269/546 602/270/547
f 594/265/538 599/264/543 602/270/547
f 600/266/544 594/265/538 602/270/547
f 604/265/548 599/264/543 544/263/487
f 544/263/487 542/262/485 604/265/548
f 605/270/549 603/269/546 599/264/543
f 605/270/549 599/264/543 604/265/548
f 606/268/550 608/267/549 607/266/551
f 604/265/548 606/268/550 607/266/551
f 605/270/549 604/265/548 607/266/551
f 609/264/552 604/265/548 542/262/485
f 542/262/485 540/263/483 609/264/552
f 610/266/553 611/267/554 606/268/550
f 610/266/553 606/268/550 604/265/548
f 609/264/552 613/269/555 612/270/556
f 604/265/548 609/264/552 612/270/556
f 610/266/553 604/265/548 612/270/556
f 614/265/557 609/264/552 540/263/483
f 540/263/483 538/262/481 614/265/557
f 615/270/558 613/269/555 609/264/552
f 615/270/558 609/264/552 614/265/557
f 616/268/559 618/267/560 617/266/561
f 614/265/557 616/268/559 617/266/561
f 615/270/558 614/265/557 617/266/561
f 619/264/562 614/265/557 538/262/481
f 538/262/481 536/263/479 619/264/562
f 620/266/563 621/267/564 616/268/559
f 620/266/563 616/268/559 614/265/557
f 619/264/562 623/269/565 622/270/566
f 614/265/557 619/264/562 622/270/566
f 620/266/563 614/265/557 622/270/566
f 624/265/567 619/264/562 536/263/479
f 536/263/479 534/262/477 624/265/567
f 625/270/568 623/269/565 619/264/562
f 625/270/568 619/264/562 624/265/567
f 626/268/569 628/267/570 627/266/571
f 624/265/567 626/268/569 627/266/571
f 625/270/568 624/265/567 627/266/571
f 629/264/572 624/265/567 534/262/477
f 534/262/477 532/263/475 629/264/572
f 630/266/573 631/267/574 626/268/569
f 630/266/573 626/268/569 624/265/567
f 629/264/572 633/269/575 632/270/576
f 624/265/567 629/264/572 632/270/576
f 630/266/573 624/265/567 632/270/576
f 634/265/577 629/264/572 532/263/475
f 532/263/475 530/262/473 634/265/577
f 635/270/578 633/269/575 629/264/572
f 635/270/578 629/264/572 634/265/577
f 636/268/579 638/267/580 637/266/581
f 634/265/577 636/268/579 637/266/581
f 635/270/578 634/265/577 637/266/581
f 639/264/582 634/265/577 530/262/473
f 530/262/473 528/263/471 639/264/582
f 640/266/583 641/267/584 636/268/579
f 640/266/583 636/268/579 634/265/577
f 639/264/582 643/269/585 642/270/586
f 634/265/577 639/264/582 642/270/586
f 640/266/583 634/265/577 642/270/586
f 644/265/587 639/264/582 528/263/471
f 528/263/471 526/262/469 644/265/587
f 645/270/588 643/269/585 639/264/582
f 645/270/588 639/264/582 644/265/587
f 646/268/589 648/267/590 647/266/591
f 644/265/587 646/268/589 647/266/591
f 645/270/588 644/265/587 647/266/591
f 649/264/592 644/265/587 526/262/469
f 526/262/469 524/263/467 649/264/592
f 650/266/593 651/267/594 646/268/589
f 650/266/593 646/268/589 644/265/587
f 649/264/592 653/269/595 652/270/596
f 644/265/587 649/264/592 652/270/596
f 650/266/593 644/265/587 652/270/596
f 558/265/502 649/264/592 524/263/467
f 524/263/467 522/262/466 558/265/502
f 654/270/597 653/269/595 649/264/592
f 654/270/597 649/264/592 558/265/502
f 560/268/505 656/267/598 655/266/599
f 558/265/502 560/268/505 655/266/599
f 654/270/597 558/265/502 655/266/599
f 657/271/600 659/272/601 658/273/602
f 658/273/602 660/274/603 657/271/600
f 659/272/601 662/275/604 661/276/605
f 661/276/605 658/273/602 659/272/601
f 662/275/604 664/277/606 663/278/607
f 663/278/607 661/276/605 662/275/604
f 665/279/608 667/280/609 666/281/610
f 666/281/610 668/282/611 665/279/608
f 667/280/609 670/283/612 669/284/613
f 669/284/613 666/281/610 667/280/609
f 670/283/612 672/285/614 671/286/615
f 671/286/615 669/284/613 670/283/612
f 660/274/603 658/273/602 673/287/616
f 673/287/616 674/288/617 660/274/603
f 658/273/602 661/276/605 675/289/618
f 675/289/618 673/287/616 658/273/602
f 661/276/605 663/278/607 676/290/619
f 676/290/619 675/289/618 661/276/605
f 674/288/617 673/287/616 667/280/609
f 667/280/609 665/279/608 674/288/617
f 673/287/616 675/289/618 670/283/612
f 670/283/612 667/280/609 673/287/616
f 675/289/618 676/290/619 672/285/614
f 672/285/614 670/283/612 675/289/618
f 677/271/620 679/272/621 678/273/622
f 678/273/622 680/274/623 677/271/620
f 679/272/621 682/275/624 681/276/625
f 681/276/625 678/273/622 679/272/621
f 682/275/624 684/277/626 683/278/627
f 683/278/627 681/276/625 682/275/624
f 685/279/628 687/280/629 686/281/630
f 686/281/630 688/282/631 685/279/628
f 687/280/629 690/283/632 689/284/633
f 689/284/633 686/281/630 687/280/629
f 690/283/632 692/285/634 691/286/635
f 691/286/635 689/284/633 690/283/632
f 680/274/623 678/273/622 693/287/636
f 693/287/636 694/288/637 680/274/623
f 678/273/622 681/276/625 695/289/638
f 695/289/638 693/287/636 678/273/622
f 681/276/625 683/278/627 696/290/639
f 696/290/639 695/289/638 681/276/625
f 694/288/637 693/287/636 687/280/629
f 687/280/629 685/279/628 694/288/637
f 693/287/636 695/289/638 690/283/632
f 690/283/632 687/280/629 693/287/636
f 695/289/638 696/290/639 692/285/634
f 692/285/634 690/283/632 695/289/638
f 697/271/640 699/272/641 698/273/642
f 698/273/642 700/274/643 697/271/640
f 699/272/641 702/275/644 701/276/645
f 701/276/645 698/273/642 699/272/641
f 702/275/644 704/277/646 703/278/647
f 703/278/647 701/276/645 702/275/644
f 705/279/648 707/280/649 706/281/650
f 706/281/650 708/282/651 705/279/648
f 707/280/649 710/283/652 709/284/653
f 709/284/653 706/281/650 707/280/649
f 710/283/652 712/285/654 711/286/655
f 711/286/655 709/284/653 710/283/652
f 700/274/643 698/273/642 713/287/656
f 713/287/656 714/288/657 700/274/643
f 698/273/642 701/276/645 715/289/658
f 715/289/658 713/287/656 698/273/642
f 701/276/645 703/278/647 716/290/659
f 716/290/659 715/289/658 701/276/645
f 714/288/657 713/287/656 707/280/649
f 707/280/649 705/279/648 714/288/657
f 713/287/656 715/289/658 710/283/652
f 710/283/652 707/280/649 713/287/656
f 715/289/658 716/290/659 712/285/654
f 712/285/654 710/283/652 715/289/658
f 717/271/660 719/272/661 718/273/662
f 718/273/662 720/274/663 717/271/660
f 719/272/661 722/275/664 721/276/665
f 721/276/665 718/273/662 719/272/661
f 722/275/664 724/277/666 723/278/667
f 723/278/667 721/276/665 722/275/664
f 725/279/668 727/280/669 726/281/670
f 726/281/670 728/282/671 725/279/668
f 727/280/669 730/283/672 729/284/673
f 729/284/673 726/281/670 727/280/669
f 730/283/672 732/285/674 731/286/675
f 731/286/675 729/284/673 730/283/672
f 720/274/663 718/273/662 733/287/676
f 733/287/676 734/288/677 720/274/663
f 718/273/662 721/276/665 735/289/678
f 735/289/678 733/287/676 718/273/662
f 721/276/665 723/278/667 736/290/679
f 736/290/679 735/289/678 721/276/665
f 734/288/677 733/287/676 727/280/669
f 727/280/669 725/279/668 734/288/677
f 733/287/676 735/289/678 730/283/672
f 730/283/672 727/280/669 733/287/676
f 735/289/678 736/290/679 732/285/674
f 732/285/674 730/283/672 735/289/678
f 737/271/680 739/272/681 738/273/682
f 738/273/682 740/274/683 737/271/680
f 739/272/681 742/275/684 741/276/685
f 741/276/685 738/273/682 739/272/681
f 742/275/684 744/277/686 743/278/687
f 743/278/687 741/276/685 742/275/684
f 745/279/688 747/280/689 746/281/690
f 746/281/690 748/282/691 745/279/688
f 747/280/689 750/283/692 749/284/693
f 749/284/693 746/281/690 747/280/689
f 750/283/692 752/285/694 751/286/695
f 751/286/695 749/284/693 750/283/692
f 740/274/683 738/273/682 753/287/696
f 753/287/696 754/288/697 740/274/683
f 738/273/682 741/276/685 755/289/698
f 755/289/698 753/287/696 738/273/682
f 741/276/685 743/278/687 756/290/699
f 756/290/699 755/289/698 741/276/685
f 754/288/697 753/287/696 747/280/689
f 747/280/689 745/279/688 754/288/697
f 753/287/696 755/289/698 750/283/692
f 750/283/692 747/280/689 753/287/696
f 755/289/698 756/290/699 752/285/694
f 752/285/694 750/283/692 755/289/698
f 757/271/700 759/272/701 758/273/702
f 758/273/702 760/274/703 757/271/700
f 759/272/701 762/275/704 761/276/705
f 761/276/705 758/273/702 759/272/701
f 762/275/704 764/277/706 763/278/707
f 763/278/707 761/276/705 762/275/704
f 765/279/708 767/280/709 766/281/710
f 766/281/710 768/282/711 765/279/708
f 767/280/709 770/283/712 769/284/713
f 769/284/713 766/281/710 767/280/709
f 770/283/712 772/285/714 771/286/715
f 771/286/715 769/284/713 770/283/712
f 760/274/703 758/273/702 773/287/716
f 773/287/716 774/288/717 760/274/703
f 758/273/702 761/276/705 775/289/718
f 775/289/718 773/287/716 758/273/702
f 761/276/705 763/278/707 776/290/719
f 776/290/719 775/289/718 761/276/705
f 774/288/717 773/287/716 767/280/709
f 767/280/709 765/279/708 774/288/717
f 773/287/716 775/289/718 770/283/712
f 770/283/712 767/280/709 773/287/716
f 775/289/718 776/290/719 772/285/714
f 772/285/714 770/283/712 775/289/718
f 777/271/720 779/272/721 778/273/722
f 778/273/722 780/274/723 777/271/720
f 779/272/721 782/275/724 781/276/725
f 781/276/725 778/273/722 779/272/721
f 782/275/724 784/277/726 783/278/727
f 783/278/727 781/276/725 782/275/724
f 785/279/728 787/280/729 786/281/730
f 786/281/730 788/282/731 785/279/728
f 787/280/729 790/283/732 789/284/733
f 789/284/733 786/281/730 787/280/729
f 790/283/732 792/285/734 791/286/735
f 791/286/735 789/284/733 790/283/732
f 780/274/723 778/273/722 793/287/736
f 793/287/736 794/288/737 780/274/723
f 778/273/722 781/276/725 795/289/738
f 795/289/738 793/287/736 778/273/722
f 781/276/725 783/278/727 796/290/739
f 796/290/739 795/289/738 781/276/725
f 794/288/737 793/287/736 787/280/729
f 787/280/729 785/279/728 794/288/737
f 793/287/736 795/289/738 790/283/732
f 790/283/732 787/280/729 793/287/736
f 795/289/738 796/290/739 792/285/734
f 792/285/734 790/283/732 795/289/738
f 797/271/740 799/272/741 798/273/742
f 798/273/742 800/274/743 797/271/740
f 799/272/741 802/275/744 801/276/745
f 801/276/745 798/273/742 799/272/741
f 802/275/744 804/277/746 803/278/747
f 803/278/747 801/276/745 802/275/744
f 805/279/748 807/280/749 806/281/750
f 806/281/750 808/282/751 805/279/748
f 807/280/749 810/283/752 809/284/753
f 809/284/753 806/281/750 807/280/749
f 810/283/752 812/285/754 811/286/755
f 811/286/755 809/284/753 810/283/752
f 800/274/743 798/273/742 813/287/756
f 813/287/756 814/288/757 800/274/743
f 798/273/742 801/276/745 815/289/758
f 815/289/758 813/287/756 798/273/742
f 801/276/745 803/278/747 816/290/759
f 816/290/759 815/289/758 801/276/745
f 814/288/757 813/287/756 807/280/749
f 807/280/749 805/279/748 814/288/757
f 813/287/756 815/289/758 810/283/752
f 810/283/752 807/280/749 813/287/756
f 815/289/758 816/290/759 812/285/754
f 812/285/754 810/283/752 815/289/758
f 817/271/760 819/272/761 818/273/762
f 818/273/762 820/274/763 817/271/760
f 819/272/761 822/275/764 821/276/765
f 821/276/765 818/273/762 819/272/761
f 822/275/764 824/277/766 823/278/767
f 823/278/767 821/276/765 822/275/764
f 825/279/768 827/280/769 826/281/770
f 826/281/770 828/282/771 825/279/768
f 827/280/769 830/283/772 829/284/773
f 829/284/773 826/281/770 827/280/769
f 830/283/772 832/285/774 831/286/775
f 831/286/775 829/284/773 830/283/772
f 820/274/763 818/273/762 833/287/776
f 833/287/776 834/288/777 820/274/763
f 818/273/762 821/276/765 835/289/778
f 835/289/778 833/287/776 818/273/762
f 821/276/765 823/278/767 836/290/779
f 836/290/779 835/289/778 821/276/765
f 834/288/777 833/287/776 827/280/769
f 827/280/769 825/279/768 834/288/777
f 833/287/776 835/289/778 830/283/772
f 830/283/772 827/280/769 833/287/776
f 835/289/778 836/290/779 832/285/774
f 832/285/774 830/283/772 835/289/778
f 837/271/780 839/272/781 838/273/782
f 838/273/782 840/274/783 837/271/780
f 839/272/781 842/275/784 841/276/785
f 841/276/785 838/273/782 839/272/781
f 842/275/784 844/277/786 843/278/787
f 843/278/787 841/276/785 842/275/784
f 845/279/788 847/280/789 846/281/790
f 846/281/790 848/282/791 845/279/788
f 847/280/789 850/283/792 849/284/793
f 849/284/793 846/281/790 847/280/789
f 850/283/792 852/285/794 851/286/795
f 851/286/795 849/284/793 850/283/792
f 840/274/783 838/273/782 853/287/796
f 853/287/796 854/288/797 840/274/783
f 838/273/782 841/276/785 855/289/798
f 855/289/798 853/287/796 838/273/782
f 841/276/785 843/278/787 856/290/799
f 856/290/799 855/289/798 841/276/785
f 854/288/797 853/287/796 847/280/789
f 847/280/789 845/279/788 854/288/797
f 853/287/796 855/289/798 850/283/792
f 850/283/792 847/280/789 853/287/796
f 855/289/798 856/290/799 852/285/794
f 852/285/794 850/283/792 855/289/798
f 857/291/800 858/291/801 659/272/601
f 659/272/601 657/271/600 857/291/800
f 859/291/802 857/291/800 784/277/726
f 784/277/726 782/275/724 859/291/802
f 860/291/803 859/291/802 782/275/724
f 782/275/724 779/272/721 860/291/803
f 861/291/804 860/291/803 779/272/721
f 779/272/721 777/271/720 861/291/804
f 862/291/805 861/291/806 804/277/746
f 804/277/746 802/275/744 862/291/805
f 863/291/807 862/291/805 802/275/744
f 802/275/744 799/272/741 863/291/807
f 864/291/808 863/291/807 799/272/741
f 799/272/741 797/271/740 864/291/808
f 865/291/809 864/291/808 824/277/766
f 824/277/766 822/275/764 865/291/809
f 866/291/810 865/291/809 822/275/764
f 822/275/764 819/272/761 866/291/810
f 867/291/811 866/291/810 819/272/761
f 819/272/761 817/271/760 867/291/811
f 868/291/812 867/291/813 844/277/786
f 844/277/786 842/275/784 868/291/812
f 869/292/814 868/291/812 842/275/784
f 842/275/784 839/272/781 869/292/814
f 870/291/815 869/292/814 839/272/781
f 839/272/781 837/271/780 870/291/815
f 871/291/816 870/291/817 684/277/626
f 684/277/626 682/275/624 871/291/816
f 872/291/818 871/291/816 682/275/624
f 682/275/624 679/272/621 872/291/818
f 873/291/819 872/291/818 679/272/621
f 679/272/621 677/271/620 873/291/819
f 874/291/820 873/291/821 704/277/646
f 704/277/646 702/275/644 874/291/820
f 875/291/822 874/291/820 702/275/644
f 702/275/644 699/272/641 875/291/822
f 876/291/823 875/291/822 699/272/641
f 699/272/641 697/271/640 876/291/823
f 877/291/824 876/291/825 724/277/666
f 724/277/666 722/275/664 877/291/824
f 878/291/826 877/291/824 722/275/664
f 722/275/664 719/272/661 878/291/826
f 879/291/827 878/291/826 719/272/661
f 719/272/661 717/271/660 879/291/827
f 880/291/828 879/291/829 744/277/686
f 744/277/686 742/275/684 880/291/828
f 881/291/830 880/291/828 742/275/684
f 742/275/684 739/272/681 881/291/830
f 882/291/831 881/291/830 739/272/681
f 739/272/681 737/271/680 882/291/831
f 883/291/832 882/291/833 764/277/706
f 764/277/706 762/275/704 883/291/832
f 884/291/834 883/291/832 762/275/704
f 762/275/704 759/272/701 884/291/834
f 885/291/835 884/291/834 759/272/701
f 759/272/701 757/271/700 885/291/835
f 886/291/836 885/291/835 664/277/606
f 664/277/606 662/275/604 886/291/836
f 858/291/801 886/291/836 662/275/604
f 662/275/604 659/272/601 858/291/801
