# Blender 5.0.1
# www.blender.org
o LlantaDI
v -0.786409 -0.013647 0.260171
v -0.624249 0.353953 -0.047269
v -0.721289 -0.008207 -0.053589
v -0.680649 0.381073 0.267051
v -0.359129 0.619073 -0.042629
v -0.391689 0.669953 0.272091
v 0.003111 0.716114 -0.040949
v 0.003111 0.775713 0.273931
v 0.365271 0.619073 -0.042629
v 0.397831 0.669953 0.272091
v 0.630390 0.353953 -0.047269
v 0.686790 0.381073 0.267051
v 0.727430 -0.008207 -0.053589
v 0.792631 -0.013647 0.260171
v 0.630390 -0.370287 -0.059909
v 0.686790 -0.408366 0.253291
v 0.365271 -0.635406 -0.064469
v 0.397831 -0.697246 0.248251
v 0.003111 -0.732446 -0.066229
v 0.003111 -0.803006 0.246410
v -0.359129 -0.635406 -0.064469
v -0.391689 -0.697246 0.248251
v -0.624249 -0.370287 -0.059909
v -0.680649 -0.408366 0.253291
v -1.327530 1.330914 0.259211
v 1.347269 -1.344846 0.212491
v -1.328169 -1.344207 0.212491
v 1.347990 1.330194 0.259211
v 1.025030 0.846993 0.266171
v 1.255831 0.444593 0.414731
v 1.255831 0.447314 0.259211
v 1.025030 0.844274 0.421691
v 0.671350 1.143633 0.271371
v 1.025030 0.844274 0.421691
v 1.025030 0.846993 0.266171
v 0.671350 1.140913 0.426890
v 0.237591 1.301473 0.274171
v 0.671350 1.140913 0.426890
v 0.671350 1.143633 0.271371
v 0.237591 1.298833 0.429611
v -0.224009 1.301473 0.274171
v 0.237591 1.298833 0.429611
v 0.237591 1.301473 0.274171
v -0.224009 1.298833 0.429611
v -0.657770 1.143633 0.271371
v -0.224009 1.298833 0.429611
v -0.224009 1.301473 0.274171
v -0.657770 1.140913 0.426890
v -1.011370 0.846993 0.266170
v -0.657770 1.140913 0.426890
v -0.657770 1.143633 0.271371
v -1.011370 0.844274 0.421691
v -1.242170 0.447314 0.259211
v -1.011370 0.844274 0.421691
v -1.011370 0.846993 0.266170
v -1.242170 0.444593 0.414731
v -1.322329 -0.007247 0.251290
v -1.242170 0.444593 0.414731
v -1.242170 0.447314 0.259211
v -1.322329 -0.009967 0.406811
v 1.255831 0.447314 0.259211
v 1.335989 -0.009967 0.406811
v 1.335989 -0.007247 0.251290
v 1.255831 0.444593 0.414731
v -1.242170 -0.461807 0.243371
v -1.322329 -0.009967 0.406811
v -1.322329 -0.007247 0.251290
v -1.242170 -0.464527 0.398890
v -1.011370 -0.861487 0.236411
v -1.242170 -0.464527 0.398890
v -1.242170 -0.461807 0.243371
v -1.011370 -0.864207 0.391850
v 1.025030 -0.861487 0.236411
v 0.671350 -1.160846 0.386731
v 0.671350 -1.158127 0.231211
v 1.025030 -0.864207 0.391851
v -0.224009 -1.316046 0.228411
v -0.657770 -1.160846 0.386731
v -0.657770 -1.158127 0.231211
v -0.224009 -1.318767 0.383931
v 0.237591 -1.316046 0.228411
v -0.224009 -1.318767 0.383931
v -0.224009 -1.316046 0.228411
v 0.237591 -1.318767 0.383931
v 0.671350 -1.158127 0.231211
v 0.237591 -1.318767 0.383931
v 0.237591 -1.316046 0.228411
v 0.671350 -1.160846 0.386731
v -0.657770 -1.158127 0.231211
v -1.011370 -0.864207 0.391850
v -1.011370 -0.861487 0.236411
v -0.657770 -1.160846 0.386731
v 1.255831 -0.461807 0.243371
v 1.025030 -0.864207 0.391851
v 1.025030 -0.861487 0.236411
v 1.255831 -0.464527 0.398891
v 1.335989 -0.007247 0.251290
v 1.255831 -0.464527 0.398891
v 1.255831 -0.461807 0.243371
v 1.335989 -0.009967 0.406811
v -1.293770 0.470834 0.078811
v -0.973289 0.048833 0.152651
v -1.362810 0.074353 0.071931
v -0.911129 0.327713 0.157531
v -0.964169 -0.256447 0.147370
v -1.306250 -0.305166 0.065290
v -1.413849 0.509153 0.432570
v -1.490490 0.085233 0.158650
v -1.490490 0.080593 0.425131
v -1.413849 0.513874 0.166171
v -1.427370 -0.335006 0.151371
v -1.427370 -0.339726 0.417770
v -0.934010 -0.272366 0.418971
v -1.353689 -0.381326 0.156011
v -1.353689 -0.385967 0.416971
v -0.941769 0.032434 0.424251
v -0.881210 0.311873 0.429131
v -1.087690 0.816674 0.084890
v -0.776569 0.579713 0.161931
v -0.797529 1.067713 0.089291
v -0.570650 0.805313 0.165851
v -1.192650 0.884193 0.439131
v -1.192650 0.888913 0.172730
v -0.870810 1.161953 0.444011
v -0.870890 1.166594 0.177531
v -0.784889 1.148993 0.443770
v -0.540489 0.789474 0.437450
v -0.784889 1.153553 0.182731
v -0.745049 0.563313 0.433531
v -1.894730 0.008034 -0.873909
v -2.103209 -0.442286 -0.906069
v -1.853289 -0.389566 -0.880869
v -2.150249 0.008594 -0.898230
v -1.964090 -0.870527 -0.913509
v -1.730650 -0.767007 -0.887429
v -1.738890 -1.260447 -0.920389
v -1.532169 -1.110767 -0.893429
v -1.437609 -1.595086 -0.926230
v -1.266569 -1.405647 -0.898549
v -1.073290 -1.859806 -0.930789
v -0.945450 -1.639006 -0.902629
v -0.661930 -2.042927 -0.933990
v -0.582889 -1.800447 -0.905429
v -0.221449 -2.136606 -0.935669
v -0.194569 -1.882927 -0.906869
v 0.228951 -2.136606 -0.935669
v 0.202311 -1.882927 -0.906869
v 0.669430 -2.043086 -0.933990
v 0.590632 -1.800447 -0.905429
v 1.081350 -1.859647 -0.930789
v 0.954231 -1.638447 -0.902629
v 1.445192 -1.595327 -0.926229
v 1.274389 -1.405807 -0.898549
v 1.746550 -1.260687 -0.920389
v 1.539991 -1.110847 -0.893429
v 1.971750 -0.870766 -0.913589
v 1.738470 -0.767166 -0.887429
v 2.110952 -0.442527 -0.906069
v 1.861109 -0.389726 -0.880869
v 2.157991 0.008353 -0.898229
v 1.902632 0.007874 -0.873909
v 2.111029 0.453074 -0.890469
v 1.861189 0.399714 -0.867029
v 1.971830 0.881314 -0.882949
v 1.738550 0.777153 -0.860469
v 1.746710 1.271234 -0.876149
v 1.540071 1.120833 -0.854469
v 1.445429 1.605873 -0.870309
v 1.274469 1.415793 -0.849349
v 1.081110 1.870593 -0.865669
v 0.953352 1.649073 -0.845269
v 0.669670 2.053794 -0.862470
v 0.590710 1.810513 -0.842469
v 0.229191 2.147393 -0.860869
v 0.202471 1.893073 -0.841029
v -0.221130 2.147393 -0.860869
v -0.194488 1.893073 -0.841029
v -0.661610 2.053873 -0.862470
v -0.582729 1.810593 -0.842469
v -1.072569 1.870993 -0.865669
v -0.944330 1.649793 -0.845269
v -1.437370 1.606114 -0.870309
v -1.266489 1.415874 -0.849349
v -1.738729 1.271473 -0.876149
v -1.532089 1.120993 -0.854469
v -1.963930 0.881553 -0.882949
v -1.730570 0.777313 -0.860469
v -2.103130 0.453313 -0.890470
v -1.853289 0.399793 -0.867029
v -2.414650 0.227874 0.928651
v -1.642090 -0.559087 0.854650
v -2.308969 -0.777726 0.911051
v -1.717369 0.156914 0.867210
v -1.282009 -1.182687 0.843771
v -1.803530 -1.653326 0.895771
v -0.699450 -1.605887 0.836410
v -0.985529 -2.247727 0.885450
v 0.004951 -1.755566 0.833771
v 0.003670 -2.457967 0.881771
v 0.709351 -1.605887 0.836411
v 0.992712 -2.247886 0.885450
v 1.291910 -1.182687 0.843771
v 1.810949 -1.653647 0.895771
v 1.651911 -0.559087 0.854651
v 2.316629 -0.778046 0.911051
v 1.727190 0.156914 0.867210
v 2.422392 0.227473 0.928651
v 1.504709 0.841713 0.879130
v 2.109991 1.189074 0.945451
v 1.022871 1.376754 0.888491
v 1.433432 1.940513 0.958490
v 0.365030 1.669634 0.893611
v 0.509670 2.351794 0.965691
v -0.355129 1.669634 0.893611
v -0.501610 2.351874 0.965691
v -1.012970 1.376754 0.888491
v -1.425449 1.940674 0.958490
v -1.494810 0.841713 0.879130
v -2.102089 1.189394 0.945451
v 0.021830 -1.087567 -0.345189
v 0.078230 -1.152606 -0.387429
v 0.078230 -1.102926 -0.355189
v 0.021830 -1.168047 -0.397429
v -0.013050 -1.127806 -0.371269
v 0.021830 -1.283087 -0.220309
v -0.013050 -1.242847 -0.194149
v 0.078230 -1.267647 -0.210309
v 0.078230 -1.217966 -0.177989
v 0.021830 -1.202606 -0.168069
v 0.021830 -1.087567 -0.345189
v 0.021830 -1.087567 -0.345189
v 0.021830 -1.202606 -0.168069
v 0.748631 2.294674 -0.752389
v 0.273111 2.560273 -0.615509
v 0.255911 2.399473 -0.750629
v 0.799271 2.448354 -0.617509
v -0.264889 2.560354 -0.615509
v -0.247770 2.399473 -0.750629
v 0.273111 2.535554 0.800171
v 0.799271 2.423633 0.798251
v -0.264889 2.535633 0.800171
v 0.509670 2.351794 0.965691
v -0.501610 2.351874 0.965691
v -0.247770 2.399473 -0.750629
v -0.791210 2.448593 -0.617509
v -0.740570 2.294833 -0.752389
v -0.264889 2.560354 -0.615509
v -1.282730 2.229873 -0.621349
v -1.200729 2.090033 -0.755989
v -0.791210 2.423874 0.798251
v -0.264889 2.535633 0.800171
v -1.282730 2.205233 0.794411
v -0.501610 2.351874 0.965691
v -1.425449 1.940674 0.958490
v 1.616312 1.793713 -0.761189
v 1.290789 2.229473 -0.621349
v 1.208872 2.089793 -0.755989
v 1.725992 1.913234 -0.626869
v 0.799271 2.448354 -0.617509
v 0.748631 2.294674 -0.752389
v 1.290789 2.204754 0.794411
v 1.725992 1.888513 0.788891
v 0.799271 2.423633 0.798251
v 1.433432 1.940513 0.958490
v 0.509670 2.351794 0.965691
v -1.945450 1.419713 -0.767670
v -2.347130 1.048274 -0.641910
v -2.197289 0.983553 -0.775270
v -2.078089 1.514114 -0.633829
v -2.513529 0.536674 -0.650869
v -2.353050 0.504593 -0.783670
v -2.347130 1.023553 0.773850
v -2.078089 1.489393 0.781931
v -2.513529 0.512033 0.764891
v -2.102089 1.189394 0.945451
v -2.414650 0.227874 0.928651
v -2.353050 0.504593 -0.783670
v -2.569849 0.001714 -0.660230
v -2.405769 0.006833 -0.792389
v -2.513529 0.536674 -0.650869
v -2.513609 -0.533247 -0.669509
v -2.353130 -0.497247 -0.801190
v -2.569849 -0.022927 0.755530
v -2.513529 0.512033 0.764891
v -2.513609 -0.557966 0.746171
v -2.414650 0.227874 0.928651
v -2.308969 -0.777726 0.911051
v -1.200729 2.090033 -0.755989
v -1.718010 1.913793 -0.626869
v -1.608330 1.794033 -0.761190
v -1.282730 2.229873 -0.621349
v -2.078089 1.514114 -0.633829
v -1.945450 1.419713 -0.767670
v -1.718010 1.889074 0.788891
v -1.282730 2.205233 0.794411
v -2.078089 1.489393 0.781931
v -1.425449 1.940674 0.958490
v -2.102089 1.189394 0.945451
v 2.413431 0.006434 -0.792389
v 2.521032 0.535873 -0.650869
v 2.360872 0.504194 -0.783669
v 2.577112 0.000913 -0.660230
v 2.354872 1.047554 -0.641990
v 2.205191 0.983154 -0.775349
v 2.521032 0.511153 0.764891
v 2.577112 -0.023726 0.755530
v 2.354872 1.022833 0.773770
v 2.422392 0.227473 0.928651
v 2.109991 1.189074 0.945451
v 2.205191 0.983154 -0.775349
v 2.085909 1.513394 -0.633829
v 1.953352 1.419394 -0.767670
v 2.354872 1.047554 -0.641990
v 1.725992 1.913234 -0.626869
v 1.616312 1.793713 -0.761189
v 2.085909 1.488673 0.781931
v 2.354872 1.022833 0.773770
v 1.725992 1.888513 0.788891
v 2.109991 1.189074 0.945451
v 1.433432 1.940513 0.958490
v -1.201130 -2.082927 -0.828869
v -0.792009 -2.445727 -0.702950
v -0.740969 -2.287807 -0.832389
v -1.283449 -2.226846 -0.699109
v -0.265770 -2.557647 -0.704869
v -0.248249 -2.392526 -0.834229
v -0.792009 -2.470446 0.712810
v -1.283449 -2.251567 0.716651
v -0.265770 -2.582367 0.710891
v -0.985529 -2.247727 0.885450
v 0.003670 -2.457967 0.881771
v -0.248249 -2.392526 -0.834229
v 0.272230 -2.557727 -0.704869
v 0.255510 -2.392606 -0.834229
v -0.265770 -2.557647 -0.704869
v 0.798550 -2.445966 -0.702949
v 0.748230 -2.287886 -0.832389
v 0.272230 -2.582446 0.710891
v -0.265770 -2.582367 0.710891
v 0.798550 -2.470687 0.712811
v 0.003670 -2.457967 0.881771
v 0.992712 -2.247886 0.885450
v -1.945690 -1.412446 -0.817109
v -1.718649 -1.910607 -0.693589
v -1.608650 -1.786766 -0.823669
v -2.078569 -1.510766 -0.686629
v -1.283449 -2.226846 -0.699109
v -1.201130 -2.082927 -0.828869
v -1.718649 -1.935247 0.722171
v -2.078569 -1.535486 0.729131
v -1.283449 -2.251567 0.716651
v -1.803530 -1.653326 0.895771
v -0.985529 -2.247727 0.885450
v 1.616072 -1.787087 -0.823669
v 2.085432 -1.511407 -0.686629
v 1.953112 -1.412847 -0.817109
v 1.725351 -1.911166 -0.693589
v 2.354471 -1.045646 -0.678470
v 2.205030 -0.976687 -0.809509
v 2.085432 -1.536126 0.729131
v 1.725351 -1.935887 0.722171
v 2.354471 -1.070367 0.737291
v 1.810949 -1.653647 0.895771
v 2.316629 -0.778046 0.911051
v 2.205030 -0.976687 -0.809509
v 2.520792 -0.534047 -0.669589
v 2.360712 -0.497647 -0.801189
v 2.354471 -1.045646 -0.678470
v 2.577112 0.000913 -0.660230
v 2.413431 0.006434 -0.792389
v 2.520792 -0.558767 0.746171
v 2.354471 -1.070367 0.737291
v 2.577112 -0.023726 0.755530
v 2.316629 -0.778046 0.911051
v 2.422392 0.227473 0.928651
v 0.748230 -2.287886 -0.832389
v 1.290071 -2.227247 -0.699109
v 1.208471 -2.083087 -0.828869
v 0.798550 -2.445966 -0.702949
v 1.725351 -1.911166 -0.693589
v 1.616072 -1.787087 -0.823669
v 1.290071 -2.251967 0.716651
v 0.798550 -2.470687 0.712811
v 1.725351 -1.935887 0.722171
v 0.992712 -2.247886 0.885450
v 1.810949 -1.653647 0.895771
v -2.353130 -0.497247 -0.801190
v -2.347530 -1.044847 -0.678470
v -2.197529 -0.976287 -0.809509
v -2.513609 -0.533247 -0.669509
v -2.078569 -1.510766 -0.686629
v -1.945690 -1.412446 -0.817109
v -2.347530 -1.069566 0.737290
v -2.513609 -0.557966 0.746171
v -2.078569 -1.535486 0.729131
v -2.308969 -0.777726 0.911051
v -1.803530 -1.653326 0.895771
v -1.639290 0.006354 -0.785269
v -1.603369 -0.337967 -0.791349
v -2.353130 -0.497247 -0.801190
v -2.405769 0.006833 -0.792389
v -1.497210 -0.664686 -0.797030
v -2.197529 -0.976287 -0.809509
v -1.325449 -0.962126 -0.802229
v -1.945690 -1.412446 -0.817109
v -1.095610 -1.217407 -0.806629
v -1.608650 -1.786766 -0.823669
v -0.817690 -1.419246 -0.810149
v -1.201130 -2.082927 -0.828869
v -0.503849 -1.559006 -0.812630
v -0.740969 -2.287807 -0.832389
v -0.167770 -1.630367 -0.813910
v -0.248249 -2.392526 -0.834229
v 0.175751 -1.630367 -0.813910
v 0.255510 -2.392606 -0.834229
v 0.511751 -1.559006 -0.812630
v 0.748230 -2.287886 -0.832389
v 0.827190 -1.418367 -0.810149
v 1.208471 -2.083087 -0.828869
v 1.103510 -1.217407 -0.806629
v 1.616072 -1.787087 -0.823669
v 1.333429 -0.962126 -0.802229
v 1.953112 -1.412847 -0.817109
v 1.505190 -0.664686 -0.797029
v 2.205030 -0.976687 -0.809509
v 1.611349 -0.337967 -0.791349
v 2.360712 -0.497647 -0.801189
v 1.647272 0.006354 -0.785269
v 2.413431 0.006434 -0.792389
v 1.611349 0.345233 -0.779429
v 2.360872 0.504194 -0.783669
v 1.505190 0.671874 -0.773669
v 2.205191 0.983154 -0.775349
v 1.333429 0.969313 -0.768469
v 1.953352 1.419394 -0.767670
v 1.103510 1.224593 -0.764069
v 1.616312 1.793713 -0.761189
v 0.825590 1.426513 -0.760549
v 1.208872 2.089793 -0.755989
v 0.511751 1.566193 -0.758069
v 0.748631 2.294674 -0.752389
v 0.175751 1.637634 -0.756869
v 0.255911 2.399473 -0.750629
v -0.167770 1.637634 -0.756869
v -0.247770 2.399473 -0.750629
v -0.503849 1.566193 -0.758069
v -0.740570 2.294833 -0.752389
v -0.816090 1.427393 -0.760469
v -1.200729 2.090033 -0.755989
v -1.095610 1.224593 -0.764070
v -1.608330 1.794033 -0.761190
v -1.325449 0.969313 -0.768469
v -1.945450 1.419713 -0.767670
v -1.497210 0.671874 -0.773669
v -2.197289 0.983553 -0.775270
v -1.603369 0.345233 -0.779429
v -2.353050 0.504593 -0.783670
v -0.223690 0.693794 -0.238629
v 0.058311 0.337313 -0.144309
v 0.003670 0.729794 -0.237989
v -0.154890 0.303554 -0.144949
v 0.049751 0.284034 -0.190629
v -0.130009 0.255553 -0.191110
v 0.032951 0.185633 -0.627669
v -0.081289 0.167553 -0.627989
v -0.070650 0.146993 -0.649909
v 0.003670 0.001714 -0.682789
v 0.029270 0.162833 -0.649670
v 0.231031 0.693794 -0.238629
v 0.250551 0.239313 -0.146070
v 0.436152 0.589314 -0.240469
v 0.211910 0.201393 -0.192069
v 0.135990 0.133153 -0.628630
v 0.119431 0.116914 -0.650469
v 0.598871 0.426594 -0.243349
v 0.348551 0.047074 -0.149429
v 0.703350 0.221473 -0.246869
v 0.294470 0.039314 -0.194949
v 0.188551 0.030113 -0.630389
v 0.165350 0.026834 -0.652069
v 0.739431 -0.005807 -0.250869
v 0.314791 -0.166047 -0.153110
v 0.703350 -0.233166 -0.254789
v 0.266071 -0.140446 -0.198070
v 0.170471 -0.084126 -0.632389
v 0.149511 -0.073087 -0.653749
v 0.598871 -0.438206 -0.258389
v 0.162231 -0.318686 -0.155829
v 0.436152 -0.600927 -0.261270
v 0.137350 -0.269087 -0.200309
v 0.088631 -0.165967 -0.633829
v 0.077992 -0.144606 -0.655029
v 0.231031 -0.705406 -0.263109
v -0.050970 -0.352446 -0.156389
v 0.003670 -0.741407 -0.263669
v -0.042410 -0.297567 -0.200789
v -0.025610 -0.184047 -0.634150
v -0.021929 -0.160447 -0.655349
v -0.223690 -0.705406 -0.263109
v -0.243290 -0.254447 -0.154709
v -0.428810 -0.600927 -0.261270
v -0.204569 -0.214926 -0.199349
v -0.128649 -0.131487 -0.633189
v -0.112089 -0.114527 -0.654469
v -0.591530 -0.438206 -0.258390
v -0.341209 -0.062207 -0.151349
v -0.696089 -0.233166 -0.254789
v -0.287209 -0.052847 -0.196549
v -0.181210 -0.028446 -0.631430
v -0.158009 -0.024446 -0.652949
v -0.732090 -0.005807 -0.250869
v -0.307449 0.150913 -0.147590
v -0.696089 0.221473 -0.246869
v -0.258730 0.126913 -0.193349
v -0.163130 0.085794 -0.629429
v -0.142170 0.075474 -0.651189
v -0.591530 0.426594 -0.243349
v -0.428810 0.589314 -0.240469
v -0.260250 0.806354 -0.235029
v 0.003670 0.848114 -0.234229
v -0.223690 0.693794 -0.238629
v 0.267591 0.806354 -0.235029
v 0.436152 0.589314 -0.240469
v 0.505671 0.685073 -0.237109
v 0.598871 0.426594 -0.243349
v 0.694630 0.496114 -0.240389
v 0.703350 0.221473 -0.246869
v 0.815990 0.258034 -0.244549
v 0.739431 -0.005807 -0.250869
v 0.857752 -0.005807 -0.249189
v 0.703350 -0.233166 -0.254789
v 0.815990 -0.269727 -0.253749
v 0.598871 -0.438206 -0.258389
v 0.694630 -0.507807 -0.257909
v 0.436152 -0.600927 -0.261270
v 0.505671 -0.696767 -0.261270
v 0.231031 -0.705406 -0.263109
v 0.267591 -0.818046 -0.263350
v 0.003670 -0.741407 -0.263669
v 0.003670 -0.859807 -0.264070
v -0.223690 -0.705406 -0.263109
v -0.260250 -0.818046 -0.263350
v -0.428810 -0.600927 -0.261270
v -0.498409 -0.696767 -0.261270
v -0.591530 -0.438206 -0.258390
v -0.687290 -0.507807 -0.257909
v -0.696089 -0.233166 -0.254789
v -0.808649 -0.269727 -0.253749
v -0.732090 -0.005807 -0.250869
v -0.850409 -0.005807 -0.249189
v -0.696089 0.221473 -0.246869
v -0.808649 0.258034 -0.244549
v -0.591530 0.426594 -0.243349
v -0.687290 0.496114 -0.240389
v -0.428810 0.589314 -0.240469
v -0.498409 0.685073 -0.237109
v 0.003670 0.951313 -0.195669
v 0.299671 0.904433 -0.196469
v 0.165350 1.113633 -0.100550
v 0.395910 1.197873 -0.039829
v 0.199430 1.228993 -0.039350
v 0.088150 1.042913 -0.142550
v 0.003670 1.013154 -0.164229
v -0.292330 0.904433 -0.196469
v -0.080889 1.042913 -0.142550
v -0.388569 1.197873 -0.039829
v -0.158009 1.113633 -0.100550
v -0.192089 1.228993 -0.039350
v -0.559450 0.768434 -0.198790
v -0.524969 0.994433 -0.102630
v -0.565769 1.107553 -0.041430
v -0.545370 0.891953 -0.145189
v -0.596090 0.818353 -0.167589
v -0.771370 0.556514 -0.202549
v -0.682169 0.792593 -0.146870
v -1.023209 0.736834 -0.047909
v -0.786570 0.804433 -0.105989
v -0.882570 0.877473 -0.045429
v -0.907450 0.289474 -0.207190
v -1.013369 0.492274 -0.111429
v -1.113529 0.559633 -0.051029
v -0.969210 0.397553 -0.153830
v -0.966730 0.308274 -0.176549
v -0.954329 -0.006527 -0.212389
v -1.021450 0.236753 -0.156630
v -1.265610 -0.009166 -0.060949
v -1.113289 0.184834 -0.116789
v -1.234489 0.187314 -0.057509
v -0.907450 -0.302447 -0.217509
v -1.113289 -0.201007 -0.123509
v -1.234489 -0.205567 -0.064389
v -1.021450 -0.251567 -0.165110
v -0.966730 -0.322286 -0.187510
v -0.771370 -0.569486 -0.222149
v -0.969210 -0.412287 -0.167910
v -1.023209 -0.755087 -0.073909
v -1.013369 -0.508446 -0.128869
v -1.113529 -0.577886 -0.070869
v -0.559450 -0.781407 -0.225909
v -0.786570 -0.820606 -0.134309
v -0.882570 -0.895726 -0.076389
v -0.682169 -0.807407 -0.174789
v -0.596090 -0.832367 -0.196389
v -0.292330 -0.917407 -0.228230
v -0.545370 -0.906767 -0.176549
v -0.388569 -1.216127 -0.081989
v -0.524969 -1.010607 -0.137670
v -0.565769 -1.125807 -0.080389
v 0.003670 -0.964287 -0.229109
v -0.158009 -1.129886 -0.139750
v -0.192089 -1.247247 -0.082549
v -0.080889 -1.057647 -0.179190
v 0.003670 -1.027167 -0.199829
v 0.299671 -0.917407 -0.228230
v 0.088150 -1.057647 -0.179190
v 0.395910 -1.216127 -0.081989
v 0.165350 -1.129886 -0.139750
v 0.199430 -1.247247 -0.082549
v 0.566711 -0.781407 -0.225909
v 0.532310 -1.010607 -0.137670
v 0.573111 -1.125807 -0.080389
v 0.552711 -0.906767 -0.176549
v 0.603430 -0.832367 -0.196389
v 0.778711 -0.569486 -0.222149
v 0.689510 -0.807407 -0.174789
v 1.030550 -0.755087 -0.073909
v 0.793911 -0.820606 -0.134309
v 0.889910 -0.895726 -0.076389
v 0.914711 -0.302447 -0.217509
v 1.020712 -0.508446 -0.128869
v 1.120871 -0.577886 -0.070869
v 0.976551 -0.412287 -0.167910
v 0.974072 -0.322286 -0.187509
v 0.961672 -0.006527 -0.212389
v 1.028791 -0.251567 -0.165110
v 1.272951 -0.009166 -0.060949
v 1.120630 -0.201007 -0.123509
v 1.241831 -0.205567 -0.064389
v 0.914711 0.289474 -0.207190
v 1.120630 0.184834 -0.116789
v 1.241831 0.187314 -0.057509
v 1.028791 0.236753 -0.156630
v 0.974072 0.308274 -0.176549
v 0.778711 0.556514 -0.202549
v 0.976551 0.397553 -0.153830
v 1.030550 0.736834 -0.047909
v 1.020712 0.492274 -0.111429
v 1.120871 0.559633 -0.051029
v 0.566711 0.768434 -0.198790
v 0.793911 0.804433 -0.105989
v 0.889910 0.877473 -0.045429
v 0.689510 0.792593 -0.146870
v 0.603430 0.818353 -0.167589
v 0.552711 0.891953 -0.145189
v 0.532310 0.994433 -0.102630
v 0.573111 1.107553 -0.041429
v -0.500330 1.554754 -0.782069
v -0.151930 1.483633 -0.742229
v -0.166809 1.625633 -0.780869
v -0.456409 1.418913 -0.743349
v 0.159271 1.483633 -0.742229
v 0.174150 1.625633 -0.780869
v 0.463751 1.418913 -0.743349
v 0.507591 1.554754 -0.782069
v -0.440010 1.367234 -0.666709
v -0.119690 1.164433 -0.040469
v -0.146410 1.429633 -0.665589
v -0.361050 1.113153 -0.041349
v 0.127031 1.164433 -0.040469
v 0.153751 1.429633 -0.665589
v 0.368391 1.113153 -0.041349
v 0.447351 1.367234 -0.666709
v -0.148249 1.447953 -0.707190
v -0.445530 1.384753 -0.708309
v 0.155590 1.447953 -0.707190
v 0.452871 1.384753 -0.708309
v 0.507591 -1.546847 -0.836229
v 0.159271 -1.477247 -0.793909
v 0.174150 -1.617727 -0.837429
v 0.463751 -1.412526 -0.792789
v -0.151930 -1.477247 -0.793909
v -0.166809 -1.617727 -0.837429
v -0.456409 -1.412526 -0.792789
v -0.500330 -1.546847 -0.836229
v 0.447351 -1.363567 -0.714310
v 0.127031 -1.182687 -0.081429
v 0.153751 -1.425967 -0.715429
v 0.368391 -1.131407 -0.080549
v -0.119690 -1.182687 -0.081429
v -0.146410 -1.425967 -0.715429
v -0.361050 -1.131407 -0.080549
v -0.440010 -1.363567 -0.714310
v 0.155590 -1.442766 -0.757589
v 0.452871 -1.379566 -0.756549
v -0.148249 -1.442766 -0.757589
v -0.445530 -1.379566 -0.756549
v 1.323030 -0.954527 -0.825910
v 0.999910 -1.103007 -0.787350
v 1.094950 -1.207886 -0.830309
v 1.208151 -0.871727 -0.783349
v 0.748070 -1.285967 -0.790549
v 0.819111 -1.408207 -0.833829
v 0.463751 -1.412526 -0.792789
v 0.507591 -1.546847 -0.836229
v 1.165270 -0.841966 -0.705269
v 0.793350 -0.886047 -0.076229
v 0.964472 -1.065006 -0.709109
v 0.958471 -0.702767 -0.073029
v 0.593750 -1.031087 -0.078789
v 0.721590 -1.241487 -0.712229
v 0.368391 -1.131407 -0.080549
v 0.447351 -1.363567 -0.714310
v 0.976311 -1.077407 -0.751269
v 1.179590 -0.851647 -0.747349
v 0.730471 -1.256047 -0.754389
v 0.452871 -1.379566 -0.756549
v 1.634550 0.003953 -0.809189
v 1.459909 -0.306287 -0.773429
v 1.598871 -0.335087 -0.815109
v 1.492472 0.003233 -0.768069
v 1.363752 -0.602287 -0.778629
v 1.493509 -0.659326 -0.820709
v 1.208151 -0.871727 -0.783349
v 1.323030 -0.954527 -0.825910
v 1.439512 0.001873 -0.690469
v 1.158072 -0.254447 -0.065189
v 1.408152 -0.296607 -0.695749
v 1.183832 -0.009166 -0.060949
v 1.081831 -0.489087 -0.069269
v 1.315432 -0.582046 -0.700709
v 0.958471 -0.702767 -0.073029
v 1.165270 -0.841966 -0.705269
v 1.425432 -0.299567 -0.737669
v 1.457190 0.002593 -0.732389
v 1.331511 -0.588526 -0.742709
v 1.179590 -0.851647 -0.747349
v 1.323030 0.962353 -0.792389
v 1.363752 0.608674 -0.757509
v 1.493509 0.667153 -0.797589
v 1.208151 0.878193 -0.752789
v 1.459909 0.312674 -0.762629
v 1.598871 0.342913 -0.803269
v 1.492472 0.003233 -0.768069
v 1.634550 0.003953 -0.809189
v 1.165270 0.845713 -0.675749
v 1.081831 0.470834 -0.052549
v 1.315432 0.585793 -0.680309
v 0.958471 0.684433 -0.048789
v 1.158072 0.236193 -0.056629
v 1.408152 0.300354 -0.685269
v 1.183832 -0.009166 -0.060949
v 1.439512 0.001873 -0.690469
v 1.331511 0.593714 -0.722069
v 1.179590 0.856833 -0.717509
v 1.425432 0.304754 -0.727109
v 1.457190 0.002593 -0.732389
v 0.507591 1.554754 -0.782069
v 0.748070 1.292353 -0.745509
v 0.819111 1.416113 -0.784470
v 0.463751 1.418913 -0.743349
v 0.999910 1.109473 -0.748710
v 1.094950 1.215714 -0.787990
v 1.208151 0.878193 -0.752789
v 1.323030 0.962353 -0.792389
v 0.447351 1.367234 -0.666709
v 0.593750 1.012833 -0.043109
v 0.721590 1.245153 -0.668789
v 0.368391 1.113153 -0.041349
v 0.793350 0.867794 -0.045589
v 0.964472 1.068753 -0.671909
v 0.958471 0.684433 -0.048789
v 1.165270 0.845713 -0.675749
v 0.730471 1.261234 -0.710469
v 0.452871 1.384753 -0.708309
v 0.976311 1.082593 -0.713510
v 1.179590 0.856833 -0.717509
v -1.315769 0.962353 -0.792389
v -0.992569 1.109473 -0.748710
v -1.087610 1.215714 -0.787990
v -1.200809 0.878193 -0.752790
v -0.740730 1.292353 -0.745509
v -0.811769 1.416113 -0.784470
v -0.456409 1.418913 -0.743349
v -0.500330 1.554754 -0.782069
v -1.158009 0.845713 -0.675749
v -0.786009 0.867794 -0.045589
v -0.957129 1.068753 -0.671909
v -0.951130 0.684433 -0.048789
v -0.586409 1.012833 -0.043109
v -0.714249 1.245153 -0.668789
v -0.361050 1.113153 -0.041349
v -0.440010 1.367234 -0.666709
v -0.968969 1.082593 -0.713510
v -1.172249 0.856833 -0.717509
v -0.723129 1.261234 -0.710469
v -0.445530 1.384753 -0.708309
v -1.627209 0.003953 -0.809189
v -1.452650 0.312674 -0.762630
v -1.591530 0.342913 -0.803269
v -1.485130 0.003233 -0.768069
v -1.356409 0.608674 -0.757509
v -1.486170 0.667153 -0.797589
v -1.200809 0.878193 -0.752790
v -1.315769 0.962353 -0.792389
v -1.432169 0.001873 -0.690469
v -1.150730 0.236193 -0.056629
v -1.400810 0.300354 -0.685269
v -1.176569 -0.009166 -0.060949
v -1.074490 0.470834 -0.052549
v -1.308090 0.585793 -0.680309
v -0.951130 0.684433 -0.048789
v -1.158009 0.845713 -0.675749
v -1.418089 0.304754 -0.727109
v -1.449850 0.002593 -0.732390
v -1.324249 0.593714 -0.722069
v -1.172249 0.856833 -0.717509
v -1.315769 -0.954527 -0.825910
v -1.356409 -0.602287 -0.778629
v -1.486170 -0.659326 -0.820709
v -1.200809 -0.871727 -0.783349
v -1.452650 -0.306287 -0.773429
v -1.591530 -0.335087 -0.815109
v -1.485130 0.003233 -0.768069
v -1.627209 0.003953 -0.809189
v -1.158009 -0.841966 -0.705269
v -1.074490 -0.489087 -0.069269
v -1.308090 -0.582046 -0.700709
v -0.951130 -0.702767 -0.073030
v -1.150730 -0.254447 -0.065189
v -1.400810 -0.296607 -0.695749
v -1.176569 -0.009166 -0.060949
v -1.432169 0.001873 -0.690469
v -1.324249 -0.588526 -0.742709
v -1.172249 -0.851647 -0.747349
v -1.418089 -0.299567 -0.737669
v -1.449850 0.002593 -0.732390
v -0.500330 -1.546847 -0.836229
v -0.740730 -1.285967 -0.790549
v -0.811769 -1.408207 -0.833829
v -0.456409 -1.412526 -0.792789
v -0.992569 -1.103007 -0.787350
v -1.087610 -1.207886 -0.830309
v -1.200809 -0.871727 -0.783349
v -1.315769 -0.954527 -0.825910
v -0.440010 -1.363567 -0.714310
v -0.586409 -1.031087 -0.078789
v -0.714249 -1.241487 -0.712229
v -0.361050 -1.131407 -0.080549
v -0.786009 -0.886047 -0.076229
v -0.957128 -1.065006 -0.709109
v -0.951130 -0.702767 -0.073030
v -1.158009 -0.841966 -0.705269
v -0.723129 -1.256047 -0.754389
v -0.445530 -1.379566 -0.756549
v -0.968969 -1.077407 -0.751269
v -1.172249 -0.851647 -0.747349
v -0.503849 1.566193 -0.758069
v -0.167770 1.637634 -0.756869
v -0.816090 1.427393 -0.760469
v -1.095610 1.224593 -0.764070
v -1.325449 0.969313 -0.768469
v -1.497210 0.671874 -0.773669
v -1.603369 0.345233 -0.779429
v -1.639290 0.006354 -0.785269
v -1.603369 -0.337967 -0.791349
v -1.497210 -0.664686 -0.797030
v -1.325449 -0.962126 -0.802229
v -1.095610 -1.217407 -0.806629
v -0.817690 -1.419246 -0.810149
v -0.503849 -1.559006 -0.812630
v -0.167770 -1.630367 -0.813910
v 0.175751 -1.630367 -0.813910
v 0.511751 -1.559006 -0.812630
v 0.827190 -1.418367 -0.810149
v 1.103510 -1.217407 -0.806629
v 1.333429 -0.962126 -0.802229
v 1.505190 -0.664686 -0.797029
v 1.611349 -0.337967 -0.791349
v 1.647272 0.006354 -0.785269
v 1.611349 0.345233 -0.779429
v 1.505190 0.671874 -0.773669
v 1.333429 0.969313 -0.768469
v 1.103510 1.224593 -0.764069
v 0.825590 1.426513 -0.760549
v 0.511751 1.566193 -0.758069
v 0.175751 1.637634 -0.756869
vn -0.9754 -0.0836 -0.2040
vn -0.9754 0.0906 -0.2010
vn -0.8883 0.4157 -0.1953
vn -0.8012 0.5666 -0.1927
vn -0.5631 0.8046 -0.1885
vn -0.4123 0.8917 -0.1870
vn -0.0871 0.9788 -0.1855
vn 0.0871 0.9788 -0.1855
vn 0.4123 0.8917 -0.1870
vn 0.5631 0.8046 -0.1885
vn 0.8012 0.5666 -0.1927
vn 0.8883 0.4157 -0.1953
vn 0.9754 0.0906 -0.2010
vn 0.9754 -0.0835 -0.2040
vn 0.8883 -0.4087 -0.2097
vn 0.8012 -0.5595 -0.2123
vn 0.5631 -0.7975 -0.2165
vn 0.4123 -0.8846 -0.2180
vn 0.0871 -0.9717 -0.2195
vn -0.0871 -0.9717 -0.2195
vn -0.4123 -0.8846 -0.2180
vn -0.5631 -0.7975 -0.2165
vn -0.8012 -0.5595 -0.2123
vn -0.8883 -0.4087 -0.2097
vn -0.0000 0.0175 -0.9998
vn 0.8660 0.4999 0.0087
vn 0.6427 0.7660 0.0134
vn 0.3420 0.9396 0.0164
vn 0.3420 0.9395 0.0164
vn 0.3420 0.9395 0.0163
vn 0.3421 0.9395 0.0160
vn -0.0000 0.9998 0.0175
vn -0.0000 0.9999 0.0173
vn -0.0000 0.9999 0.0170
vn -0.3420 0.9396 0.0163
vn -0.3421 0.9395 0.0163
vn -0.3420 0.9396 0.0161
vn -0.3421 0.9395 0.0164
vn -0.6428 0.7659 0.0134
vn -0.8660 0.4999 0.0087
vn -0.9848 0.1736 0.0030
vn 0.9848 0.1736 0.0030
vn -0.9848 -0.1736 -0.0030
vn -0.8660 -0.4999 -0.0087
vn 0.6427 -0.7660 -0.0134
vn -0.3422 -0.9395 -0.0164
vn -0.3418 -0.9396 -0.0164
vn -0.0000 -0.9998 -0.0175
vn 0.3422 -0.9395 -0.0164
vn 0.3418 -0.9396 -0.0164
vn -0.6428 -0.7659 -0.0134
vn -0.6428 -0.7660 -0.0134
vn 0.8660 -0.4999 -0.0087
vn 0.9848 -0.1736 -0.0030
vn -0.1893 0.0383 -0.9812
vn -0.1743 0.1062 -0.9790
vn 0.7337 -0.0363 -0.6785
vn 0.6944 -0.2227 -0.6842
vn -0.2356 -0.3543 -0.9050
vn 0.5297 -0.4421 -0.7238
vn -0.9992 -0.0408 -0.0007
vn -0.9568 0.2907 0.0051
vn -0.8825 0.0335 -0.4690
vn -0.8213 0.3278 -0.4669
vn -0.7441 -0.6680 -0.0118
vn -0.8188 -0.4393 -0.3696
vn 0.8043 -0.5852 -0.1035
vn -0.1144 -0.9578 -0.2636
vn -0.1475 -0.9889 -0.0176
vn 0.9839 -0.1325 -0.1201
vn 0.9145 -0.3848 -0.1252
vn -0.1344 0.1615 -0.9777
vn 0.6107 -0.4033 -0.6815
vn 0.1864 0.3166 -0.9301
vn 0.9134 0.0181 -0.4066
vn -0.8015 0.5979 0.0104
vn -0.6680 0.5845 -0.4606
vn -0.2775 0.9606 0.0169
vn -0.2623 0.7989 -0.5412
vn 0.9914 -0.0653 -0.1138
vn 0.6607 0.7505 -0.0118
vn 0.4623 0.8458 -0.2662
vn 0.7864 -0.6047 -0.1261
vn 0.2127 0.0128 -0.9770
vn 0.2089 0.0571 -0.9763
vn -0.1433 -0.0220 -0.9894
vn -0.1483 0.0088 -0.9889
vn 0.1960 0.0998 -0.9755
vn -0.1320 -0.0509 -0.9899
vn 0.1744 0.1387 -0.9749
vn -0.1149 -0.0769 -0.9904
vn 0.1453 0.1723 -0.9743
vn -0.0928 -0.0987 -0.9908
vn 0.1099 0.1991 -0.9738
vn -0.0667 -0.1155 -0.9911
vn 0.0696 0.2180 -0.9735
vn -0.0376 -0.1264 -0.9913
vn 0.0263 0.2280 -0.9733
vn -0.0070 -0.1311 -0.9913
vn -0.0181 0.2289 -0.9733
vn 0.0241 -0.1293 -0.9913
vn -0.0618 0.2205 -0.9734
vn 0.0540 -0.1211 -0.9912
vn -0.1028 0.2032 -0.9737
vn 0.0816 -0.1069 -0.9909
vn -0.1393 0.1778 -0.9742
vn 0.1056 -0.0872 -0.9906
vn -0.1697 0.1454 -0.9747
vn 0.1251 -0.0630 -0.9901
vn -0.1926 0.1073 -0.9754
vn 0.1390 -0.0352 -0.9897
vn -0.2072 0.0652 -0.9761
vn 0.1469 -0.0051 -0.9891
vn -0.2127 0.0210 -0.9769
vn 0.1483 0.0260 -0.9886
vn -0.2089 -0.0233 -0.9777
vn 0.1433 0.0565 -0.9881
vn -0.1960 -0.0657 -0.9784
vn 0.1320 0.0855 -0.9876
vn -0.1745 -0.1047 -0.9791
vn 0.1150 0.1114 -0.9871
vn -0.1454 -0.1383 -0.9797
vn 0.0929 0.1333 -0.9867
vn -0.1099 -0.1651 -0.9801
vn 0.0667 0.1500 -0.9864
vn -0.0696 -0.1840 -0.9805
vn 0.0377 0.1610 -0.9862
vn -0.0263 -0.1941 -0.9806
vn 0.0069 0.1657 -0.9862
vn 0.0182 -0.1949 -0.9806
vn -0.0241 0.1639 -0.9862
vn 0.0618 -0.1865 -0.9805
vn -0.0540 0.1557 -0.9863
vn 0.1027 -0.1693 -0.9802
vn -0.0816 0.1414 -0.9866
vn 0.1392 -0.1438 -0.9798
vn -0.1057 0.1218 -0.9869
vn 0.1697 -0.1113 -0.9792
vn -0.1251 0.0975 -0.9873
vn 0.1927 -0.0732 -0.9785
vn -0.1390 0.0697 -0.9878
vn 0.2072 -0.0313 -0.9778
vn -0.1469 0.0398 -0.9884
vn 0.0857 -0.0203 0.9961
vn 0.0794 0.0148 0.9967
vn 0.0832 0.0033 0.9965
vn 0.0845 -0.0324 0.9959
vn 0.0595 0.0443 0.9972
vn 0.0676 0.0353 0.9971
vn 0.0292 0.0631 0.9976
vn 0.0403 0.0582 0.9975
vn -0.0061 0.0681 0.9977
vn 0.0060 0.0681 0.9977
vn -0.0403 0.0583 0.9975
vn -0.0293 0.0632 0.9976
vn -0.0677 0.0354 0.9971
vn -0.0596 0.0444 0.9972
vn -0.0835 0.0033 0.9965
vn -0.0797 0.0149 0.9967
vn -0.0847 -0.0324 0.9959
vn -0.0860 -0.0203 0.9961
vn -0.0713 -0.0656 0.9953
vn -0.0774 -0.0551 0.9955
vn -0.0456 -0.0904 0.9949
vn -0.0554 -0.0833 0.9950
vn -0.0119 -0.1026 0.9946
vn -0.0238 -0.1001 0.9947
vn 0.0238 -0.1000 0.9947
vn 0.0119 -0.1026 0.9947
vn 0.0553 -0.0832 0.9950
vn 0.0455 -0.0903 0.9949
vn 0.0772 -0.0550 0.9955
vn 0.0712 -0.0655 0.9953
vn -0.0001 0.5446 -0.8387
vn 0.6015 0.7955 0.0733
vn 0.7217 0.0911 -0.6862
vn -0.0597 -0.3122 -0.9481
vn -0.9022 0.0193 -0.4308
vn -0.5241 -0.7143 -0.4638
vn -0.9719 0.1975 0.1280
vn 0.6480 -0.6388 -0.4148
vn 0.9246 0.3196 0.2072
vn 0.3090 0.7976 0.5180
vn 0.3091 0.7976 0.5180
vn -0.8090 0.4930 0.3202
vn 0.1310 0.6293 -0.7660
vn 0.0438 0.6397 -0.7674
vn 0.0872 0.9049 -0.4165
vn 0.1995 0.9428 -0.2669
vn -0.0000 0.6431 -0.7657
vn 0.0001 0.8337 -0.5522
vn 0.1052 0.9150 0.3894
vn 0.1972 0.9215 0.3344
vn 0.0002 0.9600 0.2799
vn 0.0835 0.7241 0.6846
vn 0.0001 0.6692 0.7430
vn -0.1308 0.6293 -0.7660
vn -0.2146 0.6032 -0.7682
vn -0.2853 0.8628 -0.4173
vn -0.1992 0.9429 -0.2670
vn -0.2559 0.5884 -0.7670
vn -0.3349 0.7625 -0.5536
vn -0.2787 0.8781 0.3889
vn -0.1969 0.9216 0.3346
vn -0.3922 0.8767 0.2786
vn -0.2230 0.6943 0.6843
vn -0.2772 0.6100 0.7423
vn 0.3703 0.5230 -0.7677
vn 0.2948 0.5679 -0.7685
vn 0.4448 0.7919 -0.4184
vn 0.5638 0.7806 -0.2697
vn 0.2563 0.5888 -0.7666
vn 0.3353 0.7625 -0.5533
vn 0.4710 0.7926 0.3871
vn 0.5574 0.7612 0.3315
vn 0.3926 0.8766 0.2784
vn 0.3757 0.6267 0.6827
vn 0.2776 0.6104 0.7419
vn -0.5450 0.3281 -0.7716
vn -0.5818 0.2486 -0.7744
vn -0.8266 0.3678 -0.4260
vn -0.8304 0.4845 -0.2750
vn -0.5985 0.2082 -0.7736
vn -0.7835 0.2645 -0.5623
vn -0.8440 0.3783 0.3802
vn -0.8208 0.4685 0.3267
vn -0.9175 0.2936 0.2683
vn -0.6739 0.2950 0.6774
vn -0.6485 0.1980 0.7350
vn -0.6262 0.0796 -0.7756
vn -0.6273 -0.0080 -0.7787
vn -0.9017 0.0006 -0.4324
vn -0.9537 0.1053 -0.2816
vn -0.6261 -0.0518 -0.7780
vn -0.8193 -0.0760 -0.5684
vn -0.9276 0.0018 0.3735
vn -0.9427 0.0936 0.3201
vn -0.9595 -0.1053 0.2613
vn -0.7406 -0.0056 0.6720
vn -0.6784 -0.0841 0.7299
vn -0.3698 0.5227 -0.7681
vn -0.4359 0.4649 -0.7706
vn -0.6086 0.6728 -0.4207
vn -0.5636 0.7807 -0.2699
vn -0.4677 0.4348 -0.7696
vn -0.6122 0.5611 -0.5571
vn -0.6145 0.6883 0.3856
vn -0.5571 0.7613 0.3318
vn -0.7168 0.6410 0.2744
vn -0.4909 0.5426 0.6817
vn -0.5067 0.4435 0.7393
vn 0.6276 0.0795 -0.7745
vn 0.6097 0.1657 -0.7751
vn 0.8808 0.2019 -0.4282
vn 0.9540 0.1050 -0.2810
vn 0.5992 0.2082 -0.7731
vn 0.7840 0.2644 -0.5616
vn 0.9093 0.1782 0.3761
vn 0.9430 0.0933 0.3195
vn 0.9176 0.2933 0.2681
vn 0.7264 0.1363 0.6737
vn 0.6493 0.1981 0.7343
vn 0.5456 0.3285 -0.7710
vn 0.4950 0.4003 -0.7712
vn 0.7255 0.5432 -0.4226
vn 0.8307 0.4843 -0.2747
vn 0.4682 0.4351 -0.7690
vn 0.6126 0.5612 -0.5566
vn 0.7555 0.5320 0.3824
vn 0.8212 0.4683 0.3262
vn 0.7171 0.6408 0.2742
vn 0.6031 0.4188 0.6788
vn 0.5072 0.4438 0.7388
vn -0.2564 -0.5621 -0.7863
vn -0.1732 -0.5903 -0.7884
vn -0.2720 -0.8523 -0.4468
vn -0.3902 -0.8710 -0.2984
vn -0.1310 -0.6027 -0.7871
vn -0.1715 -0.7963 -0.5801
vn -0.2946 -0.8862 0.3575
vn -0.3858 -0.8716 0.3026
vn -0.2008 -0.9482 0.2464
vn -0.2349 -0.7148 0.6587
vn -0.1420 -0.6803 0.7190
vn -0.0001 -0.6167 -0.7872
vn 0.0875 -0.6088 -0.7885
vn 0.1013 -0.8886 -0.4474
vn -0.0001 -0.9540 -0.2998
vn 0.1310 -0.6030 -0.7869
vn 0.1713 -0.7964 -0.5800
vn 0.0887 -0.9300 0.3567
vn -0.0001 -0.9536 0.3012
vn 0.2005 -0.9482 0.2463
vn 0.0714 -0.7496 0.6581
vn 0.1419 -0.6806 0.7188
vn -0.4681 -0.4077 -0.7840
vn -0.4037 -0.4675 -0.7864
vn -0.5982 -0.6672 -0.4437
vn -0.7128 -0.6366 -0.2944
vn -0.3705 -0.4961 -0.7853
vn -0.4846 -0.6567 -0.5779
vn -0.6270 -0.6903 0.3611
vn -0.7046 -0.6398 0.3070
vn -0.5672 -0.7849 0.2492
vn -0.5004 -0.5582 0.6619
vn -0.4013 -0.5648 0.7211
vn 0.4686 -0.4084 -0.7833
vn 0.5212 -0.3379 -0.7837
vn 0.7339 -0.5169 -0.4408
vn 0.7127 -0.6368 -0.2942
vn 0.5460 -0.3018 -0.7815
vn 0.7139 -0.4024 -0.5731
vn 0.7458 -0.5585 0.3631
vn 0.7046 -0.6400 0.3065
vn 0.8355 -0.4871 0.2543
vn 0.5963 -0.4525 0.6631
vn 0.5913 -0.3542 0.7245
vn 0.5997 -0.1814 -0.7794
vn 0.6188 -0.0954 -0.7797
vn 0.8837 -0.1731 -0.4348
vn 0.9121 -0.2915 -0.2882
vn 0.6263 -0.0519 -0.7779
vn 0.8197 -0.0762 -0.5677
vn 0.9059 -0.2075 0.3693
vn 0.9018 -0.2986 0.3125
vn 0.9596 -0.1055 0.2610
vn 0.7239 -0.1718 0.6681
vn 0.6792 -0.0842 0.7291
vn 0.2565 -0.5626 -0.7859
vn 0.3332 -0.5195 -0.7869
vn 0.4571 -0.7700 -0.4452
vn 0.3900 -0.8712 -0.2983
vn 0.3706 -0.4965 -0.7849
vn 0.4845 -0.6571 -0.5775
vn 0.4567 -0.8141 0.3587
vn 0.3856 -0.8717 0.3024
vn 0.5670 -0.7851 0.2492
vn 0.3654 -0.6569 0.6595
vn 0.4013 -0.5651 0.7208
vn -0.5988 -0.1809 -0.7802
vn -0.5643 -0.2616 -0.7830
vn -0.8209 -0.3656 -0.4386
vn -0.9122 -0.2912 -0.2884
vn -0.5456 -0.3012 -0.7821
vn -0.7137 -0.4020 -0.5736
vn -0.8509 -0.3761 0.3668
vn -0.9017 -0.2982 0.3131
vn -0.8356 -0.4868 0.2546
vn -0.6792 -0.3073 0.6665
vn -0.5908 -0.3538 0.7251
vn 0.3277 0.0277 -0.9444
vn 0.3181 0.0957 -0.9432
vn -0.3772 -0.0501 -0.9248
vn -0.3828 0.0298 -0.9234
vn 0.2946 0.1602 -0.9421
vn -0.3551 -0.1272 -0.9261
vn 0.2583 0.2183 -0.9411
vn -0.3175 -0.1979 -0.9274
vn 0.2107 0.2676 -0.9402
vn -0.2660 -0.2593 -0.9284
vn 0.1539 0.3059 -0.9396
vn -0.2030 -0.3085 -0.9293
vn 0.0903 0.3315 -0.9391
vn -0.1310 -0.3436 -0.9299
vn 0.0228 0.3434 -0.9389
vn -0.0534 -0.3630 -0.9303
vn -0.0456 0.3410 -0.9389
vn 0.0266 -0.3658 -0.9303
vn -0.1122 0.3244 -0.9392
vn 0.1055 -0.3520 -0.9301
vn -0.1739 0.2943 -0.9397
vn 0.1798 -0.3220 -0.9295
vn -0.2278 0.2522 -0.9405
vn 0.2461 -0.2773 -0.9287
vn -0.2718 0.1998 -0.9414
vn 0.3018 -0.2197 -0.9277
vn -0.3040 0.1393 -0.9424
vn 0.3442 -0.1518 -0.9265
vn -0.3230 0.0732 -0.9436
vn 0.3717 -0.0765 -0.9252
vn -0.3277 0.0048 -0.9448
vn 0.3829 0.0030 -0.9238
vn -0.3182 -0.0629 -0.9459
vn 0.3773 0.0827 -0.9224
vn -0.2948 -0.1273 -0.9471
vn 0.3553 0.1596 -0.9210
vn -0.2584 -0.1854 -0.9481
vn 0.3177 0.2303 -0.9198
vn -0.2108 -0.2347 -0.9489
vn 0.2662 0.2916 -0.9187
vn -0.1540 -0.2731 -0.9496
vn 0.2031 0.3410 -0.9179
vn -0.0904 -0.2988 -0.9500
vn 0.1311 0.3761 -0.9173
vn -0.0229 -0.3107 -0.9502
vn 0.0534 0.3955 -0.9169
vn 0.0457 -0.3082 -0.9502
vn -0.0267 0.3983 -0.9169
vn 0.1121 -0.2917 -0.9499
vn -0.1055 0.3844 -0.9171
vn 0.1737 -0.2617 -0.9494
vn -0.1798 0.3544 -0.9176
vn 0.2278 -0.2194 -0.9487
vn -0.2462 0.3096 -0.9185
vn 0.2719 -0.1668 -0.9478
vn -0.3018 0.2520 -0.9195
vn 0.3040 -0.1063 -0.9467
vn -0.3443 0.1841 -0.9207
vn 0.3229 -0.0406 -0.9456
vn -0.3716 0.1089 -0.9220
vn 0.0647 -0.2222 -0.9729
vn -0.0008 -0.0744 -0.9972
vn 0.0674 0.1554 -0.9856
vn -0.0267 0.1686 -0.9853
vn 0.1497 0.8407 -0.5204
vn -0.3677 0.7699 -0.5216
vn 0.1190 0.8592 -0.4976
vn -0.4036 0.7668 -0.4992
vn -0.2647 0.4350 -0.8607
vn 0.0327 0.5104 -0.8593
vn -0.0426 -0.0924 -0.9948
vn -0.1471 -0.1842 -0.9718
vn 0.1357 0.0894 -0.9867
vn 0.6098 0.5940 -0.5247
vn 0.5961 0.6269 -0.5016
vn 0.3175 0.3966 -0.8613
vn -0.2074 -0.1185 -0.9710
vn -0.2372 -0.0593 -0.9696
vn 0.1522 -0.0042 -0.9883
vn 0.8371 0.1239 -0.5329
vn 0.8456 0.1586 -0.5098
vn 0.4811 0.1371 -0.8659
vn -0.2474 0.0292 -0.9685
vn -0.2367 0.0947 -0.9670
vn 0.1106 -0.0895 -0.9898
vn 0.7445 -0.3899 -0.5419
vn 0.7720 -0.3670 -0.5190
vn 0.4610 -0.1689 -0.8712
vn -0.1929 0.1723 -0.9660
vn -0.1458 0.2189 -0.9648
vn 0.0267 -0.1341 -0.9906
vn 0.3676 -0.7512 -0.5482
vn 0.4036 -0.7489 -0.5256
vn 0.2647 -0.4047 -0.8753
vn -0.0647 0.2560 -0.9645
vn 0.0008 0.2660 -0.9640
vn -0.0674 -0.1209 -0.9904
vn -0.1497 -0.8220 -0.5494
vn -0.1190 -0.8413 -0.5273
vn -0.0327 -0.4801 -0.8766
vn 0.0882 0.2484 -0.9646
vn 0.1471 0.2180 -0.9648
vn -0.1358 -0.0549 -0.9892
vn -0.6098 -0.5753 -0.5451
vn -0.5961 -0.6090 -0.5232
vn -0.3176 -0.3663 -0.8746
vn 0.2074 0.1523 -0.9663
vn 0.2372 0.0931 -0.9670
vn -0.1522 0.0387 -0.9876
vn -0.8371 -0.1052 -0.5369
vn -0.8456 -0.1407 -0.5150
vn -0.4811 -0.1068 -0.8701
vn 0.2474 0.0046 -0.9689
vn 0.2367 -0.0609 -0.9697
vn -0.1106 0.1240 -0.9861
vn -0.7445 0.4086 -0.5279
vn -0.7720 0.3848 -0.5058
vn -0.4609 0.1992 -0.8648
vn 0.1929 -0.1385 -0.9714
vn 0.1458 -0.1851 -0.9718
vn -0.0627 0.1823 -0.9812
vn -0.0085 0.1936 -0.9810
vn -0.0051 0.0308 -0.9995
vn 0.0464 0.1876 -0.9811
vn 0.0968 0.1649 -0.9815
vn 0.0079 0.0293 -0.9995
vn 0.1377 0.1278 -0.9822
vn 0.0111 0.0264 -0.9996
vn 0.1652 0.0798 -0.9830
vn 0.0134 0.0225 -0.9997
vn 0.1765 0.0257 -0.9840
vn 0.0142 0.0183 -0.9997
vn 0.1705 -0.0292 -0.9849
vn 0.0138 0.0137 -0.9998
vn 0.1478 -0.0796 -0.9858
vn 0.0119 0.0096 -0.9999
vn 0.1106 -0.1205 -0.9865
vn 0.0090 0.0063 -0.9999
vn 0.0627 -0.1480 -0.9870
vn 0.0051 0.0041 -1.0000
vn 0.0085 -0.1593 -0.9872
vn 0.0007 0.0032 -1.0000
vn -0.0464 -0.1533 -0.9871
vn -0.0038 0.0037 -1.0000
vn -0.0968 -0.1306 -0.9867
vn -0.0079 0.0056 -1.0000
vn -0.1377 -0.0935 -0.9861
vn -0.0111 0.0085 -0.9999
vn -0.1652 -0.0455 -0.9852
vn -0.0133 0.0123 -0.9998
vn -0.1765 0.0086 -0.9843
vn -0.0142 0.0168 -0.9998
vn -0.1705 0.0636 -0.9833
vn -0.0138 0.0212 -0.9997
vn -0.1478 0.1140 -0.9824
vn -0.0119 0.0254 -0.9996
vn -0.1106 0.1549 -0.9817
vn -0.0090 0.0285 -0.9996
vn 0.0076 0.4098 -0.9122
vn 0.1303 0.3979 -0.9081
vn 0.0692 0.4520 -0.8893
vn 0.0691 0.4520 -0.8893
vn 0.1352 0.4316 -0.8919
vn -0.0001 0.4529 -0.8916
vn 0.0692 0.4521 -0.8893
vn -0.1191 0.4015 -0.9081
vn -0.0693 0.4521 -0.8893
vn -0.1352 0.4316 -0.8919
vn -0.0692 0.4519 -0.8894
vn -0.0693 0.4520 -0.8893
vn -0.2253 0.3390 -0.9134
vn -0.2006 0.4094 -0.8900
vn -0.2006 0.4092 -0.8901
vn -0.2572 0.3693 -0.8930
vn -0.2006 0.4093 -0.8901
vn -0.3230 0.2579 -0.9106
vn -0.3123 0.3282 -0.8915
vn -0.3539 0.2728 -0.8946
vn -0.3126 0.3283 -0.8914
vn -0.3123 0.3281 -0.8915
vn -0.3722 0.1449 -0.9168
vn -0.3937 0.2163 -0.8934
vn -0.3937 0.2162 -0.8934
vn -0.4158 0.1508 -0.8969
vn -0.3937 0.2163 -0.8935
vn -0.4036 0.0219 -0.9147
vn -0.4365 0.0848 -0.8957
vn -0.4374 0.0157 -0.8991
vn -0.4364 0.0848 -0.8958
vn -0.4365 0.0849 -0.8957
vn -0.3768 -0.0984 -0.9210
vn -0.4364 -0.0536 -0.8982
vn -0.4365 -0.0535 -0.8981
vn -0.4161 -0.1196 -0.9014
vn -0.4366 -0.0536 -0.8981
vn -0.3300 -0.2165 -0.9188
vn -0.3938 -0.1850 -0.9004
vn -0.3538 -0.2414 -0.9036
vn -0.3936 -0.1849 -0.9005
vn -0.2376 -0.2980 -0.9245
vn -0.3124 -0.2967 -0.9024
vn -0.3124 -0.2965 -0.9025
vn -0.2571 -0.3382 -0.9053
vn -0.3127 -0.2970 -0.9023
vn -0.1303 -0.3660 -0.9215
vn -0.2006 -0.3781 -0.9037
vn -0.1353 -0.4003 -0.9064
vn -0.2005 -0.3779 -0.9039
vn -0.2006 -0.3779 -0.9038
vn -0.0075 -0.3777 -0.9259
vn -0.0692 -0.4205 -0.9046
vn -0.0692 -0.4208 -0.9045
vn -0.0000 -0.4218 -0.9067
vn -0.0691 -0.4207 -0.9046
vn 0.1191 -0.3696 -0.9215
vn 0.0691 -0.4207 -0.9046
vn 0.1353 -0.4003 -0.9064
vn 0.0692 -0.4208 -0.9045
vn 0.0692 -0.4205 -0.9046
vn 0.2254 -0.3069 -0.9247
vn 0.2006 -0.3779 -0.9038
vn 0.2005 -0.3779 -0.9039
vn 0.2572 -0.3382 -0.9053
vn 0.2006 -0.3781 -0.9038
vn 0.3230 -0.2260 -0.9190
vn 0.3126 -0.2969 -0.9023
vn 0.3538 -0.2414 -0.9036
vn 0.3124 -0.2965 -0.9025
vn 0.3124 -0.2967 -0.9024
vn 0.3722 -0.1128 -0.9213
vn 0.3936 -0.1849 -0.9005
vn 0.3933 -0.1850 -0.9006
vn 0.4160 -0.1195 -0.9015
vn 0.3937 -0.1849 -0.9005
vn 0.4036 0.0101 -0.9149
vn 0.4364 -0.0536 -0.8981
vn 0.4374 0.0157 -0.8991
vn 0.4362 -0.0534 -0.8983
vn 0.4364 -0.0536 -0.8982
vn 0.3768 0.1305 -0.9170
vn 0.4365 0.0849 -0.8957
vn 0.4364 0.0848 -0.8958
vn 0.4161 0.1509 -0.8967
vn 0.4363 0.0848 -0.8958
vn 0.3300 0.2484 -0.9107
vn 0.3936 0.2162 -0.8935
vn 0.3539 0.2728 -0.8946
vn 0.3934 0.2163 -0.8936
vn 0.3937 0.2163 -0.8934
vn 0.2376 0.3301 -0.9136
vn 0.3123 0.3281 -0.8915
vn 0.3124 0.3280 -0.8915
vn 0.2571 0.3694 -0.8930
vn 0.3122 0.3281 -0.8916
vn 0.2005 0.4092 -0.8901
vn 0.2006 0.4092 -0.8901
vn 0.2006 0.4094 -0.8900
vn -0.0284 0.1511 -0.9881
vn -0.0671 0.4023 -0.9130
vn 0.0456 -0.4936 -0.8685
vn 0.1217 -0.5582 -0.8207
vn 0.0146 0.4069 -0.9134
vn -0.0612 -0.4920 -0.8684
vn 0.1289 0.6198 -0.7741
vn -0.0907 -0.4112 -0.9070
vn 0.1924 -0.8986 -0.3943
vn 0.0966 -0.9120 -0.3986
vn 0.1290 -0.9109 -0.3920
vn 0.1927 -0.9004 -0.3901
vn -0.0966 -0.9120 -0.3986
vn -0.0645 -0.9177 -0.3921
vn -0.1921 -0.8969 -0.3984
vn -0.1927 -0.9003 -0.3902
vn 0.0832 -0.8171 -0.5705
vn 0.1801 -0.8385 -0.5144
vn -0.0906 -0.8163 -0.5704
vn -0.1654 -0.7673 -0.6196
vn 0.0285 -0.1170 -0.9927
vn 0.0673 -0.3717 -0.9259
vn -0.0456 0.5236 -0.8507
vn -0.1217 0.5865 -0.8008
vn -0.0149 -0.3782 -0.9256
vn 0.0611 0.5220 -0.8508
vn -0.1301 -0.5986 -0.7904
vn 0.0908 0.4426 -0.8921
vn -0.1924 0.9118 -0.3627
vn -0.0966 0.9255 -0.3662
vn -0.1290 0.9240 -0.3599
vn -0.1928 0.9134 -0.3586
vn 0.0966 0.9255 -0.3663
vn 0.0646 0.9308 -0.3598
vn 0.1921 0.9103 -0.3668
vn 0.1928 0.9134 -0.3586
vn -0.0832 0.8365 -0.5416
vn -0.1801 0.8559 -0.4848
vn 0.0906 0.8357 -0.5416
vn 0.1654 0.7885 -0.5924
vn 0.1009 -0.0735 -0.9922
vn 0.2803 -0.2560 -0.9251
vn -0.3359 0.3997 -0.8529
vn -0.4349 0.4057 -0.8039
vn 0.2181 -0.3092 -0.9257
vn -0.2486 0.4611 -0.8518
vn 0.2539 -0.5562 -0.7913
vn -0.1775 0.4144 -0.8926
vn -0.6878 0.6258 -0.3677
vn -0.6183 0.6931 -0.3705
vn -0.6438 0.6729 -0.3643
vn -0.6890 0.6271 -0.3634
vn -0.4619 0.8069 -0.3682
vn -0.4911 0.7922 -0.3622
vn -0.3758 0.8506 -0.3679
vn -0.3771 0.8535 -0.3596
vn -0.5534 0.6298 -0.5452
vn -0.6437 0.5883 -0.4894
vn -0.4123 0.7312 -0.5434
vn -0.3235 0.7371 -0.5933
vn 0.1362 0.0030 -0.9907
vn 0.3861 -0.0390 -0.9216
vn -0.4979 0.1288 -0.8576
vn -0.5820 0.0753 -0.8097
vn 0.3653 -0.1179 -0.9234
vn -0.4634 0.2298 -0.8559
vn 0.5356 -0.2955 -0.7911
vn -0.3780 0.2339 -0.8958
vn -0.9205 0.1033 -0.3768
vn -0.9037 0.1987 -0.3793
vn -0.9126 0.1674 -0.3731
vn -0.9222 0.1033 -0.3727
vn -0.8442 0.3825 -0.3756
vn -0.8592 0.3536 -0.3699
vn -0.8001 0.4685 -0.3746
vn -0.8030 0.4701 -0.3663
vn -0.8122 0.1861 -0.5529
vn -0.8615 0.0993 -0.4979
vn -0.7577 0.3511 -0.5501
vn -0.6888 0.4082 -0.5991
vn 0.1165 0.0846 -0.9896
vn 0.3430 0.1974 -0.9183
vn -0.4697 -0.1855 -0.8631
vn -0.5068 -0.2784 -0.8159
vn 0.3733 0.1221 -0.9196
vn -0.5012 -0.0835 -0.8613
vn 0.6103 0.0782 -0.7883
vn -0.4341 -0.0299 -0.9004
vn -0.8016 -0.4561 -0.3866
vn -0.8442 -0.3691 -0.3886
vn -0.8328 -0.3996 -0.3831
vn -0.8030 -0.4570 -0.3824
vn -0.9038 -0.1854 -0.3858
vn -0.8991 -0.2177 -0.3799
vn -0.9188 -0.0899 -0.3843
vn -0.9222 -0.0902 -0.3761
vn -0.7608 -0.3249 -0.5619
vn -0.7502 -0.4243 -0.5071
vn -0.8137 -0.1594 -0.5589
vn -0.7910 -0.0726 -0.6075
vn 0.0550 0.1409 -0.9885
vn 0.1716 0.3656 -0.9148
vn -0.2621 -0.4233 -0.8673
vn -0.2380 -0.5204 -0.8201
vn 0.2401 0.3218 -0.9158
vn -0.3475 -0.3592 -0.8661
vn 0.4586 0.4266 -0.7796
vn -0.3244 -0.2763 -0.9047
vn -0.3765 -0.8388 -0.3932
vn -0.4621 -0.7934 -0.3963
vn -0.4349 -0.8115 -0.3902
vn -0.3772 -0.8404 -0.3891
vn -0.6184 -0.6798 -0.3943
vn -0.5956 -0.7032 -0.3884
vn -0.6866 -0.6114 -0.3934
vn -0.6891 -0.6138 -0.3852
vn -0.4188 -0.7081 -0.5686
vn -0.3523 -0.7825 -0.5134
vn -0.5589 -0.6053 -0.5668
vn -0.5911 -0.5215 -0.6153
vn -0.1028 0.1098 -0.9886
vn -0.2835 0.2913 -0.9137
vn 0.3359 -0.3697 -0.8663
vn 0.4349 -0.3774 -0.8176
vn -0.2195 0.3433 -0.9132
vn 0.2486 -0.4311 -0.8674
vn -0.2527 0.5817 -0.7732
vn 0.1775 -0.3830 -0.9065
vn 0.6878 -0.6126 -0.3894
vn 0.6182 -0.6798 -0.3947
vn 0.6438 -0.6598 -0.3876
vn 0.6891 -0.6138 -0.3853
vn 0.4619 -0.7934 -0.3965
vn 0.4911 -0.7791 -0.3897
vn 0.3758 -0.8372 -0.3974
vn 0.3771 -0.8404 -0.3891
vn 0.5533 -0.6103 -0.5668
vn 0.6438 -0.5708 -0.5096
vn 0.4123 -0.7118 -0.5686
vn 0.3235 -0.7159 -0.6187
vn -0.1363 0.0316 -0.9902
vn -0.3918 0.0725 -0.9172
vn 0.4979 -0.0988 -0.8616
vn 0.5820 -0.0470 -0.8118
vn -0.3724 0.1527 -0.9154
vn 0.4633 -0.1998 -0.8634
vn -0.5432 0.3272 -0.7732
vn 0.3780 -0.2025 -0.9034
vn 0.9205 -0.0901 -0.3802
vn 0.9038 -0.1853 -0.3858
vn 0.9126 -0.1542 -0.3788
vn 0.9222 -0.0905 -0.3760
vn 0.8440 -0.3689 -0.3893
vn 0.8592 -0.3404 -0.3820
vn 0.8001 -0.4552 -0.3907
vn 0.8030 -0.4570 -0.3825
vn 0.8122 -0.1667 -0.5591
vn 0.8615 -0.0818 -0.5011
vn 0.7577 -0.3317 -0.5619
vn 0.6888 -0.3871 -0.6129
vn -0.1209 -0.0525 -0.9913
vn -0.3518 -0.1696 -0.9206
vn 0.4697 0.2155 -0.8561
vn 0.5068 0.3067 -0.8056
vn -0.3827 -0.0925 -0.9192
vn 0.5012 0.1135 -0.8579
vn -0.6285 -0.0522 -0.7760
vn 0.4341 0.0613 -0.8988
vn 0.8016 0.4693 -0.3705
vn 0.8440 0.3824 -0.3762
vn 0.8328 0.4128 -0.3689
vn 0.8031 0.4701 -0.3663
vn 0.9039 0.1987 -0.3788
vn 0.8991 0.2308 -0.3720
vn 0.9188 0.1032 -0.3809
vn 0.9222 0.1036 -0.3726
vn 0.7608 0.3443 -0.5502
vn 0.7502 0.4418 -0.4920
vn 0.8137 0.1788 -0.5531
vn 0.7910 0.0937 -0.6046
vn -0.0565 -0.1094 -0.9924
vn -0.1748 -0.3397 -0.9242
vn 0.2621 0.4533 -0.8519
vn 0.2380 0.5487 -0.8014
vn -0.2453 -0.2960 -0.9231
vn 0.3475 0.3892 -0.8531
vn -0.4672 -0.4070 -0.7849
vn 0.3244 0.3077 -0.8945
vn 0.3765 0.8520 -0.3638
vn 0.4619 0.8067 -0.3687
vn 0.4349 0.8246 -0.3617
vn 0.3771 0.8535 -0.3596
vn 0.6183 0.6932 -0.3705
vn 0.5955 0.7164 -0.3636
vn 0.6866 0.6248 -0.3718
vn 0.6890 0.6270 -0.3636
vn 0.4188 0.7275 -0.5435
vn 0.3523 0.8000 -0.4857
vn 0.5589 0.6247 -0.5453
vn 0.5911 0.5427 -0.5967
vn -0.2443 0.8606 -0.4468
vn -0.0618 0.8918 -0.4482
vn -0.4167 0.7920 -0.4462
vn -0.5718 0.6898 -0.4440
vn -0.7012 0.5558 -0.4465
vn -0.8005 0.3984 -0.4477
vn -0.7013 0.5558 -0.4465
vn -0.8648 0.2238 -0.4495
vn -0.8912 0.0393 -0.4519
vn -0.8800 -0.1468 -0.4518
vn -0.8271 -0.3261 -0.4578
vn -0.7394 -0.4906 -0.4610
vn -0.6193 -0.6331 -0.4643
vn -0.7394 -0.4907 -0.4610
vn -0.4722 -0.7473 -0.4675
vn -0.3046 -0.8283 -0.4703
vn -0.1239 -0.8724 -0.4728
vn -0.3045 -0.8283 -0.4703
vn 0.0618 -0.8779 -0.4748
vn 0.2446 -0.8446 -0.4762
vn 0.4160 -0.7742 -0.4769
vn 0.5684 -0.6690 -0.4789
vn 0.6967 -0.5363 -0.4764
vn 0.7940 -0.3791 -0.4752
vn 0.8567 -0.2053 -0.4733
vn 0.8819 -0.0225 -0.4710
vn 0.8673 0.1614 -0.4709
vn 0.8818 -0.0224 -0.4710
vn 0.8179 0.3386 -0.4652
vn 0.7315 0.5015 -0.4619
vn 0.6133 0.6430 -0.4587
vn 0.4682 0.7572 -0.4556
vn 0.3024 0.8388 -0.4527
vn 0.1232 0.8844 -0.4502
vt 0.341800 0.488280
vt 0.339840 0.488280
vt 0.339840 0.486330
vt 0.337890 0.488280
vt 0.000000 0.000000
vt 1.000000 0.000000
vt 0.000000 1.000000
vt 1.000000 1.000000
vt 0.562500 0.605470
vt 0.562500 0.398440
vt 0.437500 0.605470
vt 0.437500 0.398440
vt 0.931640 0.949220
vt 0.876950 0.962890
vt 0.914060 0.832030
vt 0.875000 0.835940
vt 0.978520 0.916020
vt 0.953130 0.820310
vt 0.937500 0.988280
vt 0.876950 0.998050
vt 0.990230 0.949220
vt 0.953130 0.810550
vt 0.992190 0.923830
vt 0.914060 0.822270
vt 0.875000 0.826170
vt 0.818360 0.941410
vt 0.832030 0.826170
vt 0.769530 0.902340
vt 0.791020 0.808590
vt 0.814450 0.980470
vt 0.759770 0.933590
vt 0.791020 0.798830
vt 0.757810 0.906250
vt 0.832030 0.816410
vt 0.912110 0.564450
vt 0.916020 0.478520
vt 0.943360 0.476560
vt 0.939450 0.570310
vt 0.902340 0.390630
vt 0.929690 0.382810
vt 0.871090 0.308590
vt 0.896480 0.296880
vt 0.824220 0.236330
vt 0.845700 0.218750
vt 0.763670 0.173830
vt 0.779300 0.152340
vt 0.689450 0.125000
vt 0.703130 0.101560
vt 0.607420 0.093750
vt 0.615230 0.068360
vt 0.521480 0.080080
vt 0.523440 0.052730
vt 0.435550 0.085940
vt 0.431640 0.058590
vt 0.351560 0.107420
vt 0.339840 0.082030
vt 0.273440 0.148440
vt 0.257810 0.125000
vt 0.205080 0.203130
vt 0.185550 0.183590
vt 0.150390 0.271480
vt 0.126950 0.255860
vt 0.111330 0.349610
vt 0.083980 0.339840
vt 0.087890 0.435550
vt 0.060550 0.429690
vt 0.083980 0.521480
vt 0.054690 0.523440
vt 0.097660 0.609380
vt 0.070310 0.615230
vt 0.126950 0.691410
vt 0.103520 0.703130
vt 0.175780 0.763670
vt 0.154300 0.781250
vt 0.236330 0.826170
vt 0.218750 0.847660
vt 0.310550 0.873050
vt 0.296880 0.898440
vt 0.390630 0.906250
vt 0.384770 0.931640
vt 0.478520 0.917970
vt 0.476560 0.947270
vt 0.564450 0.914060
vt 0.568360 0.941410
vt 0.648440 0.890630
vt 0.658200 0.917970
vt 0.726560 0.851560
vt 0.742190 0.875000
vt 0.794920 0.796880
vt 0.814450 0.816410
vt 0.849610 0.728520
vt 0.873050 0.742190
vt 0.888670 0.650390
vt 0.916020 0.660160
vt 0.035160 0.625000
vt 0.025390 0.423830
vt 0.113280 0.437500
vt 0.123050 0.601560
vt 0.095700 0.236330
vt 0.171880 0.285160
vt 0.238280 0.093750
vt 0.287110 0.169920
vt 0.423830 0.021480
vt 0.437500 0.111330
vt 0.625000 0.033200
vt 0.601560 0.121090
vt 0.802730 0.125000
vt 0.746090 0.195310
vt 0.927730 0.281250
vt 0.847660 0.322270
vt 0.980470 0.474610
vt 0.890630 0.480470
vt 0.949220 0.673830
vt 0.865230 0.640630
vt 0.839840 0.841800
vt 0.777340 0.777340
vt 0.671880 0.951170
vt 0.640630 0.867190
vt 0.474610 0.982420
vt 0.480470 0.892580
vt 0.281250 0.929690
vt 0.322270 0.849610
vt 0.126950 0.804690
vt 0.195310 0.748050
vt 0.986330 0.003910
vt 0.984380 0.003910
vt 0.988280 0.003910
vt 0.986330 0.007810
vt 0.988280 0.007810
vt 0.984380 0.007810
vt 0.982420 0.007810
vt 0.982420 0.003910
vt 0.990230 0.007810
vt 0.990230 0.003910
vt 0.753910 0.500000
vt 0.753910 0.583980
vt 0.701170 0.583980
vt 0.701170 0.500000
vt 0.753910 0.667970
vt 0.701170 0.667970
vt 0.298830 0.583980
vt 0.298830 0.500000
vt 0.298830 0.667970
vt 0.246090 0.509770
vt 0.246090 0.667970
vt 0.884770 0.560550
vt 0.888670 0.478520
vt 0.970700 0.474610
vt 0.966800 0.574220
vt 0.876950 0.398440
vt 0.957030 0.376950
vt 0.921880 0.283200
vt 0.802730 0.253910
vt 0.867190 0.201170
vt 0.796880 0.130860
vt 0.677730 0.150390
vt 0.714840 0.076170
vt 0.623050 0.041020
vt 0.521480 0.109380
vt 0.525390 0.025390
vt 0.439450 0.113280
vt 0.425780 0.031250
vt 0.361330 0.134770
vt 0.330080 0.056640
vt 0.287110 0.171880
vt 0.242190 0.101560
vt 0.224610 0.222660
vt 0.166020 0.164060
vt 0.173830 0.287110
vt 0.103520 0.242190
vt 0.136720 0.359380
vt 0.058590 0.330080
vt 0.115230 0.439450
vt 0.033200 0.425780
vt 0.111330 0.521480
vt 0.027340 0.525390
vt 0.042970 0.623050
vt 0.152340 0.677730
vt 0.078130 0.714840
vt 0.197270 0.746090
vt 0.132810 0.798830
vt 0.253910 0.804690
vt 0.203130 0.869140
vt 0.285160 0.923830
vt 0.398440 0.878910
vt 0.376950 0.958980
vt 0.478520 0.890630
vt 0.474610 0.974610
vt 0.560550 0.886720
vt 0.574220 0.968750
vt 0.638670 0.865230
vt 0.667970 0.943360
vt 0.712890 0.828130
vt 0.755860 0.898440
vt 0.775390 0.777340
vt 0.833980 0.835940
vt 0.826170 0.712890
vt 0.896480 0.757810
vt 0.863280 0.640630
vt 0.941410 0.669920
vt 0.568360 0.718750
vt 0.500000 0.730470
vt 0.482420 0.611330
vt 0.548830 0.601560
vt 0.484380 0.595700
vt 0.542970 0.587890
vt 0.488280 0.572270
vt 0.531250 0.566410
vt 0.523440 0.550780
vt 0.490230 0.556640
vt 0.500000 0.501950
vt 0.429690 0.718750
vt 0.365230 0.685550
vt 0.421880 0.580080
vt 0.431640 0.570310
vt 0.449220 0.552730
vt 0.460940 0.541020
vt 0.314450 0.636720
vt 0.283200 0.572270
vt 0.390630 0.519530
vt 0.406250 0.517580
vt 0.429690 0.513670
vt 0.445310 0.511720
vt 0.271480 0.501950
vt 0.283200 0.431640
vt 0.400390 0.453130
vt 0.414060 0.458980
vt 0.435550 0.470700
vt 0.451170 0.478520
vt 0.314450 0.369140
vt 0.365230 0.318360
vt 0.449220 0.404300
vt 0.457030 0.417970
vt 0.466800 0.439450
vt 0.474610 0.453130
vt 0.429690 0.287110
vt 0.500000 0.275390
vt 0.515630 0.394530
vt 0.513670 0.408200
vt 0.509770 0.433590
vt 0.507810 0.449220
vt 0.570310 0.287110
vt 0.632810 0.318360
vt 0.576170 0.423830
vt 0.566410 0.435550
vt 0.548830 0.453130
vt 0.537110 0.464840
vt 0.683590 0.369140
vt 0.714840 0.431640
vt 0.607420 0.486330
vt 0.593750 0.488280
vt 0.568360 0.492190
vt 0.552730 0.494140
vt 0.726560 0.501950
vt 0.714840 0.572270
vt 0.597660 0.552730
vt 0.583980 0.544920
vt 0.562500 0.535160
vt 0.546880 0.527340
vt 0.683590 0.636720
vt 0.632810 0.687500
vt 0.417970 0.753910
vt 0.500000 0.765630
vt 0.500000 0.798830
vt 0.408200 0.783200
vt 0.449220 0.849610
vt 0.439450 0.884770
vt 0.378910 0.875000
vt 0.500000 0.818360
vt 0.472660 0.828130
vt 0.341800 0.050780
vt 0.445310 0.029300
vt 0.451170 0.076170
vt 0.357420 0.095700
vt 0.552730 0.029300
vt 0.546880 0.076170
vt 0.656250 0.050780
vt 0.642580 0.095700
vt 0.361330 0.111330
vt 0.453130 0.091800
vt 0.460940 0.171880
vt 0.386720 0.187500
vt 0.544920 0.091800
vt 0.537110 0.171880
vt 0.636720 0.111330
vt 0.613280 0.187500
vt 0.451170 0.085940
vt 0.359380 0.105470
vt 0.546880 0.085940
vt 0.638670 0.105470
vt 0.492190 0.011720
vt 0.492190 0.009770
s 1
g off
f 3/1/1 1/1/2 2/1/3
f 4/1/4 2/1/3 1/1/2
f 2/1/3 4/1/4 5/1/5
f 6/2/6 5/1/5 4/1/4
f 5/1/5 6/2/6 7/3/7
f 8/2/8 7/3/7 6/2/6
f 7/3/7 8/2/8 9/3/9
f 10/2/10 9/3/9 8/2/8
f 9/3/9 10/2/10 11/3/11
f 12/2/12 11/3/11 10/2/10
f 11/3/11 12/2/12 13/3/13
f 14/4/14 13/3/13 12/2/12
f 13/3/13 14/4/14 15/3/15
f 16/4/16 15/3/15 14/4/14
f 15/3/15 16/4/16 17/3/17
f 18/3/18 17/3/17 16/4/16
f 17/3/17 18/3/18 19/3/19
f 20/3/20 19/3/19 18/3/18
f 19/3/19 20/3/20 21/3/21
f 22/3/22 21/3/21 20/3/20
f 21/3/21 22/3/22 23/3/23
f 24/1/24 23/3/23 22/3/22
f 23/3/23 24/1/24 3/1/1
f 1/1/2 3/1/1 24/1/24
f 27/5/25 25/6/25 26/7/25
f 28/8/25 26/7/25 25/6/25
f 31/9/26 29/10/26 30/11/26
f 32/12/26 30/11/26 29/10/26
f 35/9/27 33/10/27 34/11/27
f 36/12/27 34/11/27 33/10/27
f 39/9/28 37/10/29 38/11/30
f 40/12/31 38/11/30 37/10/29
f 43/9/32 41/10/32 42/11/33
f 44/12/34 42/11/33 41/10/32
f 47/9/35 45/10/36 46/11/37
f 48/12/38 46/11/37 45/10/36
f 51/9/39 49/10/39 50/11/39
f 52/12/39 50/11/39 49/10/39
f 55/9/40 53/10/40 54/11/40
f 56/12/40 54/11/40 53/10/40
f 59/9/41 57/10/41 58/11/41
f 60/12/41 58/11/41 57/10/41
f 63/9/42 61/10/42 62/11/42
f 64/12/42 62/11/42 61/10/42
f 67/9/43 65/10/43 66/11/43
f 68/12/43 66/11/43 65/10/43
f 71/9/44 69/10/44 70/11/44
f 72/12/44 70/11/44 69/10/44
f 75/9/45 73/10/45 74/11/45
f 76/12/45 74/11/45 73/10/45
f 79/9/46 77/10/46 78/11/46
f 80/12/47 78/11/46 77/10/46
f 83/9/48 81/10/48 82/11/48
f 84/12/48 82/11/48 81/10/48
f 87/9/49 85/10/50 86/11/49
f 88/12/50 86/11/49 85/10/50
f 91/9/51 89/10/51 90/11/51
f 92/12/52 90/11/51 89/10/51
f 95/9/53 93/10/53 94/11/53
f 96/12/53 94/11/53 93/10/53
f 99/9/54 97/10/54 98/11/54
f 100/12/54 98/11/54 97/10/54
f 103/13/55 101/14/56 102/15/57
f 104/16/58 102/15/57 101/14/56
f 106/17/59 103/13/55 105/18/60
f 102/15/57 105/18/60 103/13/55
f 109/19/61 107/20/62 108/19/63
f 110/20/64 108/19/63 107/20/62
f 112/21/65 109/19/61 111/21/66
f 108/19/63 111/21/66 109/19/61
f 105/18/60 113/22/67 114/23/68
f 115/23/69 114/23/68 113/22/67
f 116/24/70 113/22/67 102/15/57
f 105/18/60 102/15/57 113/22/67
f 117/25/71 116/24/70 104/16/58
f 102/15/57 104/16/58 116/24/70
f 108/19/63 110/20/64 103/13/55
f 101/14/56 103/13/55 110/20/64
f 111/21/66 108/19/63 106/17/59
f 103/13/55 106/17/59 108/19/63
f 115/23/69 112/21/65 114/23/68
f 111/21/66 114/23/68 112/21/65
f 105/18/60 114/23/68 106/17/59
f 111/21/66 106/17/59 114/23/68
f 101/14/56 118/26/72 104/16/58
f 119/27/73 104/16/58 118/26/72
f 118/26/72 120/28/74 119/27/73
f 121/29/75 119/27/73 120/28/74
f 107/20/62 122/30/76 110/20/64
f 123/30/77 110/20/64 122/30/76
f 122/30/76 124/31/78 123/30/77
f 125/31/79 123/30/77 124/31/78
f 127/32/80 121/29/75 126/33/81
f 128/33/82 126/33/81 121/29/75
f 127/32/80 129/34/83 121/29/75
f 119/27/73 121/29/75 129/34/83
f 129/34/83 117/25/71 119/27/73
f 104/16/58 119/27/73 117/25/71
f 110/20/64 123/30/77 101/14/56
f 118/26/72 101/14/56 123/30/77
f 123/30/77 125/31/79 118/26/72
f 120/28/74 118/26/72 125/31/79
f 126/33/81 128/33/82 124/31/78
f 125/31/79 124/31/78 128/33/82
f 125/31/79 128/33/82 120/28/74
f 121/29/75 120/28/74 128/33/82
f 130/35/84 132/36/85 131/37/86
f 131/37/86 133/38/87 130/35/84
f 132/36/85 135/39/88 134/40/89
f 134/40/89 131/37/86 132/36/85
f 135/39/88 137/41/90 136/42/91
f 136/42/91 134/40/89 135/39/88
f 137/41/90 139/43/92 138/44/93
f 138/44/93 136/42/91 137/41/90
f 139/43/92 141/45/94 140/46/95
f 140/46/95 138/44/93 139/43/92
f 141/45/94 143/47/96 142/48/97
f 142/48/97 140/46/95 141/45/94
f 143/47/96 145/49/98 144/50/99
f 144/50/99 142/48/97 143/47/96
f 145/49/98 147/51/100 146/52/101
f 146/52/101 144/50/99 145/49/98
f 147/51/100 149/53/102 148/54/103
f 148/54/103 146/52/101 147/51/100
f 149/53/102 151/55/104 150/56/105
f 150/56/105 148/54/103 149/53/102
f 151/55/104 153/57/106 152/58/107
f 152/58/107 150/56/105 151/55/104
f 153/57/106 155/59/108 154/60/109
f 154/60/109 152/58/107 153/57/106
f 155/59/108 157/61/110 156/62/111
f 156/62/111 154/60/109 155/59/108
f 157/61/110 159/63/112 158/64/113
f 158/64/113 156/62/111 157/61/110
f 159/63/112 161/65/114 160/66/115
f 160/66/115 158/64/113 159/63/112
f 161/65/114 163/67/116 162/68/117
f 162/68/117 160/66/115 161/65/114
f 163/67/116 165/69/118 164/70/119
f 164/70/119 162/68/117 163/67/116
f 165/69/118 167/71/120 166/72/121
f 166/72/121 164/70/119 165/69/118
f 167/71/120 169/73/122 168/74/123
f 168/74/123 166/72/121 167/71/120
f 169/73/122 171/75/124 170/76/125
f 170/76/125 168/74/123 169/73/122
f 171/75/124 173/77/126 172/78/127
f 172/78/127 170/76/125 171/75/124
f 173/77/126 175/79/128 174/80/129
f 174/80/129 172/78/127 173/77/126
f 175/79/128 177/81/130 176/82/131
f 176/82/131 174/80/129 175/79/128
f 177/81/130 179/83/132 178/84/133
f 178/84/133 176/82/131 177/81/130
f 179/83/132 181/85/134 180/86/135
f 180/86/135 178/84/133 179/83/132
f 181/85/134 183/87/136 182/88/137
f 182/88/137 180/86/135 181/85/134
f 183/87/136 185/89/138 184/90/139
f 184/90/139 182/88/137 183/87/136
f 185/89/138 187/91/140 186/92/141
f 186/92/141 184/90/139 185/89/138
f 187/91/140 189/93/142 188/94/143
f 188/94/143 186/92/141 187/91/140
f 189/93/142 130/35/84 133/38/87
f 133/38/87 188/94/143 189/93/142
f 190/95/144 192/96/145 191/97/146
f 191/97/146 193/98/147 190/95/144
f 192/96/145 195/99/148 194/100/149
f 194/100/149 191/97/146 192/96/145
f 195/99/148 197/101/150 196/102/151
f 196/102/151 194/100/149 195/99/148
f 197/101/150 199/103/152 198/104/153
f 198/104/153 196/102/151 197/101/150
f 199/103/152 201/105/154 200/106/155
f 200/106/155 198/104/153 199/103/152
f 201/105/154 203/107/156 202/108/157
f 202/108/157 200/106/155 201/105/154
f 203/107/156 205/109/158 204/110/159
f 204/110/159 202/108/157 203/107/156
f 205/109/158 207/111/160 206/112/161
f 206/112/161 204/110/159 205/109/158
f 207/111/160 209/113/162 208/114/163
f 208/114/163 206/112/161 207/111/160
f 209/113/162 211/115/164 210/116/165
f 210/116/165 208/114/163 209/113/162
f 211/115/164 213/117/166 212/118/167
f 212/118/167 210/116/165 211/115/164
f 213/117/166 215/119/168 214/120/169
f 214/120/169 212/118/167 213/117/166
f 215/119/168 217/121/170 216/122/171
f 216/122/171 214/120/169 215/119/168
f 217/121/170 219/123/172 218/124/173
f 218/124/173 216/122/171 217/121/170
f 219/123/172 190/95/144 193/98/147
f 193/98/147 218/124/173 219/123/172
f 220/125/174 222/126/175 221/126/176
f 220/125/174 221/126/176 223/125/177
f 220/125/174 223/125/177 224/127/178
f 225/128/179 226/129/180 224/127/178
f 224/127/178 223/125/177 225/128/179
f 227/130/181 225/128/179 223/125/177
f 223/125/177 221/126/176 227/130/181
f 228/130/182 227/130/181 221/126/176
f 221/126/176 222/126/175 228/130/182
f 229/131/183 228/130/182 222/126/175
f 222/126/175 230/132/184 229/131/183
f 226/129/180 232/133/185 231/134/185
f 231/134/185 224/127/178 226/129/180
f 233/135/186 235/136/187 234/137/188
f 234/137/188 236/138/189 233/135/186
f 235/136/187 238/139/190 237/140/191
f 237/140/191 234/137/188 235/136/187
f 236/138/189 234/137/188 239/141/192
f 239/141/192 240/142/193 236/138/189
f 234/137/188 237/140/191 241/143/194
f 241/143/194 239/141/192 234/137/188
f 242/144/195 240/142/193 239/141/192
f 239/141/192 241/143/194 243/145/196
f 243/145/196 242/144/195 239/141/192
f 244/135/197 246/136/198 245/137/199
f 245/137/199 247/138/200 244/135/197
f 246/136/198 249/139/201 248/140/202
f 248/140/202 245/137/199 246/136/198
f 247/138/200 245/137/199 250/141/203
f 250/141/203 251/142/204 247/138/200
f 245/137/199 248/140/202 252/143/205
f 252/143/205 250/141/203 245/137/199
f 253/144/206 251/142/204 250/141/203
f 250/141/203 252/143/205 254/145/207
f 254/145/207 253/144/206 250/141/203
f 255/135/208 257/136/209 256/137/210
f 256/137/210 258/138/211 255/135/208
f 257/136/209 260/139/212 259/140/213
f 259/140/213 256/137/210 257/136/209
f 258/138/211 256/137/210 261/141/214
f 261/141/214 262/142/215 258/138/211
f 256/137/210 259/140/213 263/143/216
f 263/143/216 261/141/214 256/137/210
f 264/144/217 262/142/215 261/141/214
f 261/141/214 263/143/216 265/145/218
f 265/145/218 264/144/217 261/141/214
f 266/135/219 268/136/220 267/137/221
f 267/137/221 269/138/222 266/135/219
f 268/136/220 271/139/223 270/140/224
f 270/140/224 267/137/221 268/136/220
f 269/138/222 267/137/221 272/141/225
f 272/141/225 273/142/226 269/138/222
f 267/137/221 270/140/224 274/143/227
f 274/143/227 272/141/225 267/137/221
f 275/144/228 273/142/226 272/141/225
f 272/141/225 274/143/227 276/145/229
f 276/145/229 275/144/228 272/141/225
f 277/135/230 279/136/231 278/137/232
f 278/137/232 280/138/233 277/135/230
f 279/136/231 282/139/234 281/140/235
f 281/140/235 278/137/232 279/136/231
f 280/138/233 278/137/232 283/141/236
f 283/141/236 284/142/237 280/138/233
f 278/137/232 281/140/235 285/143/238
f 285/143/238 283/141/236 278/137/232
f 286/144/239 284/142/237 283/141/236
f 283/141/236 285/143/238 287/145/240
f 287/145/240 286/144/239 283/141/236
f 288/135/241 290/136/242 289/137/243
f 289/137/243 291/138/244 288/135/241
f 290/136/242 293/139/245 292/140/246
f 292/140/246 289/137/243 290/136/242
f 291/138/244 289/137/243 294/141/247
f 294/141/247 295/142/248 291/138/244
f 289/137/243 292/140/246 296/143/249
f 296/143/249 294/141/247 289/137/243
f 297/144/250 295/142/248 294/141/247
f 294/141/247 296/143/249 298/145/251
f 298/145/251 297/144/250 294/141/247
f 299/135/252 301/136/253 300/137/254
f 300/137/254 302/138/255 299/135/252
f 301/136/253 304/139/256 303/140/257
f 303/140/257 300/137/254 301/136/253
f 302/138/255 300/137/254 305/141/258
f 305/141/258 306/142/259 302/138/255
f 300/137/254 303/140/257 307/143/260
f 307/143/260 305/141/258 300/137/254
f 308/144/261 306/142/259 305/141/258
f 305/141/258 307/143/260 309/145/262
f 309/145/262 308/144/261 305/141/258
f 310/135/263 312/136/264 311/137/265
f 311/137/265 313/138/266 310/135/263
f 312/136/264 315/139/267 314/140/268
f 314/140/268 311/137/265 312/136/264
f 313/138/266 311/137/265 316/141/269
f 316/141/269 317/142/270 313/138/266
f 311/137/265 314/140/268 318/143/271
f 318/143/271 316/141/269 311/137/265
f 319/144/272 317/142/270 316/141/269
f 316/141/269 318/143/271 320/145/273
f 320/145/273 319/144/272 316/141/269
f 321/135/274 323/136/275 322/137/276
f 322/137/276 324/138/277 321/135/274
f 323/136/275 326/139/278 325/140/279
f 325/140/279 322/137/276 323/136/275
f 324/138/277 322/137/276 327/141/280
f 327/141/280 328/142/281 324/138/277
f 322/137/276 325/140/279 329/143/282
f 329/143/282 327/141/280 322/137/276
f 330/144/283 328/142/281 327/141/280
f 327/141/280 329/143/282 331/145/284
f 331/145/284 330/144/283 327/141/280
f 332/135/285 334/136/286 333/137/287
f 333/137/287 335/138/288 332/135/285
f 334/136/286 337/139/289 336/140/290
f 336/140/290 333/137/287 334/136/286
f 335/138/288 333/137/287 338/141/291
f 338/141/291 339/142/292 335/138/288
f 333/137/287 336/140/290 340/143/293
f 340/143/293 338/141/291 333/137/287
f 341/144/294 339/142/292 338/141/291
f 338/141/291 340/143/293 342/145/295
f 342/145/295 341/144/294 338/141/291
f 343/135/296 345/136/297 344/137/298
f 344/137/298 346/138/299 343/135/296
f 345/136/297 348/139/300 347/140/301
f 347/140/301 344/137/298 345/136/297
f 346/138/299 344/137/298 349/141/302
f 349/141/302 350/142/303 346/138/299
f 344/137/298 347/140/301 351/143/304
f 351/143/304 349/141/302 344/137/298
f 352/144/305 350/142/303 349/141/302
f 349/141/302 351/143/304 353/145/306
f 353/145/306 352/144/305 349/141/302
f 354/135/307 356/136/308 355/137/309
f 355/137/309 357/138/310 354/135/307
f 356/136/308 359/139/311 358/140/312
f 358/140/312 355/137/309 356/136/308
f 357/138/310 355/137/309 360/141/313
f 360/141/313 361/142/314 357/138/310
f 355/137/309 358/140/312 362/143/315
f 362/143/315 360/141/313 355/137/309
f 363/144/316 361/142/314 360/141/313
f 360/141/313 362/143/315 364/145/317
f 364/145/317 363/144/316 360/141/313
f 365/135/318 367/136/319 366/137/320
f 366/137/320 368/138/321 365/135/318
f 367/136/319 370/139/322 369/140/323
f 369/140/323 366/137/320 367/136/319
f 368/138/321 366/137/320 371/141/324
f 371/141/324 372/142/325 368/138/321
f 366/137/320 369/140/323 373/143/326
f 373/143/326 371/141/324 366/137/320
f 374/144/327 372/142/325 371/141/324
f 371/141/324 373/143/326 375/145/328
f 375/145/328 374/144/327 371/141/324
f 376/135/329 378/136/330 377/137/331
f 377/137/331 379/138/332 376/135/329
f 378/136/330 381/139/333 380/140/334
f 380/140/334 377/137/331 378/136/330
f 379/138/332 377/137/331 382/141/335
f 382/141/335 383/142/336 379/138/332
f 377/137/331 380/140/334 384/143/337
f 384/143/337 382/141/335 377/137/331
f 385/144/338 383/142/336 382/141/335
f 382/141/335 384/143/337 386/145/339
f 386/145/339 385/144/338 382/141/335
f 387/135/340 389/136/341 388/137/342
f 388/137/342 390/138/343 387/135/340
f 389/136/341 392/139/344 391/140/345
f 391/140/345 388/137/342 389/136/341
f 390/138/343 388/137/342 393/141/346
f 393/141/346 394/142/347 390/138/343
f 388/137/342 391/140/345 395/143/348
f 395/143/348 393/141/346 388/137/342
f 396/144/349 394/142/347 393/141/346
f 393/141/346 395/143/348 397/145/350
f 397/145/350 396/144/349 393/141/346
f 398/146/351 399/147/352 132/36/85
f 132/36/85 130/35/84 398/146/351
f 400/148/353 401/149/354 133/38/87
f 133/38/87 131/37/86 400/148/353
f 399/147/352 402/150/355 135/39/88
f 135/39/88 132/36/85 399/147/352
f 403/151/356 400/148/353 131/37/86
f 131/37/86 134/40/89 403/151/356
f 402/150/355 404/110/357 137/41/90
f 137/41/90 135/39/88 402/150/355
f 405/152/358 403/151/356 134/40/89
f 134/40/89 136/42/91 405/152/358
f 404/110/357 406/153/359 139/43/92
f 139/43/92 137/41/90 404/110/357
f 407/154/360 405/152/358 136/42/91
f 136/42/91 138/44/93 407/154/360
f 406/153/359 408/108/361 141/45/94
f 141/45/94 139/43/92 406/153/359
f 409/155/362 407/154/360 138/44/93
f 138/44/93 140/46/95 409/155/362
f 408/108/361 410/156/363 143/47/96
f 143/47/96 141/45/94 408/108/361
f 411/157/364 409/155/362 140/46/95
f 140/46/95 142/48/97 411/157/364
f 410/156/363 412/106/365 145/49/98
f 145/49/98 143/47/96 410/156/363
f 413/158/366 411/157/364 142/48/97
f 142/48/97 144/50/99 413/158/366
f 412/106/365 414/159/367 147/51/100
f 147/51/100 145/49/98 412/106/365
f 415/160/368 413/158/366 144/50/99
f 144/50/99 146/52/101 415/160/368
f 414/159/367 416/161/369 149/53/102
f 149/53/102 147/51/100 414/159/367
f 417/162/370 415/160/368 146/52/101
f 146/52/101 148/54/103 417/162/370
f 416/161/369 418/163/371 151/55/104
f 151/55/104 149/53/102 416/161/369
f 419/164/372 417/162/370 148/54/103
f 148/54/103 150/56/105 419/164/372
f 418/163/371 420/165/373 153/57/106
f 153/57/106 151/55/104 418/163/371
f 421/166/374 419/164/372 150/56/105
f 150/56/105 152/58/107 421/166/374
f 420/165/373 422/167/375 155/59/108
f 155/59/108 153/57/106 420/165/373
f 423/168/376 421/166/374 152/58/107
f 152/58/107 154/60/109 423/168/376
f 422/167/375 424/169/377 157/61/110
f 157/61/110 155/59/108 422/167/375
f 425/170/378 423/168/376 154/60/109
f 154/60/109 156/62/111 425/170/378
f 424/169/377 426/171/379 159/63/112
f 159/63/112 157/61/110 424/169/377
f 427/172/380 425/170/378 156/62/111
f 156/62/111 158/64/113 427/172/380
f 426/171/379 428/173/381 161/65/114
f 161/65/114 159/63/112 426/171/379
f 429/174/382 427/172/380 158/64/113
f 158/64/113 160/66/115 429/174/382
f 428/173/381 430/175/383 163/67/116
f 163/67/116 161/65/114 428/173/381
f 431/176/384 429/174/382 160/66/115
f 160/66/115 162/68/117 431/176/384
f 430/175/383 432/98/385 165/69/118
f 165/69/118 163/67/116 430/175/383
f 433/177/386 431/176/384 162/68/117
f 162/68/117 164/70/119 433/177/386
f 432/98/385 434/178/387 167/71/120
f 167/71/120 165/69/118 432/98/385
f 435/179/388 433/177/386 164/70/119
f 164/70/119 166/72/121 435/179/388
f 434/178/387 436/180/389 169/73/122
f 169/73/122 167/71/120 434/178/387
f 437/181/390 435/179/388 166/72/121
f 166/72/121 168/74/123 437/181/390
f 436/180/389 438/182/391 171/75/124
f 171/75/124 169/73/122 436/180/389
f 439/183/392 437/181/390 168/74/123
f 168/74/123 170/76/125 439/183/392
f 438/182/391 440/122/393 173/77/126
f 173/77/126 171/75/124 438/182/391
f 441/184/394 439/183/392 170/76/125
f 170/76/125 172/78/127 441/184/394
f 440/122/393 442/185/395 175/79/128
f 175/79/128 173/77/126 440/122/393
f 443/186/396 441/184/394 172/78/127
f 172/78/127 174/80/129 443/186/396
f 442/185/395 444/187/397 177/81/130
f 177/81/130 175/79/128 442/185/395
f 445/188/398 443/186/396 174/80/129
f 174/80/129 176/82/131 445/188/398
f 444/187/397 446/189/399 179/83/132
f 179/83/132 177/81/130 444/187/397
f 447/190/400 445/188/398 176/82/131
f 176/82/131 178/84/133 447/190/400
f 446/189/399 448/191/401 181/85/134
f 181/85/134 179/83/132 446/189/399
f 449/192/402 447/190/400 178/84/133
f 178/84/133 180/86/135 449/192/402
f 448/191/401 450/193/403 183/87/136
f 183/87/136 181/85/134 448/191/401
f 451/194/404 449/192/402 180/86/135
f 180/86/135 182/88/137 451/194/404
f 450/193/403 452/195/405 185/89/138
f 185/89/138 183/87/136 450/193/403
f 453/196/406 451/194/404 182/88/137
f 182/88/137 184/90/139 453/196/406
f 452/195/405 454/197/407 187/91/140
f 187/91/140 185/89/138 452/195/405
f 455/198/408 453/196/406 184/90/139
f 184/90/139 186/92/141 455/198/408
f 454/197/407 456/199/409 189/93/142
f 189/93/142 187/91/140 454/197/407
f 457/200/410 455/198/408 186/92/141
f 186/92/141 188/94/143 457/200/410
f 456/199/409 398/146/351 130/35/84
f 130/35/84 189/93/142 456/199/409
f 401/149/354 457/200/410 188/94/143
f 188/94/143 133/38/87 401/149/354
f 458/201/411 460/202/412 459/203/413
f 459/203/413 461/204/414 458/201/411
f 461/204/414 459/203/413 462/205/415
f 462/205/415 463/206/416 461/204/414
f 463/206/416 462/205/415 464/207/417
f 464/207/417 465/208/418 463/206/416
f 466/209/419 468/210/420 467/211/25
f 460/202/412 469/212/421 459/203/413
f 469/212/421 471/213/422 470/214/423
f 470/214/423 459/203/413 469/212/421
f 459/203/413 470/214/423 472/215/424
f 472/215/424 462/205/415 459/203/413
f 462/205/415 472/215/424 473/216/425
f 473/216/425 464/207/417 462/205/415
f 468/210/420 474/217/426 467/211/25
f 471/213/422 475/218/427 470/214/423
f 475/218/427 477/219/428 476/220/429
f 476/220/429 470/214/423 475/218/427
f 470/214/423 476/220/429 478/221/430
f 478/221/430 472/215/424 470/214/423
f 472/215/424 478/221/430 479/222/431
f 479/222/431 473/216/425 472/215/424
f 474/217/426 480/223/432 467/211/25
f 477/219/428 481/224/433 476/220/429
f 481/224/433 483/225/434 482/226/435
f 482/226/435 476/220/429 481/224/433
f 476/220/429 482/226/435 484/227/436
f 484/227/436 478/221/430 476/220/429
f 478/221/430 484/227/436 485/228/437
f 485/228/437 479/222/431 478/221/430
f 480/223/432 486/229/438 467/211/25
f 483/225/434 487/230/439 482/226/435
f 487/230/439 489/231/440 488/232/441
f 488/232/441 482/226/435 487/230/439
f 482/226/435 488/232/441 490/233/442
f 490/233/442 484/227/436 482/226/435
f 484/227/436 490/233/442 491/234/443
f 491/234/443 485/228/437 484/227/436
f 486/229/438 492/235/444 467/211/25
f 489/231/440 493/236/445 488/232/441
f 493/236/445 495/237/446 494/238/447
f 494/238/447 488/232/441 493/236/445
f 488/232/441 494/238/447 496/239/448
f 496/239/448 490/233/442 488/232/441
f 490/233/442 496/239/448 497/240/449
f 497/240/449 491/234/443 490/233/442
f 492/235/444 498/241/450 467/211/25
f 495/237/446 499/242/451 494/238/447
f 499/242/451 501/243/452 500/244/453
f 500/244/453 494/238/447 499/242/451
f 494/238/447 500/244/453 502/245/454
f 502/245/454 496/239/448 494/238/447
f 496/239/448 502/245/454 503/246/455
f 503/246/455 497/240/449 496/239/448
f 498/241/450 504/247/456 467/211/25
f 501/243/452 505/248/457 500/244/453
f 505/248/457 507/249/458 506/250/459
f 506/250/459 500/244/453 505/248/457
f 500/244/453 506/250/459 508/251/460
f 508/251/460 502/245/454 500/244/453
f 502/245/454 508/251/460 509/252/461
f 509/252/461 503/246/455 502/245/454
f 504/247/456 510/253/462 467/211/25
f 507/249/458 511/254/463 506/250/459
f 511/254/463 513/255/464 512/256/465
f 512/256/465 506/250/459 511/254/463
f 506/250/459 512/256/465 514/257/466
f 514/257/466 508/251/460 506/250/459
f 508/251/460 514/257/466 515/258/467
f 515/258/467 509/252/461 508/251/460
f 510/253/462 516/259/468 467/211/25
f 513/255/464 517/260/469 512/256/465
f 517/260/469 518/261/470 461/204/414
f 461/204/414 512/256/465 517/260/469
f 512/256/465 461/204/414 463/206/416
f 463/206/416 514/257/466 512/256/465
f 514/257/466 463/206/416 465/208/418
f 465/208/418 515/258/467 514/257/466
f 516/259/468 466/209/419 467/211/25
f 518/261/470 458/201/411 461/204/414
f 465/208/418 464/207/417 468/210/420
f 468/210/420 466/209/419 465/208/418
f 464/207/417 473/216/425 474/217/426
f 474/217/426 468/210/420 464/207/417
f 473/216/425 479/222/431 480/223/432
f 480/223/432 474/217/426 473/216/425
f 479/222/431 485/228/437 486/229/438
f 486/229/438 480/223/432 479/222/431
f 485/228/437 491/234/443 492/235/444
f 492/235/444 486/229/438 485/228/437
f 491/234/443 497/240/449 498/241/450
f 498/241/450 492/235/444 491/234/443
f 497/240/449 503/246/455 504/247/456
f 504/247/456 498/241/450 497/240/449
f 503/246/455 509/252/461 510/253/462
f 510/253/462 504/247/456 503/246/455
f 509/252/461 515/258/467 516/259/468
f 516/259/468 510/253/462 509/252/461
f 515/258/467 465/208/418 466/209/419
f 466/209/419 516/259/468 515/258/467
f 519/262/471 520/263/472 460/202/412
f 460/202/412 521/212/473 519/262/471
f 520/263/472 522/262/474 469/212/421
f 469/212/421 460/202/412 520/263/472
f 522/262/474 524/263/475 523/202/476
f 523/202/476 469/212/421 522/262/474
f 524/263/475 526/262/477 525/212/478
f 525/212/478 523/202/476 524/263/475
f 526/262/477 528/263/479 527/202/480
f 527/202/480 525/212/478 526/262/477
f 528/263/479 530/262/481 529/212/482
f 529/212/482 527/202/480 528/263/479
f 530/262/481 532/263/483 531/202/484
f 531/202/484 529/212/482 530/262/481
f 532/263/483 534/262/485 533/212/486
f 533/212/486 531/202/484 532/263/483
f 534/262/485 536/263/487 535/202/488
f 535/202/488 533/212/486 534/262/485
f 536/263/487 538/262/489 537/212/490
f 537/212/490 535/202/488 536/263/487
f 538/262/489 540/263/491 539/202/492
f 539/202/492 537/212/490 538/262/489
f 540/263/491 542/262/493 541/212/494
f 541/212/494 539/202/492 540/263/491
f 542/262/493 544/263/495 543/202/496
f 543/202/496 541/212/494 542/262/493
f 544/263/495 546/262/497 545/212/498
f 545/212/498 543/202/496 544/263/495
f 546/262/497 548/263/499 547/202/500
f 547/202/500 545/212/498 546/262/497
f 548/263/499 550/262/501 549/212/502
f 549/212/502 547/202/500 548/263/499
f 550/262/501 552/263/503 551/202/504
f 551/202/504 549/212/502 550/262/501
f 552/263/503 554/262/505 553/212/506
f 553/212/506 551/202/504 552/263/503
f 554/262/505 556/263/507 555/202/508
f 555/202/508 553/212/506 554/262/505
f 556/263/507 519/262/471 521/212/473
f 521/212/473 555/202/508 556/263/507
f 557/264/509 558/265/510 522/262/474
f 522/262/474 520/263/472 557/264/509
f 559/266/511 561/267/512 560/268/513
f 559/266/511 560/268/513 558/265/510
f 557/264/509 563/269/514 562/270/515
f 558/265/510 557/264/509 562/270/515
f 559/266/511 558/265/510 562/270/515
f 564/265/516 557/264/509 520/263/472
f 520/263/472 519/262/471 564/265/516
f 565/270/517 563/269/514 557/264/509
f 565/270/517 557/264/509 564/265/516
f 566/268/518 568/267/519 567/266/520
f 564/265/516 566/268/518 567/266/520
f 565/270/517 564/265/516 567/266/520
f 569/264/521 564/265/516 519/262/471
f 519/262/471 556/263/507 569/264/521
f 570/266/522 571/267/523 566/268/518
f 570/266/522 566/268/518 564/265/516
f 569/264/521 573/269/524 572/270/525
f 564/265/516 569/264/521 572/270/525
f 570/266/522 564/265/516 572/270/525
f 574/265/526 569/264/521 556/263/507
f 556/263/507 554/262/505 574/265/526
f 575/270/527 573/269/524 569/264/521
f 575/270/527 569/264/521 574/265/526
f 576/268/528 578/267/529 577/266/530
f 574/265/526 576/268/528 577/266/530
f 575/270/527 574/265/526 577/266/530
f 579/264/531 574/265/526 554/262/505
f 554/262/505 552/263/503 579/264/531
f 580/266/532 581/267/533 576/268/528
f 580/266/532 576/268/528 574/265/526
f 579/264/531 583/269/534 582/270/535
f 574/265/526 579/264/531 582/270/535
f 580/266/532 574/265/526 582/270/535
f 584/265/536 579/264/531 552/263/503
f 552/263/503 550/262/501 584/265/536
f 585/270/537 583/269/534 579/264/531
f 585/270/537 579/264/531 584/265/536
f 586/268/538 588/267/539 587/266/540
f 584/265/536 586/268/538 587/266/540
f 585/270/537 584/265/536 587/266/540
f 589/264/541 584/265/536 550/262/501
f 550/262/501 548/263/499 589/264/541
f 590/266/542 591/267/543 586/268/538
f 590/266/542 586/268/538 584/265/536
f 589/264/541 593/269/544 592/270/545
f 584/265/536 589/264/541 592/270/545
f 590/266/542 584/265/536 592/270/545
f 594/265/546 589/264/541 548/263/499
f 548/263/499 546/262/497 594/265/546
f 595/270/547 593/269/544 589/264/541
f 595/270/547 589/264/541 594/265/546
f 596/268/548 598/267/549 597/266/549
f 594/265/546 596/268/548 597/266/549
f 595/270/547 594/265/546 597/266/549
f 599/264/550 594/265/546 546/262/497
f 546/262/497 544/263/495 599/264/550
f 600/266/551 601/267/552 596/268/548
f 600/266/551 596/268/548 594/265/546
f 599/264/550 603/269/553 602/270/554
f 594/265/546 599/264/550 602/270/554
f 600/266/551 594/265/546 602/270/554
f 604/265/555 599/264/550 544/263/495
f 544/263/495 542/262/493 604/265/555
f 605/270/556 603/269/553 599/264/550
f 605/270/556 599/264/550 604/265/555
f 606/268/557 608/267/558 607/266/559
f 604/265/555 606/268/557 607/266/559
f 605/270/556 604/265/555 607/266/559
f 609/264/560 604/265/555 542/262/493
f 542/262/493 540/263/491 609/264/560
f 610/266/561 611/267/562 606/268/557
f 610/266/561 606/268/557 604/265/555
f 609/264/560 613/269/563 612/270/564
f 604/265/555 609/264/560 612/270/564
f 610/266/561 604/265/555 612/270/564
f 614/265/565 609/264/560 540/263/491
f 540/263/491 538/262/489 614/265/565
f 615/270/566 613/269/563 609/264/560
f 615/270/566 609/264/560 614/265/565
f 616/268/567 618/267/568 617/266/569
f 614/265/565 616/268/567 617/266/569
f 615/270/566 614/265/565 617/266/569
f 619/264/570 614/265/565 538/262/489
f 538/262/489 536/263/487 619/264/570
f 620/266/571 621/267/572 616/268/567
f 620/266/571 616/268/567 614/265/565
f 619/264/570 623/269/573 622/270/574
f 614/265/565 619/264/570 622/270/574
f 620/266/571 614/265/565 622/270/574
f 624/265/575 619/264/570 536/263/487
f 536/263/487 534/262/485 624/265/575
f 625/270/576 623/269/573 619/264/570
f 625/270/576 619/264/570 624/265/575
f 626/268/577 628/267/578 627/266/579
f 624/265/575 626/268/577 627/266/579
f 625/270/576 624/265/575 627/266/579
f 629/264/580 624/265/575 534/262/485
f 534/262/485 532/263/483 629/264/580
f 630/266/581 631/267/582 626/268/577
f 630/266/581 626/268/577 624/265/575
f 629/264/580 633/269/583 632/270/584
f 624/265/575 629/264/580 632/270/584
f 630/266/581 624/265/575 632/270/584
f 634/265/585 629/264/580 532/263/483
f 532/263/483 530/262/481 634/265/585
f 635/270/586 633/269/583 629/264/580
f 635/270/586 629/264/580 634/265/585
f 636/268/587 638/267/588 637/266/589
f 634/265/585 636/268/587 637/266/589
f 635/270/586 634/265/585 637/266/589
f 639/264/590 634/265/585 530/262/481
f 530/262/481 528/263/479 639/264/590
f 640/266/591 641/267/592 636/268/587
f 640/266/591 636/268/587 634/265/585
f 639/264/590 643/269/593 642/270/594
f 634/265/585 639/264/590 642/270/594
f 640/266/591 634/265/585 642/270/594
f 644/265/595 639/264/590 528/263/479
f 528/263/479 526/262/477 644/265/595
f 645/270/596 643/269/593 639/264/590
f 645/270/596 639/264/590 644/265/595
f 646/268/597 648/267/598 647/266/599
f 644/265/595 646/268/597 647/266/599
f 645/270/596 644/265/595 647/266/599
f 649/264/600 644/265/595 526/262/477
f 526/262/477 524/263/475 649/264/600
f 650/266/601 651/267/602 646/268/597
f 650/266/601 646/268/597 644/265/595
f 649/264/600 653/269/603 652/270/604
f 644/265/595 649/264/600 652/270/604
f 650/266/601 644/265/595 652/270/604
f 558/265/510 649/264/600 524/263/475
f 524/263/475 522/262/474 558/265/510
f 654/270/605 653/269/603 649/264/600
f 654/270/605 649/264/600 558/265/510
f 560/268/513 656/267/606 655/266/607
f 558/265/510 560/268/513 655/266/607
f 654/270/605 558/265/510 655/266/607
f 657/271/608 659/272/609 658/273/610
f 658/273/610 660/274/611 657/271/608
f 659/272/609 662/275/612 661/276/613
f 661/276/613 658/273/610 659/272/609
f 662/275/612 664/277/614 663/278/615
f 663/278/615 661/276/613 662/275/612
f 665/279/616 667/280/617 666/281/618
f 666/281/618 668/282/619 665/279/616
f 667/280/617 670/283/620 669/284/621
f 669/284/621 666/281/618 667/280/617
f 670/283/620 672/285/622 671/286/623
f 671/286/623 669/284/621 670/283/620
f 660/274/611 658/273/610 673/287/624
f 673/287/624 674/288/625 660/274/611
f 658/273/610 661/276/613 675/289/626
f 675/289/626 673/287/624 658/273/610
f 661/276/613 663/278/615 676/290/627
f 676/290/627 675/289/626 661/276/613
f 674/288/625 673/287/624 667/280/617
f 667/280/617 665/279/616 674/288/625
f 673/287/624 675/289/626 670/283/620
f 670/283/620 667/280/617 673/287/624
f 675/289/626 676/290/627 672/285/622
f 672/285/622 670/283/620 675/289/626
f 677/271/628 679/272/629 678/273/630
f 678/273/630 680/274/631 677/271/628
f 679/272/629 682/275/632 681/276/633
f 681/276/633 678/273/630 679/272/629
f 682/275/632 684/277/634 683/278/635
f 683/278/635 681/276/633 682/275/632
f 685/279/636 687/280/637 686/281/638
f 686/281/638 688/282/639 685/279/636
f 687/280/637 690/283/640 689/284/641
f 689/284/641 686/281/638 687/280/637
f 690/283/640 692/285/642 691/286/643
f 691/286/643 689/284/641 690/283/640
f 680/274/631 678/273/630 693/287/644
f 693/287/644 694/288/645 680/274/631
f 678/273/630 681/276/633 695/289/646
f 695/289/646 693/287/644 678/273/630
f 681/276/633 683/278/635 696/290/647
f 696/290/647 695/289/646 681/276/633
f 694/288/645 693/287/644 687/280/637
f 687/280/637 685/279/636 694/288/645
f 693/287/644 695/289/646 690/283/640
f 690/283/640 687/280/637 693/287/644
f 695/289/646 696/290/647 692/285/642
f 692/285/642 690/283/640 695/289/646
f 697/271/648 699/272/649 698/273/650
f 698/273/650 700/274/651 697/271/648
f 699/272/649 702/275/652 701/276/653
f 701/276/653 698/273/650 699/272/649
f 702/275/652 704/277/654 703/278/655
f 703/278/655 701/276/653 702/275/652
f 705/279/656 707/280/657 706/281/658
f 706/281/658 708/282/659 705/279/656
f 707/280/657 710/283/660 709/284/661
f 709/284/661 706/281/658 707/280/657
f 710/283/660 712/285/662 711/286/663
f 711/286/663 709/284/661 710/283/660
f 700/274/651 698/273/650 713/287/664
f 713/287/664 714/288/665 700/274/651
f 698/273/650 701/276/653 715/289/666
f 715/289/666 713/287/664 698/273/650
f 701/276/653 703/278/655 716/290/667
f 716/290/667 715/289/666 701/276/653
f 714/288/665 713/287/664 707/280/657
f 707/280/657 705/279/656 714/288/665
f 713/287/664 715/289/666 710/283/660
f 710/283/660 707/280/657 713/287/664
f 715/289/666 716/290/667 712/285/662
f 712/285/662 710/283/660 715/289/666
f 717/271/668 719/272/669 718/273/670
f 718/273/670 720/274/671 717/271/668
f 719/272/669 722/275/672 721/276/673
f 721/276/673 718/273/670 719/272/669
f 722/275/672 724/277/674 723/278/675
f 723/278/675 721/276/673 722/275/672
f 725/279/676 727/280/677 726/281/678
f 726/281/678 728/282/679 725/279/676
f 727/280/677 730/283/680 729/284/681
f 729/284/681 726/281/678 727/280/677
f 730/283/680 732/285/682 731/286/683
f 731/286/683 729/284/681 730/283/680
f 720/274/671 718/273/670 733/287/684
f 733/287/684 734/288/685 720/274/671
f 718/273/670 721/276/673 735/289/686
f 735/289/686 733/287/684 718/273/670
f 721/276/673 723/278/675 736/290/687
f 736/290/687 735/289/686 721/276/673
f 734/288/685 733/287/684 727/280/677
f 727/280/677 725/279/676 734/288/685
f 733/287/684 735/289/686 730/283/680
f 730/283/680 727/280/677 733/287/684
f 735/289/686 736/290/687 732/285/682
f 732/285/682 730/283/680 735/289/686
f 737/271/688 739/272/689 738/273/690
f 738/273/690 740/274/691 737/271/688
f 739/272/689 742/275/692 741/276/693
f 741/276/693 738/273/690 739/272/689
f 742/275/692 744/277/694 743/278/695
f 743/278/695 741/276/693 742/275/692
f 745/279/696 747/280/697 746/281/698
f 746/281/698 748/282/699 745/279/696
f 747/280/697 750/283/700 749/284/701
f 749/284/701 746/281/698 747/280/697
f 750/283/700 752/285/702 751/286/703
f 751/286/703 749/284/701 750/283/700
f 740/274/691 738/273/690 753/287/704
f 753/287/704 754/288/705 740/274/691
f 738/273/690 741/276/693 755/289/706
f 755/289/706 753/287/704 738/273/690
f 741/276/693 743/278/695 756/290/707
f 756/290/707 755/289/706 741/276/693
f 754/288/705 753/287/704 747/280/697
f 747/280/697 745/279/696 754/288/705
f 753/287/704 755/289/706 750/283/700
f 750/283/700 747/280/697 753/287/704
f 755/289/706 756/290/707 752/285/702
f 752/285/702 750/283/700 755/289/706
f 757/271/708 759/272/709 758/273/710
f 758/273/710 760/274/711 757/271/708
f 759/272/709 762/275/712 761/276/713
f 761/276/713 758/273/710 759/272/709
f 762/275/712 764/277/714 763/278/715
f 763/278/715 761/276/713 762/275/712
f 765/279/716 767/280/717 766/281/718
f 766/281/718 768/282/719 765/279/716
f 767/280/717 770/283/720 769/284/721
f 769/284/721 766/281/718 767/280/717
f 770/283/720 772/285/722 771/286/723
f 771/286/723 769/284/721 770/283/720
f 760/274/711 758/273/710 773/287/724
f 773/287/724 774/288/725 760/274/711
f 758/273/710 761/276/713 775/289/726
f 775/289/726 773/287/724 758/273/710
f 761/276/713 763/278/715 776/290/727
f 776/290/727 775/289/726 761/276/713
f 774/288/725 773/287/724 767/280/717
f 767/280/717 765/279/716 774/288/725
f 773/287/724 775/289/726 770/283/720
f 770/283/720 767/280/717 773/287/724
f 775/289/726 776/290/727 772/285/722
f 772/285/722 770/283/720 775/289/726
f 777/271/728 779/272/729 778/273/730
f 778/273/730 780/274/731 777/271/728
f 779/272/729 782/275/732 781/276/733
f 781/276/733 778/273/730 779/272/729
f 782/275/732 784/277/734 783/278/735
f 783/278/735 781/276/733 782/275/732
f 785/279/736 787/280/737 786/281/738
f 786/281/738 788/282/739 785/279/736
f 787/280/737 790/283/740 789/284/741
f 789/284/741 786/281/738 787/280/737
f 790/283/740 792/285/742 791/286/743
f 791/286/743 789/284/741 790/283/740
f 780/274/731 778/273/730 793/287/744
f 793/287/744 794/288/745 780/274/731
f 778/273/730 781/276/733 795/289/746
f 795/289/746 793/287/744 778/273/730
f 781/276/733 783/278/735 796/290/747
f 796/290/747 795/289/746 781/276/733
f 794/288/745 793/287/744 787/280/737
f 787/280/737 785/279/736 794/288/745
f 793/287/744 795/289/746 790/283/740
f 790/283/740 787/280/737 793/287/744
f 795/289/746 796/290/747 792/285/742
f 792/285/742 790/283/740 795/289/746
f 797/271/748 799/272/749 798/273/750
f 798/273/750 800/274/751 797/271/748
f 799/272/749 802/275/752 801/276/753
f 801/276/753 798/273/750 799/272/749
f 802/275/752 804/277/754 803/278/755
f 803/278/755 801/276/753 802/275/752
f 805/279/756 807/280/757 806/281/758
f 806/281/758 808/282/759 805/279/756
f 807/280/757 810/283/760 809/284/761
f 809/284/761 806/281/758 807/280/757
f 810/283/760 812/285/762 811/286/763
f 811/286/763 809/284/761 810/283/760
f 800/274/751 798/273/750 813/287/764
f 813/287/764 814/288/765 800/274/751
f 798/273/750 801/276/753 815/289/766
f 815/289/766 813/287/764 798/273/750
f 801/276/753 803/278/755 816/290/767
f 816/290/767 815/289/766 801/276/753
f 814/288/765 813/287/764 807/280/757
f 807/280/757 805/279/756 814/288/765
f 813/287/764 815/289/766 810/283/760
f 810/283/760 807/280/757 813/287/764
f 815/289/766 816/290/767 812/285/762
f 812/285/762 810/283/760 815/289/766
f 817/271/768 819/272/769 818/273/770
f 818/273/770 820/274/771 817/271/768
f 819/272/769 822/275/772 821/276/773
f 821/276/773 818/273/770 819/272/769
f 822/275/772 824/277/774 823/278/775
f 823/278/775 821/276/773 822/275/772
f 825/279/776 827/280/777 826/281/778
f 826/281/778 828/282/779 825/279/776
f 827/280/777 830/283/780 829/284/781
f 829/284/781 826/281/778 827/280/777
f 830/283/780 832/285/782 831/286/783
f 831/286/783 829/284/781 830/283/780
f 820/274/771 818/273/770 833/287/784
f 833/287/784 834/288/785 820/274/771
f 818/273/770 821/276/773 835/289/786
f 835/289/786 833/287/784 818/273/770
f 821/276/773 823/278/775 836/290/787
f 836/290/787 835/289/786 821/276/773
f 834/288/785 833/287/784 827/280/777
f 827/280/777 825/279/776 834/288/785
f 833/287/784 835/289/786 830/283/780
f 830/283/780 827/280/777 833/287/784
f 835/289/786 836/290/787 832/285/782
f 832/285/782 830/283/780 835/289/786
f 837/271/788 839/272/789 838/273/790
f 838/273/790 840/274/791 837/271/788
f 839/272/789 842/275/792 841/276/793
f 841/276/793 838/273/790 839/272/789
f 842/275/792 844/277/794 843/278/795
f 843/278/795 841/276/793 842/275/792
f 845/279/796 847/280/797 846/281/798
f 846/281/798 848/282/799 845/279/796
f 847/280/797 850/283/800 849/284/801
f 849/284/801 846/281/798 847/280/797
f 850/283/800 852/285/802 851/286/803
f 851/286/803 849/284/801 850/283/800
f 840/274/791 838/273/790 853/287/804
f 853/287/804 854/288/805 840/274/791
f 838/273/790 841/276/793 855/289/806
f 855/289/806 853/287/804 838/273/790
f 841/276/793 843/278/795 856/290/807
f 856/290/807 855/289/806 841/276/793
f 854/288/805 853/287/804 847/280/797
f 847/280/797 845/279/796 854/288/805
f 853/287/804 855/289/806 850/283/800
f 850/283/800 847/280/797 853/287/804
f 855/289/806 856/290/807 852/285/802
f 852/285/802 850/283/800 855/289/806
f 857/291/808 858/291/809 659/272/609
f 659/272/609 657/271/608 857/291/808
f 859/291/810 857/291/808 784/277/734
f 784/277/734 782/275/732 859/291/810
f 860/291/811 859/291/810 782/275/732
f 782/275/732 779/272/729 860/291/811
f 861/291/812 860/291/811 779/272/729
f 779/272/729 777/271/728 861/291/812
f 862/291/813 861/291/814 804/277/754
f 804/277/754 802/275/752 862/291/813
f 863/291/815 862/291/813 802/275/752
f 802/275/752 799/272/749 863/291/815
f 864/291/816 863/291/815 799/272/749
f 799/272/749 797/271/748 864/291/816
f 865/291/817 864/291/816 824/277/774
f 824/277/774 822/275/772 865/291/817
f 866/291/818 865/291/817 822/275/772
f 822/275/772 819/272/769 866/291/818
f 867/291/819 866/291/818 819/272/769
f 819/272/769 817/271/768 867/291/819
f 868/291/820 867/291/821 844/277/794
f 844/277/794 842/275/792 868/291/820
f 869/292/822 868/291/820 842/275/792
f 842/275/792 839/272/789 869/292/822
f 870/291/823 869/292/822 839/272/789
f 839/272/789 837/271/788 870/291/823
f 871/291/824 870/291/825 684/277/634
f 684/277/634 682/275/632 871/291/824
f 872/291/826 871/291/824 682/275/632
f 682/275/632 679/272/629 872/291/826
f 873/291/827 872/291/826 679/272/629
f 679/272/629 677/271/628 873/291/827
f 874/291/828 873/291/827 704/277/654
f 704/277/654 702/275/652 874/291/828
f 875/291/829 874/291/828 702/275/652
f 702/275/652 699/272/649 875/291/829
f 876/291/830 875/291/829 699/272/649
f 699/272/649 697/271/648 876/291/830
f 877/291/831 876/291/830 724/277/674
f 724/277/674 722/275/672 877/291/831
f 878/291/832 877/291/831 722/275/672
f 722/275/672 719/272/669 878/291/832
f 879/291/833 878/291/832 719/272/669
f 719/272/669 717/271/668 879/291/833
f 880/291/834 879/291/835 744/277/694
f 744/277/694 742/275/692 880/291/834
f 881/291/836 880/291/834 742/275/692
f 742/275/692 739/272/689 881/291/836
f 882/291/837 881/291/836 739/272/689
f 739/272/689 737/271/688 882/291/837
f 883/291/838 882/291/837 764/277/714
f 764/277/714 762/275/712 883/291/838
f 884/291/839 883/291/838 762/275/712
f 762/275/712 759/272/709 884/291/839
f 885/291/840 884/291/839 759/272/709
f 759/272/709 757/271/708 885/291/840
f 886/291/841 885/291/840 664/277/614
f 664/277/614 662/275/612 886/291/841
f 858/291/809 886/291/841 662/275/612
f 662/275/612 659/272/609 858/291/809
